<?xml version="1.0" encoding="UTF-8" standalone="no"?><svg xmlns="http://www.w3.org/2000/svg" xmlns:xlink="http://www.w3.org/1999/xlink" contentScriptType="application/ecmascript" contentStyleType="text/css" height="334px" preserveAspectRatio="none" style="width:173px;height:334px;" version="1.1" viewBox="0 0 173 334" width="173px" zoomAndPan="magnify"><defs><filter height="300%" id="f1saqaokquw8cp" width="300%" x="-1" y="-1"><feGaussianBlur result="blurOut" stdDeviation="2.0"/><feColorMatrix in="blurOut" result="blurOut2" type="matrix" values="0 0 0 0 0 0 0 0 0 0 0 0 0 0 0 0 0 0 .4 0"/><feOffset dx="4.0" dy="4.0" in="blurOut2" result="blurOut3"/><feBlend in="SourceGraphic" in2="blurOut3" mode="normal"/></filter></defs><g><!--MD5=[ee4319386a2911cf17b83cbc00b60755]
class CameraController--><rect fill="#FEFECE" filter="url(#f1saqaokquw8cp)" height="99.2188" id="CameraController" style="stroke: #A80036; stroke-width: 1.5;" width="156" x="6" y="116"/><ellipse cx="27.75" cy="132" fill="#ADD1B2" rx="11" ry="11" style="stroke: #A80036; stroke-width: 1.0;"/><path d="M30.7188,137.6406 Q30.1406,137.9375 29.5,138.0781 Q28.8594,138.2344 28.1563,138.2344 Q25.6563,138.2344 24.3281,136.5938 Q23.0156,134.9375 23.0156,131.8125 Q23.0156,128.6875 24.3281,127.0313 Q25.6563,125.375 28.1563,125.375 Q28.8594,125.375 29.5,125.5313 Q30.1563,125.6875 30.7188,125.9844 L30.7188,128.7031 Q30.0938,128.125 29.5,127.8594 Q28.9063,127.5781 28.2813,127.5781 Q26.9375,127.5781 26.25,128.6563 Q25.5625,129.7188 25.5625,131.8125 Q25.5625,133.9063 26.25,134.9844 Q26.9375,136.0469 28.2813,136.0469 Q28.9063,136.0469 29.5,135.7813 Q30.0938,135.5 30.7188,134.9219 L30.7188,137.6406 Z "/><text fill="#000000" font-family="sans-serif" font-size="12" lengthAdjust="spacingAndGlyphs" textLength="109" x="43.25" y="136.1543">CameraController</text><line style="stroke: #A80036; stroke-width: 1.5;" x1="7" x2="161" y1="148" y2="148"/><rect fill="none" height="6" style="stroke: #C82930; stroke-width: 1.0;" width="6" x="14" y="156"/><text fill="#000000" font-family="sans-serif" font-size="11" lengthAdjust="spacingAndGlyphs" textLength="103" x="26" y="162.2104">_min : float = 0.0f</text><rect fill="none" height="6" style="stroke: #C82930; stroke-width: 1.0;" width="6" x="14" y="168.8047"/><text fill="#000000" font-family="sans-serif" font-size="11" lengthAdjust="spacingAndGlyphs" textLength="67" x="26" y="175.0151">_max : float</text><line style="stroke: #A80036; stroke-width: 1.5;" x1="7" x2="161" y1="181.6094" y2="181.6094"/><rect fill="#F24D5C" height="6" style="stroke: #C82930; stroke-width: 1.0;" width="6" x="14" y="189.6094"/><text fill="#000000" font-family="sans-serif" font-size="11" lengthAdjust="spacingAndGlyphs" textLength="83" x="26" y="195.8198">Update() : void</text><rect fill="#F24D5C" height="6" style="stroke: #C82930; stroke-width: 1.0;" width="6" x="14" y="202.4141"/><text fill="#000000" font-family="sans-serif" font-size="11" lengthAdjust="spacingAndGlyphs" textLength="130" x="26" y="208.6245">OnDrawGizmos() : void</text><!--MD5=[83b3cf3d23d77c6f1e1b5291a241bc2a]
class MonoBehaviour--><rect fill="#FEFECE" filter="url(#f1saqaokquw8cp)" height="48" id="MonoBehaviour" style="stroke: #A80036; stroke-width: 1.5;" width="128" x="20" y="8"/><ellipse cx="35" cy="24" fill="#ADD1B2" rx="11" ry="11" style="stroke: #A80036; stroke-width: 1.0;"/><path d="M37.9688,29.6406 Q37.3906,29.9375 36.75,30.0781 Q36.1094,30.2344 35.4063,30.2344 Q32.9063,30.2344 31.5781,28.5938 Q30.2656,26.9375 30.2656,23.8125 Q30.2656,20.6875 31.5781,19.0313 Q32.9063,17.375 35.4063,17.375 Q36.1094,17.375 36.75,17.5313 Q37.4063,17.6875 37.9688,17.9844 L37.9688,20.7031 Q37.3438,20.125 36.75,19.8594 Q36.1563,19.5781 35.5313,19.5781 Q34.1875,19.5781 33.5,20.6563 Q32.8125,21.7188 32.8125,23.8125 Q32.8125,25.9063 33.5,26.9844 Q34.1875,28.0469 35.5313,28.0469 Q36.1563,28.0469 36.75,27.7813 Q37.3438,27.5 37.9688,26.9219 L37.9688,29.6406 Z "/><text fill="#000000" font-family="sans-serif" font-size="12" lengthAdjust="spacingAndGlyphs" textLength="96" x="49" y="28.1543">MonoBehaviour</text><line style="stroke: #A80036; stroke-width: 1.5;" x1="21" x2="147" y1="40" y2="40"/><line style="stroke: #A80036; stroke-width: 1.5;" x1="21" x2="147" y1="48" y2="48"/><!--MD5=[32756bd98ce6dc32445a57cd0ec72cb5]
class PlayerController2D--><rect fill="#FEFECE" filter="url(#f1saqaokquw8cp)" height="48" id="PlayerController2D" style="stroke: #A80036; stroke-width: 1.5;" width="148" x="10" y="275"/><ellipse cx="25" cy="291" fill="#ADD1B2" rx="11" ry="11" style="stroke: #A80036; stroke-width: 1.0;"/><path d="M27.9688,296.6406 Q27.3906,296.9375 26.75,297.0781 Q26.1094,297.2344 25.4063,297.2344 Q22.9063,297.2344 21.5781,295.5938 Q20.2656,293.9375 20.2656,290.8125 Q20.2656,287.6875 21.5781,286.0313 Q22.9063,284.375 25.4063,284.375 Q26.1094,284.375 26.75,284.5313 Q27.4063,284.6875 27.9688,284.9844 L27.9688,287.7031 Q27.3438,287.125 26.75,286.8594 Q26.1563,286.5781 25.5313,286.5781 Q24.1875,286.5781 23.5,287.6563 Q22.8125,288.7188 22.8125,290.8125 Q22.8125,292.9063 23.5,293.9844 Q24.1875,295.0469 25.5313,295.0469 Q26.1563,295.0469 26.75,294.7813 Q27.3438,294.5 27.9688,293.9219 L27.9688,296.6406 Z "/><text fill="#000000" font-family="sans-serif" font-size="12" lengthAdjust="spacingAndGlyphs" textLength="116" x="39" y="295.1543">PlayerController2D</text><line style="stroke: #A80036; stroke-width: 1.5;" x1="11" x2="157" y1="307" y2="307"/><line style="stroke: #A80036; stroke-width: 1.5;" x1="11" x2="157" y1="315" y2="315"/><!--MD5=[7f93bdb6007512fd3bad16b08750be2c]
reverse link MonoBehaviour to CameraController--><path d="M84,76.51 C84,89.14 84,103.01 84,115.93 " fill="none" id="MonoBehaviour&lt;-CameraController" style="stroke: #A80036; stroke-width: 1.0;"/><polygon fill="none" points="77,76.21,84,56.21,91,76.21,77,76.21" style="stroke: #A80036; stroke-width: 1.0;"/><!--MD5=[8f0725164c062db2e19833054b8bce58]
link CameraController to PlayerController2D--><path d="M84,215.09 C84,233.5 84,253.83 84,269.75 " fill="none" id="CameraController-&gt;PlayerController2D" style="stroke: #A80036; stroke-width: 1.0;"/><polygon fill="#A80036" points="84,274.98,88,265.98,84,269.98,80,265.98,84,274.98" style="stroke: #A80036; stroke-width: 1.0;"/><text fill="#000000" font-family="sans-serif" font-size="13" lengthAdjust="spacingAndGlyphs" textLength="41" x="37.7469" y="263.9869">Target</text><!--MD5=[a118f6e254d06563fa1015d119eeef6d]
@startuml
class CameraController {
    - _min : float = 0.0f
    - _max : float
    - Update() : void
    - OnDrawGizmos() : void
}
MonoBehaviour <|- - CameraController
CameraController - -> "Target" PlayerController2D
@enduml

PlantUML version 1.2020.02(Sun Mar 01 10:22:07 GMT 2020)
(GPL source distribution)
Java Runtime: OpenJDK Runtime Environment
JVM: OpenJDK 64-Bit Server VM
Java Version: 11.0.9+11-Ubuntu-0ubuntu1
Operating System: Linux
Default Encoding: ANSI_X3.4-1968
Language: en
Country: US
--></g></svg>