<?xml version="1.0" encoding="UTF-8" standalone="no"?><svg xmlns="http://www.w3.org/2000/svg" xmlns:xlink="http://www.w3.org/1999/xlink" contentScriptType="application/ecmascript" contentStyleType="text/css" height="283px" preserveAspectRatio="none" style="width:165px;height:283px;" version="1.1" viewBox="0 0 165 283" width="165px" zoomAndPan="magnify"><defs><filter height="300%" id="f10vgyoq13lia7" width="300%" x="-1" y="-1"><feGaussianBlur result="blurOut" stdDeviation="2.0"/><feColorMatrix in="blurOut" result="blurOut2" type="matrix" values="0 0 0 0 0 0 0 0 0 0 0 0 0 0 0 0 0 0 .4 0"/><feOffset dx="4.0" dy="4.0" in="blurOut2" result="blurOut3"/><feBlend in="SourceGraphic" in2="blurOut3" mode="normal"/></filter></defs><g><!--MD5=[ee4319386a2911cf17b83cbc00b60755]
class CameraController--><rect fill="#FEFECE" filter="url(#f10vgyoq13lia7)" height="48" id="CameraController" style="stroke: #A80036; stroke-width: 1.5;" width="141" x="9.5" y="116"/><ellipse cx="24.5" cy="132" fill="#ADD1B2" rx="11" ry="11" style="stroke: #A80036; stroke-width: 1.0;"/><path d="M27.4688,137.6406 Q26.8906,137.9375 26.25,138.0781 Q25.6094,138.2344 24.9063,138.2344 Q22.4063,138.2344 21.0781,136.5938 Q19.7656,134.9375 19.7656,131.8125 Q19.7656,128.6875 21.0781,127.0313 Q22.4063,125.375 24.9063,125.375 Q25.6094,125.375 26.25,125.5313 Q26.9063,125.6875 27.4688,125.9844 L27.4688,128.7031 Q26.8438,128.125 26.25,127.8594 Q25.6563,127.5781 25.0313,127.5781 Q23.6875,127.5781 23,128.6563 Q22.3125,129.7188 22.3125,131.8125 Q22.3125,133.9063 23,134.9844 Q23.6875,136.0469 25.0313,136.0469 Q25.6563,136.0469 26.25,135.7813 Q26.8438,135.5 27.4688,134.9219 L27.4688,137.6406 Z "/><text fill="#000000" font-family="sans-serif" font-size="12" lengthAdjust="spacingAndGlyphs" textLength="109" x="38.5" y="136.1543">CameraController</text><line style="stroke: #A80036; stroke-width: 1.5;" x1="10.5" x2="149.5" y1="148" y2="148"/><line style="stroke: #A80036; stroke-width: 1.5;" x1="10.5" x2="149.5" y1="156" y2="156"/><!--MD5=[83b3cf3d23d77c6f1e1b5291a241bc2a]
class MonoBehaviour--><rect fill="#FEFECE" filter="url(#f10vgyoq13lia7)" height="48" id="MonoBehaviour" style="stroke: #A80036; stroke-width: 1.5;" width="128" x="16" y="8"/><ellipse cx="31" cy="24" fill="#ADD1B2" rx="11" ry="11" style="stroke: #A80036; stroke-width: 1.0;"/><path d="M33.9688,29.6406 Q33.3906,29.9375 32.75,30.0781 Q32.1094,30.2344 31.4063,30.2344 Q28.9063,30.2344 27.5781,28.5938 Q26.2656,26.9375 26.2656,23.8125 Q26.2656,20.6875 27.5781,19.0313 Q28.9063,17.375 31.4063,17.375 Q32.1094,17.375 32.75,17.5313 Q33.4063,17.6875 33.9688,17.9844 L33.9688,20.7031 Q33.3438,20.125 32.75,19.8594 Q32.1563,19.5781 31.5313,19.5781 Q30.1875,19.5781 29.5,20.6563 Q28.8125,21.7188 28.8125,23.8125 Q28.8125,25.9063 29.5,26.9844 Q30.1875,28.0469 31.5313,28.0469 Q32.1563,28.0469 32.75,27.7813 Q33.3438,27.5 33.9688,26.9219 L33.9688,29.6406 Z "/><text fill="#000000" font-family="sans-serif" font-size="12" lengthAdjust="spacingAndGlyphs" textLength="96" x="45" y="28.1543">MonoBehaviour</text><line style="stroke: #A80036; stroke-width: 1.5;" x1="17" x2="143" y1="40" y2="40"/><line style="stroke: #A80036; stroke-width: 1.5;" x1="17" x2="143" y1="48" y2="48"/><!--MD5=[32756bd98ce6dc32445a57cd0ec72cb5]
class PlayerController2D--><rect fill="#FEFECE" filter="url(#f10vgyoq13lia7)" height="48" id="PlayerController2D" style="stroke: #A80036; stroke-width: 1.5;" width="148" x="6" y="224"/><ellipse cx="21" cy="240" fill="#ADD1B2" rx="11" ry="11" style="stroke: #A80036; stroke-width: 1.0;"/><path d="M23.9688,245.6406 Q23.3906,245.9375 22.75,246.0781 Q22.1094,246.2344 21.4063,246.2344 Q18.9063,246.2344 17.5781,244.5938 Q16.2656,242.9375 16.2656,239.8125 Q16.2656,236.6875 17.5781,235.0313 Q18.9063,233.375 21.4063,233.375 Q22.1094,233.375 22.75,233.5313 Q23.4063,233.6875 23.9688,233.9844 L23.9688,236.7031 Q23.3438,236.125 22.75,235.8594 Q22.1563,235.5781 21.5313,235.5781 Q20.1875,235.5781 19.5,236.6563 Q18.8125,237.7188 18.8125,239.8125 Q18.8125,241.9063 19.5,242.9844 Q20.1875,244.0469 21.5313,244.0469 Q22.1563,244.0469 22.75,243.7813 Q23.3438,243.5 23.9688,242.9219 L23.9688,245.6406 Z "/><text fill="#000000" font-family="sans-serif" font-size="12" lengthAdjust="spacingAndGlyphs" textLength="116" x="35" y="244.1543">PlayerController2D</text><line style="stroke: #A80036; stroke-width: 1.5;" x1="7" x2="153" y1="256" y2="256"/><line style="stroke: #A80036; stroke-width: 1.5;" x1="7" x2="153" y1="264" y2="264"/><!--MD5=[7f93bdb6007512fd3bad16b08750be2c]
reverse link MonoBehaviour to CameraController--><path d="M80,76.02 C80,89.58 80,104.04 80,115.68 " fill="none" id="MonoBehaviour&lt;-CameraController" style="stroke: #A80036; stroke-width: 1.0;"/><polygon fill="none" points="73,76,80,56,87,76,73,76" style="stroke: #A80036; stroke-width: 1.0;"/><!--MD5=[8f0725164c062db2e19833054b8bce58]
link CameraController to PlayerController2D--><path d="M80,164 C80,180 80,201.45 80,218.53 " fill="none" id="CameraController-&gt;PlayerController2D" style="stroke: #A80036; stroke-width: 1.0;"/><polygon fill="#A80036" points="80,223.68,84,214.68,80,218.68,76,214.68,80,223.68" style="stroke: #A80036; stroke-width: 1.0;"/><text fill="#000000" font-family="sans-serif" font-size="13" lengthAdjust="spacingAndGlyphs" textLength="41" x="34.0031" y="213.007">Target</text><!--MD5=[1ff3505ee158f695d6bb543d9c654ab5]
@startuml
class CameraController {
}
MonoBehaviour <|- - CameraController
CameraController - -> "Target" PlayerController2D
@enduml

PlantUML version 1.2020.02(Sun Mar 01 10:22:07 GMT 2020)
(GPL source distribution)
Java Runtime: OpenJDK Runtime Environment
JVM: OpenJDK 64-Bit Server VM
Java Version: 11.0.9+11-Ubuntu-0ubuntu1
Operating System: Linux
Default Encoding: ANSI_X3.4-1968
Language: en
Country: US
--></g></svg>