<?xml version="1.0" encoding="UTF-8" standalone="no"?><svg xmlns="http://www.w3.org/2000/svg" xmlns:xlink="http://www.w3.org/1999/xlink" contentScriptType="application/ecmascript" contentStyleType="text/css" height="296px" preserveAspectRatio="none" style="width:337px;height:296px;" version="1.1" viewBox="0 0 337 296" width="337px" zoomAndPan="magnify"><defs><filter height="300%" id="f1epuwfxs3ahip" width="300%" x="-1" y="-1"><feGaussianBlur result="blurOut" stdDeviation="2.0"/><feColorMatrix in="blurOut" result="blurOut2" type="matrix" values="0 0 0 0 0 0 0 0 0 0 0 0 0 0 0 0 0 0 .4 0"/><feOffset dx="4.0" dy="4.0" in="blurOut2" result="blurOut3"/><feBlend in="SourceGraphic" in2="blurOut3" mode="normal"/></filter></defs><g><!--MD5=[29b220ed522970ad342efc4a9bc1a23a]
class LeaderboardManager--><rect fill="#FEFECE" filter="url(#f1epuwfxs3ahip)" height="60.8047" id="LeaderboardManager" style="stroke: #A80036; stroke-width: 1.5;" width="167" x="37.07" y="116"/><ellipse cx="52.07" cy="132" fill="#ADD1B2" rx="11" ry="11" style="stroke: #A80036; stroke-width: 1.0;"/><path d="M55.0388,137.6406 Q54.4606,137.9375 53.82,138.0781 Q53.1794,138.2344 52.4763,138.2344 Q49.9763,138.2344 48.6481,136.5938 Q47.3356,134.9375 47.3356,131.8125 Q47.3356,128.6875 48.6481,127.0313 Q49.9763,125.375 52.4763,125.375 Q53.1794,125.375 53.82,125.5313 Q54.4763,125.6875 55.0388,125.9844 L55.0388,128.7031 Q54.4138,128.125 53.82,127.8594 Q53.2263,127.5781 52.6013,127.5781 Q51.2575,127.5781 50.57,128.6563 Q49.8825,129.7188 49.8825,131.8125 Q49.8825,133.9063 50.57,134.9844 Q51.2575,136.0469 52.6013,136.0469 Q53.2263,136.0469 53.82,135.7813 Q54.4138,135.5 55.0388,134.9219 L55.0388,137.6406 Z "/><text fill="#000000" font-family="sans-serif" font-size="12" lengthAdjust="spacingAndGlyphs" textLength="135" x="66.07" y="136.1543">LeaderboardManager</text><line style="stroke: #A80036; stroke-width: 1.5;" x1="38.07" x2="203.07" y1="148" y2="148"/><line style="stroke: #A80036; stroke-width: 1.5;" x1="38.07" x2="203.07" y1="156" y2="156"/><text fill="#000000" font-family="sans-serif" font-size="11" lengthAdjust="spacingAndGlyphs" textLength="71" x="43.07" y="170.2104">Start() : void</text><!--MD5=[83b3cf3d23d77c6f1e1b5291a241bc2a]
class MonoBehaviour--><rect fill="#FEFECE" filter="url(#f1epuwfxs3ahip)" height="48" id="MonoBehaviour" style="stroke: #A80036; stroke-width: 1.5;" width="128" x="56.57" y="8"/><ellipse cx="71.57" cy="24" fill="#ADD1B2" rx="11" ry="11" style="stroke: #A80036; stroke-width: 1.0;"/><path d="M74.5388,29.6406 Q73.9606,29.9375 73.32,30.0781 Q72.6794,30.2344 71.9763,30.2344 Q69.4763,30.2344 68.1481,28.5938 Q66.8356,26.9375 66.8356,23.8125 Q66.8356,20.6875 68.1481,19.0313 Q69.4763,17.375 71.9763,17.375 Q72.6794,17.375 73.32,17.5313 Q73.9763,17.6875 74.5388,17.9844 L74.5388,20.7031 Q73.9138,20.125 73.32,19.8594 Q72.7263,19.5781 72.1013,19.5781 Q70.7575,19.5781 70.07,20.6563 Q69.3825,21.7188 69.3825,23.8125 Q69.3825,25.9063 70.07,26.9844 Q70.7575,28.0469 72.1013,28.0469 Q72.7263,28.0469 73.32,27.7813 Q73.9138,27.5 74.5388,26.9219 L74.5388,29.6406 Z "/><text fill="#000000" font-family="sans-serif" font-size="12" lengthAdjust="spacingAndGlyphs" textLength="96" x="85.57" y="28.1543">MonoBehaviour</text><line style="stroke: #A80036; stroke-width: 1.5;" x1="57.57" x2="183.57" y1="40" y2="40"/><line style="stroke: #A80036; stroke-width: 1.5;" x1="57.57" x2="183.57" y1="48" y2="48"/><!--MD5=[281c999374e61fd3a46e672fb26d53ea]
class RectTransform--><rect fill="#FEFECE" filter="url(#f1epuwfxs3ahip)" height="48" id="RectTransform" style="stroke: #A80036; stroke-width: 1.5;" width="123" x="59.07" y="237"/><ellipse cx="74.07" cy="253" fill="#ADD1B2" rx="11" ry="11" style="stroke: #A80036; stroke-width: 1.0;"/><path d="M77.0388,258.6406 Q76.4606,258.9375 75.82,259.0781 Q75.1794,259.2344 74.4763,259.2344 Q71.9763,259.2344 70.6481,257.5938 Q69.3356,255.9375 69.3356,252.8125 Q69.3356,249.6875 70.6481,248.0313 Q71.9763,246.375 74.4763,246.375 Q75.1794,246.375 75.82,246.5313 Q76.4763,246.6875 77.0388,246.9844 L77.0388,249.7031 Q76.4138,249.125 75.82,248.8594 Q75.2263,248.5781 74.6013,248.5781 Q73.2575,248.5781 72.57,249.6563 Q71.8825,250.7188 71.8825,252.8125 Q71.8825,254.9063 72.57,255.9844 Q73.2575,257.0469 74.6013,257.0469 Q75.2263,257.0469 75.82,256.7813 Q76.4138,256.5 77.0388,255.9219 L77.0388,258.6406 Z "/><text fill="#000000" font-family="sans-serif" font-size="12" lengthAdjust="spacingAndGlyphs" textLength="91" x="88.07" y="257.1543">RectTransform</text><line style="stroke: #A80036; stroke-width: 1.5;" x1="60.07" x2="181.07" y1="269" y2="269"/><line style="stroke: #A80036; stroke-width: 1.5;" x1="60.07" x2="181.07" y1="277" y2="277"/><!--MD5=[064f7a74fee85463ec1a30143664ee17]
class GameObject--><rect fill="#FEFECE" filter="url(#f1epuwfxs3ahip)" height="48" id="GameObject" style="stroke: #A80036; stroke-width: 1.5;" width="108" x="217.57" y="237"/><ellipse cx="232.57" cy="253" fill="#ADD1B2" rx="11" ry="11" style="stroke: #A80036; stroke-width: 1.0;"/><path d="M235.5388,258.6406 Q234.9606,258.9375 234.32,259.0781 Q233.6794,259.2344 232.9763,259.2344 Q230.4763,259.2344 229.1481,257.5938 Q227.8356,255.9375 227.8356,252.8125 Q227.8356,249.6875 229.1481,248.0313 Q230.4763,246.375 232.9763,246.375 Q233.6794,246.375 234.32,246.5313 Q234.9763,246.6875 235.5388,246.9844 L235.5388,249.7031 Q234.9138,249.125 234.32,248.8594 Q233.7263,248.5781 233.1013,248.5781 Q231.7575,248.5781 231.07,249.6563 Q230.3825,250.7188 230.3825,252.8125 Q230.3825,254.9063 231.07,255.9844 Q231.7575,257.0469 233.1013,257.0469 Q233.7263,257.0469 234.32,256.7813 Q234.9138,256.5 235.5388,255.9219 L235.5388,258.6406 Z "/><text fill="#000000" font-family="sans-serif" font-size="12" lengthAdjust="spacingAndGlyphs" textLength="76" x="246.57" y="257.1543">GameObject</text><line style="stroke: #A80036; stroke-width: 1.5;" x1="218.57" x2="324.57" y1="269" y2="269"/><line style="stroke: #A80036; stroke-width: 1.5;" x1="218.57" x2="324.57" y1="277" y2="277"/><!--MD5=[538d676c33f80f22e3938c223375f705]
reverse link MonoBehaviour to LeaderboardManager--><path d="M120.57,76.11 C120.57,89.31 120.57,103.54 120.57,115.65 " fill="none" id="MonoBehaviour&lt;-LeaderboardManager" style="stroke: #A80036; stroke-width: 1.0;"/><polygon fill="none" points="113.57,76.04,120.57,56.04,127.57,76.04,113.57,76.04" style="stroke: #A80036; stroke-width: 1.0;"/><!--MD5=[909c8b2e3a798cf749dd7b8ba320bfb0]
link LeaderboardManager to RectTransform--><path d="M109.19,177.06 C107.31,193.93 107.36,214.98 109.33,231.65 " fill="none" id="LeaderboardManager-&gt;RectTransform" style="stroke: #A80036; stroke-width: 1.0;"/><polygon fill="#A80036" points="110,236.67,112.7826,227.2224,109.3429,231.7134,104.852,228.2737,110,236.67" style="stroke: #A80036; stroke-width: 1.0;"/><text fill="#000000" font-family="sans-serif" font-size="13" lengthAdjust="spacingAndGlyphs" textLength="89" x="7.5767" y="225.9945">_leftContainer</text><!--MD5=[909c8b2e3a798cf749dd7b8ba320bfb0]
link LeaderboardManager to RectTransform--><path d="M132.61,177.06 C134.6,193.93 134.55,214.98 132.47,231.65 " fill="none" id="LeaderboardManager-&gt;RectTransform-1" style="stroke: #A80036; stroke-width: 1.0;"/><polygon fill="#A80036" points="131.76,236.67,136.9791,228.3177,132.4591,231.7191,129.0577,227.1991,131.76,236.67" style="stroke: #A80036; stroke-width: 1.0;"/><text fill="#000000" font-family="sans-serif" font-size="13" lengthAdjust="spacingAndGlyphs" textLength="98" x="146.3123" y="225.9328">_rightContainer</text><!--MD5=[7e5f4ac83d9eda010b9f5238d1c5537a]
link LeaderboardManager to GameObject--><path d="M160.24,177.06 C183.77,194.59 213.34,216.62 236.09,233.57 " fill="none" id="LeaderboardManager-&gt;GameObject" style="stroke: #A80036; stroke-width: 1.0;"/><polygon fill="#A80036" points="240.25,236.67,235.4303,228.081,236.2431,233.6792,230.645,234.492,240.25,236.67" style="stroke: #A80036; stroke-width: 1.0;"/><text fill="#000000" font-family="sans-serif" font-size="13" lengthAdjust="spacingAndGlyphs" textLength="83" x="242.7314" y="225.9945">_scorePrefab</text><!--MD5=[5070fbeabd22741bb720b3ce235747b4]
@startuml
class LeaderboardManager {
    Start() : void
}
MonoBehaviour <|- - LeaderboardManager
LeaderboardManager - -> "_leftContainer" RectTransform
LeaderboardManager - -> "_rightContainer" RectTransform
LeaderboardManager - -> "_scorePrefab" GameObject
@enduml

PlantUML version 1.2020.02(Sun Mar 01 10:22:07 GMT 2020)
(GPL source distribution)
Java Runtime: OpenJDK Runtime Environment
JVM: OpenJDK 64-Bit Server VM
Java Version: 11.0.9+11-Ubuntu-0ubuntu1
Operating System: Linux
Default Encoding: ANSI_X3.4-1968
Language: en
Country: US
--></g></svg>