<?xml version="1.0" encoding="UTF-8" standalone="no"?><svg xmlns="http://www.w3.org/2000/svg" xmlns:xlink="http://www.w3.org/1999/xlink" contentScriptType="application/ecmascript" contentStyleType="text/css" height="187px" preserveAspectRatio="none" style="width:182px;height:187px;" version="1.1" viewBox="0 0 182 187" width="182px" zoomAndPan="magnify"><defs><filter height="300%" id="f1errdubb3l6sp" width="300%" x="-1" y="-1"><feGaussianBlur result="blurOut" stdDeviation="2.0"/><feColorMatrix in="blurOut" result="blurOut2" type="matrix" values="0 0 0 0 0 0 0 0 0 0 0 0 0 0 0 0 0 0 .4 0"/><feOffset dx="4.0" dy="4.0" in="blurOut2" result="blurOut3"/><feBlend in="SourceGraphic" in2="blurOut3" mode="normal"/></filter></defs><g><!--MD5=[3df44893c9671c9d43ab5190e07c3bf2]
class LeaderboardButton--><rect fill="#FEFECE" filter="url(#f1errdubb3l6sp)" height="60.8047" id="LeaderboardButton" style="stroke: #A80036; stroke-width: 1.5;" width="165" x="6" y="116"/><ellipse cx="25.95" cy="132" fill="#ADD1B2" rx="11" ry="11" style="stroke: #A80036; stroke-width: 1.0;"/><path d="M28.9188,137.6406 Q28.3406,137.9375 27.7,138.0781 Q27.0594,138.2344 26.3563,138.2344 Q23.8563,138.2344 22.5281,136.5938 Q21.2156,134.9375 21.2156,131.8125 Q21.2156,128.6875 22.5281,127.0313 Q23.8563,125.375 26.3563,125.375 Q27.0594,125.375 27.7,125.5313 Q28.3563,125.6875 28.9188,125.9844 L28.9188,128.7031 Q28.2938,128.125 27.7,127.8594 Q27.1063,127.5781 26.4813,127.5781 Q25.1375,127.5781 24.45,128.6563 Q23.7625,129.7188 23.7625,131.8125 Q23.7625,133.9063 24.45,134.9844 Q25.1375,136.0469 26.4813,136.0469 Q27.1063,136.0469 27.7,135.7813 Q28.2938,135.5 28.9188,134.9219 L28.9188,137.6406 Z "/><text fill="#000000" font-family="sans-serif" font-size="12" lengthAdjust="spacingAndGlyphs" textLength="122" x="41.05" y="136.1543">LeaderboardButton</text><line style="stroke: #A80036; stroke-width: 1.5;" x1="7" x2="170" y1="148" y2="148"/><line style="stroke: #A80036; stroke-width: 1.5;" x1="7" x2="170" y1="156" y2="156"/><ellipse cx="17" cy="167" fill="#84BE84" rx="3" ry="3" style="stroke: #038048; stroke-width: 1.0;"/><text fill="#000000" font-family="sans-serif" font-size="11" lengthAdjust="spacingAndGlyphs" textLength="139" x="26" y="170.2104">onClickMainMenu() : void</text><!--MD5=[83b3cf3d23d77c6f1e1b5291a241bc2a]
class MonoBehaviour--><rect fill="#FEFECE" filter="url(#f1errdubb3l6sp)" height="48" id="MonoBehaviour" style="stroke: #A80036; stroke-width: 1.5;" width="128" x="24.5" y="8"/><ellipse cx="39.5" cy="24" fill="#ADD1B2" rx="11" ry="11" style="stroke: #A80036; stroke-width: 1.0;"/><path d="M42.4688,29.6406 Q41.8906,29.9375 41.25,30.0781 Q40.6094,30.2344 39.9063,30.2344 Q37.4063,30.2344 36.0781,28.5938 Q34.7656,26.9375 34.7656,23.8125 Q34.7656,20.6875 36.0781,19.0313 Q37.4063,17.375 39.9063,17.375 Q40.6094,17.375 41.25,17.5313 Q41.9063,17.6875 42.4688,17.9844 L42.4688,20.7031 Q41.8438,20.125 41.25,19.8594 Q40.6563,19.5781 40.0313,19.5781 Q38.6875,19.5781 38,20.6563 Q37.3125,21.7188 37.3125,23.8125 Q37.3125,25.9063 38,26.9844 Q38.6875,28.0469 40.0313,28.0469 Q40.6563,28.0469 41.25,27.7813 Q41.8438,27.5 42.4688,26.9219 L42.4688,29.6406 Z "/><text fill="#000000" font-family="sans-serif" font-size="12" lengthAdjust="spacingAndGlyphs" textLength="96" x="53.5" y="28.1543">MonoBehaviour</text><line style="stroke: #A80036; stroke-width: 1.5;" x1="25.5" x2="151.5" y1="40" y2="40"/><line style="stroke: #A80036; stroke-width: 1.5;" x1="25.5" x2="151.5" y1="48" y2="48"/><!--MD5=[5e58b10cf54b67741bb44b8e4db46f71]
reverse link MonoBehaviour to LeaderboardButton--><path d="M88.5,76.11 C88.5,89.31 88.5,103.54 88.5,115.65 " fill="none" id="MonoBehaviour&lt;-LeaderboardButton" style="stroke: #A80036; stroke-width: 1.0;"/><polygon fill="none" points="81.5,76.04,88.5,56.04,95.5,76.04,81.5,76.04" style="stroke: #A80036; stroke-width: 1.0;"/><!--MD5=[38aa879880b335a2318271d7a05ea13b]
@startuml
class LeaderboardButton {
    + onClickMainMenu() : void
}
MonoBehaviour <|- - LeaderboardButton
@enduml

PlantUML version 1.2020.02(Sun Mar 01 10:22:07 GMT 2020)
(GPL source distribution)
Java Runtime: OpenJDK Runtime Environment
JVM: OpenJDK 64-Bit Server VM
Java Version: 11.0.9+11-Ubuntu-0ubuntu1
Operating System: Linux
Default Encoding: ANSI_X3.4-1968
Language: en
Country: US
--></g></svg>