<?xml version="1.0" encoding="UTF-8" standalone="no"?><svg xmlns="http://www.w3.org/2000/svg" xmlns:xlink="http://www.w3.org/1999/xlink" contentScriptType="application/ecmascript" contentStyleType="text/css" height="334px" preserveAspectRatio="none" style="width:558px;height:334px;" version="1.1" viewBox="0 0 558 334" width="558px" zoomAndPan="magnify"><defs><filter height="300%" id="fqfzye3pxhfps" width="300%" x="-1" y="-1"><feGaussianBlur result="blurOut" stdDeviation="2.0"/><feColorMatrix in="blurOut" result="blurOut2" type="matrix" values="0 0 0 0 0 0 0 0 0 0 0 0 0 0 0 0 0 0 .4 0"/><feOffset dx="4.0" dy="4.0" in="blurOut2" result="blurOut3"/><feBlend in="SourceGraphic" in2="blurOut3" mode="normal"/></filter></defs><g><!--MD5=[2f0c1f029291a312c0b2a27a8acff18c]
class PatternPuzzleInteractable--><rect fill="#FEFECE" filter="url(#fqfzye3pxhfps)" height="99.2188" id="PatternPuzzleInteractable" style="stroke: #A80036; stroke-width: 1.5;" width="246" x="103.5" y="116"/><ellipse cx="142.8" cy="132" fill="#ADD1B2" rx="11" ry="11" style="stroke: #A80036; stroke-width: 1.0;"/><path d="M145.7688,137.6406 Q145.1906,137.9375 144.55,138.0781 Q143.9094,138.2344 143.2063,138.2344 Q140.7063,138.2344 139.3781,136.5938 Q138.0656,134.9375 138.0656,131.8125 Q138.0656,128.6875 139.3781,127.0313 Q140.7063,125.375 143.2063,125.375 Q143.9094,125.375 144.55,125.5313 Q145.2063,125.6875 145.7688,125.9844 L145.7688,128.7031 Q145.1438,128.125 144.55,127.8594 Q143.9563,127.5781 143.3313,127.5781 Q141.9875,127.5781 141.3,128.6563 Q140.6125,129.7188 140.6125,131.8125 Q140.6125,133.9063 141.3,134.9844 Q141.9875,136.0469 143.3313,136.0469 Q143.9563,136.0469 144.55,135.7813 Q145.1438,135.5 145.7688,134.9219 L145.7688,137.6406 Z "/><text fill="#000000" font-family="sans-serif" font-size="12" lengthAdjust="spacingAndGlyphs" textLength="160" x="162.2" y="136.1543">PatternPuzzleInteractable</text><line style="stroke: #A80036; stroke-width: 1.5;" x1="104.5" x2="348.5" y1="148" y2="148"/><line style="stroke: #A80036; stroke-width: 1.5;" x1="104.5" x2="348.5" y1="156" y2="156"/><ellipse cx="114.5" cy="167" fill="#84BE84" rx="3" ry="3" style="stroke: #038048; stroke-width: 1.0;"/><text fill="#000000" font-family="sans-serif" font-size="11" lengthAdjust="spacingAndGlyphs" textLength="208" x="123.5" y="170.2104">«override» OnNetworkSpawn() : void</text><ellipse cx="114.5" cy="179.8047" fill="#84BE84" rx="3" ry="3" style="stroke: #038048; stroke-width: 1.0;"/><text fill="#000000" font-family="sans-serif" font-size="11" lengthAdjust="spacingAndGlyphs" textLength="220" x="123.5" y="183.0151">SetPatternServerRpc(pattern:int) : void</text><rect fill="#F24D5C" height="6" style="stroke: #C82930; stroke-width: 1.0;" width="6" x="111.5" y="189.6094"/><text fill="#000000" font-family="sans-serif" font-size="11" lengthAdjust="spacingAndGlyphs" textLength="183" x="123.5" y="195.8198">RefreshDisplayedPattern() : void</text><ellipse cx="114.5" cy="205.4141" fill="#84BE84" rx="3" ry="3" style="stroke: #038048; stroke-width: 1.0;"/><text fill="#000000" font-family="sans-serif" font-size="11" lengthAdjust="spacingAndGlyphs" textLength="86" x="123.5" y="208.6245">Interact() : void</text><!--MD5=[3103184eca4944b8939aac147653371d]
class NetworkVariable`1--><rect fill="#FEFECE" filter="url(#fqfzye3pxhfps)" height="48" id="NetworkVariable`1" style="stroke: #A80036; stroke-width: 1.5;" width="159" x="385" y="141.5"/><ellipse cx="400" cy="157.5" fill="#ADD1B2" rx="11" ry="11" style="stroke: #A80036; stroke-width: 1.0;"/><path d="M402.9688,163.1406 Q402.3906,163.4375 401.75,163.5781 Q401.1094,163.7344 400.4063,163.7344 Q397.9063,163.7344 396.5781,162.0938 Q395.2656,160.4375 395.2656,157.3125 Q395.2656,154.1875 396.5781,152.5313 Q397.9063,150.875 400.4063,150.875 Q401.1094,150.875 401.75,151.0313 Q402.4063,151.1875 402.9688,151.4844 L402.9688,154.2031 Q402.3438,153.625 401.75,153.3594 Q401.1563,153.0781 400.5313,153.0781 Q399.1875,153.0781 398.5,154.1563 Q397.8125,155.2188 397.8125,157.3125 Q397.8125,159.4063 398.5,160.4844 Q399.1875,161.5469 400.5313,161.5469 Q401.1563,161.5469 401.75,161.2813 Q402.3438,161 402.9688,160.4219 L402.9688,163.1406 Z "/><text fill="#000000" font-family="sans-serif" font-size="12" lengthAdjust="spacingAndGlyphs" textLength="116" x="414" y="161.6543">NetworkVariable`1</text><rect fill="#FFFFFF" height="15.9688" style="stroke: #000000; stroke-width: 1.0; stroke-dasharray: 2.0,2.0;" width="9" x="538" y="138.5"/><text fill="#000000" font-family="sans-serif" font-size="12" font-style="italic" lengthAdjust="spacingAndGlyphs" textLength="7" x="539" y="150.6387">T</text><line style="stroke: #A80036; stroke-width: 1.5;" x1="386" x2="543" y1="173.5" y2="173.5"/><line style="stroke: #A80036; stroke-width: 1.5;" x1="386" x2="543" y1="181.5" y2="181.5"/><!--MD5=[be62f0ac78b5cca9d2b2f8a4bd540407]
class NetworkBehaviour--><rect fill="#FEFECE" filter="url(#fqfzye3pxhfps)" height="48" id="NetworkBehaviour" style="stroke: #A80036; stroke-width: 1.5;" width="145" x="73" y="8"/><ellipse cx="88" cy="24" fill="#ADD1B2" rx="11" ry="11" style="stroke: #A80036; stroke-width: 1.0;"/><path d="M90.9688,29.6406 Q90.3906,29.9375 89.75,30.0781 Q89.1094,30.2344 88.4063,30.2344 Q85.9063,30.2344 84.5781,28.5938 Q83.2656,26.9375 83.2656,23.8125 Q83.2656,20.6875 84.5781,19.0313 Q85.9063,17.375 88.4063,17.375 Q89.1094,17.375 89.75,17.5313 Q90.4063,17.6875 90.9688,17.9844 L90.9688,20.7031 Q90.3438,20.125 89.75,19.8594 Q89.1563,19.5781 88.5313,19.5781 Q87.1875,19.5781 86.5,20.6563 Q85.8125,21.7188 85.8125,23.8125 Q85.8125,25.9063 86.5,26.9844 Q87.1875,28.0469 88.5313,28.0469 Q89.1563,28.0469 89.75,27.7813 Q90.3438,27.5 90.9688,26.9219 L90.9688,29.6406 Z "/><text fill="#000000" font-family="sans-serif" font-size="12" lengthAdjust="spacingAndGlyphs" textLength="113" x="102" y="28.1543">NetworkBehaviour</text><line style="stroke: #A80036; stroke-width: 1.5;" x1="74" x2="217" y1="40" y2="40"/><line style="stroke: #A80036; stroke-width: 1.5;" x1="74" x2="217" y1="48" y2="48"/><!--MD5=[5654b34243851ad7b2128a6c8a7eaaf0]
class IInteractable--><rect fill="#FEFECE" filter="url(#fqfzye3pxhfps)" height="48" id="IInteractable" style="stroke: #A80036; stroke-width: 1.5;" width="111" x="253" y="8"/><ellipse cx="268" cy="24" fill="#ADD1B2" rx="11" ry="11" style="stroke: #A80036; stroke-width: 1.0;"/><path d="M270.9688,29.6406 Q270.3906,29.9375 269.75,30.0781 Q269.1094,30.2344 268.4063,30.2344 Q265.9063,30.2344 264.5781,28.5938 Q263.2656,26.9375 263.2656,23.8125 Q263.2656,20.6875 264.5781,19.0313 Q265.9063,17.375 268.4063,17.375 Q269.1094,17.375 269.75,17.5313 Q270.4063,17.6875 270.9688,17.9844 L270.9688,20.7031 Q270.3438,20.125 269.75,19.8594 Q269.1563,19.5781 268.5313,19.5781 Q267.1875,19.5781 266.5,20.6563 Q265.8125,21.7188 265.8125,23.8125 Q265.8125,25.9063 266.5,26.9844 Q267.1875,28.0469 268.5313,28.0469 Q269.1563,28.0469 269.75,27.7813 Q270.3438,27.5 270.9688,26.9219 L270.9688,29.6406 Z "/><text fill="#000000" font-family="sans-serif" font-size="12" lengthAdjust="spacingAndGlyphs" textLength="79" x="282" y="28.1543">IInteractable</text><line style="stroke: #A80036; stroke-width: 1.5;" x1="254" x2="363" y1="40" y2="40"/><line style="stroke: #A80036; stroke-width: 1.5;" x1="254" x2="363" y1="48" y2="48"/><!--MD5=[4c692257daae7ad370eb005e7785be48]
class SpriteRenderer--><rect fill="#FEFECE" filter="url(#fqfzye3pxhfps)" height="48" id="SpriteRenderer" style="stroke: #A80036; stroke-width: 1.5;" width="127" x="6" y="275"/><ellipse cx="21" cy="291" fill="#ADD1B2" rx="11" ry="11" style="stroke: #A80036; stroke-width: 1.0;"/><path d="M23.9688,296.6406 Q23.3906,296.9375 22.75,297.0781 Q22.1094,297.2344 21.4063,297.2344 Q18.9063,297.2344 17.5781,295.5938 Q16.2656,293.9375 16.2656,290.8125 Q16.2656,287.6875 17.5781,286.0313 Q18.9063,284.375 21.4063,284.375 Q22.1094,284.375 22.75,284.5313 Q23.4063,284.6875 23.9688,284.9844 L23.9688,287.7031 Q23.3438,287.125 22.75,286.8594 Q22.1563,286.5781 21.5313,286.5781 Q20.1875,286.5781 19.5,287.6563 Q18.8125,288.7188 18.8125,290.8125 Q18.8125,292.9063 19.5,293.9844 Q20.1875,295.0469 21.5313,295.0469 Q22.1563,295.0469 22.75,294.7813 Q23.3438,294.5 23.9688,293.9219 L23.9688,296.6406 Z "/><text fill="#000000" font-family="sans-serif" font-size="12" lengthAdjust="spacingAndGlyphs" textLength="95" x="35" y="295.1543">SpriteRenderer</text><line style="stroke: #A80036; stroke-width: 1.5;" x1="7" x2="132" y1="307" y2="307"/><line style="stroke: #A80036; stroke-width: 1.5;" x1="7" x2="132" y1="315" y2="315"/><!--MD5=[1818fea111677d3d12068665f15e6aac]
class PatternPuzzle--><rect fill="#FEFECE" filter="url(#fqfzye3pxhfps)" height="48" id="PatternPuzzle" style="stroke: #A80036; stroke-width: 1.5;" width="116" x="168.5" y="275"/><ellipse cx="183.5" cy="291" fill="#ADD1B2" rx="11" ry="11" style="stroke: #A80036; stroke-width: 1.0;"/><path d="M186.4688,296.6406 Q185.8906,296.9375 185.25,297.0781 Q184.6094,297.2344 183.9063,297.2344 Q181.4063,297.2344 180.0781,295.5938 Q178.7656,293.9375 178.7656,290.8125 Q178.7656,287.6875 180.0781,286.0313 Q181.4063,284.375 183.9063,284.375 Q184.6094,284.375 185.25,284.5313 Q185.9063,284.6875 186.4688,284.9844 L186.4688,287.7031 Q185.8438,287.125 185.25,286.8594 Q184.6563,286.5781 184.0313,286.5781 Q182.6875,286.5781 182,287.6563 Q181.3125,288.7188 181.3125,290.8125 Q181.3125,292.9063 182,293.9844 Q182.6875,295.0469 184.0313,295.0469 Q184.6563,295.0469 185.25,294.7813 Q185.8438,294.5 186.4688,293.9219 L186.4688,296.6406 Z "/><text fill="#000000" font-family="sans-serif" font-size="12" lengthAdjust="spacingAndGlyphs" textLength="84" x="197.5" y="295.1543">PatternPuzzle</text><line style="stroke: #A80036; stroke-width: 1.5;" x1="169.5" x2="283.5" y1="307" y2="307"/><line style="stroke: #A80036; stroke-width: 1.5;" x1="169.5" x2="283.5" y1="315" y2="315"/><!--MD5=[8b805049d0499e23d33da8a1efc9f54d]
class Animator--><rect fill="#FEFECE" filter="url(#fqfzye3pxhfps)" height="48" id="Animator" style="stroke: #A80036; stroke-width: 1.5;" width="88" x="319.5" y="275"/><ellipse cx="334.5" cy="291" fill="#ADD1B2" rx="11" ry="11" style="stroke: #A80036; stroke-width: 1.0;"/><path d="M337.4688,296.6406 Q336.8906,296.9375 336.25,297.0781 Q335.6094,297.2344 334.9063,297.2344 Q332.4063,297.2344 331.0781,295.5938 Q329.7656,293.9375 329.7656,290.8125 Q329.7656,287.6875 331.0781,286.0313 Q332.4063,284.375 334.9063,284.375 Q335.6094,284.375 336.25,284.5313 Q336.9063,284.6875 337.4688,284.9844 L337.4688,287.7031 Q336.8438,287.125 336.25,286.8594 Q335.6563,286.5781 335.0313,286.5781 Q333.6875,286.5781 333,287.6563 Q332.3125,288.7188 332.3125,290.8125 Q332.3125,292.9063 333,293.9844 Q333.6875,295.0469 335.0313,295.0469 Q335.6563,295.0469 336.25,294.7813 Q336.8438,294.5 337.4688,293.9219 L337.4688,296.6406 Z "/><text fill="#000000" font-family="sans-serif" font-size="12" lengthAdjust="spacingAndGlyphs" textLength="56" x="348.5" y="295.1543">Animator</text><line style="stroke: #A80036; stroke-width: 1.5;" x1="320.5" x2="406.5" y1="307" y2="307"/><line style="stroke: #A80036; stroke-width: 1.5;" x1="320.5" x2="406.5" y1="315" y2="315"/><!--MD5=[9326eb64f08820f55a4f13b7d3d3bd2e]
reverse link NetworkBehaviour to PatternPuzzleInteractable--><path d="M170.3,73.27 C178.6,86.74 187.94,101.9 196.58,115.93 " fill="none" id="NetworkBehaviour&lt;-PatternPuzzleInteractable" style="stroke: #A80036; stroke-width: 1.0;"/><polygon fill="none" points="164.32,76.91,159.79,56.21,176.24,69.56,164.32,76.91" style="stroke: #A80036; stroke-width: 1.0;"/><!--MD5=[44c425f8c05f9cd2d3cacafa62bdce31]
reverse link IInteractable to PatternPuzzleInteractable--><path d="M283.39,73.27 C274.99,86.74 265.54,101.9 256.79,115.93 " fill="none" id="IInteractable&lt;-PatternPuzzleInteractable" style="stroke: #A80036; stroke-width: 1.0;"/><polygon fill="none" points="277.51,69.47,294.03,56.21,289.39,76.88,277.51,69.47" style="stroke: #A80036; stroke-width: 1.0;"/><!--MD5=[eb39a352c478cccae5b95076d3c5a39d]
link PatternPuzzleInteractable to SpriteRenderer--><path d="M168.49,215.09 C145.75,234.14 120.54,255.25 101.26,271.4 " fill="none" id="PatternPuzzleInteractable-&gt;SpriteRenderer" style="stroke: #A80036; stroke-width: 1.0;"/><polygon fill="#A80036" points="96.99,274.98,106.4657,272.2947,100.8323,271.7805,101.3465,266.147,96.99,274.98" style="stroke: #A80036; stroke-width: 1.0;"/><text fill="#000000" font-family="sans-serif" font-size="13" lengthAdjust="spacingAndGlyphs" textLength="50" x="47.6281" y="263.9869">_screen</text><!--MD5=[61a180deb1eaa69d36058f1d30cc7f23]
link PatternPuzzleInteractable to PatternPuzzle--><path d="M226.5,215.09 C226.5,233.5 226.5,253.83 226.5,269.75 " fill="none" id="PatternPuzzleInteractable-&gt;PatternPuzzle" style="stroke: #A80036; stroke-width: 1.0;"/><polygon fill="#A80036" points="226.5,274.98,230.5,265.98,226.5,269.98,222.5,265.98,226.5,274.98" style="stroke: #A80036; stroke-width: 1.0;"/><text fill="#000000" font-family="sans-serif" font-size="13" lengthAdjust="spacingAndGlyphs" textLength="95" x="134.8396" y="263.9001">_patternPuzzle</text><!--MD5=[20fce5d40aeaa09c253d353cbc93097f]
link PatternPuzzleInteractable to Animator--><path d="M277.12,215.09 C296.97,234.14 318.96,255.25 335.79,271.4 " fill="none" id="PatternPuzzleInteractable-&gt;Animator" style="stroke: #A80036; stroke-width: 1.0;"/><polygon fill="#A80036" points="339.51,274.98,335.7899,265.8607,335.9039,271.5165,330.2482,271.6305,339.51,274.98" style="stroke: #A80036; stroke-width: 1.0;"/><text fill="#000000" font-family="sans-serif" font-size="13" lengthAdjust="spacingAndGlyphs" textLength="105" x="249.9204" y="263.9252">_switchAnimator</text><!--MD5=[e6ff2f82e5c6f38b68d23bc39f1e2043]
link PatternPuzzleInteractable to NetworkVariable`1--><path d="M361.68,165.5 C361.68,165.5 368.5,165.5 371.34,165.5 " fill="none" id="PatternPuzzleInteractable-NetworkVariable`1" style="stroke: #A80036; stroke-width: 1.0;"/><polygon fill="#A80036" points="384.67,165.5,375.67,161.5,379.67,165.5,375.67,169.5,384.67,165.5" style="stroke: #A80036; stroke-width: 1.0;"/><line style="stroke: #A80036; stroke-width: 1.0;" x1="379.67" x2="371.67" y1="165.5" y2="165.5"/><polygon fill="#FFFFFF" points="349.68,165.5,355.68,169.5,361.68,165.5,355.68,161.5,349.68,165.5" style="stroke: #A80036; stroke-width: 1.0;"/><text fill="#000000" font-family="sans-serif" font-size="13" lengthAdjust="spacingAndGlyphs" textLength="92" x="285.1555" y="143.6007">_pattern&lt;int&gt;</text><!--MD5=[a46452039e1b4acd857cc922899c284b]
@startuml
class PatternPuzzleInteractable {
    + <<override>> OnNetworkSpawn() : void
    + SetPatternServerRpc(pattern:int) : void
    - RefreshDisplayedPattern() : void
    + Interact() : void
}
class "NetworkVariable`1"<T> {
}
NetworkBehaviour <|- - PatternPuzzleInteractable
IInteractable <|- - PatternPuzzleInteractable
PatternPuzzleInteractable - -> "_screen" SpriteRenderer
PatternPuzzleInteractable - -> "_patternPuzzle" PatternPuzzle
PatternPuzzleInteractable - -> "_switchAnimator" Animator
PatternPuzzleInteractable o-> "_pattern<int>" "NetworkVariable`1"
@enduml

PlantUML version 1.2020.02(Sun Mar 01 10:22:07 GMT 2020)
(GPL source distribution)
Java Runtime: OpenJDK Runtime Environment
JVM: OpenJDK 64-Bit Server VM
Java Version: 11.0.9+11-Ubuntu-0ubuntu1
Operating System: Linux
Default Encoding: ANSI_X3.4-1968
Language: en
Country: US
--></g></svg>