<?xml version="1.0" encoding="UTF-8" standalone="no"?><svg xmlns="http://www.w3.org/2000/svg" xmlns:xlink="http://www.w3.org/1999/xlink" contentScriptType="application/ecmascript" contentStyleType="text/css" height="200px" preserveAspectRatio="none" style="width:280px;height:200px;" version="1.1" viewBox="0 0 280 200" width="280px" zoomAndPan="magnify"><defs><filter height="300%" id="f132cb79jt0cbi" width="300%" x="-1" y="-1"><feGaussianBlur result="blurOut" stdDeviation="2.0"/><feColorMatrix in="blurOut" result="blurOut2" type="matrix" values="0 0 0 0 0 0 0 0 0 0 0 0 0 0 0 0 0 0 .4 0"/><feOffset dx="4.0" dy="4.0" in="blurOut2" result="blurOut3"/><feBlend in="SourceGraphic" in2="blurOut3" mode="normal"/></filter></defs><g><!--MD5=[1818fea111677d3d12068665f15e6aac]
class PatternPuzzle--><rect fill="#FEFECE" filter="url(#f132cb79jt0cbi)" height="73.6094" id="PatternPuzzle" style="stroke: #A80036; stroke-width: 1.5;" width="263" x="6" y="116"/><ellipse cx="91.25" cy="132" fill="#ADD1B2" rx="11" ry="11" style="stroke: #A80036; stroke-width: 1.0;"/><path d="M94.2188,137.6406 Q93.6406,137.9375 93,138.0781 Q92.3594,138.2344 91.6563,138.2344 Q89.1563,138.2344 87.8281,136.5938 Q86.5156,134.9375 86.5156,131.8125 Q86.5156,128.6875 87.8281,127.0313 Q89.1563,125.375 91.6563,125.375 Q92.3594,125.375 93,125.5313 Q93.6563,125.6875 94.2188,125.9844 L94.2188,128.7031 Q93.5938,128.125 93,127.8594 Q92.4063,127.5781 91.7813,127.5781 Q90.4375,127.5781 89.75,128.6563 Q89.0625,129.7188 89.0625,131.8125 Q89.0625,133.9063 89.75,134.9844 Q90.4375,136.0469 91.7813,136.0469 Q92.4063,136.0469 93,135.7813 Q93.5938,135.5 94.2188,134.9219 L94.2188,137.6406 Z "/><text fill="#000000" font-family="sans-serif" font-size="12" lengthAdjust="spacingAndGlyphs" textLength="84" x="111.75" y="136.1543">PatternPuzzle</text><line style="stroke: #A80036; stroke-width: 1.5;" x1="7" x2="268" y1="148" y2="148"/><line style="stroke: #A80036; stroke-width: 1.5;" x1="7" x2="268" y1="156" y2="156"/><ellipse cx="17" cy="167" fill="#84BE84" rx="3" ry="3" style="stroke: #038048; stroke-width: 1.0;"/><text fill="#000000" font-family="sans-serif" font-size="11" lengthAdjust="spacingAndGlyphs" textLength="208" x="26" y="170.2104">«override» OnNetworkSpawn() : void</text><ellipse cx="17" cy="179.8047" fill="#84BE84" rx="3" ry="3" style="stroke: #038048; stroke-width: 1.0;"/><text fill="#000000" font-family="sans-serif" font-size="11" lengthAdjust="spacingAndGlyphs" textLength="237" x="26" y="183.0151">AttemptMatchServerRpc(pattern:int) : void</text><!--MD5=[bdb67d807b54310fa85dc9d3c5aad932]
class Puzzle--><rect fill="#FEFECE" filter="url(#f132cb79jt0cbi)" height="48" id="Puzzle" style="stroke: #A80036; stroke-width: 1.5;" width="69" x="103" y="8"/><ellipse cx="118" cy="24" fill="#ADD1B2" rx="11" ry="11" style="stroke: #A80036; stroke-width: 1.0;"/><path d="M120.9688,29.6406 Q120.3906,29.9375 119.75,30.0781 Q119.1094,30.2344 118.4063,30.2344 Q115.9063,30.2344 114.5781,28.5938 Q113.2656,26.9375 113.2656,23.8125 Q113.2656,20.6875 114.5781,19.0313 Q115.9063,17.375 118.4063,17.375 Q119.1094,17.375 119.75,17.5313 Q120.4063,17.6875 120.9688,17.9844 L120.9688,20.7031 Q120.3438,20.125 119.75,19.8594 Q119.1563,19.5781 118.5313,19.5781 Q117.1875,19.5781 116.5,20.6563 Q115.8125,21.7188 115.8125,23.8125 Q115.8125,25.9063 116.5,26.9844 Q117.1875,28.0469 118.5313,28.0469 Q119.1563,28.0469 119.75,27.7813 Q120.3438,27.5 120.9688,26.9219 L120.9688,29.6406 Z "/><text fill="#000000" font-family="sans-serif" font-size="12" lengthAdjust="spacingAndGlyphs" textLength="37" x="132" y="28.1543">Puzzle</text><line style="stroke: #A80036; stroke-width: 1.5;" x1="104" x2="171" y1="40" y2="40"/><line style="stroke: #A80036; stroke-width: 1.5;" x1="104" x2="171" y1="48" y2="48"/><!--MD5=[2100dd531919272bd928a906024b82e1]
reverse link Puzzle to PatternPuzzle--><path d="M137.5,76.43 C137.5,89.33 137.5,103.32 137.5,115.71 " fill="none" id="Puzzle&lt;-PatternPuzzle" style="stroke: #A80036; stroke-width: 1.0;"/><polygon fill="none" points="130.5,76.23,137.5,56.23,144.5,76.23,130.5,76.23" style="stroke: #A80036; stroke-width: 1.0;"/><!--MD5=[24d5db259e7429df65c4f246708a98a4]
@startuml
class PatternPuzzle {
    + <<override>> OnNetworkSpawn() : void
    + AttemptMatchServerRpc(pattern:int) : void
}
Puzzle <|- - PatternPuzzle
@enduml

PlantUML version 1.2020.02(Sun Mar 01 10:22:07 GMT 2020)
(GPL source distribution)
Java Runtime: OpenJDK Runtime Environment
JVM: OpenJDK 64-Bit Server VM
Java Version: 11.0.9+11-Ubuntu-0ubuntu1
Operating System: Linux
Default Encoding: ANSI_X3.4-1968
Language: en
Country: US
--></g></svg>