<?xml version="1.0" encoding="UTF-8" standalone="no"?><svg xmlns="http://www.w3.org/2000/svg" xmlns:xlink="http://www.w3.org/1999/xlink" contentScriptType="application/ecmascript" contentStyleType="text/css" height="213px" preserveAspectRatio="none" style="width:308px;height:213px;" version="1.1" viewBox="0 0 308 213" width="308px" zoomAndPan="magnify"><defs><filter height="300%" id="f1idd97iz3ad9u" width="300%" x="-1" y="-1"><feGaussianBlur result="blurOut" stdDeviation="2.0"/><feColorMatrix in="blurOut" result="blurOut2" type="matrix" values="0 0 0 0 0 0 0 0 0 0 0 0 0 0 0 0 0 0 .4 0"/><feOffset dx="4.0" dy="4.0" in="blurOut2" result="blurOut3"/><feBlend in="SourceGraphic" in2="blurOut3" mode="normal"/></filter></defs><g><!--MD5=[2f0c1f029291a312c0b2a27a8acff18c]
class PatternPuzzleInteractable--><rect fill="#FEFECE" filter="url(#f1idd97iz3ad9u)" height="86.4141" id="PatternPuzzleInteractable" style="stroke: #A80036; stroke-width: 1.5;" width="246" x="36.5" y="116"/><ellipse cx="75.8" cy="132" fill="#ADD1B2" rx="11" ry="11" style="stroke: #A80036; stroke-width: 1.0;"/><path d="M78.7688,137.6406 Q78.1906,137.9375 77.55,138.0781 Q76.9094,138.2344 76.2063,138.2344 Q73.7063,138.2344 72.3781,136.5938 Q71.0656,134.9375 71.0656,131.8125 Q71.0656,128.6875 72.3781,127.0313 Q73.7063,125.375 76.2063,125.375 Q76.9094,125.375 77.55,125.5313 Q78.2063,125.6875 78.7688,125.9844 L78.7688,128.7031 Q78.1438,128.125 77.55,127.8594 Q76.9563,127.5781 76.3313,127.5781 Q74.9875,127.5781 74.3,128.6563 Q73.6125,129.7188 73.6125,131.8125 Q73.6125,133.9063 74.3,134.9844 Q74.9875,136.0469 76.3313,136.0469 Q76.9563,136.0469 77.55,135.7813 Q78.1438,135.5 78.7688,134.9219 L78.7688,137.6406 Z "/><text fill="#000000" font-family="sans-serif" font-size="12" lengthAdjust="spacingAndGlyphs" textLength="160" x="95.2" y="136.1543">PatternPuzzleInteractable</text><line style="stroke: #A80036; stroke-width: 1.5;" x1="37.5" x2="281.5" y1="148" y2="148"/><line style="stroke: #A80036; stroke-width: 1.5;" x1="37.5" x2="281.5" y1="156" y2="156"/><ellipse cx="47.5" cy="167" fill="#84BE84" rx="3" ry="3" style="stroke: #038048; stroke-width: 1.0;"/><text fill="#000000" font-family="sans-serif" font-size="11" lengthAdjust="spacingAndGlyphs" textLength="208" x="56.5" y="170.2104">«override» OnNetworkSpawn() : void</text><ellipse cx="47.5" cy="179.8047" fill="#84BE84" rx="3" ry="3" style="stroke: #038048; stroke-width: 1.0;"/><text fill="#000000" font-family="sans-serif" font-size="11" lengthAdjust="spacingAndGlyphs" textLength="220" x="56.5" y="183.0151">SetPatternServerRpc(pattern:int) : void</text><ellipse cx="47.5" cy="192.6094" fill="#84BE84" rx="3" ry="3" style="stroke: #038048; stroke-width: 1.0;"/><text fill="#000000" font-family="sans-serif" font-size="11" lengthAdjust="spacingAndGlyphs" textLength="86" x="56.5" y="195.8198">Interact() : void</text><!--MD5=[be62f0ac78b5cca9d2b2f8a4bd540407]
class NetworkBehaviour--><rect fill="#FEFECE" filter="url(#f1idd97iz3ad9u)" height="48" id="NetworkBehaviour" style="stroke: #A80036; stroke-width: 1.5;" width="145" x="6" y="8"/><ellipse cx="21" cy="24" fill="#ADD1B2" rx="11" ry="11" style="stroke: #A80036; stroke-width: 1.0;"/><path d="M23.9688,29.6406 Q23.3906,29.9375 22.75,30.0781 Q22.1094,30.2344 21.4063,30.2344 Q18.9063,30.2344 17.5781,28.5938 Q16.2656,26.9375 16.2656,23.8125 Q16.2656,20.6875 17.5781,19.0313 Q18.9063,17.375 21.4063,17.375 Q22.1094,17.375 22.75,17.5313 Q23.4063,17.6875 23.9688,17.9844 L23.9688,20.7031 Q23.3438,20.125 22.75,19.8594 Q22.1563,19.5781 21.5313,19.5781 Q20.1875,19.5781 19.5,20.6563 Q18.8125,21.7188 18.8125,23.8125 Q18.8125,25.9063 19.5,26.9844 Q20.1875,28.0469 21.5313,28.0469 Q22.1563,28.0469 22.75,27.7813 Q23.3438,27.5 23.9688,26.9219 L23.9688,29.6406 Z "/><text fill="#000000" font-family="sans-serif" font-size="12" lengthAdjust="spacingAndGlyphs" textLength="113" x="35" y="28.1543">NetworkBehaviour</text><line style="stroke: #A80036; stroke-width: 1.5;" x1="7" x2="150" y1="40" y2="40"/><line style="stroke: #A80036; stroke-width: 1.5;" x1="7" x2="150" y1="48" y2="48"/><!--MD5=[5654b34243851ad7b2128a6c8a7eaaf0]
class IInteractable--><rect fill="#FEFECE" filter="url(#f1idd97iz3ad9u)" height="48" id="IInteractable" style="stroke: #A80036; stroke-width: 1.5;" width="111" x="186" y="8"/><ellipse cx="201" cy="24" fill="#ADD1B2" rx="11" ry="11" style="stroke: #A80036; stroke-width: 1.0;"/><path d="M203.9688,29.6406 Q203.3906,29.9375 202.75,30.0781 Q202.1094,30.2344 201.4063,30.2344 Q198.9063,30.2344 197.5781,28.5938 Q196.2656,26.9375 196.2656,23.8125 Q196.2656,20.6875 197.5781,19.0313 Q198.9063,17.375 201.4063,17.375 Q202.1094,17.375 202.75,17.5313 Q203.4063,17.6875 203.9688,17.9844 L203.9688,20.7031 Q203.3438,20.125 202.75,19.8594 Q202.1563,19.5781 201.5313,19.5781 Q200.1875,19.5781 199.5,20.6563 Q198.8125,21.7188 198.8125,23.8125 Q198.8125,25.9063 199.5,26.9844 Q200.1875,28.0469 201.5313,28.0469 Q202.1563,28.0469 202.75,27.7813 Q203.3438,27.5 203.9688,26.9219 L203.9688,29.6406 Z "/><text fill="#000000" font-family="sans-serif" font-size="12" lengthAdjust="spacingAndGlyphs" textLength="79" x="215" y="28.1543">IInteractable</text><line style="stroke: #A80036; stroke-width: 1.5;" x1="187" x2="296" y1="40" y2="40"/><line style="stroke: #A80036; stroke-width: 1.5;" x1="187" x2="296" y1="48" y2="48"/><!--MD5=[9326eb64f08820f55a4f13b7d3d3bd2e]
reverse link NetworkBehaviour to PatternPuzzleInteractable--><path d="M104.42,73.01 C113.3,86.71 123.26,102.08 132.24,115.94 " fill="none" id="NetworkBehaviour&lt;-PatternPuzzleInteractable" style="stroke: #A80036; stroke-width: 1.0;"/><polygon fill="none" points="98.55,76.81,93.55,56.22,110.3,69.2,98.55,76.81" style="stroke: #A80036; stroke-width: 1.0;"/><!--MD5=[44c425f8c05f9cd2d3cacafa62bdce31]
reverse link IInteractable to PatternPuzzleInteractable--><path d="M215.26,73.01 C206.27,86.71 196.19,102.08 187.09,115.94 " fill="none" id="IInteractable&lt;-PatternPuzzleInteractable" style="stroke: #A80036; stroke-width: 1.0;"/><polygon fill="none" points="209.45,69.1,226.27,56.22,221.15,76.78,209.45,69.1" style="stroke: #A80036; stroke-width: 1.0;"/><!--MD5=[97dc32d0986d18dd2493827ec1b6957b]
@startuml
class PatternPuzzleInteractable {
    + <<override>> OnNetworkSpawn() : void
    + SetPatternServerRpc(pattern:int) : void
    + Interact() : void
}
NetworkBehaviour <|- - PatternPuzzleInteractable
IInteractable <|- - PatternPuzzleInteractable
@enduml

PlantUML version 1.2020.02(Sun Mar 01 10:22:07 GMT 2020)
(GPL source distribution)
Java Runtime: OpenJDK Runtime Environment
JVM: OpenJDK 64-Bit Server VM
Java Version: 11.0.9+11-Ubuntu-0ubuntu1
Operating System: Linux
Default Encoding: ANSI_X3.4-1968
Language: en
Country: US
--></g></svg>