<?xml version="1.0" encoding="UTF-8" standalone="no"?><svg xmlns="http://www.w3.org/2000/svg" xmlns:xlink="http://www.w3.org/1999/xlink" contentScriptType="application/ecmascript" contentStyleType="text/css" height="462px" preserveAspectRatio="none" style="width:580px;height:462px;" version="1.1" viewBox="0 0 580 462" width="580px" zoomAndPan="magnify"><defs><filter height="300%" id="f14ia84j37ez5r" width="300%" x="-1" y="-1"><feGaussianBlur result="blurOut" stdDeviation="2.0"/><feColorMatrix in="blurOut" result="blurOut2" type="matrix" values="0 0 0 0 0 0 0 0 0 0 0 0 0 0 0 0 0 0 .4 0"/><feOffset dx="4.0" dy="4.0" in="blurOut2" result="blurOut3"/><feBlend in="SourceGraphic" in2="blurOut3" mode="normal"/></filter></defs><g><!--MD5=[1818fea111677d3d12068665f15e6aac]
class PatternPuzzle--><rect fill="#FEFECE" filter="url(#f14ia84j37ez5r)" height="227.2656" id="PatternPuzzle" style="stroke: #A80036; stroke-width: 1.5;" width="263" x="109.29" y="116"/><ellipse cx="194.54" cy="132" fill="#ADD1B2" rx="11" ry="11" style="stroke: #A80036; stroke-width: 1.0;"/><path d="M197.5088,137.6406 Q196.9306,137.9375 196.29,138.0781 Q195.6494,138.2344 194.9463,138.2344 Q192.4463,138.2344 191.1181,136.5938 Q189.8056,134.9375 189.8056,131.8125 Q189.8056,128.6875 191.1181,127.0313 Q192.4463,125.375 194.9463,125.375 Q195.6494,125.375 196.29,125.5313 Q196.9463,125.6875 197.5088,125.9844 L197.5088,128.7031 Q196.8838,128.125 196.29,127.8594 Q195.6963,127.5781 195.0713,127.5781 Q193.7275,127.5781 193.04,128.6563 Q192.3525,129.7188 192.3525,131.8125 Q192.3525,133.9063 193.04,134.9844 Q193.7275,136.0469 195.0713,136.0469 Q195.6963,136.0469 196.29,135.7813 Q196.8838,135.5 197.5088,134.9219 L197.5088,137.6406 Z "/><text fill="#000000" font-family="sans-serif" font-size="12" lengthAdjust="spacingAndGlyphs" textLength="84" x="215.04" y="136.1543">PatternPuzzle</text><line style="stroke: #A80036; stroke-width: 1.5;" x1="110.29" x2="371.29" y1="148" y2="148"/><rect fill="none" height="6" style="stroke: #C82930; stroke-width: 1.0;" width="6" x="117.29" y="156"/><text fill="#000000" font-family="sans-serif" font-size="11" lengthAdjust="spacingAndGlyphs" textLength="125" x="129.29" y="162.2104">_sequenceLength : int</text><rect fill="none" height="6" style="stroke: #C82930; stroke-width: 1.0;" width="6" x="117.29" y="168.8047"/><text fill="#000000" font-family="sans-serif" font-size="11" lengthAdjust="spacingAndGlyphs" textLength="140" x="129.29" y="175.0151">_barrierOpenTime : float</text><rect fill="none" height="6" style="stroke: #C82930; stroke-width: 1.0;" width="6" x="117.29" y="181.6094"/><text fill="#000000" font-family="sans-serif" font-size="11" lengthAdjust="spacingAndGlyphs" textLength="104" x="129.29" y="187.8198">_upperStart : float</text><rect fill="none" height="6" style="stroke: #C82930; stroke-width: 1.0;" width="6" x="117.29" y="194.4141"/><text fill="#000000" font-family="sans-serif" font-size="11" lengthAdjust="spacingAndGlyphs" textLength="97" x="129.29" y="200.6245">_upperEnd : float</text><rect fill="none" height="6" style="stroke: #C82930; stroke-width: 1.0;" width="6" x="117.29" y="207.2188"/><text fill="#000000" font-family="sans-serif" font-size="11" lengthAdjust="spacingAndGlyphs" textLength="102" x="129.29" y="213.4292">_lowerStart : float</text><rect fill="none" height="6" style="stroke: #C82930; stroke-width: 1.0;" width="6" x="117.29" y="220.0234"/><text fill="#000000" font-family="sans-serif" font-size="11" lengthAdjust="spacingAndGlyphs" textLength="95" x="129.29" y="226.2339">_lowerEnd : float</text><rect fill="none" height="6" style="stroke: #C82930; stroke-width: 1.0;" width="6" x="117.29" y="232.8281"/><text fill="#000000" font-family="sans-serif" font-size="11" lengthAdjust="spacingAndGlyphs" textLength="144" x="129.29" y="239.0386">_currentMatches : int = 0</text><rect fill="none" height="6" style="stroke: #C82930; stroke-width: 1.0;" width="6" x="117.29" y="245.6328"/><text fill="#000000" font-family="sans-serif" font-size="11" lengthAdjust="spacingAndGlyphs" textLength="132" x="129.29" y="251.8433">_finished : bool = false</text><rect fill="none" height="6" style="stroke: #C82930; stroke-width: 1.0;" width="6" x="117.29" y="258.4375"/><text fill="#000000" font-family="sans-serif" font-size="11" lengthAdjust="spacingAndGlyphs" textLength="154" x="129.29" y="264.6479">_barrierTimer : float = 0.0f</text><line style="stroke: #A80036; stroke-width: 1.5;" x1="110.29" x2="371.29" y1="271.2422" y2="271.2422"/><ellipse cx="120.29" cy="282.2422" fill="#84BE84" rx="3" ry="3" style="stroke: #038048; stroke-width: 1.0;"/><text fill="#000000" font-family="sans-serif" font-size="11" lengthAdjust="spacingAndGlyphs" textLength="208" x="129.29" y="285.4526">«override» OnNetworkSpawn() : void</text><rect fill="#F24D5C" height="6" style="stroke: #C82930; stroke-width: 1.0;" width="6" x="117.29" y="292.0469"/><text fill="#000000" font-family="sans-serif" font-size="11" lengthAdjust="spacingAndGlyphs" textLength="83" x="129.29" y="298.2573">Update() : void</text><ellipse cx="120.29" cy="307.8516" fill="#84BE84" rx="3" ry="3" style="stroke: #038048; stroke-width: 1.0;"/><text fill="#000000" font-family="sans-serif" font-size="11" lengthAdjust="spacingAndGlyphs" textLength="237" x="129.29" y="311.062">AttemptMatchServerRpc(pattern:int) : void</text><rect fill="#F24D5C" height="6" style="stroke: #C82930; stroke-width: 1.0;" width="6" x="117.29" y="317.6563"/><text fill="#000000" font-family="sans-serif" font-size="11" lengthAdjust="spacingAndGlyphs" textLength="197" x="129.29" y="323.8667">ShowNewPatternServerRpc() : void</text><rect fill="#F24D5C" height="6" style="stroke: #C82930; stroke-width: 1.0;" width="6" x="117.29" y="330.4609"/><text fill="#000000" font-family="sans-serif" font-size="11" lengthAdjust="spacingAndGlyphs" textLength="200" x="129.29" y="336.6714">OnPatternSuccessClientRpc() : void</text><!--MD5=[3103184eca4944b8939aac147653371d]
class NetworkVariable`1--><rect fill="#FEFECE" filter="url(#f14ia84j37ez5r)" height="48" id="NetworkVariable`1" style="stroke: #A80036; stroke-width: 1.5;" width="159" x="407.29" y="205.5"/><ellipse cx="422.29" cy="221.5" fill="#ADD1B2" rx="11" ry="11" style="stroke: #A80036; stroke-width: 1.0;"/><path d="M425.2588,227.1406 Q424.6806,227.4375 424.04,227.5781 Q423.3994,227.7344 422.6963,227.7344 Q420.1963,227.7344 418.8681,226.0938 Q417.5556,224.4375 417.5556,221.3125 Q417.5556,218.1875 418.8681,216.5313 Q420.1963,214.875 422.6963,214.875 Q423.3994,214.875 424.04,215.0313 Q424.6963,215.1875 425.2588,215.4844 L425.2588,218.2031 Q424.6338,217.625 424.04,217.3594 Q423.4463,217.0781 422.8213,217.0781 Q421.4775,217.0781 420.79,218.1563 Q420.1025,219.2188 420.1025,221.3125 Q420.1025,223.4063 420.79,224.4844 Q421.4775,225.5469 422.8213,225.5469 Q423.4463,225.5469 424.04,225.2813 Q424.6338,225 425.2588,224.4219 L425.2588,227.1406 Z "/><text fill="#000000" font-family="sans-serif" font-size="12" lengthAdjust="spacingAndGlyphs" textLength="116" x="436.29" y="225.6543">NetworkVariable`1</text><rect fill="#FFFFFF" height="15.9688" style="stroke: #000000; stroke-width: 1.0; stroke-dasharray: 2.0,2.0;" width="9" x="560.29" y="202.5"/><text fill="#000000" font-family="sans-serif" font-size="12" font-style="italic" lengthAdjust="spacingAndGlyphs" textLength="7" x="561.29" y="214.6387">T</text><line style="stroke: #A80036; stroke-width: 1.5;" x1="408.29" x2="565.29" y1="237.5" y2="237.5"/><line style="stroke: #A80036; stroke-width: 1.5;" x1="408.29" x2="565.29" y1="245.5" y2="245.5"/><!--MD5=[bdb67d807b54310fa85dc9d3c5aad932]
class Puzzle--><rect fill="#FEFECE" filter="url(#f14ia84j37ez5r)" height="48" id="Puzzle" style="stroke: #A80036; stroke-width: 1.5;" width="69" x="206.29" y="8"/><ellipse cx="221.29" cy="24" fill="#ADD1B2" rx="11" ry="11" style="stroke: #A80036; stroke-width: 1.0;"/><path d="M224.2588,29.6406 Q223.6806,29.9375 223.04,30.0781 Q222.3994,30.2344 221.6963,30.2344 Q219.1963,30.2344 217.8681,28.5938 Q216.5556,26.9375 216.5556,23.8125 Q216.5556,20.6875 217.8681,19.0313 Q219.1963,17.375 221.6963,17.375 Q222.3994,17.375 223.04,17.5313 Q223.6963,17.6875 224.2588,17.9844 L224.2588,20.7031 Q223.6338,20.125 223.04,19.8594 Q222.4463,19.5781 221.8213,19.5781 Q220.4775,19.5781 219.79,20.6563 Q219.1025,21.7188 219.1025,23.8125 Q219.1025,25.9063 219.79,26.9844 Q220.4775,28.0469 221.8213,28.0469 Q222.4463,28.0469 223.04,27.7813 Q223.6338,27.5 224.2588,26.9219 L224.2588,29.6406 Z "/><text fill="#000000" font-family="sans-serif" font-size="12" lengthAdjust="spacingAndGlyphs" textLength="37" x="235.29" y="28.1543">Puzzle</text><line style="stroke: #A80036; stroke-width: 1.5;" x1="207.29" x2="274.29" y1="40" y2="40"/><line style="stroke: #A80036; stroke-width: 1.5;" x1="207.29" x2="274.29" y1="48" y2="48"/><!--MD5=[4c692257daae7ad370eb005e7785be48]
class SpriteRenderer--><rect fill="#FEFECE" filter="url(#f14ia84j37ez5r)" height="48" id="SpriteRenderer" style="stroke: #A80036; stroke-width: 1.5;" width="127" x="31.29" y="403"/><ellipse cx="46.29" cy="419" fill="#ADD1B2" rx="11" ry="11" style="stroke: #A80036; stroke-width: 1.0;"/><path d="M49.2588,424.6406 Q48.6806,424.9375 48.04,425.0781 Q47.3994,425.2344 46.6963,425.2344 Q44.1963,425.2344 42.8681,423.5938 Q41.5556,421.9375 41.5556,418.8125 Q41.5556,415.6875 42.8681,414.0313 Q44.1963,412.375 46.6963,412.375 Q47.3994,412.375 48.04,412.5313 Q48.6963,412.6875 49.2588,412.9844 L49.2588,415.7031 Q48.6338,415.125 48.04,414.8594 Q47.4463,414.5781 46.8213,414.5781 Q45.4775,414.5781 44.79,415.6563 Q44.1025,416.7188 44.1025,418.8125 Q44.1025,420.9063 44.79,421.9844 Q45.4775,423.0469 46.8213,423.0469 Q47.4463,423.0469 48.04,422.7813 Q48.6338,422.5 49.2588,421.9219 L49.2588,424.6406 Z "/><text fill="#000000" font-family="sans-serif" font-size="12" lengthAdjust="spacingAndGlyphs" textLength="95" x="60.29" y="423.1543">SpriteRenderer</text><line style="stroke: #A80036; stroke-width: 1.5;" x1="32.29" x2="157.29" y1="435" y2="435"/><line style="stroke: #A80036; stroke-width: 1.5;" x1="32.29" x2="157.29" y1="443" y2="443"/><!--MD5=[004b1d6c4ca8aad4ba8b586a335ed4f3]
class Transform--><rect fill="#FEFECE" filter="url(#f14ia84j37ez5r)" height="48" id="Transform" style="stroke: #A80036; stroke-width: 1.5;" width="95" x="193.29" y="403"/><ellipse cx="208.29" cy="419" fill="#ADD1B2" rx="11" ry="11" style="stroke: #A80036; stroke-width: 1.0;"/><path d="M211.2588,424.6406 Q210.6806,424.9375 210.04,425.0781 Q209.3994,425.2344 208.6963,425.2344 Q206.1963,425.2344 204.8681,423.5938 Q203.5556,421.9375 203.5556,418.8125 Q203.5556,415.6875 204.8681,414.0313 Q206.1963,412.375 208.6963,412.375 Q209.3994,412.375 210.04,412.5313 Q210.6963,412.6875 211.2588,412.9844 L211.2588,415.7031 Q210.6338,415.125 210.04,414.8594 Q209.4463,414.5781 208.8213,414.5781 Q207.4775,414.5781 206.79,415.6563 Q206.1025,416.7188 206.1025,418.8125 Q206.1025,420.9063 206.79,421.9844 Q207.4775,423.0469 208.8213,423.0469 Q209.4463,423.0469 210.04,422.7813 Q210.6338,422.5 211.2588,421.9219 L211.2588,424.6406 Z "/><text fill="#000000" font-family="sans-serif" font-size="12" lengthAdjust="spacingAndGlyphs" textLength="63" x="222.29" y="423.1543">Transform</text><line style="stroke: #A80036; stroke-width: 1.5;" x1="194.29" x2="287.29" y1="435" y2="435"/><line style="stroke: #A80036; stroke-width: 1.5;" x1="194.29" x2="287.29" y1="443" y2="443"/><!--MD5=[2100dd531919272bd928a906024b82e1]
reverse link Puzzle to PatternPuzzle--><path d="M240.79,76.38 C240.79,88.38 240.79,101.97 240.79,115.98 " fill="none" id="Puzzle&lt;-PatternPuzzle" style="stroke: #A80036; stroke-width: 1.0;"/><polygon fill="none" points="233.79,76.19,240.79,56.19,247.79,76.19,233.79,76.19" style="stroke: #A80036; stroke-width: 1.0;"/><!--MD5=[9deecd7e5f30e379b202d238061b1f55]
link PatternPuzzle to SpriteRenderer--><path d="M156.71,343.09 C141.18,363.88 126.34,383.76 115.08,398.83 " fill="none" id="PatternPuzzle-&gt;SpriteRenderer" style="stroke: #A80036; stroke-width: 1.0;"/><polygon fill="#A80036" points="112,402.96,120.6,398.16,115,398.96,114.2,393.36,112,402.96" style="stroke: #A80036; stroke-width: 1.0;"/><text fill="#000000" font-family="sans-serif" font-size="13" lengthAdjust="spacingAndGlyphs" textLength="91" x="13.7507" y="391.9618">_targetScreen</text><!--MD5=[fa262661de23de3d76d9bb84abb14721]
link PatternPuzzle to Transform--><path d="M228.17,343.09 C228.53,363.35 229.64,382.74 231.49,397.67 " fill="none" id="PatternPuzzle-&gt;Transform" style="stroke: #A80036; stroke-width: 1.0;"/><polygon fill="#A80036" points="232.21,402.96,234.9622,393.5035,231.537,398.0055,227.035,394.5803,232.21,402.96" style="stroke: #A80036; stroke-width: 1.0;"/><text fill="#000000" font-family="sans-serif" font-size="13" lengthAdjust="spacingAndGlyphs" textLength="87" x="164.7203" y="391.8834">_upperBarrier</text><!--MD5=[fa262661de23de3d76d9bb84abb14721]
link PatternPuzzle to Transform--><path d="M254.15,343.09 C253.77,363.35 252.6,382.74 250.64,397.67 " fill="none" id="PatternPuzzle-&gt;Transform-1" style="stroke: #A80036; stroke-width: 1.0;"/><polygon fill="#A80036" points="249.88,402.96,255.1227,394.6225,250.5931,398.0111,247.2045,393.4815,249.88,402.96" style="stroke: #A80036; stroke-width: 1.0;"/><text fill="#000000" font-family="sans-serif" font-size="13" lengthAdjust="spacingAndGlyphs" textLength="83" x="262.8437" y="391.9618">_lowerBarrier</text><!--MD5=[a01c0260c84f137de5110c6f2961dc52]
link PatternPuzzle to NetworkVariable`1--><path d="M384.44,229.5 C384.44,229.5 391.18,229.5 394.01,229.5 " fill="none" id="PatternPuzzle-NetworkVariable`1" style="stroke: #A80036; stroke-width: 1.0;"/><polygon fill="#A80036" points="407.28,229.5,398.28,225.5,402.28,229.5,398.28,233.5,407.28,229.5" style="stroke: #A80036; stroke-width: 1.0;"/><line style="stroke: #A80036; stroke-width: 1.0;" x1="402.28" x2="394.28" y1="229.5" y2="229.5"/><polygon fill="#FFFFFF" points="372.44,229.5,378.44,233.5,384.44,229.5,378.44,225.5,372.44,229.5" style="stroke: #A80036; stroke-width: 1.0;"/><text fill="#000000" font-family="sans-serif" font-size="13" lengthAdjust="spacingAndGlyphs" textLength="138" x="321.6765" y="194.5346">_currentPattern&lt;int&gt;</text><!--MD5=[265c23a8d239d4139689e228795dd7c0]
@startuml
class PatternPuzzle {
    - _sequenceLength : int
    - _barrierOpenTime : float
    - _upperStart : float
    - _upperEnd : float
    - _lowerStart : float
    - _lowerEnd : float
    - _currentMatches : int = 0
    - _finished : bool = false
    - _barrierTimer : float = 0.0f
    + <<override>> OnNetworkSpawn() : void
    - Update() : void
    + AttemptMatchServerRpc(pattern:int) : void
    - ShowNewPatternServerRpc() : void
    - OnPatternSuccessClientRpc() : void
}
class "NetworkVariable`1"<T> {
}
Puzzle <|- - PatternPuzzle
PatternPuzzle - -> "_targetScreen" SpriteRenderer
PatternPuzzle - -> "_upperBarrier" Transform
PatternPuzzle - -> "_lowerBarrier" Transform
PatternPuzzle o-> "_currentPattern<int>" "NetworkVariable`1"
@enduml

PlantUML version 1.2020.02(Sun Mar 01 10:22:07 GMT 2020)
(GPL source distribution)
Java Runtime: OpenJDK Runtime Environment
JVM: OpenJDK 64-Bit Server VM
Java Version: 11.0.9+11-Ubuntu-0ubuntu1
Operating System: Linux
Default Encoding: ANSI_X3.4-1968
Language: en
Country: US
--></g></svg>