<?xml version="1.0" encoding="UTF-8" standalone="no"?><svg xmlns="http://www.w3.org/2000/svg" xmlns:xlink="http://www.w3.org/1999/xlink" contentScriptType="application/ecmascript" contentStyleType="text/css" height="200px" preserveAspectRatio="none" style="width:239px;height:200px;" version="1.1" viewBox="0 0 239 200" width="239px" zoomAndPan="magnify"><defs><filter height="300%" id="fn1kezpvwbhf8" width="300%" x="-1" y="-1"><feGaussianBlur result="blurOut" stdDeviation="2.0"/><feColorMatrix in="blurOut" result="blurOut2" type="matrix" values="0 0 0 0 0 0 0 0 0 0 0 0 0 0 0 0 0 0 .4 0"/><feOffset dx="4.0" dy="4.0" in="blurOut2" result="blurOut3"/><feBlend in="SourceGraphic" in2="blurOut3" mode="normal"/></filter></defs><g><!--MD5=[bdb67d807b54310fa85dc9d3c5aad932]
class Puzzle--><rect fill="#FEFECE" filter="url(#fn1kezpvwbhf8)" height="73.6094" id="Puzzle" style="stroke: #A80036; stroke-width: 1.5;" width="222" x="6" y="116"/><ellipse cx="93.75" cy="132" fill="#A9DCDF" rx="11" ry="11" style="stroke: #A80036; stroke-width: 1.0;"/><path d="M93.8594,127.3438 L92.7031,132.4219 L95.0313,132.4219 L93.8594,127.3438 Z M92.375,125.1094 L95.3594,125.1094 L98.7188,137.5 L96.2656,137.5 L95.5,134.4375 L92.2188,134.4375 L91.4688,137.5 L89.0313,137.5 L92.375,125.1094 Z "/><text fill="#000000" font-family="sans-serif" font-size="12" font-style="italic" lengthAdjust="spacingAndGlyphs" textLength="38" x="114.25" y="136.1543">Puzzle</text><line style="stroke: #A80036; stroke-width: 1.5;" x1="7" x2="227" y1="148" y2="148"/><rect fill="none" height="6" style="stroke: #C82930; stroke-width: 1.0;" width="6" x="14" y="156"/><text fill="#000000" font-family="sans-serif" font-size="11" lengthAdjust="spacingAndGlyphs" textLength="127" x="26" y="162.2104">_completionScore : int</text><line style="stroke: #A80036; stroke-width: 1.5;" x1="7" x2="227" y1="168.8047" y2="168.8047"/><polygon fill="#FFFF44" points="17,174.8047,21,178.8047,17,182.8047,13,178.8047" style="stroke: #B38D22; stroke-width: 1.0;"/><text fill="#000000" font-family="sans-serif" font-size="11" lengthAdjust="spacingAndGlyphs" textLength="196" x="26" y="183.0151">PuzzleCompletedServerRpc() : void</text><!--MD5=[be62f0ac78b5cca9d2b2f8a4bd540407]
class NetworkBehaviour--><rect fill="#FEFECE" filter="url(#fn1kezpvwbhf8)" height="48" id="NetworkBehaviour" style="stroke: #A80036; stroke-width: 1.5;" width="145" x="44.5" y="8"/><ellipse cx="59.5" cy="24" fill="#ADD1B2" rx="11" ry="11" style="stroke: #A80036; stroke-width: 1.0;"/><path d="M62.4688,29.6406 Q61.8906,29.9375 61.25,30.0781 Q60.6094,30.2344 59.9063,30.2344 Q57.4063,30.2344 56.0781,28.5938 Q54.7656,26.9375 54.7656,23.8125 Q54.7656,20.6875 56.0781,19.0313 Q57.4063,17.375 59.9063,17.375 Q60.6094,17.375 61.25,17.5313 Q61.9063,17.6875 62.4688,17.9844 L62.4688,20.7031 Q61.8438,20.125 61.25,19.8594 Q60.6563,19.5781 60.0313,19.5781 Q58.6875,19.5781 58,20.6563 Q57.3125,21.7188 57.3125,23.8125 Q57.3125,25.9063 58,26.9844 Q58.6875,28.0469 60.0313,28.0469 Q60.6563,28.0469 61.25,27.7813 Q61.8438,27.5 62.4688,26.9219 L62.4688,29.6406 Z "/><text fill="#000000" font-family="sans-serif" font-size="12" lengthAdjust="spacingAndGlyphs" textLength="113" x="73.5" y="28.1543">NetworkBehaviour</text><line style="stroke: #A80036; stroke-width: 1.5;" x1="45.5" x2="188.5" y1="40" y2="40"/><line style="stroke: #A80036; stroke-width: 1.5;" x1="45.5" x2="188.5" y1="48" y2="48"/><!--MD5=[6a3db6a9ae4a61199909ade3295ad002]
reverse link NetworkBehaviour to Puzzle--><path d="M117,76.43 C117,89.33 117,103.32 117,115.71 " fill="none" id="NetworkBehaviour&lt;-Puzzle" style="stroke: #A80036; stroke-width: 1.0;"/><polygon fill="none" points="110,76.23,117,56.23,124,76.23,110,76.23" style="stroke: #A80036; stroke-width: 1.0;"/><!--MD5=[1f692ef4265671390c9938d251a5430a]
@startuml
abstract class Puzzle {
    - _completionScore : int
    # PuzzleCompletedServerRpc() : void
}
NetworkBehaviour <|- - Puzzle
@enduml

PlantUML version 1.2020.02(Sun Mar 01 10:22:07 GMT 2020)
(GPL source distribution)
Java Runtime: OpenJDK Runtime Environment
JVM: OpenJDK 64-Bit Server VM
Java Version: 11.0.9+11-Ubuntu-0ubuntu1
Operating System: Linux
Default Encoding: ANSI_X3.4-1968
Language: en
Country: US
--></g></svg>