<?xml version="1.0" encoding="UTF-8" standalone="no"?><svg xmlns="http://www.w3.org/2000/svg" xmlns:xlink="http://www.w3.org/1999/xlink" contentScriptType="application/ecmascript" contentStyleType="text/css" height="175px" preserveAspectRatio="none" style="width:162px;height:175px;" version="1.1" viewBox="0 0 162 175" width="162px" zoomAndPan="magnify"><defs><filter height="300%" id="f6t1so2zuwbc4" width="300%" x="-1" y="-1"><feGaussianBlur result="blurOut" stdDeviation="2.0"/><feColorMatrix in="blurOut" result="blurOut2" type="matrix" values="0 0 0 0 0 0 0 0 0 0 0 0 0 0 0 0 0 0 .4 0"/><feOffset dx="4.0" dy="4.0" in="blurOut2" result="blurOut3"/><feBlend in="SourceGraphic" in2="blurOut3" mode="normal"/></filter></defs><g><!--MD5=[bdb67d807b54310fa85dc9d3c5aad932]
class Puzzle--><rect fill="#FEFECE" filter="url(#f6t1so2zuwbc4)" height="48" id="Puzzle" style="stroke: #A80036; stroke-width: 1.5;" width="70" x="43.5" y="116"/><ellipse cx="58.5" cy="132" fill="#A9DCDF" rx="11" ry="11" style="stroke: #A80036; stroke-width: 1.0;"/><path d="M58.6094,127.3438 L57.4531,132.4219 L59.7813,132.4219 L58.6094,127.3438 Z M57.125,125.1094 L60.1094,125.1094 L63.4688,137.5 L61.0156,137.5 L60.25,134.4375 L56.9688,134.4375 L56.2188,137.5 L53.7813,137.5 L57.125,125.1094 Z "/><text fill="#000000" font-family="sans-serif" font-size="12" font-style="italic" lengthAdjust="spacingAndGlyphs" textLength="38" x="72.5" y="136.1543">Puzzle</text><line style="stroke: #A80036; stroke-width: 1.5;" x1="44.5" x2="112.5" y1="148" y2="148"/><line style="stroke: #A80036; stroke-width: 1.5;" x1="44.5" x2="112.5" y1="156" y2="156"/><!--MD5=[be62f0ac78b5cca9d2b2f8a4bd540407]
class NetworkBehaviour--><rect fill="#FEFECE" filter="url(#f6t1so2zuwbc4)" height="48" id="NetworkBehaviour" style="stroke: #A80036; stroke-width: 1.5;" width="145" x="6" y="8"/><ellipse cx="21" cy="24" fill="#ADD1B2" rx="11" ry="11" style="stroke: #A80036; stroke-width: 1.0;"/><path d="M23.9688,29.6406 Q23.3906,29.9375 22.75,30.0781 Q22.1094,30.2344 21.4063,30.2344 Q18.9063,30.2344 17.5781,28.5938 Q16.2656,26.9375 16.2656,23.8125 Q16.2656,20.6875 17.5781,19.0313 Q18.9063,17.375 21.4063,17.375 Q22.1094,17.375 22.75,17.5313 Q23.4063,17.6875 23.9688,17.9844 L23.9688,20.7031 Q23.3438,20.125 22.75,19.8594 Q22.1563,19.5781 21.5313,19.5781 Q20.1875,19.5781 19.5,20.6563 Q18.8125,21.7188 18.8125,23.8125 Q18.8125,25.9063 19.5,26.9844 Q20.1875,28.0469 21.5313,28.0469 Q22.1563,28.0469 22.75,27.7813 Q23.3438,27.5 23.9688,26.9219 L23.9688,29.6406 Z "/><text fill="#000000" font-family="sans-serif" font-size="12" lengthAdjust="spacingAndGlyphs" textLength="113" x="35" y="28.1543">NetworkBehaviour</text><line style="stroke: #A80036; stroke-width: 1.5;" x1="7" x2="150" y1="40" y2="40"/><line style="stroke: #A80036; stroke-width: 1.5;" x1="7" x2="150" y1="48" y2="48"/><!--MD5=[6a3db6a9ae4a61199909ade3295ad002]
reverse link NetworkBehaviour to Puzzle--><path d="M78.5,76.02 C78.5,89.58 78.5,104.04 78.5,115.68 " fill="none" id="NetworkBehaviour&lt;-Puzzle" style="stroke: #A80036; stroke-width: 1.0;"/><polygon fill="none" points="71.5,76,78.5,56,85.5,76,71.5,76" style="stroke: #A80036; stroke-width: 1.0;"/><!--MD5=[b606ebf6bca1010d9d75663cfef26cc9]
@startuml
abstract class Puzzle {
}
NetworkBehaviour <|- - Puzzle
@enduml

PlantUML version 1.2020.02(Sun Mar 01 10:22:07 GMT 2020)
(GPL source distribution)
Java Runtime: OpenJDK Runtime Environment
JVM: OpenJDK 64-Bit Server VM
Java Version: 11.0.9+11-Ubuntu-0ubuntu1
Operating System: Linux
Default Encoding: ANSI_X3.4-1968
Language: en
Country: US
--></g></svg>