<?xml version="1.0" encoding="UTF-8" standalone="no"?><svg xmlns="http://www.w3.org/2000/svg" xmlns:xlink="http://www.w3.org/1999/xlink" contentScriptType="application/ecmascript" contentStyleType="text/css" height="360px" preserveAspectRatio="none" style="width:312px;height:360px;" version="1.1" viewBox="0 0 312 360" width="312px" zoomAndPan="magnify"><defs><filter height="300%" id="f1fnj2v2o7pfic" width="300%" x="-1" y="-1"><feGaussianBlur result="blurOut" stdDeviation="2.0"/><feColorMatrix in="blurOut" result="blurOut2" type="matrix" values="0 0 0 0 0 0 0 0 0 0 0 0 0 0 0 0 0 0 .4 0"/><feOffset dx="4.0" dy="4.0" in="blurOut2" result="blurOut3"/><feBlend in="SourceGraphic" in2="blurOut3" mode="normal"/></filter></defs><g><!--MD5=[a39d83125e3b98131e07eb3010c432eb]
class GameOverMenu--><rect fill="#FEFECE" filter="url(#f1fnj2v2o7pfic)" height="124.8281" id="GameOverMenu" style="stroke: #A80036; stroke-width: 1.5;" width="245" x="6" y="116"/><ellipse cx="75.25" cy="132" fill="#ADD1B2" rx="11" ry="11" style="stroke: #A80036; stroke-width: 1.0;"/><path d="M78.2188,137.6406 Q77.6406,137.9375 77,138.0781 Q76.3594,138.2344 75.6563,138.2344 Q73.1563,138.2344 71.8281,136.5938 Q70.5156,134.9375 70.5156,131.8125 Q70.5156,128.6875 71.8281,127.0313 Q73.1563,125.375 75.6563,125.375 Q76.3594,125.375 77,125.5313 Q77.6563,125.6875 78.2188,125.9844 L78.2188,128.7031 Q77.5938,128.125 77,127.8594 Q76.4063,127.5781 75.7813,127.5781 Q74.4375,127.5781 73.75,128.6563 Q73.0625,129.7188 73.0625,131.8125 Q73.0625,133.9063 73.75,134.9844 Q74.4375,136.0469 75.7813,136.0469 Q76.4063,136.0469 77,135.7813 Q77.5938,135.5 78.2188,134.9219 L78.2188,137.6406 Z "/><text fill="#000000" font-family="sans-serif" font-size="12" lengthAdjust="spacingAndGlyphs" textLength="98" x="95.75" y="136.1543">GameOverMenu</text><line style="stroke: #A80036; stroke-width: 1.5;" x1="7" x2="250" y1="148" y2="148"/><line style="stroke: #A80036; stroke-width: 1.5;" x1="7" x2="250" y1="156" y2="156"/><ellipse cx="17" cy="167" fill="#84BE84" rx="3" ry="3" style="stroke: #038048; stroke-width: 1.0;"/><text fill="#000000" font-family="sans-serif" font-size="11" lengthAdjust="spacingAndGlyphs" textLength="208" x="26" y="170.2104">«override» OnNetworkSpawn() : void</text><ellipse cx="17" cy="179.8047" fill="#84BE84" rx="3" ry="3" style="stroke: #038048; stroke-width: 1.0;"/><text fill="#000000" font-family="sans-serif" font-size="11" lengthAdjust="spacingAndGlyphs" textLength="126" x="26" y="183.0151">ShowClientRpc() : void</text><ellipse cx="17" cy="192.6094" fill="#84BE84" rx="3" ry="3" style="stroke: #038048; stroke-width: 1.0;"/><text fill="#000000" font-family="sans-serif" font-size="11" lengthAdjust="spacingAndGlyphs" textLength="142" x="26" y="195.8198">RestartServerRpc() : void</text><ellipse cx="17" cy="205.4141" fill="#84BE84" rx="3" ry="3" style="stroke: #038048; stroke-width: 1.0;"/><text fill="#000000" font-family="sans-serif" font-size="11" lengthAdjust="spacingAndGlyphs" textLength="157" x="26" y="208.6245">MainMenuServerRpc() : void</text><rect fill="#F24D5C" height="6" style="stroke: #C82930; stroke-width: 1.0;" width="6" x="14" y="215.2188"/><text fill="#000000" font-family="sans-serif" font-size="11" lengthAdjust="spacingAndGlyphs" textLength="219" x="26" y="221.4292">OnClientDisconnected(obj:ulong) : void</text><rect fill="#F24D5C" height="6" style="stroke: #C82930; stroke-width: 1.0;" width="6" x="14" y="228.0234"/><text fill="#000000" font-family="sans-serif" font-size="11" lengthAdjust="spacingAndGlyphs" textLength="196" x="26" y="234.2339">DisconnectClientsClientRpc() : void</text><!--MD5=[be62f0ac78b5cca9d2b2f8a4bd540407]
class NetworkBehaviour--><rect fill="#FEFECE" filter="url(#f1fnj2v2o7pfic)" height="48" id="NetworkBehaviour" style="stroke: #A80036; stroke-width: 1.5;" width="145" x="56" y="8"/><ellipse cx="71" cy="24" fill="#ADD1B2" rx="11" ry="11" style="stroke: #A80036; stroke-width: 1.0;"/><path d="M73.9688,29.6406 Q73.3906,29.9375 72.75,30.0781 Q72.1094,30.2344 71.4063,30.2344 Q68.9063,30.2344 67.5781,28.5938 Q66.2656,26.9375 66.2656,23.8125 Q66.2656,20.6875 67.5781,19.0313 Q68.9063,17.375 71.4063,17.375 Q72.1094,17.375 72.75,17.5313 Q73.4063,17.6875 73.9688,17.9844 L73.9688,20.7031 Q73.3438,20.125 72.75,19.8594 Q72.1563,19.5781 71.5313,19.5781 Q70.1875,19.5781 69.5,20.6563 Q68.8125,21.7188 68.8125,23.8125 Q68.8125,25.9063 69.5,26.9844 Q70.1875,28.0469 71.5313,28.0469 Q72.1563,28.0469 72.75,27.7813 Q73.3438,27.5 73.9688,26.9219 L73.9688,29.6406 Z "/><text fill="#000000" font-family="sans-serif" font-size="12" lengthAdjust="spacingAndGlyphs" textLength="113" x="85" y="28.1543">NetworkBehaviour</text><line style="stroke: #A80036; stroke-width: 1.5;" x1="57" x2="200" y1="40" y2="40"/><line style="stroke: #A80036; stroke-width: 1.5;" x1="57" x2="200" y1="48" y2="48"/><!--MD5=[064f7a74fee85463ec1a30143664ee17]
class GameObject--><rect fill="#FEFECE" filter="url(#f1fnj2v2o7pfic)" height="48" id="GameObject" style="stroke: #A80036; stroke-width: 1.5;" width="108" x="74.5" y="301"/><ellipse cx="89.5" cy="317" fill="#ADD1B2" rx="11" ry="11" style="stroke: #A80036; stroke-width: 1.0;"/><path d="M92.4688,322.6406 Q91.8906,322.9375 91.25,323.0781 Q90.6094,323.2344 89.9063,323.2344 Q87.4063,323.2344 86.0781,321.5938 Q84.7656,319.9375 84.7656,316.8125 Q84.7656,313.6875 86.0781,312.0313 Q87.4063,310.375 89.9063,310.375 Q90.6094,310.375 91.25,310.5313 Q91.9063,310.6875 92.4688,310.9844 L92.4688,313.7031 Q91.8438,313.125 91.25,312.8594 Q90.6563,312.5781 90.0313,312.5781 Q88.6875,312.5781 88,313.6563 Q87.3125,314.7188 87.3125,316.8125 Q87.3125,318.9063 88,319.9844 Q88.6875,321.0469 90.0313,321.0469 Q90.6563,321.0469 91.25,320.7813 Q91.8438,320.5 92.4688,319.9219 L92.4688,322.6406 Z "/><text fill="#000000" font-family="sans-serif" font-size="12" lengthAdjust="spacingAndGlyphs" textLength="76" x="103.5" y="321.1543">GameObject</text><line style="stroke: #A80036; stroke-width: 1.5;" x1="75.5" x2="181.5" y1="333" y2="333"/><line style="stroke: #A80036; stroke-width: 1.5;" x1="75.5" x2="181.5" y1="341" y2="341"/><!--MD5=[02a8746eb15ecbb4566dafa16ea4db73]
class Text--><rect fill="#FEFECE" filter="url(#f1fnj2v2o7pfic)" height="48" id="Text" style="stroke: #A80036; stroke-width: 1.5;" width="58" x="217.5" y="301"/><ellipse cx="232.5" cy="317" fill="#ADD1B2" rx="11" ry="11" style="stroke: #A80036; stroke-width: 1.0;"/><path d="M235.4688,322.6406 Q234.8906,322.9375 234.25,323.0781 Q233.6094,323.2344 232.9063,323.2344 Q230.4063,323.2344 229.0781,321.5938 Q227.7656,319.9375 227.7656,316.8125 Q227.7656,313.6875 229.0781,312.0313 Q230.4063,310.375 232.9063,310.375 Q233.6094,310.375 234.25,310.5313 Q234.9063,310.6875 235.4688,310.9844 L235.4688,313.7031 Q234.8438,313.125 234.25,312.8594 Q233.6563,312.5781 233.0313,312.5781 Q231.6875,312.5781 231,313.6563 Q230.3125,314.7188 230.3125,316.8125 Q230.3125,318.9063 231,319.9844 Q231.6875,321.0469 233.0313,321.0469 Q233.6563,321.0469 234.25,320.7813 Q234.8438,320.5 235.4688,319.9219 L235.4688,322.6406 Z "/><text fill="#000000" font-family="sans-serif" font-size="12" lengthAdjust="spacingAndGlyphs" textLength="26" x="246.5" y="321.1543">Text</text><line style="stroke: #A80036; stroke-width: 1.5;" x1="218.5" x2="274.5" y1="333" y2="333"/><line style="stroke: #A80036; stroke-width: 1.5;" x1="218.5" x2="274.5" y1="341" y2="341"/><!--MD5=[715eacaebb365a3ea9e4cc4b02d5d98c]
reverse link NetworkBehaviour to GameOverMenu--><path d="M128.5,76.67 C128.5,89.05 128.5,102.77 128.5,115.99 " fill="none" id="NetworkBehaviour&lt;-GameOverMenu" style="stroke: #A80036; stroke-width: 1.0;"/><polygon fill="none" points="121.5,76.22,128.5,56.22,135.5,76.22,121.5,76.22" style="stroke: #A80036; stroke-width: 1.0;"/><!--MD5=[23b198f09ae115e77ced2a3e9bc7d6f2]
link GameOverMenu to GameObject--><path d="M102.5,241.2 C101.59,260.22 103.16,280.24 107.19,295.83 " fill="none" id="GameOverMenu-&gt;GameObject" style="stroke: #A80036; stroke-width: 1.0;"/><polygon fill="#A80036" points="108.66,300.94,110.0336,291.1874,107.2864,296.1324,102.3414,293.3852,108.66,300.94" style="stroke: #A80036; stroke-width: 1.0;"/><text fill="#000000" font-family="sans-serif" font-size="13" lengthAdjust="spacingAndGlyphs" textLength="76" x="17.8385" y="289.9367">_menuPage</text><!--MD5=[23b198f09ae115e77ced2a3e9bc7d6f2]
link GameOverMenu to GameObject--><path d="M128.5,241.2 C128.5,260.22 128.5,280.24 128.5,295.83 " fill="none" id="GameOverMenu-&gt;GameObject-1" style="stroke: #A80036; stroke-width: 1.0;"/><polygon fill="#A80036" points="128.5,300.94,132.5,291.94,128.5,295.94,124.5,291.94,128.5,300.94" style="stroke: #A80036; stroke-width: 1.0;"/><text fill="#000000" font-family="sans-serif" font-size="13" lengthAdjust="spacingAndGlyphs" textLength="87" x="139.5479" y="289.8748">_menuButton</text><!--MD5=[23b198f09ae115e77ced2a3e9bc7d6f2]
link GameOverMenu to GameObject--><path d="M154.5,241.2 C155.41,260.22 153.84,280.24 149.81,295.83 " fill="none" id="GameOverMenu-&gt;GameObject-2" style="stroke: #A80036; stroke-width: 1.0;"/><polygon fill="#A80036" points="148.34,300.94,154.6586,293.3852,149.7136,296.1324,146.9664,291.1874,148.34,300.94" style="stroke: #A80036; stroke-width: 1.0;"/><text fill="#000000" font-family="sans-serif" font-size="13" lengthAdjust="spacingAndGlyphs" textLength="93" x="184.1675" y="289.8998">_restartButton</text><!--MD5=[f83f21c9a9b357192ad11857ca679e76]
link GameOverMenu to Text--><path d="M178.88,241.2 C194.82,260.72 211.62,281.28 224.48,297.04 " fill="none" id="GameOverMenu-&gt;Text" style="stroke: #A80036; stroke-width: 1.0;"/><polygon fill="#A80036" points="227.67,300.94,225.082,291.4373,224.51,297.0651,218.8822,296.4932,227.67,300.94" style="stroke: #A80036; stroke-width: 1.0;"/><text fill="#000000" font-family="sans-serif" font-size="13" lengthAdjust="spacingAndGlyphs" textLength="69" x="231.6854" y="289.9367">_scoreText</text><!--MD5=[e0179e0b42373a26c011a3f03e662c48]
@startuml
class GameOverMenu {
    + <<override>> OnNetworkSpawn() : void
    + ShowClientRpc() : void
    + RestartServerRpc() : void
    + MainMenuServerRpc() : void
    - OnClientDisconnected(obj:ulong) : void
    - DisconnectClientsClientRpc() : void
}
NetworkBehaviour <|- - GameOverMenu
GameOverMenu - -> "_menuPage" GameObject
GameOverMenu - -> "_scoreText" Text
GameOverMenu - -> "_menuButton" GameObject
GameOverMenu - -> "_restartButton" GameObject
@enduml

PlantUML version 1.2020.02(Sun Mar 01 10:22:07 GMT 2020)
(GPL source distribution)
Java Runtime: OpenJDK Runtime Environment
JVM: OpenJDK 64-Bit Server VM
Java Version: 11.0.9+11-Ubuntu-0ubuntu1
Operating System: Linux
Default Encoding: ANSI_X3.4-1968
Language: en
Country: US
--></g></svg>