<?xml version="1.0" encoding="UTF-8" standalone="no"?><svg xmlns="http://www.w3.org/2000/svg" xmlns:xlink="http://www.w3.org/1999/xlink" contentScriptType="application/ecmascript" contentStyleType="text/css" height="226px" preserveAspectRatio="none" style="width:251px;height:226px;" version="1.1" viewBox="0 0 251 226" width="251px" zoomAndPan="magnify"><defs><filter height="300%" id="f17anqk7ot39f6" width="300%" x="-1" y="-1"><feGaussianBlur result="blurOut" stdDeviation="2.0"/><feColorMatrix in="blurOut" result="blurOut2" type="matrix" values="0 0 0 0 0 0 0 0 0 0 0 0 0 0 0 0 0 0 .4 0"/><feOffset dx="4.0" dy="4.0" in="blurOut2" result="blurOut3"/><feBlend in="SourceGraphic" in2="blurOut3" mode="normal"/></filter></defs><g><!--MD5=[a39d83125e3b98131e07eb3010c432eb]
class GameOverMenu--><rect fill="#FEFECE" filter="url(#f17anqk7ot39f6)" height="99.2188" id="GameOverMenu" style="stroke: #A80036; stroke-width: 1.5;" width="234" x="6" y="116"/><ellipse cx="69.75" cy="132" fill="#ADD1B2" rx="11" ry="11" style="stroke: #A80036; stroke-width: 1.0;"/><path d="M72.7188,137.6406 Q72.1406,137.9375 71.5,138.0781 Q70.8594,138.2344 70.1563,138.2344 Q67.6563,138.2344 66.3281,136.5938 Q65.0156,134.9375 65.0156,131.8125 Q65.0156,128.6875 66.3281,127.0313 Q67.6563,125.375 70.1563,125.375 Q70.8594,125.375 71.5,125.5313 Q72.1563,125.6875 72.7188,125.9844 L72.7188,128.7031 Q72.0938,128.125 71.5,127.8594 Q70.9063,127.5781 70.2813,127.5781 Q68.9375,127.5781 68.25,128.6563 Q67.5625,129.7188 67.5625,131.8125 Q67.5625,133.9063 68.25,134.9844 Q68.9375,136.0469 70.2813,136.0469 Q70.9063,136.0469 71.5,135.7813 Q72.0938,135.5 72.7188,134.9219 L72.7188,137.6406 Z "/><text fill="#000000" font-family="sans-serif" font-size="12" lengthAdjust="spacingAndGlyphs" textLength="98" x="90.25" y="136.1543">GameOverMenu</text><line style="stroke: #A80036; stroke-width: 1.5;" x1="7" x2="239" y1="148" y2="148"/><line style="stroke: #A80036; stroke-width: 1.5;" x1="7" x2="239" y1="156" y2="156"/><ellipse cx="17" cy="167" fill="#84BE84" rx="3" ry="3" style="stroke: #038048; stroke-width: 1.0;"/><text fill="#000000" font-family="sans-serif" font-size="11" lengthAdjust="spacingAndGlyphs" textLength="208" x="26" y="170.2104">«override» OnNetworkSpawn() : void</text><ellipse cx="17" cy="179.8047" fill="#84BE84" rx="3" ry="3" style="stroke: #038048; stroke-width: 1.0;"/><text fill="#000000" font-family="sans-serif" font-size="11" lengthAdjust="spacingAndGlyphs" textLength="126" x="26" y="183.0151">ShowClientRpc() : void</text><ellipse cx="17" cy="192.6094" fill="#84BE84" rx="3" ry="3" style="stroke: #038048; stroke-width: 1.0;"/><text fill="#000000" font-family="sans-serif" font-size="11" lengthAdjust="spacingAndGlyphs" textLength="142" x="26" y="195.8198">RestartServerRpc() : void</text><ellipse cx="17" cy="205.4141" fill="#84BE84" rx="3" ry="3" style="stroke: #038048; stroke-width: 1.0;"/><text fill="#000000" font-family="sans-serif" font-size="11" lengthAdjust="spacingAndGlyphs" textLength="157" x="26" y="208.6245">MainMenuServerRpc() : void</text><!--MD5=[be62f0ac78b5cca9d2b2f8a4bd540407]
class NetworkBehaviour--><rect fill="#FEFECE" filter="url(#f17anqk7ot39f6)" height="48" id="NetworkBehaviour" style="stroke: #A80036; stroke-width: 1.5;" width="145" x="50.5" y="8"/><ellipse cx="65.5" cy="24" fill="#ADD1B2" rx="11" ry="11" style="stroke: #A80036; stroke-width: 1.0;"/><path d="M68.4688,29.6406 Q67.8906,29.9375 67.25,30.0781 Q66.6094,30.2344 65.9063,30.2344 Q63.4063,30.2344 62.0781,28.5938 Q60.7656,26.9375 60.7656,23.8125 Q60.7656,20.6875 62.0781,19.0313 Q63.4063,17.375 65.9063,17.375 Q66.6094,17.375 67.25,17.5313 Q67.9063,17.6875 68.4688,17.9844 L68.4688,20.7031 Q67.8438,20.125 67.25,19.8594 Q66.6563,19.5781 66.0313,19.5781 Q64.6875,19.5781 64,20.6563 Q63.3125,21.7188 63.3125,23.8125 Q63.3125,25.9063 64,26.9844 Q64.6875,28.0469 66.0313,28.0469 Q66.6563,28.0469 67.25,27.7813 Q67.8438,27.5 68.4688,26.9219 L68.4688,29.6406 Z "/><text fill="#000000" font-family="sans-serif" font-size="12" lengthAdjust="spacingAndGlyphs" textLength="113" x="79.5" y="28.1543">NetworkBehaviour</text><line style="stroke: #A80036; stroke-width: 1.5;" x1="51.5" x2="194.5" y1="40" y2="40"/><line style="stroke: #A80036; stroke-width: 1.5;" x1="51.5" x2="194.5" y1="48" y2="48"/><!--MD5=[715eacaebb365a3ea9e4cc4b02d5d98c]
reverse link NetworkBehaviour to GameOverMenu--><path d="M123,76.51 C123,89.14 123,103.01 123,115.93 " fill="none" id="NetworkBehaviour&lt;-GameOverMenu" style="stroke: #A80036; stroke-width: 1.0;"/><polygon fill="none" points="116,76.21,123,56.21,130,76.21,116,76.21" style="stroke: #A80036; stroke-width: 1.0;"/><!--MD5=[dd393a573d4b77ed3326f00fddea4499]
@startuml
class GameOverMenu {
    + <<override>> OnNetworkSpawn() : void
    + ShowClientRpc() : void
    + RestartServerRpc() : void
    + MainMenuServerRpc() : void
}
NetworkBehaviour <|- - GameOverMenu
@enduml

PlantUML version 1.2020.02(Sun Mar 01 10:22:07 GMT 2020)
(GPL source distribution)
Java Runtime: OpenJDK Runtime Environment
JVM: OpenJDK 64-Bit Server VM
Java Version: 11.0.9+11-Ubuntu-0ubuntu1
Operating System: Linux
Default Encoding: ANSI_X3.4-1968
Language: en
Country: US
--></g></svg>