<?xml version="1.0" encoding="UTF-8" standalone="no"?><svg xmlns="http://www.w3.org/2000/svg" xmlns:xlink="http://www.w3.org/1999/xlink" contentScriptType="application/ecmascript" contentStyleType="text/css" height="321px" preserveAspectRatio="none" style="width:293px;height:321px;" version="1.1" viewBox="0 0 293 321" width="293px" zoomAndPan="magnify"><defs><filter height="300%" id="fcebppjs6l92s" width="300%" x="-1" y="-1"><feGaussianBlur result="blurOut" stdDeviation="2.0"/><feColorMatrix in="blurOut" result="blurOut2" type="matrix" values="0 0 0 0 0 0 0 0 0 0 0 0 0 0 0 0 0 0 .4 0"/><feOffset dx="4.0" dy="4.0" in="blurOut2" result="blurOut3"/><feBlend in="SourceGraphic" in2="blurOut3" mode="normal"/></filter></defs><g><!--MD5=[35e999a3e7174ccf68c8a7d6139abb27]
class LobbyMenuManager--><rect fill="#FEFECE" filter="url(#fcebppjs6l92s)" height="86.4141" id="LobbyMenuManager" style="stroke: #A80036; stroke-width: 1.5;" width="276" x="6" y="116"/><ellipse cx="77.25" cy="132" fill="#ADD1B2" rx="11" ry="11" style="stroke: #A80036; stroke-width: 1.0;"/><path d="M80.2188,137.6406 Q79.6406,137.9375 79,138.0781 Q78.3594,138.2344 77.6563,138.2344 Q75.1563,138.2344 73.8281,136.5938 Q72.5156,134.9375 72.5156,131.8125 Q72.5156,128.6875 73.8281,127.0313 Q75.1563,125.375 77.6563,125.375 Q78.3594,125.375 79,125.5313 Q79.6563,125.6875 80.2188,125.9844 L80.2188,128.7031 Q79.5938,128.125 79,127.8594 Q78.4063,127.5781 77.7813,127.5781 Q76.4375,127.5781 75.75,128.6563 Q75.0625,129.7188 75.0625,131.8125 Q75.0625,133.9063 75.75,134.9844 Q76.4375,136.0469 77.7813,136.0469 Q78.4063,136.0469 79,135.7813 Q79.5938,135.5 80.2188,134.9219 L80.2188,137.6406 Z "/><text fill="#000000" font-family="sans-serif" font-size="12" lengthAdjust="spacingAndGlyphs" textLength="125" x="97.75" y="136.1543">LobbyMenuManager</text><line style="stroke: #A80036; stroke-width: 1.5;" x1="7" x2="281" y1="148" y2="148"/><line style="stroke: #A80036; stroke-width: 1.5;" x1="7" x2="281" y1="156" y2="156"/><rect fill="#F24D5C" height="6" style="stroke: #C82930; stroke-width: 1.0;" width="6" x="14" y="164"/><text fill="#000000" font-family="sans-serif" font-size="11" lengthAdjust="spacingAndGlyphs" textLength="71" x="26" y="170.2104">Start() : void</text><rect fill="#F24D5C" height="6" style="stroke: #C82930; stroke-width: 1.0;" width="6" x="14" y="176.8047"/><text fill="#000000" font-family="sans-serif" font-size="11" lengthAdjust="spacingAndGlyphs" textLength="250" x="26" y="183.0151">OnClientConnectedCallback(obj:ulong) : void</text><ellipse cx="17" cy="192.6094" fill="#84BE84" rx="3" ry="3" style="stroke: #038048; stroke-width: 1.0;"/><text fill="#000000" font-family="sans-serif" font-size="11" lengthAdjust="spacingAndGlyphs" textLength="105" x="26" y="195.8198">StartGame() : void</text><!--MD5=[83b3cf3d23d77c6f1e1b5291a241bc2a]
class MonoBehaviour--><rect fill="#FEFECE" filter="url(#fcebppjs6l92s)" height="48" id="MonoBehaviour" style="stroke: #A80036; stroke-width: 1.5;" width="128" x="80" y="8"/><ellipse cx="95" cy="24" fill="#ADD1B2" rx="11" ry="11" style="stroke: #A80036; stroke-width: 1.0;"/><path d="M97.9688,29.6406 Q97.3906,29.9375 96.75,30.0781 Q96.1094,30.2344 95.4063,30.2344 Q92.9063,30.2344 91.5781,28.5938 Q90.2656,26.9375 90.2656,23.8125 Q90.2656,20.6875 91.5781,19.0313 Q92.9063,17.375 95.4063,17.375 Q96.1094,17.375 96.75,17.5313 Q97.4063,17.6875 97.9688,17.9844 L97.9688,20.7031 Q97.3438,20.125 96.75,19.8594 Q96.1563,19.5781 95.5313,19.5781 Q94.1875,19.5781 93.5,20.6563 Q92.8125,21.7188 92.8125,23.8125 Q92.8125,25.9063 93.5,26.9844 Q94.1875,28.0469 95.5313,28.0469 Q96.1563,28.0469 96.75,27.7813 Q97.3438,27.5 97.9688,26.9219 L97.9688,29.6406 Z "/><text fill="#000000" font-family="sans-serif" font-size="12" lengthAdjust="spacingAndGlyphs" textLength="96" x="109" y="28.1543">MonoBehaviour</text><line style="stroke: #A80036; stroke-width: 1.5;" x1="81" x2="207" y1="40" y2="40"/><line style="stroke: #A80036; stroke-width: 1.5;" x1="81" x2="207" y1="48" y2="48"/><!--MD5=[90ba54f54370e77ef24813dec6818fa3]
class Button--><rect fill="#FEFECE" filter="url(#fcebppjs6l92s)" height="48" id="Button" style="stroke: #A80036; stroke-width: 1.5;" width="74" x="107" y="262"/><ellipse cx="122" cy="278" fill="#ADD1B2" rx="11" ry="11" style="stroke: #A80036; stroke-width: 1.0;"/><path d="M124.9688,283.6406 Q124.3906,283.9375 123.75,284.0781 Q123.1094,284.2344 122.4063,284.2344 Q119.9063,284.2344 118.5781,282.5938 Q117.2656,280.9375 117.2656,277.8125 Q117.2656,274.6875 118.5781,273.0313 Q119.9063,271.375 122.4063,271.375 Q123.1094,271.375 123.75,271.5313 Q124.4063,271.6875 124.9688,271.9844 L124.9688,274.7031 Q124.3438,274.125 123.75,273.8594 Q123.1563,273.5781 122.5313,273.5781 Q121.1875,273.5781 120.5,274.6563 Q119.8125,275.7188 119.8125,277.8125 Q119.8125,279.9063 120.5,280.9844 Q121.1875,282.0469 122.5313,282.0469 Q123.1563,282.0469 123.75,281.7813 Q124.3438,281.5 124.9688,280.9219 L124.9688,283.6406 Z "/><text fill="#000000" font-family="sans-serif" font-size="12" lengthAdjust="spacingAndGlyphs" textLength="42" x="136" y="282.1543">Button</text><line style="stroke: #A80036; stroke-width: 1.5;" x1="108" x2="180" y1="294" y2="294"/><line style="stroke: #A80036; stroke-width: 1.5;" x1="108" x2="180" y1="302" y2="302"/><!--MD5=[1e467d3cc7891681d47236526e0f6a90]
reverse link MonoBehaviour to LobbyMenuManager--><path d="M144,76.27 C144,89.12 144,103.17 144,115.94 " fill="none" id="MonoBehaviour&lt;-LobbyMenuManager" style="stroke: #A80036; stroke-width: 1.0;"/><polygon fill="none" points="137,76.22,144,56.22,151,76.22,137,76.22" style="stroke: #A80036; stroke-width: 1.0;"/><!--MD5=[e21c1c41c36707fc315e028004693b26]
link LobbyMenuManager to Button--><path d="M144,202.32 C144,220.14 144,240.41 144,256.42 " fill="none" id="LobbyMenuManager-&gt;Button" style="stroke: #A80036; stroke-width: 1.0;"/><polygon fill="#A80036" points="144,261.67,148,252.67,144,256.67,140,252.67,144,261.67" style="stroke: #A80036; stroke-width: 1.0;"/><text fill="#000000" font-family="sans-serif" font-size="13" lengthAdjust="spacingAndGlyphs" textLength="80" x="54.25" y="250.9945">_startButton</text><!--MD5=[4b030c71589171c877b762884e9cb342]
@startuml
class LobbyMenuManager {
    - Start() : void
    - OnClientConnectedCallback(obj:ulong) : void
    + StartGame() : void
}
MonoBehaviour <|- - LobbyMenuManager
LobbyMenuManager - -> "_startButton" Button
@enduml

PlantUML version 1.2020.02(Sun Mar 01 10:22:07 GMT 2020)
(GPL source distribution)
Java Runtime: OpenJDK Runtime Environment
JVM: OpenJDK 64-Bit Server VM
Java Version: 11.0.9+11-Ubuntu-0ubuntu1
Operating System: Linux
Default Encoding: ANSI_X3.4-1968
Language: en
Country: US
--></g></svg>