<?xml version="1.0" encoding="UTF-8" standalone="no"?><svg xmlns="http://www.w3.org/2000/svg" xmlns:xlink="http://www.w3.org/1999/xlink" contentScriptType="application/ecmascript" contentStyleType="text/css" height="219px" preserveAspectRatio="none" style="width:365px;height:219px;" version="1.1" viewBox="0 0 365 219" width="365px" zoomAndPan="magnify"><defs><filter height="300%" id="fqgz382o3t4b" width="300%" x="-1" y="-1"><feGaussianBlur result="blurOut" stdDeviation="2.0"/><feColorMatrix in="blurOut" result="blurOut2" type="matrix" values="0 0 0 0 0 0 0 0 0 0 0 0 0 0 0 0 0 0 .4 0"/><feOffset dx="4.0" dy="4.0" in="blurOut2" result="blurOut3"/><feBlend in="SourceGraphic" in2="blurOut3" mode="normal"/></filter></defs><g><!--MD5=[7769cc630b1793f9ac5e6a7ae6f88cff]
class MainMenuPage--><rect fill="#FEFECE" filter="url(#fqgz382o3t4b)" height="66.7422" id="MainMenuPage" style="stroke: #A80036; stroke-width: 1.5;" width="132" x="6" y="8"/><ellipse cx="23.25" cy="26.9688" fill="#ADD1B2" rx="11" ry="11" style="stroke: #A80036; stroke-width: 1.0;"/><path d="M26.2188,32.6094 Q25.6406,32.9063 25,33.0469 Q24.3594,33.2031 23.6563,33.2031 Q21.1563,33.2031 19.8281,31.5625 Q18.5156,29.9063 18.5156,26.7813 Q18.5156,23.6563 19.8281,22 Q21.1563,20.3438 23.6563,20.3438 Q24.3594,20.3438 25,20.5 Q25.6563,20.6563 26.2188,20.9531 L26.2188,23.6719 Q25.5938,23.0938 25,22.8281 Q24.4063,22.5469 23.7813,22.5469 Q22.4375,22.5469 21.75,23.625 Q21.0625,24.6875 21.0625,26.7813 Q21.0625,28.875 21.75,29.9531 Q22.4375,31.0156 23.7813,31.0156 Q24.4063,31.0156 25,30.75 Q25.5938,30.4688 26.2188,29.8906 L26.2188,32.6094 Z "/><text fill="#000000" font-family="sans-serif" font-size="12" font-style="italic" lengthAdjust="spacingAndGlyphs" textLength="50" x="60.25" y="24.1387">«struct»</text><text fill="#000000" font-family="sans-serif" font-size="12" lengthAdjust="spacingAndGlyphs" textLength="95" x="37.75" y="38.1074">MainMenuPage</text><line style="stroke: #A80036; stroke-width: 1.5;" x1="7" x2="137" y1="45.9375" y2="45.9375"/><ellipse cx="17" cy="56.9375" fill="none" rx="3" ry="3" style="stroke: #038048; stroke-width: 1.0;"/><text fill="#000000" font-family="sans-serif" font-size="11" lengthAdjust="spacingAndGlyphs" textLength="106" x="26" y="60.1479">pageName : string</text><line style="stroke: #A80036; stroke-width: 1.5;" x1="7" x2="137" y1="66.7422" y2="66.7422"/><!--MD5=[9613371fb5d095e1a1d5ab17cd6edf61]
class MainMenuManager--><rect fill="#FEFECE" filter="url(#fqgz382o3t4b)" height="73.6094" id="MainMenuManager" style="stroke: #A80036; stroke-width: 1.5;" width="193" x="161.5" y="135"/><ellipse cx="195.85" cy="151" fill="#ADD1B2" rx="11" ry="11" style="stroke: #A80036; stroke-width: 1.0;"/><path d="M198.8188,156.6406 Q198.2406,156.9375 197.6,157.0781 Q196.9594,157.2344 196.2563,157.2344 Q193.7563,157.2344 192.4281,155.5938 Q191.1156,153.9375 191.1156,150.8125 Q191.1156,147.6875 192.4281,146.0313 Q193.7563,144.375 196.2563,144.375 Q196.9594,144.375 197.6,144.5313 Q198.2563,144.6875 198.8188,144.9844 L198.8188,147.7031 Q198.1938,147.125 197.6,146.8594 Q197.0063,146.5781 196.3813,146.5781 Q195.0375,146.5781 194.35,147.6563 Q193.6625,148.7188 193.6625,150.8125 Q193.6625,152.9063 194.35,153.9844 Q195.0375,155.0469 196.3813,155.0469 Q197.0063,155.0469 197.6,154.7813 Q198.1938,154.5 198.8188,153.9219 L198.8188,156.6406 Z "/><text fill="#000000" font-family="sans-serif" font-size="12" lengthAdjust="spacingAndGlyphs" textLength="118" x="214.15" y="155.1543">MainMenuManager</text><line style="stroke: #A80036; stroke-width: 1.5;" x1="162.5" x2="353.5" y1="167" y2="167"/><line style="stroke: #A80036; stroke-width: 1.5;" x1="162.5" x2="353.5" y1="175" y2="175"/><ellipse cx="172.5" cy="186" fill="#84BE84" rx="3" ry="3" style="stroke: #038048; stroke-width: 1.0;"/><text fill="#000000" font-family="sans-serif" font-size="11" lengthAdjust="spacingAndGlyphs" textLength="167" x="181.5" y="189.2104">ShowPage(page:string) : void</text><ellipse cx="172.5" cy="198.8047" fill="#84BE84" rx="3" ry="3" style="stroke: #038048; stroke-width: 1.0;"/><text fill="#000000" font-family="sans-serif" font-size="11" lengthAdjust="spacingAndGlyphs" textLength="66" x="181.5" y="202.0151">Quit() : void</text><!--MD5=[064f7a74fee85463ec1a30143664ee17]
class GameObject--><rect fill="#FEFECE" filter="url(#fqgz382o3t4b)" height="48" id="GameObject" style="stroke: #A80036; stroke-width: 1.5;" width="108" x="18" y="148"/><ellipse cx="33" cy="164" fill="#ADD1B2" rx="11" ry="11" style="stroke: #A80036; stroke-width: 1.0;"/><path d="M35.9688,169.6406 Q35.3906,169.9375 34.75,170.0781 Q34.1094,170.2344 33.4063,170.2344 Q30.9063,170.2344 29.5781,168.5938 Q28.2656,166.9375 28.2656,163.8125 Q28.2656,160.6875 29.5781,159.0313 Q30.9063,157.375 33.4063,157.375 Q34.1094,157.375 34.75,157.5313 Q35.4063,157.6875 35.9688,157.9844 L35.9688,160.7031 Q35.3438,160.125 34.75,159.8594 Q34.1563,159.5781 33.5313,159.5781 Q32.1875,159.5781 31.5,160.6563 Q30.8125,161.7188 30.8125,163.8125 Q30.8125,165.9063 31.5,166.9844 Q32.1875,168.0469 33.5313,168.0469 Q34.1563,168.0469 34.75,167.7813 Q35.3438,167.5 35.9688,166.9219 L35.9688,169.6406 Z "/><text fill="#000000" font-family="sans-serif" font-size="12" lengthAdjust="spacingAndGlyphs" textLength="76" x="47" y="168.1543">GameObject</text><line style="stroke: #A80036; stroke-width: 1.5;" x1="19" x2="125" y1="180" y2="180"/><line style="stroke: #A80036; stroke-width: 1.5;" x1="19" x2="125" y1="188" y2="188"/><!--MD5=[83b3cf3d23d77c6f1e1b5291a241bc2a]
class MonoBehaviour--><rect fill="#FEFECE" filter="url(#fqgz382o3t4b)" height="48" id="MonoBehaviour" style="stroke: #A80036; stroke-width: 1.5;" width="128" x="194" y="17.5"/><ellipse cx="209" cy="33.5" fill="#ADD1B2" rx="11" ry="11" style="stroke: #A80036; stroke-width: 1.0;"/><path d="M211.9688,39.1406 Q211.3906,39.4375 210.75,39.5781 Q210.1094,39.7344 209.4063,39.7344 Q206.9063,39.7344 205.5781,38.0938 Q204.2656,36.4375 204.2656,33.3125 Q204.2656,30.1875 205.5781,28.5313 Q206.9063,26.875 209.4063,26.875 Q210.1094,26.875 210.75,27.0313 Q211.4063,27.1875 211.9688,27.4844 L211.9688,30.2031 Q211.3438,29.625 210.75,29.3594 Q210.1563,29.0781 209.5313,29.0781 Q208.1875,29.0781 207.5,30.1563 Q206.8125,31.2188 206.8125,33.3125 Q206.8125,35.4063 207.5,36.4844 Q208.1875,37.5469 209.5313,37.5469 Q210.1563,37.5469 210.75,37.2813 Q211.3438,37 211.9688,36.4219 L211.9688,39.1406 Z "/><text fill="#000000" font-family="sans-serif" font-size="12" lengthAdjust="spacingAndGlyphs" textLength="96" x="223" y="37.6543">MonoBehaviour</text><line style="stroke: #A80036; stroke-width: 1.5;" x1="195" x2="321" y1="49.5" y2="49.5"/><line style="stroke: #A80036; stroke-width: 1.5;" x1="195" x2="321" y1="57.5" y2="57.5"/><!--MD5=[c5760f3bebbd99d05220fe55f8feeb2d]
link MainMenuPage to GameObject--><path d="M72,75.26 C72,96.01 72,122.58 72,142.47 " fill="none" id="MainMenuPage-&gt;GameObject" style="stroke: #A80036; stroke-width: 1.0;"/><polygon fill="#A80036" points="72,147.63,76,138.63,72,142.63,68,138.63,72,147.63" style="stroke: #A80036; stroke-width: 1.0;"/><text fill="#000000" font-family="sans-serif" font-size="13" lengthAdjust="spacingAndGlyphs" textLength="32" x="36.1" y="136.9448">page</text><!--MD5=[11ec1d5a6dd95e30b91aadfbc32d6158]
reverse link MonoBehaviour to MainMenuManager--><path d="M258,85.85 C258,101.75 258,119.58 258,134.79 " fill="none" id="MonoBehaviour&lt;-MainMenuManager" style="stroke: #A80036; stroke-width: 1.0;"/><polygon fill="none" points="251,85.77,258,65.77,265,85.77,251,85.77" style="stroke: #A80036; stroke-width: 1.0;"/><!--MD5=[eb02bc5dbea542acd3f6e55e6eb4cf1e]
@startuml
class MainMenuPage <<struct>> {
    + pageName : string
}
class MainMenuManager {
    + ShowPage(page:string) : void
    + Quit() : void
}
MainMenuPage - -> "page" GameObject
MonoBehaviour <|- - MainMenuManager
@enduml

PlantUML version 1.2020.02(Sun Mar 01 10:22:07 GMT 2020)
(GPL source distribution)
Java Runtime: OpenJDK Runtime Environment
JVM: OpenJDK 64-Bit Server VM
Java Version: 11.0.9+11-Ubuntu-0ubuntu1
Operating System: Linux
Default Encoding: ANSI_X3.4-1968
Language: en
Country: US
--></g></svg>