<?xml version="1.0" encoding="UTF-8" standalone="no"?><svg xmlns="http://www.w3.org/2000/svg" xmlns:xlink="http://www.w3.org/1999/xlink" contentScriptType="application/ecmascript" contentStyleType="text/css" height="347px" preserveAspectRatio="none" style="width:748px;height:347px;" version="1.1" viewBox="0 0 748 347" width="748px" zoomAndPan="magnify"><defs><filter height="300%" id="fz4sl3r0bxqt4" width="300%" x="-1" y="-1"><feGaussianBlur result="blurOut" stdDeviation="2.0"/><feColorMatrix in="blurOut" result="blurOut2" type="matrix" values="0 0 0 0 0 0 0 0 0 0 0 0 0 0 0 0 0 0 .4 0"/><feOffset dx="4.0" dy="4.0" in="blurOut2" result="blurOut3"/><feBlend in="SourceGraphic" in2="blurOut3" mode="normal"/></filter></defs><g><!--MD5=[7769cc630b1793f9ac5e6a7ae6f88cff]
class MainMenuPage--><rect fill="#FEFECE" filter="url(#fz4sl3r0bxqt4)" height="66.7422" id="MainMenuPage" style="stroke: #A80036; stroke-width: 1.5;" width="132" x="6" y="138.5"/><ellipse cx="23.25" cy="157.4688" fill="#ADD1B2" rx="11" ry="11" style="stroke: #A80036; stroke-width: 1.0;"/><path d="M26.2188,163.1094 Q25.6406,163.4063 25,163.5469 Q24.3594,163.7031 23.6563,163.7031 Q21.1563,163.7031 19.8281,162.0625 Q18.5156,160.4063 18.5156,157.2813 Q18.5156,154.1563 19.8281,152.5 Q21.1563,150.8438 23.6563,150.8438 Q24.3594,150.8438 25,151 Q25.6563,151.1563 26.2188,151.4531 L26.2188,154.1719 Q25.5938,153.5938 25,153.3281 Q24.4063,153.0469 23.7813,153.0469 Q22.4375,153.0469 21.75,154.125 Q21.0625,155.1875 21.0625,157.2813 Q21.0625,159.375 21.75,160.4531 Q22.4375,161.5156 23.7813,161.5156 Q24.4063,161.5156 25,161.25 Q25.5938,160.9688 26.2188,160.3906 L26.2188,163.1094 Z "/><text fill="#000000" font-family="sans-serif" font-size="12" font-style="italic" lengthAdjust="spacingAndGlyphs" textLength="50" x="60.25" y="154.6387">«struct»</text><text fill="#000000" font-family="sans-serif" font-size="12" lengthAdjust="spacingAndGlyphs" textLength="95" x="37.75" y="168.6074">MainMenuPage</text><line style="stroke: #A80036; stroke-width: 1.5;" x1="7" x2="137" y1="176.4375" y2="176.4375"/><ellipse cx="17" cy="187.4375" fill="none" rx="3" ry="3" style="stroke: #038048; stroke-width: 1.0;"/><text fill="#000000" font-family="sans-serif" font-size="11" lengthAdjust="spacingAndGlyphs" textLength="106" x="26" y="190.6479">pageName : string</text><line style="stroke: #A80036; stroke-width: 1.5;" x1="7" x2="137" y1="197.2422" y2="197.2422"/><!--MD5=[9613371fb5d095e1a1d5ab17cd6edf61]
class MainMenuManager--><rect fill="#FEFECE" filter="url(#fz4sl3r0bxqt4)" height="112.0234" id="MainMenuManager" style="stroke: #A80036; stroke-width: 1.5;" width="193" x="173.5" y="116"/><ellipse cx="207.85" cy="132" fill="#ADD1B2" rx="11" ry="11" style="stroke: #A80036; stroke-width: 1.0;"/><path d="M210.8188,137.6406 Q210.2406,137.9375 209.6,138.0781 Q208.9594,138.2344 208.2563,138.2344 Q205.7563,138.2344 204.4281,136.5938 Q203.1156,134.9375 203.1156,131.8125 Q203.1156,128.6875 204.4281,127.0313 Q205.7563,125.375 208.2563,125.375 Q208.9594,125.375 209.6,125.5313 Q210.2563,125.6875 210.8188,125.9844 L210.8188,128.7031 Q210.1938,128.125 209.6,127.8594 Q209.0063,127.5781 208.3813,127.5781 Q207.0375,127.5781 206.35,128.6563 Q205.6625,129.7188 205.6625,131.8125 Q205.6625,133.9063 206.35,134.9844 Q207.0375,136.0469 208.3813,136.0469 Q209.0063,136.0469 209.6,135.7813 Q210.1938,135.5 210.8188,134.9219 L210.8188,137.6406 Z "/><text fill="#000000" font-family="sans-serif" font-size="12" lengthAdjust="spacingAndGlyphs" textLength="118" x="226.15" y="136.1543">MainMenuManager</text><line style="stroke: #A80036; stroke-width: 1.5;" x1="174.5" x2="365.5" y1="148" y2="148"/><rect fill="none" height="6" style="stroke: #C82930; stroke-width: 1.0;" width="6" x="181.5" y="156"/><text fill="#000000" font-family="sans-serif" font-size="11" lengthAdjust="spacingAndGlyphs" textLength="106" x="193.5" y="162.2104">_startPage : string</text><line style="stroke: #A80036; stroke-width: 1.5;" x1="174.5" x2="365.5" y1="168.8047" y2="168.8047"/><rect fill="#F24D5C" height="6" style="stroke: #C82930; stroke-width: 1.0;" width="6" x="181.5" y="176.8047"/><text fill="#000000" font-family="sans-serif" font-size="11" lengthAdjust="spacingAndGlyphs" textLength="79" x="193.5" y="183.0151">Awake() : void</text><rect fill="#F24D5C" height="6" style="stroke: #C82930; stroke-width: 1.0;" width="6" x="181.5" y="189.6094"/><text fill="#000000" font-family="sans-serif" font-size="11" lengthAdjust="spacingAndGlyphs" textLength="71" x="193.5" y="195.8198">Start() : void</text><ellipse cx="184.5" cy="205.4141" fill="#84BE84" rx="3" ry="3" style="stroke: #038048; stroke-width: 1.0;"/><text fill="#000000" font-family="sans-serif" font-size="11" lengthAdjust="spacingAndGlyphs" textLength="167" x="193.5" y="208.6245">ShowPage(page:string) : void</text><ellipse cx="184.5" cy="218.2188" fill="#84BE84" rx="3" ry="3" style="stroke: #038048; stroke-width: 1.0;"/><text fill="#000000" font-family="sans-serif" font-size="11" lengthAdjust="spacingAndGlyphs" textLength="66" x="193.5" y="221.4292">Quit() : void</text><!--MD5=[2e1ff885372daab8d802f213ced6c836]
class Dictionary`2--><rect fill="#FEFECE" filter="url(#fz4sl3r0bxqt4)" height="48" id="Dictionary`2" style="stroke: #A80036; stroke-width: 1.5;" width="146" x="402" y="148"/><ellipse cx="417" cy="164" fill="#ADD1B2" rx="11" ry="11" style="stroke: #A80036; stroke-width: 1.0;"/><path d="M419.9688,169.6406 Q419.3906,169.9375 418.75,170.0781 Q418.1094,170.2344 417.4063,170.2344 Q414.9063,170.2344 413.5781,168.5938 Q412.2656,166.9375 412.2656,163.8125 Q412.2656,160.6875 413.5781,159.0313 Q414.9063,157.375 417.4063,157.375 Q418.1094,157.375 418.75,157.5313 Q419.4063,157.6875 419.9688,157.9844 L419.9688,160.7031 Q419.3438,160.125 418.75,159.8594 Q418.1563,159.5781 417.5313,159.5781 Q416.1875,159.5781 415.5,160.6563 Q414.8125,161.7188 414.8125,163.8125 Q414.8125,165.9063 415.5,166.9844 Q416.1875,168.0469 417.5313,168.0469 Q418.1563,168.0469 418.75,167.7813 Q419.3438,167.5 419.9688,166.9219 L419.9688,169.6406 Z "/><text fill="#000000" font-family="sans-serif" font-size="12" lengthAdjust="spacingAndGlyphs" textLength="76" x="431" y="168.1543">Dictionary`2</text><rect fill="#FFFFFF" height="15.9688" style="stroke: #000000; stroke-width: 1.0; stroke-dasharray: 2.0,2.0;" width="36" x="515" y="145"/><text fill="#000000" font-family="sans-serif" font-size="12" font-style="italic" lengthAdjust="spacingAndGlyphs" textLength="34" x="516" y="157.1387">T1,T2</text><line style="stroke: #A80036; stroke-width: 1.5;" x1="403" x2="547" y1="180" y2="180"/><line style="stroke: #A80036; stroke-width: 1.5;" x1="403" x2="547" y1="188" y2="188"/><!--MD5=[064f7a74fee85463ec1a30143664ee17]
class GameObject--><rect fill="#FEFECE" filter="url(#fz4sl3r0bxqt4)" height="48" id="GameObject" style="stroke: #A80036; stroke-width: 1.5;" width="108" x="117" y="288"/><ellipse cx="132" cy="304" fill="#ADD1B2" rx="11" ry="11" style="stroke: #A80036; stroke-width: 1.0;"/><path d="M134.9688,309.6406 Q134.3906,309.9375 133.75,310.0781 Q133.1094,310.2344 132.4063,310.2344 Q129.9063,310.2344 128.5781,308.5938 Q127.2656,306.9375 127.2656,303.8125 Q127.2656,300.6875 128.5781,299.0313 Q129.9063,297.375 132.4063,297.375 Q133.1094,297.375 133.75,297.5313 Q134.4063,297.6875 134.9688,297.9844 L134.9688,300.7031 Q134.3438,300.125 133.75,299.8594 Q133.1563,299.5781 132.5313,299.5781 Q131.1875,299.5781 130.5,300.6563 Q129.8125,301.7188 129.8125,303.8125 Q129.8125,305.9063 130.5,306.9844 Q131.1875,308.0469 132.5313,308.0469 Q133.1563,308.0469 133.75,307.7813 Q134.3438,307.5 134.9688,306.9219 L134.9688,309.6406 Z "/><text fill="#000000" font-family="sans-serif" font-size="12" lengthAdjust="spacingAndGlyphs" textLength="76" x="146" y="308.1543">GameObject</text><line style="stroke: #A80036; stroke-width: 1.5;" x1="118" x2="224" y1="320" y2="320"/><line style="stroke: #A80036; stroke-width: 1.5;" x1="118" x2="224" y1="328" y2="328"/><!--MD5=[83b3cf3d23d77c6f1e1b5291a241bc2a]
class MonoBehaviour--><rect fill="#FEFECE" filter="url(#fz4sl3r0bxqt4)" height="48" id="MonoBehaviour" style="stroke: #A80036; stroke-width: 1.5;" width="128" x="206" y="8"/><ellipse cx="221" cy="24" fill="#ADD1B2" rx="11" ry="11" style="stroke: #A80036; stroke-width: 1.0;"/><path d="M223.9688,29.6406 Q223.3906,29.9375 222.75,30.0781 Q222.1094,30.2344 221.4063,30.2344 Q218.9063,30.2344 217.5781,28.5938 Q216.2656,26.9375 216.2656,23.8125 Q216.2656,20.6875 217.5781,19.0313 Q218.9063,17.375 221.4063,17.375 Q222.1094,17.375 222.75,17.5313 Q223.4063,17.6875 223.9688,17.9844 L223.9688,20.7031 Q223.3438,20.125 222.75,19.8594 Q222.1563,19.5781 221.5313,19.5781 Q220.1875,19.5781 219.5,20.6563 Q218.8125,21.7188 218.8125,23.8125 Q218.8125,25.9063 219.5,26.9844 Q220.1875,28.0469 221.5313,28.0469 Q222.1563,28.0469 222.75,27.7813 Q223.3438,27.5 223.9688,26.9219 L223.9688,29.6406 Z "/><text fill="#000000" font-family="sans-serif" font-size="12" lengthAdjust="spacingAndGlyphs" textLength="96" x="235" y="28.1543">MonoBehaviour</text><line style="stroke: #A80036; stroke-width: 1.5;" x1="207" x2="333" y1="40" y2="40"/><line style="stroke: #A80036; stroke-width: 1.5;" x1="207" x2="333" y1="48" y2="48"/><!--MD5=[c5760f3bebbd99d05220fe55f8feeb2d]
link MainMenuPage to GameObject--><path d="M95.46,205.7 C112.47,229.41 135.22,261.12 151.29,283.52 " fill="none" id="MainMenuPage-&gt;GameObject" style="stroke: #A80036; stroke-width: 1.0;"/><polygon fill="#A80036" points="154.21,287.6,152.2242,277.9534,151.2998,283.5342,145.719,282.6098,154.21,287.6" style="stroke: #A80036; stroke-width: 1.0;"/><text fill="#000000" font-family="sans-serif" font-size="13" lengthAdjust="spacingAndGlyphs" textLength="32" x="114.2174" y="276.9075">page</text><!--MD5=[11ec1d5a6dd95e30b91aadfbc32d6158]
reverse link MonoBehaviour to MainMenuManager--><path d="M270,76.25 C270,88.82 270,102.73 270,115.93 " fill="none" id="MonoBehaviour&lt;-MainMenuManager" style="stroke: #A80036; stroke-width: 1.0;"/><polygon fill="none" points="263,76.1,270,56.1,277,76.1,263,76.1" style="stroke: #A80036; stroke-width: 1.0;"/><!--MD5=[ad5bdd68ccc5f123bf38074232760e83]
link MainMenuManager to Dictionary`2--><path d="M378.89,172 C378.89,172 385.97,172 388.94,172 " fill="none" id="MainMenuManager-Dictionary`2" style="stroke: #A80036; stroke-width: 1.0;"/><polygon fill="#A80036" points="401.94,172,392.94,168,396.94,172,392.94,176,401.94,172" style="stroke: #A80036; stroke-width: 1.0;"/><line style="stroke: #A80036; stroke-width: 1.0;" x1="396.94" x2="388.94" y1="172" y2="172"/><polygon fill="#FFFFFF" points="366.89,172,372.89,176,378.89,172,372.89,168,366.89,172" style="stroke: #A80036; stroke-width: 1.0;"/><text fill="#000000" font-family="sans-serif" font-size="13" lengthAdjust="spacingAndGlyphs" textLength="206" x="530.682" y="137.1024">_pageDict&lt;string,GameObject&gt;</text><!--MD5=[821e83b2ed7785e99b382e292f4a7cee]
link MainMenuManager to GameObject--><path d="M230.3,228.33 C216.73,247.25 202.14,267.6 190.82,283.37 " fill="none" id="MainMenuManager-&gt;GameObject" style="stroke: #A80036; stroke-width: 1.0;"/><polygon fill="#A80036" points="187.72,287.69,196.211,282.6998,190.6302,283.6242,189.7058,278.0434,187.72,287.69" style="stroke: #A80036; stroke-width: 1.0;"/><text fill="#000000" font-family="sans-serif" font-size="13" lengthAdjust="spacingAndGlyphs" textLength="85" x="202.1549" y="277.0194">_currentPage</text><!--MD5=[b875b17f60319409550170940b97a450]
@startuml
class MainMenuPage <<struct>> {
    + pageName : string
}
class MainMenuManager {
    - _startPage : string
    - Awake() : void
    - Start() : void
    + ShowPage(page:string) : void
    + Quit() : void
}
class "Dictionary`2"<T1,T2> {
}
MainMenuPage - -> "page" GameObject
MonoBehaviour <|- - MainMenuManager
MainMenuManager o-> "_pageDict<string,GameObject>" "Dictionary`2"
MainMenuManager - -> "_currentPage" GameObject
@enduml

PlantUML version 1.2020.02(Sun Mar 01 10:22:07 GMT 2020)
(GPL source distribution)
Java Runtime: OpenJDK Runtime Environment
JVM: OpenJDK 64-Bit Server VM
Java Version: 11.0.9+11-Ubuntu-0ubuntu1
Operating System: Linux
Default Encoding: ANSI_X3.4-1968
Language: en
Country: US
--></g></svg>