<?xml version="1.0" encoding="UTF-8" standalone="no"?><svg xmlns="http://www.w3.org/2000/svg" xmlns:xlink="http://www.w3.org/1999/xlink" contentScriptType="application/ecmascript" contentStyleType="text/css" height="156px" preserveAspectRatio="none" style="width:606px;height:156px;" version="1.1" viewBox="0 0 606 156" width="606px" zoomAndPan="magnify"><defs><filter height="300%" id="f1oa6phaaoya1b" width="300%" x="-1" y="-1"><feGaussianBlur result="blurOut" stdDeviation="2.0"/><feColorMatrix in="blurOut" result="blurOut2" type="matrix" values="0 0 0 0 0 0 0 0 0 0 0 0 0 0 0 0 0 0 .4 0"/><feOffset dx="4.0" dy="4.0" in="blurOut2" result="blurOut3"/><feBlend in="SourceGraphic" in2="blurOut3" mode="normal"/></filter></defs><g><!--MD5=[908386ed5410ce6ab2f15f3d9dcaf6ff]
class DatabaseHandler--><rect fill="#FEFECE" filter="url(#f1oa6phaaoya1b)" height="137.6328" id="DatabaseHandler" style="stroke: #A80036; stroke-width: 1.5;" width="473" x="6" y="8"/><ellipse cx="183.25" cy="24" fill="#ADD1B2" rx="11" ry="11" style="stroke: #A80036; stroke-width: 1.0;"/><path d="M186.2188,29.6406 Q185.6406,29.9375 185,30.0781 Q184.3594,30.2344 183.6563,30.2344 Q181.1563,30.2344 179.8281,28.5938 Q178.5156,26.9375 178.5156,23.8125 Q178.5156,20.6875 179.8281,19.0313 Q181.1563,17.375 183.6563,17.375 Q184.3594,17.375 185,17.5313 Q185.6563,17.6875 186.2188,17.9844 L186.2188,20.7031 Q185.5938,20.125 185,19.8594 Q184.4063,19.5781 183.7813,19.5781 Q182.4375,19.5781 181.75,20.6563 Q181.0625,21.7188 181.0625,23.8125 Q181.0625,25.9063 181.75,26.9844 Q182.4375,28.0469 183.7813,28.0469 Q184.4063,28.0469 185,27.7813 Q185.5938,27.5 186.2188,26.9219 L186.2188,29.6406 Z "/><text fill="#000000" font-family="sans-serif" font-size="12" lengthAdjust="spacingAndGlyphs" textLength="110" x="203.75" y="28.1543">DatabaseHandler</text><line style="stroke: #A80036; stroke-width: 1.5;" x1="7" x2="478" y1="40" y2="40"/><line style="stroke: #A80036; stroke-width: 1.5;" x1="7" x2="478" y1="48" y2="48"/><ellipse cx="17" cy="59" fill="#84BE84" rx="3" ry="3" style="stroke: #038048; stroke-width: 1.0;"/><text fill="#000000" font-family="sans-serif" font-size="11" lengthAdjust="spacingAndGlyphs" textLength="106" x="26" y="62.2104">DatabaseHandler()</text><ellipse cx="17" cy="71.8047" fill="#84BE84" rx="3" ry="3" style="stroke: #038048; stroke-width: 1.0;"/><text fill="#000000" font-family="sans-serif" font-size="11" lengthAdjust="spacingAndGlyphs" textLength="158" x="26" y="75.0151">DatabaseHandler(url:string)</text><ellipse cx="17" cy="84.6094" fill="#84BE84" rx="3" ry="3" style="stroke: #038048; stroke-width: 1.0;"/><text fill="#000000" font-family="sans-serif" font-size="11" lengthAdjust="spacingAndGlyphs" textLength="416" x="26" y="87.8198">postScore(username:string, score:int, callback:PostScoreCallback) : void</text><ellipse cx="17" cy="97.4141" fill="#84BE84" rx="3" ry="3" style="stroke: #038048; stroke-width: 1.0;"/><text fill="#000000" font-family="sans-serif" font-size="11" lengthAdjust="spacingAndGlyphs" textLength="414" x="26" y="100.6245">getUserScores(username:string, callback:GetUserScoresCallback) : void</text><ellipse cx="17" cy="110.2188" fill="#84BE84" rx="3" ry="3" style="stroke: #038048; stroke-width: 1.0;"/><text fill="#000000" font-family="sans-serif" font-size="11" lengthAdjust="spacingAndGlyphs" textLength="283" x="26" y="113.4292">getAllScores(callback:GetAllScoresCallback) : void</text><ellipse cx="17" cy="123.0234" fill="#84BE84" rx="3" ry="3" style="stroke: #038048; stroke-width: 1.0;"/><text fill="#000000" font-family="sans-serif" font-size="11" lengthAdjust="spacingAndGlyphs" textLength="447" x="26" y="126.2339">deleteUserScores(username:string, callback:DeleteUserScoresCallback) : void</text><ellipse cx="17" cy="135.8281" fill="#84BE84" rx="3" ry="3" style="stroke: #038048; stroke-width: 1.0;"/><text fill="#000000" font-family="sans-serif" font-size="11" lengthAdjust="spacingAndGlyphs" textLength="324" x="26" y="139.0386">deleteAtUrl(url:string, callback:DeleteAtUrlCallback) : void</text><!--MD5=[e644022de7dea015dd09463c37421447]
class List`1--><rect fill="#FEFECE" filter="url(#f1oa6phaaoya1b)" height="48" id="List`1" style="stroke: #A80036; stroke-width: 1.5;" width="78" x="514.5" y="53"/><ellipse cx="529.5" cy="69" fill="#ADD1B2" rx="11" ry="11" style="stroke: #A80036; stroke-width: 1.0;"/><path d="M532.4688,74.6406 Q531.8906,74.9375 531.25,75.0781 Q530.6094,75.2344 529.9063,75.2344 Q527.4063,75.2344 526.0781,73.5938 Q524.7656,71.9375 524.7656,68.8125 Q524.7656,65.6875 526.0781,64.0313 Q527.4063,62.375 529.9063,62.375 Q530.6094,62.375 531.25,62.5313 Q531.9063,62.6875 532.4688,62.9844 L532.4688,65.7031 Q531.8438,65.125 531.25,64.8594 Q530.6563,64.5781 530.0313,64.5781 Q528.6875,64.5781 528,65.6563 Q527.3125,66.7188 527.3125,68.8125 Q527.3125,70.9063 528,71.9844 Q528.6875,73.0469 530.0313,73.0469 Q530.6563,73.0469 531.25,72.7813 Q531.8438,72.5 532.4688,71.9219 L532.4688,74.6406 Z "/><text fill="#000000" font-family="sans-serif" font-size="12" lengthAdjust="spacingAndGlyphs" textLength="35" x="543.5" y="73.1543">List`1</text><rect fill="#FFFFFF" height="15.9688" style="stroke: #000000; stroke-width: 1.0; stroke-dasharray: 2.0,2.0;" width="9" x="586.5" y="50"/><text fill="#000000" font-family="sans-serif" font-size="12" font-style="italic" lengthAdjust="spacingAndGlyphs" textLength="7" x="587.5" y="62.1387">T</text><line style="stroke: #A80036; stroke-width: 1.5;" x1="515.5" x2="591.5" y1="85" y2="85"/><line style="stroke: #A80036; stroke-width: 1.5;" x1="515.5" x2="591.5" y1="93" y2="93"/><!--MD5=[faf64b7d9b24ea07eb8fd60d06691290]
@startuml
class DatabaseHandler {
    + DatabaseHandler()
    + DatabaseHandler(url:string)
    + postScore(username:string, score:int, callback:PostScoreCallback) : void
    + getUserScores(username:string, callback:GetUserScoresCallback) : void
    + getAllScores(callback:GetAllScoresCallback) : void
    + deleteUserScores(username:string, callback:DeleteUserScoresCallback) : void
    + deleteAtUrl(url:string, callback:DeleteAtUrlCallback) : void
}
class "List`1"<T> {
}
@enduml

PlantUML version 1.2020.02(Sun Mar 01 10:22:07 GMT 2020)
(GPL source distribution)
Java Runtime: OpenJDK Runtime Environment
JVM: OpenJDK 64-Bit Server VM
Java Version: 11.0.9+11-Ubuntu-0ubuntu1
Operating System: Linux
Default Encoding: ANSI_X3.4-1968
Language: en
Country: US
--></g></svg>