<?xml version="1.0" encoding="UTF-8" standalone="no"?><svg xmlns="http://www.w3.org/2000/svg" xmlns:xlink="http://www.w3.org/1999/xlink" contentScriptType="application/ecmascript" contentStyleType="text/css" height="91px" preserveAspectRatio="none" style="width:154px;height:91px;" version="1.1" viewBox="0 0 154 91" width="154px" zoomAndPan="magnify"><defs><filter height="300%" id="f1fm5wiqs2jbjl" width="300%" x="-1" y="-1"><feGaussianBlur result="blurOut" stdDeviation="2.0"/><feColorMatrix in="blurOut" result="blurOut2" type="matrix" values="0 0 0 0 0 0 0 0 0 0 0 0 0 0 0 0 0 0 .4 0"/><feOffset dx="4.0" dy="4.0" in="blurOut2" result="blurOut3"/><feBlend in="SourceGraphic" in2="blurOut3" mode="normal"/></filter></defs><g><!--MD5=[107af66394bf1ebaa045812c9c475148]
class Score--><rect fill="#FEFECE" filter="url(#f1fm5wiqs2jbjl)" height="73.6094" id="Score" style="stroke: #A80036; stroke-width: 1.5;" width="136" x="7" y="7"/><ellipse cx="52.75" cy="23" fill="#ADD1B2" rx="11" ry="11" style="stroke: #A80036; stroke-width: 1.0;"/><path d="M55.7188,28.6406 Q55.1406,28.9375 54.5,29.0781 Q53.8594,29.2344 53.1563,29.2344 Q50.6563,29.2344 49.3281,27.5938 Q48.0156,25.9375 48.0156,22.8125 Q48.0156,19.6875 49.3281,18.0313 Q50.6563,16.375 53.1563,16.375 Q53.8594,16.375 54.5,16.5313 Q55.1563,16.6875 55.7188,16.9844 L55.7188,19.7031 Q55.0938,19.125 54.5,18.8594 Q53.9063,18.5781 53.2813,18.5781 Q51.9375,18.5781 51.25,19.6563 Q50.5625,20.7188 50.5625,22.8125 Q50.5625,24.9063 51.25,25.9844 Q51.9375,27.0469 53.2813,27.0469 Q53.9063,27.0469 54.5,26.7813 Q55.0938,26.5 55.7188,25.9219 L55.7188,28.6406 Z "/><text fill="#000000" font-family="sans-serif" font-size="12" lengthAdjust="spacingAndGlyphs" textLength="36" x="73.25" y="27.1543">Score</text><line style="stroke: #A80036; stroke-width: 1.5;" x1="8" x2="142" y1="39" y2="39"/><ellipse cx="18" cy="50" fill="none" rx="3" ry="3" style="stroke: #038048; stroke-width: 1.0;"/><text fill="#000000" font-family="sans-serif" font-size="11" lengthAdjust="spacingAndGlyphs" textLength="77" x="27" y="53.2104">score : string</text><line style="stroke: #A80036; stroke-width: 1.5;" x1="8" x2="142" y1="59.8047" y2="59.8047"/><ellipse cx="18" cy="70.8047" fill="#84BE84" rx="3" ry="3" style="stroke: #038048; stroke-width: 1.0;"/><text fill="#000000" font-family="sans-serif" font-size="11" lengthAdjust="spacingAndGlyphs" textLength="110" x="27" y="74.0151">Score(score:string)</text><!--MD5=[13d2cb2957e9994919b98fc48c4653b0]
@startuml
class Score {
    + score : string
    + Score(score:string)
}
@enduml

PlantUML version 1.2020.02(Sun Mar 01 10:22:07 GMT 2020)
(GPL source distribution)
Java Runtime: OpenJDK Runtime Environment
JVM: OpenJDK 64-Bit Server VM
Java Version: 11.0.9+11-Ubuntu-0ubuntu1
Operating System: Linux
Default Encoding: ANSI_X3.4-1968
Language: en
Country: US
--></g></svg>