<?xml version="1.0" encoding="UTF-8" standalone="no"?><svg xmlns="http://www.w3.org/2000/svg" xmlns:xlink="http://www.w3.org/1999/xlink" contentScriptType="application/ecmascript" contentStyleType="text/css" height="251px" preserveAspectRatio="none" style="width:228px;height:251px;" version="1.1" viewBox="0 0 228 251" width="228px" zoomAndPan="magnify"><defs><filter height="300%" id="f1vjleyv4hy5c6" width="300%" x="-1" y="-1"><feGaussianBlur result="blurOut" stdDeviation="2.0"/><feColorMatrix in="blurOut" result="blurOut2" type="matrix" values="0 0 0 0 0 0 0 0 0 0 0 0 0 0 0 0 0 0 .4 0"/><feOffset dx="4.0" dy="4.0" in="blurOut2" result="blurOut3"/><feBlend in="SourceGraphic" in2="blurOut3" mode="normal"/></filter></defs><g><!--MD5=[d59508f174a7b8098744c1dcbca0d3bf]
class TestDatabaseHandler--><rect fill="#FEFECE" filter="url(#f1vjleyv4hy5c6)" height="124.8281" id="TestDatabaseHandler" style="stroke: #A80036; stroke-width: 1.5;" width="211" x="6" y="116"/><ellipse cx="39.9" cy="132" fill="#ADD1B2" rx="11" ry="11" style="stroke: #A80036; stroke-width: 1.0;"/><path d="M42.8688,137.6406 Q42.2906,137.9375 41.65,138.0781 Q41.0094,138.2344 40.3063,138.2344 Q37.8063,138.2344 36.4781,136.5938 Q35.1656,134.9375 35.1656,131.8125 Q35.1656,128.6875 36.4781,127.0313 Q37.8063,125.375 40.3063,125.375 Q41.0094,125.375 41.65,125.5313 Q42.3063,125.6875 42.8688,125.9844 L42.8688,128.7031 Q42.2438,128.125 41.65,127.8594 Q41.0563,127.5781 40.4313,127.5781 Q39.0875,127.5781 38.4,128.6563 Q37.7125,129.7188 37.7125,131.8125 Q37.7125,133.9063 38.4,134.9844 Q39.0875,136.0469 40.4313,136.0469 Q41.0563,136.0469 41.65,135.7813 Q42.2438,135.5 42.8688,134.9219 L42.8688,137.6406 Z "/><text fill="#000000" font-family="sans-serif" font-size="12" lengthAdjust="spacingAndGlyphs" textLength="137" x="58.1" y="136.1543">TestDatabaseHandler</text><line style="stroke: #A80036; stroke-width: 1.5;" x1="7" x2="216" y1="148" y2="148"/><line style="stroke: #A80036; stroke-width: 1.5;" x1="7" x2="216" y1="156" y2="156"/><rect fill="#F24D5C" height="6" style="stroke: #C82930; stroke-width: 1.0;" width="6" x="14" y="164"/><text fill="#000000" font-family="sans-serif" font-size="11" lengthAdjust="spacingAndGlyphs" text-decoration="underline" textLength="108" x="26" y="170.2104">OnAppStart() : void</text><ellipse cx="17" cy="179.8047" fill="#84BE84" rx="3" ry="3" style="stroke: #038048; stroke-width: 1.0;"/><text fill="#000000" font-family="sans-serif" font-size="11" lengthAdjust="spacingAndGlyphs" text-decoration="underline" textLength="137" x="26" y="183.0151">testUploadScore() : void</text><ellipse cx="17" cy="192.6094" fill="#84BE84" rx="3" ry="3" style="stroke: #038048; stroke-width: 1.0;"/><text fill="#000000" font-family="sans-serif" font-size="11" lengthAdjust="spacingAndGlyphs" text-decoration="underline" textLength="134" x="26" y="195.8198">testDeleteScore() : void</text><ellipse cx="17" cy="205.4141" fill="#84BE84" rx="3" ry="3" style="stroke: #038048; stroke-width: 1.0;"/><text fill="#000000" font-family="sans-serif" font-size="11" lengthAdjust="spacingAndGlyphs" text-decoration="underline" textLength="152" x="26" y="208.6245">testGetUserScores() : void</text><ellipse cx="17" cy="218.2188" fill="#84BE84" rx="3" ry="3" style="stroke: #038048; stroke-width: 1.0;"/><text fill="#000000" font-family="sans-serif" font-size="11" lengthAdjust="spacingAndGlyphs" text-decoration="underline" textLength="138" x="26" y="221.4292">testGetAllScores() : void</text><ellipse cx="17" cy="231.0234" fill="#84BE84" rx="3" ry="3" style="stroke: #038048; stroke-width: 1.0;"/><text fill="#000000" font-family="sans-serif" font-size="11" lengthAdjust="spacingAndGlyphs" text-decoration="underline" textLength="185" x="26" y="234.2339">testGetAllScoresOrdered() : void</text><!--MD5=[83b3cf3d23d77c6f1e1b5291a241bc2a]
class MonoBehaviour--><rect fill="#FEFECE" filter="url(#f1vjleyv4hy5c6)" height="48" id="MonoBehaviour" style="stroke: #A80036; stroke-width: 1.5;" width="128" x="47.5" y="8"/><ellipse cx="62.5" cy="24" fill="#ADD1B2" rx="11" ry="11" style="stroke: #A80036; stroke-width: 1.0;"/><path d="M65.4688,29.6406 Q64.8906,29.9375 64.25,30.0781 Q63.6094,30.2344 62.9063,30.2344 Q60.4063,30.2344 59.0781,28.5938 Q57.7656,26.9375 57.7656,23.8125 Q57.7656,20.6875 59.0781,19.0313 Q60.4063,17.375 62.9063,17.375 Q63.6094,17.375 64.25,17.5313 Q64.9063,17.6875 65.4688,17.9844 L65.4688,20.7031 Q64.8438,20.125 64.25,19.8594 Q63.6563,19.5781 63.0313,19.5781 Q61.6875,19.5781 61,20.6563 Q60.3125,21.7188 60.3125,23.8125 Q60.3125,25.9063 61,26.9844 Q61.6875,28.0469 63.0313,28.0469 Q63.6563,28.0469 64.25,27.7813 Q64.8438,27.5 65.4688,26.9219 L65.4688,29.6406 Z "/><text fill="#000000" font-family="sans-serif" font-size="12" lengthAdjust="spacingAndGlyphs" textLength="96" x="76.5" y="28.1543">MonoBehaviour</text><line style="stroke: #A80036; stroke-width: 1.5;" x1="48.5" x2="174.5" y1="40" y2="40"/><line style="stroke: #A80036; stroke-width: 1.5;" x1="48.5" x2="174.5" y1="48" y2="48"/><!--MD5=[bff658f8002c8ce6ba6d06bb6902f070]
reverse link MonoBehaviour to TestDatabaseHandler--><path d="M111.5,76.67 C111.5,89.05 111.5,102.77 111.5,115.99 " fill="none" id="MonoBehaviour&lt;-TestDatabaseHandler" style="stroke: #A80036; stroke-width: 1.0;"/><polygon fill="none" points="104.5,76.22,111.5,56.22,118.5,76.22,104.5,76.22" style="stroke: #A80036; stroke-width: 1.0;"/><!--MD5=[6baf8ac6433983ec997b1b57d62f2aa0]
@startuml
class TestDatabaseHandler {
    - {static} OnAppStart() : void
    + {static} testUploadScore() : void
    + {static} testDeleteScore() : void
    + {static} testGetUserScores() : void
    + {static} testGetAllScores() : void
    + {static} testGetAllScoresOrdered() : void
}
MonoBehaviour <|- - TestDatabaseHandler
@enduml

PlantUML version 1.2020.02(Sun Mar 01 10:22:07 GMT 2020)
(GPL source distribution)
Java Runtime: OpenJDK Runtime Environment
JVM: OpenJDK 64-Bit Server VM
Java Version: 11.0.9+11-Ubuntu-0ubuntu1
Operating System: Linux
Default Encoding: ANSI_X3.4-1968
Language: en
Country: US
--></g></svg>