<?xml version="1.0" encoding="UTF-8" standalone="no"?><svg xmlns="http://www.w3.org/2000/svg" xmlns:xlink="http://www.w3.org/1999/xlink" contentScriptType="application/ecmascript" contentStyleType="text/css" height="131px" preserveAspectRatio="none" style="width:810px;height:131px;" version="1.1" viewBox="0 0 810 131" width="810px" zoomAndPan="magnify"><defs><filter height="300%" id="f1fmoa1lw13eq" width="300%" x="-1" y="-1"><feGaussianBlur result="blurOut" stdDeviation="2.0"/><feColorMatrix in="blurOut" result="blurOut2" type="matrix" values="0 0 0 0 0 0 0 0 0 0 0 0 0 0 0 0 0 0 .4 0"/><feOffset dx="4.0" dy="4.0" in="blurOut2" result="blurOut3"/><feBlend in="SourceGraphic" in2="blurOut3" mode="normal"/></filter></defs><g><!--MD5=[a037b8a561e4ea551841a4a3084043dd]
class UsersAndScores--><rect fill="#FEFECE" filter="url(#f1fmoa1lw13eq)" height="112.0234" id="UsersAndScores" style="stroke: #A80036; stroke-width: 1.5;" width="387" x="6" y="8"/><ellipse cx="143.75" cy="24" fill="#ADD1B2" rx="11" ry="11" style="stroke: #A80036; stroke-width: 1.0;"/><path d="M146.7188,29.6406 Q146.1406,29.9375 145.5,30.0781 Q144.8594,30.2344 144.1563,30.2344 Q141.6563,30.2344 140.3281,28.5938 Q139.0156,26.9375 139.0156,23.8125 Q139.0156,20.6875 140.3281,19.0313 Q141.6563,17.375 144.1563,17.375 Q144.8594,17.375 145.5,17.5313 Q146.1563,17.6875 146.7188,17.9844 L146.7188,20.7031 Q146.0938,20.125 145.5,19.8594 Q144.9063,19.5781 144.2813,19.5781 Q142.9375,19.5781 142.25,20.6563 Q141.5625,21.7188 141.5625,23.8125 Q141.5625,25.9063 142.25,26.9844 Q142.9375,28.0469 144.2813,28.0469 Q144.9063,28.0469 145.5,27.7813 Q146.0938,27.5 146.7188,26.9219 L146.7188,29.6406 Z "/><text fill="#000000" font-family="sans-serif" font-size="12" lengthAdjust="spacingAndGlyphs" textLength="103" x="164.25" y="28.1543">UsersAndScores</text><line style="stroke: #A80036; stroke-width: 1.5;" x1="7" x2="392" y1="40" y2="40"/><line style="stroke: #A80036; stroke-width: 1.5;" x1="7" x2="392" y1="48" y2="48"/><ellipse cx="17" cy="59" fill="#84BE84" rx="3" ry="3" style="stroke: #038048; stroke-width: 1.0;"/><text fill="#000000" font-family="sans-serif" font-size="11" lengthAdjust="spacingAndGlyphs" textLength="103" x="26" y="62.2104">UsersAndScores()</text><ellipse cx="17" cy="71.8047" fill="#84BE84" rx="3" ry="3" style="stroke: #038048; stroke-width: 1.0;"/><text fill="#000000" font-family="sans-serif" font-size="11" lengthAdjust="spacingAndGlyphs" textLength="236" x="26" y="75.0151">add(username:string, score:Score) : void</text><ellipse cx="17" cy="84.6094" fill="#84BE84" rx="3" ry="3" style="stroke: #038048; stroke-width: 1.0;"/><text fill="#000000" font-family="sans-serif" font-size="11" lengthAdjust="spacingAndGlyphs" textLength="361" x="26" y="87.8198">getUserScores(username:string) : List&lt;Tuple&lt;string, string&gt;&gt;</text><ellipse cx="17" cy="97.4141" fill="#84BE84" rx="3" ry="3" style="stroke: #038048; stroke-width: 1.0;"/><text fill="#000000" font-family="sans-serif" font-size="11" lengthAdjust="spacingAndGlyphs" textLength="252" x="26" y="100.6245">getAllScores() : List&lt;Tuple&lt;string, string&gt;&gt;</text><ellipse cx="17" cy="110.2188" fill="#84BE84" rx="3" ry="3" style="stroke: #038048; stroke-width: 1.0;"/><text fill="#000000" font-family="sans-serif" font-size="11" lengthAdjust="spacingAndGlyphs" textLength="299" x="26" y="113.4292">getAllScoresOrdered() : List&lt;Tuple&lt;string, string&gt;&gt;</text><!--MD5=[e644022de7dea015dd09463c37421447]
class List`1--><rect fill="#FEFECE" filter="url(#f1fmoa1lw13eq)" height="48" id="List`1" style="stroke: #A80036; stroke-width: 1.5;" width="78" x="428.5" y="40"/><ellipse cx="443.5" cy="56" fill="#ADD1B2" rx="11" ry="11" style="stroke: #A80036; stroke-width: 1.0;"/><path d="M446.4688,61.6406 Q445.8906,61.9375 445.25,62.0781 Q444.6094,62.2344 443.9063,62.2344 Q441.4063,62.2344 440.0781,60.5938 Q438.7656,58.9375 438.7656,55.8125 Q438.7656,52.6875 440.0781,51.0313 Q441.4063,49.375 443.9063,49.375 Q444.6094,49.375 445.25,49.5313 Q445.9063,49.6875 446.4688,49.9844 L446.4688,52.7031 Q445.8438,52.125 445.25,51.8594 Q444.6563,51.5781 444.0313,51.5781 Q442.6875,51.5781 442,52.6563 Q441.3125,53.7188 441.3125,55.8125 Q441.3125,57.9063 442,58.9844 Q442.6875,60.0469 444.0313,60.0469 Q444.6563,60.0469 445.25,59.7813 Q445.8438,59.5 446.4688,58.9219 L446.4688,61.6406 Z "/><text fill="#000000" font-family="sans-serif" font-size="12" lengthAdjust="spacingAndGlyphs" textLength="35" x="457.5" y="60.1543">List`1</text><rect fill="#FFFFFF" height="15.9688" style="stroke: #000000; stroke-width: 1.0; stroke-dasharray: 2.0,2.0;" width="9" x="500.5" y="37"/><text fill="#000000" font-family="sans-serif" font-size="12" font-style="italic" lengthAdjust="spacingAndGlyphs" textLength="7" x="501.5" y="49.1387">T</text><line style="stroke: #A80036; stroke-width: 1.5;" x1="429.5" x2="505.5" y1="72" y2="72"/><line style="stroke: #A80036; stroke-width: 1.5;" x1="429.5" x2="505.5" y1="80" y2="80"/><!--MD5=[dc546195f827805175aada98778359d1]
link UsersAndScores to List`1--><path d="M405.17,64 C405.17,64 412.29,64 415.27,64 " fill="none" id="UsersAndScores-List`1" style="stroke: #A80036; stroke-width: 1.0;"/><polygon fill="#A80036" points="428.3,64,419.3,60,423.3,64,419.3,68,428.3,64" style="stroke: #A80036; stroke-width: 1.0;"/><line style="stroke: #A80036; stroke-width: 1.0;" x1="423.3" x2="415.3" y1="64" y2="64"/><polygon fill="#FFFFFF" points="393.17,64,399.17,68,405.17,64,399.17,60,393.17,64" style="stroke: #A80036; stroke-width: 1.0;"/><text fill="#000000" font-family="sans-serif" font-size="13" lengthAdjust="spacingAndGlyphs" textLength="285" x="513.5225" y="82.3092">_allUsersAndScores&lt;Tuple&lt;string, string&gt;&gt;</text><!--MD5=[3f6ed3d1a0b9089f2c0d342bcb5b7dd1]
@startuml
class UsersAndScores {
    + UsersAndScores()
    + add(username:string, score:Score) : void
    + getUserScores(username:string) : List<Tuple<string, string>>
    + getAllScores() : List<Tuple<string, string>>
    + getAllScoresOrdered() : List<Tuple<string, string>>
}
class "List`1"<T> {
}
UsersAndScores o-> "_allUsersAndScores<Tuple<string, string>>" "List`1"
@enduml

PlantUML version 1.2020.02(Sun Mar 01 10:22:07 GMT 2020)
(GPL source distribution)
Java Runtime: OpenJDK Runtime Environment
JVM: OpenJDK 64-Bit Server VM
Java Version: 11.0.9+11-Ubuntu-0ubuntu1
Operating System: Linux
Default Encoding: ANSI_X3.4-1968
Language: en
Country: US
--></g></svg>