<?xml version="1.0" encoding="UTF-8" standalone="no"?><svg xmlns="http://www.w3.org/2000/svg" xmlns:xlink="http://www.w3.org/1999/xlink" contentScriptType="application/ecmascript" contentStyleType="text/css" height="130px" preserveAspectRatio="none" style="width:405px;height:130px;" version="1.1" viewBox="0 0 405 130" width="405px" zoomAndPan="magnify"><defs><filter height="300%" id="f1kfk1jmivovsh" width="300%" x="-1" y="-1"><feGaussianBlur result="blurOut" stdDeviation="2.0"/><feColorMatrix in="blurOut" result="blurOut2" type="matrix" values="0 0 0 0 0 0 0 0 0 0 0 0 0 0 0 0 0 0 .4 0"/><feOffset dx="4.0" dy="4.0" in="blurOut2" result="blurOut3"/><feBlend in="SourceGraphic" in2="blurOut3" mode="normal"/></filter></defs><g><!--MD5=[a037b8a561e4ea551841a4a3084043dd]
class UsersAndScores--><rect fill="#FEFECE" filter="url(#f1kfk1jmivovsh)" height="112.0234" id="UsersAndScores" style="stroke: #A80036; stroke-width: 1.5;" width="387" x="7" y="7"/><ellipse cx="144.75" cy="23" fill="#ADD1B2" rx="11" ry="11" style="stroke: #A80036; stroke-width: 1.0;"/><path d="M147.7188,28.6406 Q147.1406,28.9375 146.5,29.0781 Q145.8594,29.2344 145.1563,29.2344 Q142.6563,29.2344 141.3281,27.5938 Q140.0156,25.9375 140.0156,22.8125 Q140.0156,19.6875 141.3281,18.0313 Q142.6563,16.375 145.1563,16.375 Q145.8594,16.375 146.5,16.5313 Q147.1563,16.6875 147.7188,16.9844 L147.7188,19.7031 Q147.0938,19.125 146.5,18.8594 Q145.9063,18.5781 145.2813,18.5781 Q143.9375,18.5781 143.25,19.6563 Q142.5625,20.7188 142.5625,22.8125 Q142.5625,24.9063 143.25,25.9844 Q143.9375,27.0469 145.2813,27.0469 Q145.9063,27.0469 146.5,26.7813 Q147.0938,26.5 147.7188,25.9219 L147.7188,28.6406 Z "/><text fill="#000000" font-family="sans-serif" font-size="12" lengthAdjust="spacingAndGlyphs" textLength="103" x="165.25" y="27.1543">UsersAndScores</text><line style="stroke: #A80036; stroke-width: 1.5;" x1="8" x2="393" y1="39" y2="39"/><line style="stroke: #A80036; stroke-width: 1.5;" x1="8" x2="393" y1="47" y2="47"/><ellipse cx="18" cy="58" fill="#84BE84" rx="3" ry="3" style="stroke: #038048; stroke-width: 1.0;"/><text fill="#000000" font-family="sans-serif" font-size="11" lengthAdjust="spacingAndGlyphs" textLength="103" x="27" y="61.2104">UsersAndScores()</text><ellipse cx="18" cy="70.8047" fill="#84BE84" rx="3" ry="3" style="stroke: #038048; stroke-width: 1.0;"/><text fill="#000000" font-family="sans-serif" font-size="11" lengthAdjust="spacingAndGlyphs" textLength="236" x="27" y="74.0151">add(username:string, score:Score) : void</text><ellipse cx="18" cy="83.6094" fill="#84BE84" rx="3" ry="3" style="stroke: #038048; stroke-width: 1.0;"/><text fill="#000000" font-family="sans-serif" font-size="11" lengthAdjust="spacingAndGlyphs" textLength="361" x="27" y="86.8198">getUserScores(username:string) : List&lt;Tuple&lt;string, string&gt;&gt;</text><ellipse cx="18" cy="96.4141" fill="#84BE84" rx="3" ry="3" style="stroke: #038048; stroke-width: 1.0;"/><text fill="#000000" font-family="sans-serif" font-size="11" lengthAdjust="spacingAndGlyphs" textLength="252" x="27" y="99.6245">getAllScores() : List&lt;Tuple&lt;string, string&gt;&gt;</text><ellipse cx="18" cy="109.2188" fill="#84BE84" rx="3" ry="3" style="stroke: #038048; stroke-width: 1.0;"/><text fill="#000000" font-family="sans-serif" font-size="11" lengthAdjust="spacingAndGlyphs" textLength="299" x="27" y="112.4292">getAllScoresOrdered() : List&lt;Tuple&lt;string, string&gt;&gt;</text><!--MD5=[73003ffea55e2a0c677deb7e7a6f8021]
@startuml
class UsersAndScores {
    + UsersAndScores()
    + add(username:string, score:Score) : void
    + getUserScores(username:string) : List<Tuple<string, string>>
    + getAllScores() : List<Tuple<string, string>>
    + getAllScoresOrdered() : List<Tuple<string, string>>
}
@enduml

PlantUML version 1.2020.02(Sun Mar 01 10:22:07 GMT 2020)
(GPL source distribution)
Java Runtime: OpenJDK Runtime Environment
JVM: OpenJDK 64-Bit Server VM
Java Version: 11.0.9+11-Ubuntu-0ubuntu1
Operating System: Linux
Default Encoding: ANSI_X3.4-1968
Language: en
Country: US
--></g></svg>