<?xml version="1.0" encoding="UTF-8" standalone="no"?><svg xmlns="http://www.w3.org/2000/svg" xmlns:xlink="http://www.w3.org/1999/xlink" contentScriptType="application/ecmascript" contentStyleType="text/css" height="309px" preserveAspectRatio="none" style="width:582px;height:309px;" version="1.1" viewBox="0 0 582 309" width="582px" zoomAndPan="magnify"><defs><filter height="300%" id="fzn0od3fe3ivt" width="300%" x="-1" y="-1"><feGaussianBlur result="blurOut" stdDeviation="2.0"/><feColorMatrix in="blurOut" result="blurOut2" type="matrix" values="0 0 0 0 0 0 0 0 0 0 0 0 0 0 0 0 0 0 .4 0"/><feOffset dx="4.0" dy="4.0" in="blurOut2" result="blurOut3"/><feBlend in="SourceGraphic" in2="blurOut3" mode="normal"/></filter></defs><g><!--MD5=[89768c2daffc59d61132be1f0234ac7c]
class PlayerGraphicsController--><rect fill="#FEFECE" filter="url(#fzn0od3fe3ivt)" height="73.6094" id="PlayerGraphicsController" style="stroke: #A80036; stroke-width: 1.5;" width="186" x="140.86" y="116"/><ellipse cx="155.86" cy="132" fill="#ADD1B2" rx="11" ry="11" style="stroke: #A80036; stroke-width: 1.0;"/><path d="M158.8288,137.6406 Q158.2506,137.9375 157.61,138.0781 Q156.9694,138.2344 156.2663,138.2344 Q153.7663,138.2344 152.4381,136.5938 Q151.1256,134.9375 151.1256,131.8125 Q151.1256,128.6875 152.4381,127.0313 Q153.7663,125.375 156.2663,125.375 Q156.9694,125.375 157.61,125.5313 Q158.2663,125.6875 158.8288,125.9844 L158.8288,128.7031 Q158.2038,128.125 157.61,127.8594 Q157.0163,127.5781 156.3913,127.5781 Q155.0475,127.5781 154.36,128.6563 Q153.6725,129.7188 153.6725,131.8125 Q153.6725,133.9063 154.36,134.9844 Q155.0475,136.0469 156.3913,136.0469 Q157.0163,136.0469 157.61,135.7813 Q158.2038,135.5 158.8288,134.9219 L158.8288,137.6406 Z "/><text fill="#000000" font-family="sans-serif" font-size="12" lengthAdjust="spacingAndGlyphs" textLength="154" x="169.86" y="136.1543">PlayerGraphicsController</text><line style="stroke: #A80036; stroke-width: 1.5;" x1="141.86" x2="325.86" y1="148" y2="148"/><line style="stroke: #A80036; stroke-width: 1.5;" x1="141.86" x2="325.86" y1="156" y2="156"/><rect fill="#F24D5C" height="6" style="stroke: #C82930; stroke-width: 1.0;" width="6" x="148.86" y="164"/><text fill="#000000" font-family="sans-serif" font-size="11" lengthAdjust="spacingAndGlyphs" textLength="79" x="160.86" y="170.2104">Awake() : void</text><rect fill="#F24D5C" height="6" style="stroke: #C82930; stroke-width: 1.0;" width="6" x="148.86" y="176.8047"/><text fill="#000000" font-family="sans-serif" font-size="11" lengthAdjust="spacingAndGlyphs" textLength="83" x="160.86" y="183.0151">Update() : void</text><!--MD5=[3103184eca4944b8939aac147653371d]
class NetworkVariable`1--><rect fill="#FEFECE" filter="url(#fzn0od3fe3ivt)" height="48" id="NetworkVariable`1" style="stroke: #A80036; stroke-width: 1.5;" width="159" x="361.36" y="129"/><ellipse cx="376.36" cy="145" fill="#ADD1B2" rx="11" ry="11" style="stroke: #A80036; stroke-width: 1.0;"/><path d="M379.3288,150.6406 Q378.7506,150.9375 378.11,151.0781 Q377.4694,151.2344 376.7663,151.2344 Q374.2663,151.2344 372.9381,149.5938 Q371.6256,147.9375 371.6256,144.8125 Q371.6256,141.6875 372.9381,140.0313 Q374.2663,138.375 376.7663,138.375 Q377.4694,138.375 378.11,138.5313 Q378.7663,138.6875 379.3288,138.9844 L379.3288,141.7031 Q378.7038,141.125 378.11,140.8594 Q377.5163,140.5781 376.8913,140.5781 Q375.5475,140.5781 374.86,141.6563 Q374.1725,142.7188 374.1725,144.8125 Q374.1725,146.9063 374.86,147.9844 Q375.5475,149.0469 376.8913,149.0469 Q377.5163,149.0469 378.11,148.7813 Q378.7038,148.5 379.3288,147.9219 L379.3288,150.6406 Z "/><text fill="#000000" font-family="sans-serif" font-size="12" lengthAdjust="spacingAndGlyphs" textLength="116" x="390.36" y="149.1543">NetworkVariable`1</text><rect fill="#FFFFFF" height="15.9688" style="stroke: #000000; stroke-width: 1.0; stroke-dasharray: 2.0,2.0;" width="9" x="514.36" y="126"/><text fill="#000000" font-family="sans-serif" font-size="12" font-style="italic" lengthAdjust="spacingAndGlyphs" textLength="7" x="515.36" y="138.1387">T</text><line style="stroke: #A80036; stroke-width: 1.5;" x1="362.36" x2="519.36" y1="161" y2="161"/><line style="stroke: #A80036; stroke-width: 1.5;" x1="362.36" x2="519.36" y1="169" y2="169"/><!--MD5=[be62f0ac78b5cca9d2b2f8a4bd540407]
class NetworkBehaviour--><rect fill="#FEFECE" filter="url(#fzn0od3fe3ivt)" height="48" id="NetworkBehaviour" style="stroke: #A80036; stroke-width: 1.5;" width="145" x="161.36" y="8"/><ellipse cx="176.36" cy="24" fill="#ADD1B2" rx="11" ry="11" style="stroke: #A80036; stroke-width: 1.0;"/><path d="M179.3288,29.6406 Q178.7506,29.9375 178.11,30.0781 Q177.4694,30.2344 176.7663,30.2344 Q174.2663,30.2344 172.9381,28.5938 Q171.6256,26.9375 171.6256,23.8125 Q171.6256,20.6875 172.9381,19.0313 Q174.2663,17.375 176.7663,17.375 Q177.4694,17.375 178.11,17.5313 Q178.7663,17.6875 179.3288,17.9844 L179.3288,20.7031 Q178.7038,20.125 178.11,19.8594 Q177.5163,19.5781 176.8913,19.5781 Q175.5475,19.5781 174.86,20.6563 Q174.1725,21.7188 174.1725,23.8125 Q174.1725,25.9063 174.86,26.9844 Q175.5475,28.0469 176.8913,28.0469 Q177.5163,28.0469 178.11,27.7813 Q178.7038,27.5 179.3288,26.9219 L179.3288,29.6406 Z "/><text fill="#000000" font-family="sans-serif" font-size="12" lengthAdjust="spacingAndGlyphs" textLength="113" x="190.36" y="28.1543">NetworkBehaviour</text><line style="stroke: #A80036; stroke-width: 1.5;" x1="162.36" x2="305.36" y1="40" y2="40"/><line style="stroke: #A80036; stroke-width: 1.5;" x1="162.36" x2="305.36" y1="48" y2="48"/><!--MD5=[4c692257daae7ad370eb005e7785be48]
class SpriteRenderer--><rect fill="#FEFECE" filter="url(#fzn0od3fe3ivt)" height="48" id="SpriteRenderer" style="stroke: #A80036; stroke-width: 1.5;" width="127" x="39.36" y="250"/><ellipse cx="54.36" cy="266" fill="#ADD1B2" rx="11" ry="11" style="stroke: #A80036; stroke-width: 1.0;"/><path d="M57.3288,271.6406 Q56.7506,271.9375 56.11,272.0781 Q55.4694,272.2344 54.7663,272.2344 Q52.2663,272.2344 50.9381,270.5938 Q49.6256,268.9375 49.6256,265.8125 Q49.6256,262.6875 50.9381,261.0313 Q52.2663,259.375 54.7663,259.375 Q55.4694,259.375 56.11,259.5313 Q56.7663,259.6875 57.3288,259.9844 L57.3288,262.7031 Q56.7038,262.125 56.11,261.8594 Q55.5163,261.5781 54.8913,261.5781 Q53.5475,261.5781 52.86,262.6563 Q52.1725,263.7188 52.1725,265.8125 Q52.1725,267.9063 52.86,268.9844 Q53.5475,270.0469 54.8913,270.0469 Q55.5163,270.0469 56.11,269.7813 Q56.7038,269.5 57.3288,268.9219 L57.3288,271.6406 Z "/><text fill="#000000" font-family="sans-serif" font-size="12" lengthAdjust="spacingAndGlyphs" textLength="95" x="68.36" y="270.1543">SpriteRenderer</text><line style="stroke: #A80036; stroke-width: 1.5;" x1="40.36" x2="165.36" y1="282" y2="282"/><line style="stroke: #A80036; stroke-width: 1.5;" x1="40.36" x2="165.36" y1="290" y2="290"/><!--MD5=[18eee71c88ab61f27581b8cbdd3ef5ee]
class Color--><rect fill="#FEFECE" filter="url(#fzn0od3fe3ivt)" height="48" id="Color" style="stroke: #A80036; stroke-width: 1.5;" width="64" x="201.86" y="250"/><ellipse cx="216.86" cy="266" fill="#ADD1B2" rx="11" ry="11" style="stroke: #A80036; stroke-width: 1.0;"/><path d="M219.8288,271.6406 Q219.2506,271.9375 218.61,272.0781 Q217.9694,272.2344 217.2663,272.2344 Q214.7663,272.2344 213.4381,270.5938 Q212.1256,268.9375 212.1256,265.8125 Q212.1256,262.6875 213.4381,261.0313 Q214.7663,259.375 217.2663,259.375 Q217.9694,259.375 218.61,259.5313 Q219.2663,259.6875 219.8288,259.9844 L219.8288,262.7031 Q219.2038,262.125 218.61,261.8594 Q218.0163,261.5781 217.3913,261.5781 Q216.0475,261.5781 215.36,262.6563 Q214.6725,263.7188 214.6725,265.8125 Q214.6725,267.9063 215.36,268.9844 Q216.0475,270.0469 217.3913,270.0469 Q218.0163,270.0469 218.61,269.7813 Q219.2038,269.5 219.8288,268.9219 L219.8288,271.6406 Z "/><text fill="#000000" font-family="sans-serif" font-size="12" lengthAdjust="spacingAndGlyphs" textLength="32" x="230.86" y="270.1543">Color</text><line style="stroke: #A80036; stroke-width: 1.5;" x1="202.86" x2="264.86" y1="282" y2="282"/><line style="stroke: #A80036; stroke-width: 1.5;" x1="202.86" x2="264.86" y1="290" y2="290"/><!--MD5=[32756bd98ce6dc32445a57cd0ec72cb5]
class PlayerController2D--><rect fill="#FEFECE" filter="url(#fzn0od3fe3ivt)" height="48" id="PlayerController2D" style="stroke: #A80036; stroke-width: 1.5;" width="148" x="300.86" y="250"/><ellipse cx="315.86" cy="266" fill="#ADD1B2" rx="11" ry="11" style="stroke: #A80036; stroke-width: 1.0;"/><path d="M318.8288,271.6406 Q318.2506,271.9375 317.61,272.0781 Q316.9694,272.2344 316.2663,272.2344 Q313.7663,272.2344 312.4381,270.5938 Q311.1256,268.9375 311.1256,265.8125 Q311.1256,262.6875 312.4381,261.0313 Q313.7663,259.375 316.2663,259.375 Q316.9694,259.375 317.61,259.5313 Q318.2663,259.6875 318.8288,259.9844 L318.8288,262.7031 Q318.2038,262.125 317.61,261.8594 Q317.0163,261.5781 316.3913,261.5781 Q315.0475,261.5781 314.36,262.6563 Q313.6725,263.7188 313.6725,265.8125 Q313.6725,267.9063 314.36,268.9844 Q315.0475,270.0469 316.3913,270.0469 Q317.0163,270.0469 317.61,269.7813 Q318.2038,269.5 318.8288,268.9219 L318.8288,271.6406 Z "/><text fill="#000000" font-family="sans-serif" font-size="12" lengthAdjust="spacingAndGlyphs" textLength="116" x="329.86" y="270.1543">PlayerController2D</text><line style="stroke: #A80036; stroke-width: 1.5;" x1="301.86" x2="447.86" y1="282" y2="282"/><line style="stroke: #A80036; stroke-width: 1.5;" x1="301.86" x2="447.86" y1="290" y2="290"/><!--MD5=[8b805049d0499e23d33da8a1efc9f54d]
class Animator--><rect fill="#FEFECE" filter="url(#fzn0od3fe3ivt)" height="48" id="Animator" style="stroke: #A80036; stroke-width: 1.5;" width="88" x="483.86" y="250"/><ellipse cx="498.86" cy="266" fill="#ADD1B2" rx="11" ry="11" style="stroke: #A80036; stroke-width: 1.0;"/><path d="M501.8288,271.6406 Q501.2506,271.9375 500.61,272.0781 Q499.9694,272.2344 499.2663,272.2344 Q496.7663,272.2344 495.4381,270.5938 Q494.1256,268.9375 494.1256,265.8125 Q494.1256,262.6875 495.4381,261.0313 Q496.7663,259.375 499.2663,259.375 Q499.9694,259.375 500.61,259.5313 Q501.2663,259.6875 501.8288,259.9844 L501.8288,262.7031 Q501.2038,262.125 500.61,261.8594 Q500.0163,261.5781 499.3913,261.5781 Q498.0475,261.5781 497.36,262.6563 Q496.6725,263.7188 496.6725,265.8125 Q496.6725,267.9063 497.36,268.9844 Q498.0475,270.0469 499.3913,270.0469 Q500.0163,270.0469 500.61,269.7813 Q501.2038,269.5 501.8288,268.9219 L501.8288,271.6406 Z "/><text fill="#000000" font-family="sans-serif" font-size="12" lengthAdjust="spacingAndGlyphs" textLength="56" x="512.86" y="270.1543">Animator</text><line style="stroke: #A80036; stroke-width: 1.5;" x1="484.86" x2="570.86" y1="282" y2="282"/><line style="stroke: #A80036; stroke-width: 1.5;" x1="484.86" x2="570.86" y1="290" y2="290"/><!--MD5=[7904812edcec864ac9db183f3b64d301]
reverse link NetworkBehaviour to PlayerGraphicsController--><path d="M233.86,76.43 C233.86,89.33 233.86,103.32 233.86,115.71 " fill="none" id="NetworkBehaviour&lt;-PlayerGraphicsController" style="stroke: #A80036; stroke-width: 1.0;"/><polygon fill="none" points="226.86,76.23,233.86,56.23,240.86,76.23,226.86,76.23" style="stroke: #A80036; stroke-width: 1.0;"/><!--MD5=[6dd885a02d8aabc85529c43150bd4400]
link PlayerGraphicsController to SpriteRenderer--><path d="M182.37,190.03 C160.99,208.09 137.65,229.59 121.53,246.17 " fill="none" id="PlayerGraphicsController-&gt;SpriteRenderer" style="stroke: #A80036; stroke-width: 1.0;"/><polygon fill="#A80036" points="118,249.85,127.1193,246.1299,121.4635,246.2439,121.3495,240.5882,118,249.85" style="stroke: #A80036; stroke-width: 1.0;"/><text fill="#000000" font-family="sans-serif" font-size="13" lengthAdjust="spacingAndGlyphs" textLength="97" x="12.4515" y="238.8236">playerRenderer</text><!--MD5=[6dd885a02d8aabc85529c43150bd4400]
link PlayerGraphicsController to SpriteRenderer--><path d="M206.72,190.03 C188.27,208.24 164.01,229.95 143.37,246.59 " fill="none" id="PlayerGraphicsController-&gt;SpriteRenderer-1" style="stroke: #A80036; stroke-width: 1.0;"/><polygon fill="#A80036" points="139.29,249.85,148.8177,247.3555,143.1957,246.7283,143.8229,241.1063,139.29,249.85" style="stroke: #A80036; stroke-width: 1.0;"/><text fill="#000000" font-family="sans-serif" font-size="13" lengthAdjust="spacingAndGlyphs" textLength="104" x="161.9502" y="238.8236">markerRenderer</text><!--MD5=[c9759e00899e9f9a478ebbca72429a4a]
link PlayerGraphicsController to Color--><path d="M222.03,190.03 C220.58,207.48 220.84,228.15 222.79,244.49 " fill="none" id="PlayerGraphicsController-&gt;Color" style="stroke: #A80036; stroke-width: 1.0;"/><polygon fill="#A80036" points="223.52,249.85,226.2758,240.3946,222.8489,244.8952,218.3482,241.4683,223.52,249.85" style="stroke: #A80036; stroke-width: 1.0;"/><text fill="#000000" font-family="sans-serif" font-size="13" lengthAdjust="spacingAndGlyphs" textLength="71" x="229.9673" y="238.8236">ownerColor</text><!--MD5=[c9759e00899e9f9a478ebbca72429a4a]
link PlayerGraphicsController to Color--><path d="M246.38,190.03 C247.91,207.48 247.64,228.15 245.58,244.49 " fill="none" id="PlayerGraphicsController-&gt;Color-1" style="stroke: #A80036; stroke-width: 1.0;"/><polygon fill="#A80036" points="244.81,249.85,250.0561,241.5146,245.5251,244.9014,242.1383,240.3704,244.81,249.85" style="stroke: #A80036; stroke-width: 1.0;"/><text fill="#000000" font-family="sans-serif" font-size="13" lengthAdjust="spacingAndGlyphs" textLength="67" x="244.9011" y="238.8683">otherColor</text><!--MD5=[b4cc3fcf10166d266336c6d89bc52148]
link PlayerGraphicsController to PlayerController2D--><path d="M276.54,190.03 C298.13,208.24 323.85,229.95 343.57,246.59 " fill="none" id="PlayerGraphicsController-&gt;PlayerController2D" style="stroke: #A80036; stroke-width: 1.0;"/><polygon fill="#A80036" points="347.43,249.85,343.1448,240.9823,343.6136,246.6196,337.9762,247.0885,347.43,249.85" style="stroke: #A80036; stroke-width: 1.0;"/><text fill="#000000" font-family="sans-serif" font-size="13" lengthAdjust="spacingAndGlyphs" textLength="101" x="353.3417" y="238.8236">playerController</text><!--MD5=[a24ae86d2369eed81eb3af1d2b88bda9]
link PlayerGraphicsController to Animator--><path d="M322.86,190.03 C374.13,210.78 436.59,236.06 479,253.22 " fill="none" id="PlayerGraphicsController-&gt;Animator" style="stroke: #A80036; stroke-width: 1.0;"/><polygon fill="#A80036" points="483.81,255.17,476.958,248.0954,479.1726,253.3008,473.9672,255.5153,483.81,255.17" style="stroke: #A80036; stroke-width: 1.0;"/><text fill="#000000" font-family="sans-serif" font-size="13" lengthAdjust="spacingAndGlyphs" textLength="58" x="476.0969" y="238.7768">animator</text><!--MD5=[d74f24cc41649203b89d3c679b574fa2]
link PlayerGraphicsController to NetworkVariable`1--><path d="M339.25,153 C339.25,153 345.35,153 347.81,153 " fill="none" id="PlayerGraphicsController-NetworkVariable`1" style="stroke: #A80036; stroke-width: 1.0;"/><polygon fill="#A80036" points="360.98,153,351.98,149,355.98,153,351.98,157,360.98,153" style="stroke: #A80036; stroke-width: 1.0;"/><line style="stroke: #A80036; stroke-width: 1.0;" x1="355.98" x2="347.98" y1="153" y2="153"/><polygon fill="#FFFFFF" points="327.25,153,333.25,157,339.25,153,333.25,149,327.25,153" style="stroke: #A80036; stroke-width: 1.0;"/><text fill="#000000" font-family="sans-serif" font-size="13" lengthAdjust="spacingAndGlyphs" textLength="74" x="278.9561" y="136.8339">_flip&lt;bool&gt;</text><!--MD5=[415951875ff57ca6711bd8b7ff596a06]
@startuml
class PlayerGraphicsController {
    - Awake() : void
    - Update() : void
}
class "NetworkVariable`1"<T> {
}
NetworkBehaviour <|- - PlayerGraphicsController
PlayerGraphicsController - -> "playerRenderer" SpriteRenderer
PlayerGraphicsController - -> "markerRenderer" SpriteRenderer
PlayerGraphicsController - -> "ownerColor" Color
PlayerGraphicsController - -> "otherColor" Color
PlayerGraphicsController - -> "playerController" PlayerController2D
PlayerGraphicsController - -> "animator" Animator
PlayerGraphicsController o-> "_flip<bool>" "NetworkVariable`1"
@enduml

PlantUML version 1.2020.02(Sun Mar 01 10:22:07 GMT 2020)
(GPL source distribution)
Java Runtime: OpenJDK Runtime Environment
JVM: OpenJDK 64-Bit Server VM
Java Version: 11.0.9+11-Ubuntu-0ubuntu1
Operating System: Linux
Default Encoding: ANSI_X3.4-1968
Language: en
Country: US
--></g></svg>