<?xml version="1.0" encoding="UTF-8" standalone="no"?><svg xmlns="http://www.w3.org/2000/svg" xmlns:xlink="http://www.w3.org/1999/xlink" contentScriptType="application/ecmascript" contentStyleType="text/css" height="213px" preserveAspectRatio="none" style="width:195px;height:213px;" version="1.1" viewBox="0 0 195 213" width="195px" zoomAndPan="magnify"><defs><filter height="300%" id="f1i9amyg8563tj" width="300%" x="-1" y="-1"><feGaussianBlur result="blurOut" stdDeviation="2.0"/><feColorMatrix in="blurOut" result="blurOut2" type="matrix" values="0 0 0 0 0 0 0 0 0 0 0 0 0 0 0 0 0 0 .4 0"/><feOffset dx="4.0" dy="4.0" in="blurOut2" result="blurOut3"/><feBlend in="SourceGraphic" in2="blurOut3" mode="normal"/></filter></defs><g><!--MD5=[32756bd98ce6dc32445a57cd0ec72cb5]
class PlayerController2D--><rect fill="#FEFECE" filter="url(#f1i9amyg8563tj)" height="86.4141" id="PlayerController2D" style="stroke: #A80036; stroke-width: 1.5;" width="178" x="6" y="116"/><ellipse cx="34.5" cy="132" fill="#ADD1B2" rx="11" ry="11" style="stroke: #A80036; stroke-width: 1.0;"/><path d="M37.4688,137.6406 Q36.8906,137.9375 36.25,138.0781 Q35.6094,138.2344 34.9063,138.2344 Q32.4063,138.2344 31.0781,136.5938 Q29.7656,134.9375 29.7656,131.8125 Q29.7656,128.6875 31.0781,127.0313 Q32.4063,125.375 34.9063,125.375 Q35.6094,125.375 36.25,125.5313 Q36.9063,125.6875 37.4688,125.9844 L37.4688,128.7031 Q36.8438,128.125 36.25,127.8594 Q35.6563,127.5781 35.0313,127.5781 Q33.6875,127.5781 33,128.6563 Q32.3125,129.7188 32.3125,131.8125 Q32.3125,133.9063 33,134.9844 Q33.6875,136.0469 35.0313,136.0469 Q35.6563,136.0469 36.25,135.7813 Q36.8438,135.5 37.4688,134.9219 L37.4688,137.6406 Z "/><text fill="#000000" font-family="sans-serif" font-size="12" lengthAdjust="spacingAndGlyphs" textLength="116" x="51.5" y="136.1543">PlayerController2D</text><line style="stroke: #A80036; stroke-width: 1.5;" x1="7" x2="183" y1="148" y2="148"/><ellipse cx="17" cy="159" fill="none" rx="3" ry="3" style="stroke: #038048; stroke-width: 1.0;"/><text fill="#000000" font-family="sans-serif" font-size="11" lengthAdjust="spacingAndGlyphs" textLength="111" x="26" y="162.2104">Moving : bool «get»</text><ellipse cx="17" cy="171.8047" fill="none" rx="3" ry="3" style="stroke: #038048; stroke-width: 1.0;"/><text fill="#000000" font-family="sans-serif" font-size="11" lengthAdjust="spacingAndGlyphs" textLength="128" x="26" y="175.0151">Grounded : bool «get»</text><ellipse cx="17" cy="184.6094" fill="none" rx="3" ry="3" style="stroke: #038048; stroke-width: 1.0;"/><text fill="#000000" font-family="sans-serif" font-size="11" lengthAdjust="spacingAndGlyphs" textLength="152" x="26" y="187.8198">MoveDirection : float «get»</text><line style="stroke: #A80036; stroke-width: 1.5;" x1="7" x2="183" y1="194.4141" y2="194.4141"/><!--MD5=[83b3cf3d23d77c6f1e1b5291a241bc2a]
class MonoBehaviour--><rect fill="#FEFECE" filter="url(#f1i9amyg8563tj)" height="48" id="MonoBehaviour" style="stroke: #A80036; stroke-width: 1.5;" width="128" x="31" y="8"/><ellipse cx="46" cy="24" fill="#ADD1B2" rx="11" ry="11" style="stroke: #A80036; stroke-width: 1.0;"/><path d="M48.9688,29.6406 Q48.3906,29.9375 47.75,30.0781 Q47.1094,30.2344 46.4063,30.2344 Q43.9063,30.2344 42.5781,28.5938 Q41.2656,26.9375 41.2656,23.8125 Q41.2656,20.6875 42.5781,19.0313 Q43.9063,17.375 46.4063,17.375 Q47.1094,17.375 47.75,17.5313 Q48.4063,17.6875 48.9688,17.9844 L48.9688,20.7031 Q48.3438,20.125 47.75,19.8594 Q47.1563,19.5781 46.5313,19.5781 Q45.1875,19.5781 44.5,20.6563 Q43.8125,21.7188 43.8125,23.8125 Q43.8125,25.9063 44.5,26.9844 Q45.1875,28.0469 46.5313,28.0469 Q47.1563,28.0469 47.75,27.7813 Q48.3438,27.5 48.9688,26.9219 L48.9688,29.6406 Z "/><text fill="#000000" font-family="sans-serif" font-size="12" lengthAdjust="spacingAndGlyphs" textLength="96" x="60" y="28.1543">MonoBehaviour</text><line style="stroke: #A80036; stroke-width: 1.5;" x1="32" x2="158" y1="40" y2="40"/><line style="stroke: #A80036; stroke-width: 1.5;" x1="32" x2="158" y1="48" y2="48"/><!--MD5=[d29e1c2e88dbc8a1816c4a9c35be05b3]
reverse link MonoBehaviour to PlayerController2D--><path d="M95,76.27 C95,89.12 95,103.17 95,115.94 " fill="none" id="MonoBehaviour&lt;-PlayerController2D" style="stroke: #A80036; stroke-width: 1.0;"/><polygon fill="none" points="88,76.22,95,56.22,102,76.22,88,76.22" style="stroke: #A80036; stroke-width: 1.0;"/><!--MD5=[e42ab8f073ca278c956ea7c3e17f4e37]
@startuml
class PlayerController2D {
    + Moving : bool <<get>>
    + Grounded : bool <<get>>
    + MoveDirection : float <<get>>
}
MonoBehaviour <|- - PlayerController2D
@enduml

PlantUML version 1.2020.02(Sun Mar 01 10:22:07 GMT 2020)
(GPL source distribution)
Java Runtime: OpenJDK Runtime Environment
JVM: OpenJDK 64-Bit Server VM
Java Version: 11.0.9+11-Ubuntu-0ubuntu1
Operating System: Linux
Default Encoding: ANSI_X3.4-1968
Language: en
Country: US
--></g></svg>