<?xml version="1.0" encoding="UTF-8" standalone="no"?><svg xmlns="http://www.w3.org/2000/svg" xmlns:xlink="http://www.w3.org/1999/xlink" contentScriptType="application/ecmascript" contentStyleType="text/css" height="347px" preserveAspectRatio="none" style="width:415px;height:347px;" version="1.1" viewBox="0 0 415 347" width="415px" zoomAndPan="magnify"><defs><filter height="300%" id="f1i66f9epq5itn" width="300%" x="-1" y="-1"><feGaussianBlur result="blurOut" stdDeviation="2.0"/><feColorMatrix in="blurOut" result="blurOut2" type="matrix" values="0 0 0 0 0 0 0 0 0 0 0 0 0 0 0 0 0 0 .4 0"/><feOffset dx="4.0" dy="4.0" in="blurOut2" result="blurOut3"/><feBlend in="SourceGraphic" in2="blurOut3" mode="normal"/></filter></defs><g><!--MD5=[5c0d17eac5d8ea1cd323717420635f2d]
class PlayerInteract--><rect fill="#FEFECE" filter="url(#f1i66f9epq5itn)" height="112.0234" id="PlayerInteract" style="stroke: #A80036; stroke-width: 1.5;" width="248" x="106.06" y="116"/><ellipse cx="182.31" cy="132" fill="#ADD1B2" rx="11" ry="11" style="stroke: #A80036; stroke-width: 1.0;"/><path d="M185.2788,137.6406 Q184.7006,137.9375 184.06,138.0781 Q183.4194,138.2344 182.7163,138.2344 Q180.2163,138.2344 178.8881,136.5938 Q177.5756,134.9375 177.5756,131.8125 Q177.5756,128.6875 178.8881,127.0313 Q180.2163,125.375 182.7163,125.375 Q183.4194,125.375 184.06,125.5313 Q184.7163,125.6875 185.2788,125.9844 L185.2788,128.7031 Q184.6538,128.125 184.06,127.8594 Q183.4663,127.5781 182.8413,127.5781 Q181.4975,127.5781 180.81,128.6563 Q180.1225,129.7188 180.1225,131.8125 Q180.1225,133.9063 180.81,134.9844 Q181.4975,136.0469 182.8413,136.0469 Q183.4663,136.0469 184.06,135.7813 Q184.6538,135.5 185.2788,134.9219 L185.2788,137.6406 Z "/><text fill="#000000" font-family="sans-serif" font-size="12" lengthAdjust="spacingAndGlyphs" textLength="87" x="202.81" y="136.1543">PlayerInteract</text><line style="stroke: #A80036; stroke-width: 1.5;" x1="107.06" x2="353.06" y1="148" y2="148"/><rect fill="none" height="6" style="stroke: #C82930; stroke-width: 1.0;" width="6" x="114.06" y="156"/><text fill="#000000" font-family="sans-serif" font-size="11" lengthAdjust="spacingAndGlyphs" textLength="135" x="126.06" y="162.2104">interactionRadius : float</text><line style="stroke: #A80036; stroke-width: 1.5;" x1="107.06" x2="353.06" y1="168.8047" y2="168.8047"/><ellipse cx="117.06" cy="179.8047" fill="#84BE84" rx="3" ry="3" style="stroke: #038048; stroke-width: 1.0;"/><text fill="#000000" font-family="sans-serif" font-size="11" lengthAdjust="spacingAndGlyphs" textLength="208" x="126.06" y="183.0151">«override» OnNetworkSpawn() : void</text><ellipse cx="117.06" cy="192.6094" fill="#84BE84" rx="3" ry="3" style="stroke: #038048; stroke-width: 1.0;"/><text fill="#000000" font-family="sans-serif" font-size="11" lengthAdjust="spacingAndGlyphs" textLength="222" x="126.06" y="195.8198">«override» OnNetworkDespawn() : void</text><rect fill="#F24D5C" height="6" style="stroke: #C82930; stroke-width: 1.0;" width="6" x="114.06" y="202.4141"/><text fill="#000000" font-family="sans-serif" font-size="11" lengthAdjust="spacingAndGlyphs" textLength="164" x="126.06" y="208.6245">TryInteractServerRPC() : void</text><rect fill="#F24D5C" height="6" style="stroke: #C82930; stroke-width: 1.0;" width="6" x="114.06" y="215.2188"/><text fill="#000000" font-family="sans-serif" font-size="11" lengthAdjust="spacingAndGlyphs" textLength="130" x="126.06" y="221.4292">OnDrawGizmos() : void</text><!--MD5=[be62f0ac78b5cca9d2b2f8a4bd540407]
class NetworkBehaviour--><rect fill="#FEFECE" filter="url(#f1i66f9epq5itn)" height="48" id="NetworkBehaviour" style="stroke: #A80036; stroke-width: 1.5;" width="145" x="157.56" y="8"/><ellipse cx="172.56" cy="24" fill="#ADD1B2" rx="11" ry="11" style="stroke: #A80036; stroke-width: 1.0;"/><path d="M175.5288,29.6406 Q174.9506,29.9375 174.31,30.0781 Q173.6694,30.2344 172.9663,30.2344 Q170.4663,30.2344 169.1381,28.5938 Q167.8256,26.9375 167.8256,23.8125 Q167.8256,20.6875 169.1381,19.0313 Q170.4663,17.375 172.9663,17.375 Q173.6694,17.375 174.31,17.5313 Q174.9663,17.6875 175.5288,17.9844 L175.5288,20.7031 Q174.9038,20.125 174.31,19.8594 Q173.7163,19.5781 173.0913,19.5781 Q171.7475,19.5781 171.06,20.6563 Q170.3725,21.7188 170.3725,23.8125 Q170.3725,25.9063 171.06,26.9844 Q171.7475,28.0469 173.0913,28.0469 Q173.7163,28.0469 174.31,27.7813 Q174.9038,27.5 175.5288,26.9219 L175.5288,29.6406 Z "/><text fill="#000000" font-family="sans-serif" font-size="12" lengthAdjust="spacingAndGlyphs" textLength="113" x="186.56" y="28.1543">NetworkBehaviour</text><line style="stroke: #A80036; stroke-width: 1.5;" x1="158.56" x2="301.56" y1="40" y2="40"/><line style="stroke: #A80036; stroke-width: 1.5;" x1="158.56" x2="301.56" y1="48" y2="48"/><!--MD5=[3f551f1273bbfa514d2f681c1c48b5c1]
class Vector2--><rect fill="#FEFECE" filter="url(#f1i66f9epq5itn)" height="48" id="Vector2" style="stroke: #A80036; stroke-width: 1.5;" width="81" x="65.56" y="288"/><ellipse cx="80.56" cy="304" fill="#ADD1B2" rx="11" ry="11" style="stroke: #A80036; stroke-width: 1.0;"/><path d="M83.5288,309.6406 Q82.9506,309.9375 82.31,310.0781 Q81.6694,310.2344 80.9663,310.2344 Q78.4663,310.2344 77.1381,308.5938 Q75.8256,306.9375 75.8256,303.8125 Q75.8256,300.6875 77.1381,299.0313 Q78.4663,297.375 80.9663,297.375 Q81.6694,297.375 82.31,297.5313 Q82.9663,297.6875 83.5288,297.9844 L83.5288,300.7031 Q82.9038,300.125 82.31,299.8594 Q81.7163,299.5781 81.0913,299.5781 Q79.7475,299.5781 79.06,300.6563 Q78.3725,301.7188 78.3725,303.8125 Q78.3725,305.9063 79.06,306.9844 Q79.7475,308.0469 81.0913,308.0469 Q81.7163,308.0469 82.31,307.7813 Q82.9038,307.5 83.5288,306.9219 L83.5288,309.6406 Z "/><text fill="#000000" font-family="sans-serif" font-size="12" lengthAdjust="spacingAndGlyphs" textLength="49" x="94.56" y="308.1543">Vector2</text><line style="stroke: #A80036; stroke-width: 1.5;" x1="66.56" x2="145.56" y1="320" y2="320"/><line style="stroke: #A80036; stroke-width: 1.5;" x1="66.56" x2="145.56" y1="328" y2="328"/><!--MD5=[867fdf81c55d2d59776f790d9a1de332]
class LayerMask--><rect fill="#FEFECE" filter="url(#f1i66f9epq5itn)" height="48" id="LayerMask" style="stroke: #A80036; stroke-width: 1.5;" width="97" x="181.56" y="288"/><ellipse cx="196.56" cy="304" fill="#ADD1B2" rx="11" ry="11" style="stroke: #A80036; stroke-width: 1.0;"/><path d="M199.5288,309.6406 Q198.9506,309.9375 198.31,310.0781 Q197.6694,310.2344 196.9663,310.2344 Q194.4663,310.2344 193.1381,308.5938 Q191.8256,306.9375 191.8256,303.8125 Q191.8256,300.6875 193.1381,299.0313 Q194.4663,297.375 196.9663,297.375 Q197.6694,297.375 198.31,297.5313 Q198.9663,297.6875 199.5288,297.9844 L199.5288,300.7031 Q198.9038,300.125 198.31,299.8594 Q197.7163,299.5781 197.0913,299.5781 Q195.7475,299.5781 195.06,300.6563 Q194.3725,301.7188 194.3725,303.8125 Q194.3725,305.9063 195.06,306.9844 Q195.7475,308.0469 197.0913,308.0469 Q197.7163,308.0469 198.31,307.7813 Q198.9038,307.5 199.5288,306.9219 L199.5288,309.6406 Z "/><text fill="#000000" font-family="sans-serif" font-size="12" lengthAdjust="spacingAndGlyphs" textLength="65" x="210.56" y="308.1543">LayerMask</text><line style="stroke: #A80036; stroke-width: 1.5;" x1="182.56" x2="277.56" y1="320" y2="320"/><line style="stroke: #A80036; stroke-width: 1.5;" x1="182.56" x2="277.56" y1="328" y2="328"/><!--MD5=[6cc3e2c63ac03fb1148fafd0c1086049]
class InputMap--><rect fill="#FEFECE" filter="url(#f1i66f9epq5itn)" height="48" id="InputMap" style="stroke: #A80036; stroke-width: 1.5;" width="90" x="314.06" y="288"/><ellipse cx="329.06" cy="304" fill="#ADD1B2" rx="11" ry="11" style="stroke: #A80036; stroke-width: 1.0;"/><path d="M332.0288,309.6406 Q331.4506,309.9375 330.81,310.0781 Q330.1694,310.2344 329.4663,310.2344 Q326.9663,310.2344 325.6381,308.5938 Q324.3256,306.9375 324.3256,303.8125 Q324.3256,300.6875 325.6381,299.0313 Q326.9663,297.375 329.4663,297.375 Q330.1694,297.375 330.81,297.5313 Q331.4663,297.6875 332.0288,297.9844 L332.0288,300.7031 Q331.4038,300.125 330.81,299.8594 Q330.2163,299.5781 329.5913,299.5781 Q328.2475,299.5781 327.56,300.6563 Q326.8725,301.7188 326.8725,303.8125 Q326.8725,305.9063 327.56,306.9844 Q328.2475,308.0469 329.5913,308.0469 Q330.2163,308.0469 330.81,307.7813 Q331.4038,307.5 332.0288,306.9219 L332.0288,309.6406 Z "/><text fill="#000000" font-family="sans-serif" font-size="12" lengthAdjust="spacingAndGlyphs" textLength="58" x="343.06" y="308.1543">InputMap</text><line style="stroke: #A80036; stroke-width: 1.5;" x1="315.06" x2="403.06" y1="320" y2="320"/><line style="stroke: #A80036; stroke-width: 1.5;" x1="315.06" x2="403.06" y1="328" y2="328"/><!--MD5=[b05a17e8a4a51539f0b9e002cb6f33d7]
reverse link NetworkBehaviour to PlayerInteract--><path d="M230.06,76.25 C230.06,88.82 230.06,102.73 230.06,115.93 " fill="none" id="NetworkBehaviour&lt;-PlayerInteract" style="stroke: #A80036; stroke-width: 1.0;"/><polygon fill="none" points="223.06,76.1,230.06,56.1,237.06,76.1,223.06,76.1" style="stroke: #A80036; stroke-width: 1.0;"/><!--MD5=[22001a1ea88d69012712da26893e98cd]
link PlayerInteract to Vector2--><path d="M180.34,228.33 C163.19,247.41 144.74,267.95 130.52,283.77 " fill="none" id="PlayerInteract-&gt;Vector2" style="stroke: #A80036; stroke-width: 1.0;"/><polygon fill="#A80036" points="127,287.69,135.9939,283.6762,130.3448,283.9735,130.0475,278.3245,127,287.69" style="stroke: #A80036; stroke-width: 1.0;"/><text fill="#000000" font-family="sans-serif" font-size="13" lengthAdjust="spacingAndGlyphs" textLength="106" x="13.1854" y="277.0194">interactionOffset</text><!--MD5=[7eab32e23add7f7a0c0ff66f6f5e9329]
link PlayerInteract to LayerMask--><path d="M230.06,228.33 C230.06,246.93 230.06,266.9 230.06,282.56 " fill="none" id="PlayerInteract-&gt;LayerMask" style="stroke: #A80036; stroke-width: 1.0;"/><polygon fill="#A80036" points="230.06,287.69,234.06,278.69,230.06,282.69,226.06,278.69,230.06,287.69" style="stroke: #A80036; stroke-width: 1.0;"/><text fill="#000000" font-family="sans-serif" font-size="13" lengthAdjust="spacingAndGlyphs" textLength="82" x="149.4087" y="276.9792">interactMask</text><!--MD5=[7783ee4e9eb2dbd37afde1846a685edc]
link PlayerInteract to InputMap--><path d="M281.78,228.33 C299.62,247.41 318.81,267.95 333.61,283.77 " fill="none" id="PlayerInteract-&gt;InputMap" style="stroke: #A80036; stroke-width: 1.0;"/><polygon fill="#A80036" points="337.27,287.69,334.0145,278.3947,333.8432,284.049,328.1889,283.8777,337.27,287.69" style="stroke: #A80036; stroke-width: 1.0;"/><text fill="#000000" font-family="sans-serif" font-size="13" lengthAdjust="spacingAndGlyphs" textLength="59" x="281.5544" y="276.993">inputMap</text><!--MD5=[7bd27a3040ea2bf790584ea2081e1f9b]
@startuml
class PlayerInteract {
    - interactionRadius : float
    + <<override>> OnNetworkSpawn() : void
    + <<override>> OnNetworkDespawn() : void
    - TryInteractServerRPC() : void
    - OnDrawGizmos() : void
}
NetworkBehaviour <|- - PlayerInteract
PlayerInteract - -> "interactionOffset" Vector2
PlayerInteract - -> "interactMask" LayerMask
PlayerInteract - -> "inputMap" InputMap
@enduml

PlantUML version 1.2020.02(Sun Mar 01 10:22:07 GMT 2020)
(GPL source distribution)
Java Runtime: OpenJDK Runtime Environment
JVM: OpenJDK 64-Bit Server VM
Java Version: 11.0.9+11-Ubuntu-0ubuntu1
Operating System: Linux
Default Encoding: ANSI_X3.4-1968
Language: en
Country: US
--></g></svg>