<?xml version="1.0" encoding="UTF-8" standalone="no"?><svg xmlns="http://www.w3.org/2000/svg" xmlns:xlink="http://www.w3.org/1999/xlink" contentScriptType="application/ecmascript" contentStyleType="text/css" height="424px" preserveAspectRatio="none" style="width:699px;height:424px;" version="1.1" viewBox="0 0 699 424" width="699px" zoomAndPan="magnify"><defs><filter height="300%" id="f1xzza0u8pbmh3" width="300%" x="-1" y="-1"><feGaussianBlur result="blurOut" stdDeviation="2.0"/><feColorMatrix in="blurOut" result="blurOut2" type="matrix" values="0 0 0 0 0 0 0 0 0 0 0 0 0 0 0 0 0 0 .4 0"/><feOffset dx="4.0" dy="4.0" in="blurOut2" result="blurOut3"/><feBlend in="SourceGraphic" in2="blurOut3" mode="normal"/></filter></defs><g><!--MD5=[32756bd98ce6dc32445a57cd0ec72cb5]
class PlayerController2D--><rect fill="#FEFECE" filter="url(#f1xzza0u8pbmh3)" height="188.8516" id="PlayerController2D" style="stroke: #A80036; stroke-width: 1.5;" width="178" x="246.5" y="116"/><ellipse cx="275" cy="132" fill="#ADD1B2" rx="11" ry="11" style="stroke: #A80036; stroke-width: 1.0;"/><path d="M277.9688,137.6406 Q277.3906,137.9375 276.75,138.0781 Q276.1094,138.2344 275.4063,138.2344 Q272.9063,138.2344 271.5781,136.5938 Q270.2656,134.9375 270.2656,131.8125 Q270.2656,128.6875 271.5781,127.0313 Q272.9063,125.375 275.4063,125.375 Q276.1094,125.375 276.75,125.5313 Q277.4063,125.6875 277.9688,125.9844 L277.9688,128.7031 Q277.3438,128.125 276.75,127.8594 Q276.1563,127.5781 275.5313,127.5781 Q274.1875,127.5781 273.5,128.6563 Q272.8125,129.7188 272.8125,131.8125 Q272.8125,133.9063 273.5,134.9844 Q274.1875,136.0469 275.5313,136.0469 Q276.1563,136.0469 276.75,135.7813 Q277.3438,135.5 277.9688,134.9219 L277.9688,137.6406 Z "/><text fill="#000000" font-family="sans-serif" font-size="12" lengthAdjust="spacingAndGlyphs" textLength="116" x="292" y="136.1543">PlayerController2D</text><line style="stroke: #A80036; stroke-width: 1.5;" x1="247.5" x2="423.5" y1="148" y2="148"/><rect fill="none" height="6" style="stroke: #C82930; stroke-width: 1.0;" width="6" x="254.5" y="156"/><text fill="#000000" font-family="sans-serif" font-size="11" lengthAdjust="spacingAndGlyphs" textLength="110" x="266.5" y="162.2104">_moveSpeed : float</text><rect fill="none" height="6" style="stroke: #C82930; stroke-width: 1.0;" width="6" x="254.5" y="168.8047"/><text fill="#000000" font-family="sans-serif" font-size="11" lengthAdjust="spacingAndGlyphs" textLength="107" x="266.5" y="175.0151">_jumpSpeed : float</text><rect fill="none" height="6" style="stroke: #C82930; stroke-width: 1.0;" width="6" x="254.5" y="181.6094"/><text fill="#000000" font-family="sans-serif" font-size="11" lengthAdjust="spacingAndGlyphs" textLength="141" x="266.5" y="187.8198">_grounded : bool = false</text><ellipse cx="257.5" cy="197.4141" fill="none" rx="3" ry="3" style="stroke: #038048; stroke-width: 1.0;"/><text fill="#000000" font-family="sans-serif" font-size="11" lengthAdjust="spacingAndGlyphs" textLength="111" x="266.5" y="200.6245">Moving : bool «get»</text><ellipse cx="257.5" cy="210.2188" fill="none" rx="3" ry="3" style="stroke: #038048; stroke-width: 1.0;"/><text fill="#000000" font-family="sans-serif" font-size="11" lengthAdjust="spacingAndGlyphs" textLength="128" x="266.5" y="213.4292">Grounded : bool «get»</text><ellipse cx="257.5" cy="223.0234" fill="none" rx="3" ry="3" style="stroke: #038048; stroke-width: 1.0;"/><text fill="#000000" font-family="sans-serif" font-size="11" lengthAdjust="spacingAndGlyphs" textLength="152" x="266.5" y="226.2339">MoveDirection : float «get»</text><line style="stroke: #A80036; stroke-width: 1.5;" x1="247.5" x2="423.5" y1="232.8281" y2="232.8281"/><rect fill="#F24D5C" height="6" style="stroke: #C82930; stroke-width: 1.0;" width="6" x="254.5" y="240.8281"/><text fill="#000000" font-family="sans-serif" font-size="11" lengthAdjust="spacingAndGlyphs" textLength="79" x="266.5" y="247.0386">Awake() : void</text><rect fill="#F24D5C" height="6" style="stroke: #C82930; stroke-width: 1.0;" width="6" x="254.5" y="253.6328"/><text fill="#000000" font-family="sans-serif" font-size="11" lengthAdjust="spacingAndGlyphs" textLength="71" x="266.5" y="259.8433">Start() : void</text><rect fill="#F24D5C" height="6" style="stroke: #C82930; stroke-width: 1.0;" width="6" x="254.5" y="266.4375"/><text fill="#000000" font-family="sans-serif" font-size="11" lengthAdjust="spacingAndGlyphs" textLength="101" x="266.5" y="272.6479">OnDisable() : void</text><rect fill="#F24D5C" height="6" style="stroke: #C82930; stroke-width: 1.0;" width="6" x="254.5" y="279.2422"/><text fill="#000000" font-family="sans-serif" font-size="11" lengthAdjust="spacingAndGlyphs" textLength="83" x="266.5" y="285.4526">Update() : void</text><rect fill="#F24D5C" height="6" style="stroke: #C82930; stroke-width: 1.0;" width="6" x="254.5" y="292.0469"/><text fill="#000000" font-family="sans-serif" font-size="11" lengthAdjust="spacingAndGlyphs" textLength="71" x="266.5" y="298.2573">Jump() : void</text><!--MD5=[83b3cf3d23d77c6f1e1b5291a241bc2a]
class MonoBehaviour--><rect fill="#FEFECE" filter="url(#f1xzza0u8pbmh3)" height="48" id="MonoBehaviour" style="stroke: #A80036; stroke-width: 1.5;" width="128" x="271.5" y="8"/><ellipse cx="286.5" cy="24" fill="#ADD1B2" rx="11" ry="11" style="stroke: #A80036; stroke-width: 1.0;"/><path d="M289.4688,29.6406 Q288.8906,29.9375 288.25,30.0781 Q287.6094,30.2344 286.9063,30.2344 Q284.4063,30.2344 283.0781,28.5938 Q281.7656,26.9375 281.7656,23.8125 Q281.7656,20.6875 283.0781,19.0313 Q284.4063,17.375 286.9063,17.375 Q287.6094,17.375 288.25,17.5313 Q288.9063,17.6875 289.4688,17.9844 L289.4688,20.7031 Q288.8438,20.125 288.25,19.8594 Q287.6563,19.5781 287.0313,19.5781 Q285.6875,19.5781 285,20.6563 Q284.3125,21.7188 284.3125,23.8125 Q284.3125,25.9063 285,26.9844 Q285.6875,28.0469 287.0313,28.0469 Q287.6563,28.0469 288.25,27.7813 Q288.8438,27.5 289.4688,26.9219 L289.4688,29.6406 Z "/><text fill="#000000" font-family="sans-serif" font-size="12" lengthAdjust="spacingAndGlyphs" textLength="96" x="300.5" y="28.1543">MonoBehaviour</text><line style="stroke: #A80036; stroke-width: 1.5;" x1="272.5" x2="398.5" y1="40" y2="40"/><line style="stroke: #A80036; stroke-width: 1.5;" x1="272.5" x2="398.5" y1="48" y2="48"/><!--MD5=[867fdf81c55d2d59776f790d9a1de332]
class LayerMask--><rect fill="#FEFECE" filter="url(#f1xzza0u8pbmh3)" height="48" id="LayerMask" style="stroke: #A80036; stroke-width: 1.5;" width="97" x="23" y="365"/><ellipse cx="38" cy="381" fill="#ADD1B2" rx="11" ry="11" style="stroke: #A80036; stroke-width: 1.0;"/><path d="M40.9688,386.6406 Q40.3906,386.9375 39.75,387.0781 Q39.1094,387.2344 38.4063,387.2344 Q35.9063,387.2344 34.5781,385.5938 Q33.2656,383.9375 33.2656,380.8125 Q33.2656,377.6875 34.5781,376.0313 Q35.9063,374.375 38.4063,374.375 Q39.1094,374.375 39.75,374.5313 Q40.4063,374.6875 40.9688,374.9844 L40.9688,377.7031 Q40.3438,377.125 39.75,376.8594 Q39.1563,376.5781 38.5313,376.5781 Q37.1875,376.5781 36.5,377.6563 Q35.8125,378.7188 35.8125,380.8125 Q35.8125,382.9063 36.5,383.9844 Q37.1875,385.0469 38.5313,385.0469 Q39.1563,385.0469 39.75,384.7813 Q40.3438,384.5 40.9688,383.9219 L40.9688,386.6406 Z "/><text fill="#000000" font-family="sans-serif" font-size="12" lengthAdjust="spacingAndGlyphs" textLength="65" x="52" y="385.1543">LayerMask</text><line style="stroke: #A80036; stroke-width: 1.5;" x1="24" x2="119" y1="397" y2="397"/><line style="stroke: #A80036; stroke-width: 1.5;" x1="24" x2="119" y1="405" y2="405"/><!--MD5=[6cc3e2c63ac03fb1148fafd0c1086049]
class InputMap--><rect fill="#FEFECE" filter="url(#f1xzza0u8pbmh3)" height="48" id="InputMap" style="stroke: #A80036; stroke-width: 1.5;" width="90" x="155.5" y="365"/><ellipse cx="170.5" cy="381" fill="#ADD1B2" rx="11" ry="11" style="stroke: #A80036; stroke-width: 1.0;"/><path d="M173.4688,386.6406 Q172.8906,386.9375 172.25,387.0781 Q171.6094,387.2344 170.9063,387.2344 Q168.4063,387.2344 167.0781,385.5938 Q165.7656,383.9375 165.7656,380.8125 Q165.7656,377.6875 167.0781,376.0313 Q168.4063,374.375 170.9063,374.375 Q171.6094,374.375 172.25,374.5313 Q172.9063,374.6875 173.4688,374.9844 L173.4688,377.7031 Q172.8438,377.125 172.25,376.8594 Q171.6563,376.5781 171.0313,376.5781 Q169.6875,376.5781 169,377.6563 Q168.3125,378.7188 168.3125,380.8125 Q168.3125,382.9063 169,383.9844 Q169.6875,385.0469 171.0313,385.0469 Q171.6563,385.0469 172.25,384.7813 Q172.8438,384.5 173.4688,383.9219 L173.4688,386.6406 Z "/><text fill="#000000" font-family="sans-serif" font-size="12" lengthAdjust="spacingAndGlyphs" textLength="58" x="184.5" y="385.1543">InputMap</text><line style="stroke: #A80036; stroke-width: 1.5;" x1="156.5" x2="244.5" y1="397" y2="397"/><line style="stroke: #A80036; stroke-width: 1.5;" x1="156.5" x2="244.5" y1="405" y2="405"/><!--MD5=[9541084ddaa1fec56a549847ca84025a]
class Rigidbody2D--><rect fill="#FEFECE" filter="url(#f1xzza0u8pbmh3)" height="48" id="Rigidbody2D" style="stroke: #A80036; stroke-width: 1.5;" width="109" x="281" y="365"/><ellipse cx="296" cy="381" fill="#ADD1B2" rx="11" ry="11" style="stroke: #A80036; stroke-width: 1.0;"/><path d="M298.9688,386.6406 Q298.3906,386.9375 297.75,387.0781 Q297.1094,387.2344 296.4063,387.2344 Q293.9063,387.2344 292.5781,385.5938 Q291.2656,383.9375 291.2656,380.8125 Q291.2656,377.6875 292.5781,376.0313 Q293.9063,374.375 296.4063,374.375 Q297.1094,374.375 297.75,374.5313 Q298.4063,374.6875 298.9688,374.9844 L298.9688,377.7031 Q298.3438,377.125 297.75,376.8594 Q297.1563,376.5781 296.5313,376.5781 Q295.1875,376.5781 294.5,377.6563 Q293.8125,378.7188 293.8125,380.8125 Q293.8125,382.9063 294.5,383.9844 Q295.1875,385.0469 296.5313,385.0469 Q297.1563,385.0469 297.75,384.7813 Q298.3438,384.5 298.9688,383.9219 L298.9688,386.6406 Z "/><text fill="#000000" font-family="sans-serif" font-size="12" lengthAdjust="spacingAndGlyphs" textLength="77" x="310" y="385.1543">Rigidbody2D</text><line style="stroke: #A80036; stroke-width: 1.5;" x1="282" x2="389" y1="397" y2="397"/><line style="stroke: #A80036; stroke-width: 1.5;" x1="282" x2="389" y1="405" y2="405"/><!--MD5=[e20f121c7287e9c0df7d029525bbde0d]
class BoxCollider2D--><rect fill="#FEFECE" filter="url(#f1xzza0u8pbmh3)" height="48" id="BoxCollider2D" style="stroke: #A80036; stroke-width: 1.5;" width="117" x="425" y="365"/><ellipse cx="440" cy="381" fill="#ADD1B2" rx="11" ry="11" style="stroke: #A80036; stroke-width: 1.0;"/><path d="M442.9688,386.6406 Q442.3906,386.9375 441.75,387.0781 Q441.1094,387.2344 440.4063,387.2344 Q437.9063,387.2344 436.5781,385.5938 Q435.2656,383.9375 435.2656,380.8125 Q435.2656,377.6875 436.5781,376.0313 Q437.9063,374.375 440.4063,374.375 Q441.1094,374.375 441.75,374.5313 Q442.4063,374.6875 442.9688,374.9844 L442.9688,377.7031 Q442.3438,377.125 441.75,376.8594 Q441.1563,376.5781 440.5313,376.5781 Q439.1875,376.5781 438.5,377.6563 Q437.8125,378.7188 437.8125,380.8125 Q437.8125,382.9063 438.5,383.9844 Q439.1875,385.0469 440.5313,385.0469 Q441.1563,385.0469 441.75,384.7813 Q442.3438,384.5 442.9688,383.9219 L442.9688,386.6406 Z "/><text fill="#000000" font-family="sans-serif" font-size="12" lengthAdjust="spacingAndGlyphs" textLength="85" x="454" y="385.1543">BoxCollider2D</text><line style="stroke: #A80036; stroke-width: 1.5;" x1="426" x2="541" y1="397" y2="397"/><line style="stroke: #A80036; stroke-width: 1.5;" x1="426" x2="541" y1="405" y2="405"/><!--MD5=[1dcb072468b0d7732dfb17a5d7634985]
class AudioSource--><rect fill="#FEFECE" filter="url(#f1xzza0u8pbmh3)" height="48" id="AudioSource" style="stroke: #A80036; stroke-width: 1.5;" width="111" x="577" y="365"/><ellipse cx="592" cy="381" fill="#ADD1B2" rx="11" ry="11" style="stroke: #A80036; stroke-width: 1.0;"/><path d="M594.9688,386.6406 Q594.3906,386.9375 593.75,387.0781 Q593.1094,387.2344 592.4063,387.2344 Q589.9063,387.2344 588.5781,385.5938 Q587.2656,383.9375 587.2656,380.8125 Q587.2656,377.6875 588.5781,376.0313 Q589.9063,374.375 592.4063,374.375 Q593.1094,374.375 593.75,374.5313 Q594.4063,374.6875 594.9688,374.9844 L594.9688,377.7031 Q594.3438,377.125 593.75,376.8594 Q593.1563,376.5781 592.5313,376.5781 Q591.1875,376.5781 590.5,377.6563 Q589.8125,378.7188 589.8125,380.8125 Q589.8125,382.9063 590.5,383.9844 Q591.1875,385.0469 592.5313,385.0469 Q593.1563,385.0469 593.75,384.7813 Q594.3438,384.5 594.9688,383.9219 L594.9688,386.6406 Z "/><text fill="#000000" font-family="sans-serif" font-size="12" lengthAdjust="spacingAndGlyphs" textLength="79" x="606" y="385.1543">AudioSource</text><line style="stroke: #A80036; stroke-width: 1.5;" x1="578" x2="687" y1="397" y2="397"/><line style="stroke: #A80036; stroke-width: 1.5;" x1="578" x2="687" y1="405" y2="405"/><!--MD5=[d29e1c2e88dbc8a1816c4a9c35be05b3]
reverse link MonoBehaviour to PlayerController2D--><path d="M335.5,76.38 C335.5,88.4 335.5,101.93 335.5,115.65 " fill="none" id="MonoBehaviour&lt;-PlayerController2D" style="stroke: #A80036; stroke-width: 1.0;"/><polygon fill="none" points="328.5,76.07,335.5,56.07,342.5,76.07,328.5,76.07" style="stroke: #A80036; stroke-width: 1.0;"/><!--MD5=[917a05a97e043166120b01c632f5c5f5]
link PlayerController2D to LayerMask--><path d="M246.49,271.01 C200.18,301.98 145.93,338.24 110.26,362.09 " fill="none" id="PlayerController2D-&gt;LayerMask" style="stroke: #A80036; stroke-width: 1.0;"/><polygon fill="#A80036" points="106,364.94,115.7033,363.2528,110.1537,362.1566,111.2499,356.607,106,364.94" style="stroke: #A80036; stroke-width: 1.0;"/><text fill="#000000" font-family="sans-serif" font-size="13" lengthAdjust="spacingAndGlyphs" textLength="85" x="18.95" y="353.9367">_groundMask</text><!--MD5=[478ce5a416ae016ede8fcff9722ade98]
link PlayerController2D to InputMap--><path d="M263.85,305.18 C248.28,325.54 233,345.52 221.35,360.75 " fill="none" id="PlayerController2D-&gt;InputMap" style="stroke: #A80036; stroke-width: 1.0;"/><polygon fill="#A80036" points="218.16,364.91,226.7982,360.179,221.1919,360.9342,220.4368,355.3279,218.16,364.91" style="stroke: #A80036; stroke-width: 1.0;"/><text fill="#000000" font-family="sans-serif" font-size="13" lengthAdjust="spacingAndGlyphs" textLength="66" x="148.2291" y="353.899">_inputMap</text><!--MD5=[674252d2f3f791d40677e8ae4df5dd10]
link PlayerController2D to Rigidbody2D--><path d="M335.5,305.18 C335.5,325.02 335.5,344.49 335.5,359.56 " fill="none" id="PlayerController2D-&gt;Rigidbody2D" style="stroke: #A80036; stroke-width: 1.0;"/><polygon fill="#A80036" points="335.5,364.91,339.5,355.91,335.5,359.91,331.5,355.91,335.5,364.91" style="stroke: #A80036; stroke-width: 1.0;"/><text fill="#000000" font-family="sans-serif" font-size="13" lengthAdjust="spacingAndGlyphs" textLength="65" x="262.1719" y="353.899">_rigidbody</text><!--MD5=[7693387bbeb984ad5c3a5470e71e2eba]
link PlayerController2D to BoxCollider2D--><path d="M414.05,305.18 C431.13,325.54 447.88,345.52 460.65,360.75 " fill="none" id="PlayerController2D-&gt;BoxCollider2D" style="stroke: #A80036; stroke-width: 1.0;"/><polygon fill="#A80036" points="464.14,364.91,461.4166,355.4452,460.925,361.0806,455.2896,360.5891,464.14,364.91" style="stroke: #A80036; stroke-width: 1.0;"/><text fill="#000000" font-family="sans-serif" font-size="13" lengthAdjust="spacingAndGlyphs" textLength="52" x="400.5165" y="353.899">_collider</text><!--MD5=[5c9cadba7e9b4807438bd9966899a711]
link PlayerController2D to AudioSource--><path d="M424.61,264.46 C479.13,296.85 546.43,336.85 589.41,362.39 " fill="none" id="PlayerController2D-&gt;AudioSource" style="stroke: #A80036; stroke-width: 1.0;"/><polygon fill="#A80036" points="593.75,364.97,588.0393,356.9458,589.4462,362.4249,583.9671,363.8319,593.75,364.97" style="stroke: #A80036; stroke-width: 1.0;"/><text fill="#000000" font-family="sans-serif" font-size="13" lengthAdjust="spacingAndGlyphs" textLength="87" x="523.7529" y="353.9126">_audioSource</text><!--MD5=[fc879829bc7eec319431f0913f6f7469]
@startuml
class PlayerController2D {
    - _moveSpeed : float
    - _jumpSpeed : float
    - _grounded : bool = false
    + Moving : bool <<get>>
    + Grounded : bool <<get>>
    + MoveDirection : float <<get>>
    - Awake() : void
    - Start() : void
    - OnDisable() : void
    - Update() : void
    - Jump() : void
}
MonoBehaviour <|- - PlayerController2D
PlayerController2D - -> "_groundMask" LayerMask
PlayerController2D - -> "_inputMap" InputMap
PlayerController2D - -> "_rigidbody" Rigidbody2D
PlayerController2D - -> "_collider" BoxCollider2D
PlayerController2D - -> "_audioSource" AudioSource
@enduml

PlantUML version 1.2020.02(Sun Mar 01 10:22:07 GMT 2020)
(GPL source distribution)
Java Runtime: OpenJDK Runtime Environment
JVM: OpenJDK 64-Bit Server VM
Java Version: 11.0.9+11-Ubuntu-0ubuntu1
Operating System: Linux
Default Encoding: ANSI_X3.4-1968
Language: en
Country: US
--></g></svg>