<?xml version="1.0" encoding="UTF-8" standalone="no"?><svg xmlns="http://www.w3.org/2000/svg" xmlns:xlink="http://www.w3.org/1999/xlink" contentScriptType="application/ecmascript" contentStyleType="text/css" height="200px" preserveAspectRatio="none" style="width:265px;height:200px;" version="1.1" viewBox="0 0 265 200" width="265px" zoomAndPan="magnify"><defs><filter height="300%" id="fsbu93x1m8k1d" width="300%" x="-1" y="-1"><feGaussianBlur result="blurOut" stdDeviation="2.0"/><feColorMatrix in="blurOut" result="blurOut2" type="matrix" values="0 0 0 0 0 0 0 0 0 0 0 0 0 0 0 0 0 0 .4 0"/><feOffset dx="4.0" dy="4.0" in="blurOut2" result="blurOut3"/><feBlend in="SourceGraphic" in2="blurOut3" mode="normal"/></filter></defs><g><!--MD5=[5c0d17eac5d8ea1cd323717420635f2d]
class PlayerInteract--><rect fill="#FEFECE" filter="url(#fsbu93x1m8k1d)" height="73.6094" id="PlayerInteract" style="stroke: #A80036; stroke-width: 1.5;" width="248" x="6" y="116"/><ellipse cx="82.25" cy="132" fill="#ADD1B2" rx="11" ry="11" style="stroke: #A80036; stroke-width: 1.0;"/><path d="M85.2188,137.6406 Q84.6406,137.9375 84,138.0781 Q83.3594,138.2344 82.6563,138.2344 Q80.1563,138.2344 78.8281,136.5938 Q77.5156,134.9375 77.5156,131.8125 Q77.5156,128.6875 78.8281,127.0313 Q80.1563,125.375 82.6563,125.375 Q83.3594,125.375 84,125.5313 Q84.6563,125.6875 85.2188,125.9844 L85.2188,128.7031 Q84.5938,128.125 84,127.8594 Q83.4063,127.5781 82.7813,127.5781 Q81.4375,127.5781 80.75,128.6563 Q80.0625,129.7188 80.0625,131.8125 Q80.0625,133.9063 80.75,134.9844 Q81.4375,136.0469 82.7813,136.0469 Q83.4063,136.0469 84,135.7813 Q84.5938,135.5 85.2188,134.9219 L85.2188,137.6406 Z "/><text fill="#000000" font-family="sans-serif" font-size="12" lengthAdjust="spacingAndGlyphs" textLength="87" x="102.75" y="136.1543">PlayerInteract</text><line style="stroke: #A80036; stroke-width: 1.5;" x1="7" x2="253" y1="148" y2="148"/><line style="stroke: #A80036; stroke-width: 1.5;" x1="7" x2="253" y1="156" y2="156"/><ellipse cx="17" cy="167" fill="#84BE84" rx="3" ry="3" style="stroke: #038048; stroke-width: 1.0;"/><text fill="#000000" font-family="sans-serif" font-size="11" lengthAdjust="spacingAndGlyphs" textLength="208" x="26" y="170.2104">«override» OnNetworkSpawn() : void</text><ellipse cx="17" cy="179.8047" fill="#84BE84" rx="3" ry="3" style="stroke: #038048; stroke-width: 1.0;"/><text fill="#000000" font-family="sans-serif" font-size="11" lengthAdjust="spacingAndGlyphs" textLength="222" x="26" y="183.0151">«override» OnNetworkDespawn() : void</text><!--MD5=[be62f0ac78b5cca9d2b2f8a4bd540407]
class NetworkBehaviour--><rect fill="#FEFECE" filter="url(#fsbu93x1m8k1d)" height="48" id="NetworkBehaviour" style="stroke: #A80036; stroke-width: 1.5;" width="145" x="57.5" y="8"/><ellipse cx="72.5" cy="24" fill="#ADD1B2" rx="11" ry="11" style="stroke: #A80036; stroke-width: 1.0;"/><path d="M75.4688,29.6406 Q74.8906,29.9375 74.25,30.0781 Q73.6094,30.2344 72.9063,30.2344 Q70.4063,30.2344 69.0781,28.5938 Q67.7656,26.9375 67.7656,23.8125 Q67.7656,20.6875 69.0781,19.0313 Q70.4063,17.375 72.9063,17.375 Q73.6094,17.375 74.25,17.5313 Q74.9063,17.6875 75.4688,17.9844 L75.4688,20.7031 Q74.8438,20.125 74.25,19.8594 Q73.6563,19.5781 73.0313,19.5781 Q71.6875,19.5781 71,20.6563 Q70.3125,21.7188 70.3125,23.8125 Q70.3125,25.9063 71,26.9844 Q71.6875,28.0469 73.0313,28.0469 Q73.6563,28.0469 74.25,27.7813 Q74.8438,27.5 75.4688,26.9219 L75.4688,29.6406 Z "/><text fill="#000000" font-family="sans-serif" font-size="12" lengthAdjust="spacingAndGlyphs" textLength="113" x="86.5" y="28.1543">NetworkBehaviour</text><line style="stroke: #A80036; stroke-width: 1.5;" x1="58.5" x2="201.5" y1="40" y2="40"/><line style="stroke: #A80036; stroke-width: 1.5;" x1="58.5" x2="201.5" y1="48" y2="48"/><!--MD5=[b05a17e8a4a51539f0b9e002cb6f33d7]
reverse link NetworkBehaviour to PlayerInteract--><path d="M130,76.43 C130,89.33 130,103.32 130,115.71 " fill="none" id="NetworkBehaviour&lt;-PlayerInteract" style="stroke: #A80036; stroke-width: 1.0;"/><polygon fill="none" points="123,76.23,130,56.23,137,76.23,123,76.23" style="stroke: #A80036; stroke-width: 1.0;"/><!--MD5=[2a3e10883e11640e3660c707d6dfc31b]
@startuml
class PlayerInteract {
    + <<override>> OnNetworkSpawn() : void
    + <<override>> OnNetworkDespawn() : void
}
NetworkBehaviour <|- - PlayerInteract
@enduml

PlantUML version 1.2020.02(Sun Mar 01 10:22:07 GMT 2020)
(GPL source distribution)
Java Runtime: OpenJDK Runtime Environment
JVM: OpenJDK 64-Bit Server VM
Java Version: 11.0.9+11-Ubuntu-0ubuntu1
Operating System: Linux
Default Encoding: ANSI_X3.4-1968
Language: en
Country: US
--></g></svg>