<?xml version="1.0" encoding="UTF-8" standalone="no"?><svg xmlns="http://www.w3.org/2000/svg" xmlns:xlink="http://www.w3.org/1999/xlink" contentScriptType="application/ecmascript" contentStyleType="text/css" height="187px" preserveAspectRatio="none" style="width:308px;height:187px;" version="1.1" viewBox="0 0 308 187" width="308px" zoomAndPan="magnify"><defs><filter height="300%" id="fec9o7r1b3dd2" width="300%" x="-1" y="-1"><feGaussianBlur result="blurOut" stdDeviation="2.0"/><feColorMatrix in="blurOut" result="blurOut2" type="matrix" values="0 0 0 0 0 0 0 0 0 0 0 0 0 0 0 0 0 0 .4 0"/><feOffset dx="4.0" dy="4.0" in="blurOut2" result="blurOut3"/><feBlend in="SourceGraphic" in2="blurOut3" mode="normal"/></filter></defs><g><!--MD5=[b5db59f642be87fbfdc6931dc5d95e68]
class ClientEventInteractable--><rect fill="#FEFECE" filter="url(#fec9o7r1b3dd2)" height="60.8047" id="ClientEventInteractable" style="stroke: #A80036; stroke-width: 1.5;" width="178" x="70.5" y="116"/><ellipse cx="85.5" cy="132" fill="#ADD1B2" rx="11" ry="11" style="stroke: #A80036; stroke-width: 1.0;"/><path d="M88.4688,137.6406 Q87.8906,137.9375 87.25,138.0781 Q86.6094,138.2344 85.9063,138.2344 Q83.4063,138.2344 82.0781,136.5938 Q80.7656,134.9375 80.7656,131.8125 Q80.7656,128.6875 82.0781,127.0313 Q83.4063,125.375 85.9063,125.375 Q86.6094,125.375 87.25,125.5313 Q87.9063,125.6875 88.4688,125.9844 L88.4688,128.7031 Q87.8438,128.125 87.25,127.8594 Q86.6563,127.5781 86.0313,127.5781 Q84.6875,127.5781 84,128.6563 Q83.3125,129.7188 83.3125,131.8125 Q83.3125,133.9063 84,134.9844 Q84.6875,136.0469 86.0313,136.0469 Q86.6563,136.0469 87.25,135.7813 Q87.8438,135.5 88.4688,134.9219 L88.4688,137.6406 Z "/><text fill="#000000" font-family="sans-serif" font-size="12" lengthAdjust="spacingAndGlyphs" textLength="146" x="99.5" y="136.1543">ClientEventInteractable</text><line style="stroke: #A80036; stroke-width: 1.5;" x1="71.5" x2="247.5" y1="148" y2="148"/><line style="stroke: #A80036; stroke-width: 1.5;" x1="71.5" x2="247.5" y1="156" y2="156"/><ellipse cx="81.5" cy="167" fill="#84BE84" rx="3" ry="3" style="stroke: #038048; stroke-width: 1.0;"/><text fill="#000000" font-family="sans-serif" font-size="11" lengthAdjust="spacingAndGlyphs" textLength="86" x="90.5" y="170.2104">Interact() : void</text><!--MD5=[be62f0ac78b5cca9d2b2f8a4bd540407]
class NetworkBehaviour--><rect fill="#FEFECE" filter="url(#fec9o7r1b3dd2)" height="48" id="NetworkBehaviour" style="stroke: #A80036; stroke-width: 1.5;" width="145" x="6" y="8"/><ellipse cx="21" cy="24" fill="#ADD1B2" rx="11" ry="11" style="stroke: #A80036; stroke-width: 1.0;"/><path d="M23.9688,29.6406 Q23.3906,29.9375 22.75,30.0781 Q22.1094,30.2344 21.4063,30.2344 Q18.9063,30.2344 17.5781,28.5938 Q16.2656,26.9375 16.2656,23.8125 Q16.2656,20.6875 17.5781,19.0313 Q18.9063,17.375 21.4063,17.375 Q22.1094,17.375 22.75,17.5313 Q23.4063,17.6875 23.9688,17.9844 L23.9688,20.7031 Q23.3438,20.125 22.75,19.8594 Q22.1563,19.5781 21.5313,19.5781 Q20.1875,19.5781 19.5,20.6563 Q18.8125,21.7188 18.8125,23.8125 Q18.8125,25.9063 19.5,26.9844 Q20.1875,28.0469 21.5313,28.0469 Q22.1563,28.0469 22.75,27.7813 Q23.3438,27.5 23.9688,26.9219 L23.9688,29.6406 Z "/><text fill="#000000" font-family="sans-serif" font-size="12" lengthAdjust="spacingAndGlyphs" textLength="113" x="35" y="28.1543">NetworkBehaviour</text><line style="stroke: #A80036; stroke-width: 1.5;" x1="7" x2="150" y1="40" y2="40"/><line style="stroke: #A80036; stroke-width: 1.5;" x1="7" x2="150" y1="48" y2="48"/><!--MD5=[5654b34243851ad7b2128a6c8a7eaaf0]
class IInteractable--><rect fill="#FEFECE" filter="url(#fec9o7r1b3dd2)" height="48" id="IInteractable" style="stroke: #A80036; stroke-width: 1.5;" width="111" x="186" y="8"/><ellipse cx="201" cy="24" fill="#ADD1B2" rx="11" ry="11" style="stroke: #A80036; stroke-width: 1.0;"/><path d="M203.9688,29.6406 Q203.3906,29.9375 202.75,30.0781 Q202.1094,30.2344 201.4063,30.2344 Q198.9063,30.2344 197.5781,28.5938 Q196.2656,26.9375 196.2656,23.8125 Q196.2656,20.6875 197.5781,19.0313 Q198.9063,17.375 201.4063,17.375 Q202.1094,17.375 202.75,17.5313 Q203.4063,17.6875 203.9688,17.9844 L203.9688,20.7031 Q203.3438,20.125 202.75,19.8594 Q202.1563,19.5781 201.5313,19.5781 Q200.1875,19.5781 199.5,20.6563 Q198.8125,21.7188 198.8125,23.8125 Q198.8125,25.9063 199.5,26.9844 Q200.1875,28.0469 201.5313,28.0469 Q202.1563,28.0469 202.75,27.7813 Q203.3438,27.5 203.9688,26.9219 L203.9688,29.6406 Z "/><text fill="#000000" font-family="sans-serif" font-size="12" lengthAdjust="spacingAndGlyphs" textLength="79" x="215" y="28.1543">IInteractable</text><line style="stroke: #A80036; stroke-width: 1.5;" x1="187" x2="296" y1="40" y2="40"/><line style="stroke: #A80036; stroke-width: 1.5;" x1="187" x2="296" y1="48" y2="48"/><!--MD5=[61b8d96e5036fa5698c4c27512f7d4fe]
reverse link NetworkBehaviour to ClientEventInteractable--><path d="M106.81,72.32 C117.06,86.55 128.45,102.37 138.01,115.65 " fill="none" id="NetworkBehaviour&lt;-ClientEventInteractable" style="stroke: #A80036; stroke-width: 1.0;"/><polygon fill="none" points="101.09,76.36,95.09,56.04,112.45,68.18,101.09,76.36" style="stroke: #A80036; stroke-width: 1.0;"/><!--MD5=[a24a59702c0ca7cc524347c1e7f90d8e]
reverse link IInteractable to ClientEventInteractable--><path d="M212.84,72.32 C202.47,86.55 190.94,102.37 181.26,115.65 " fill="none" id="IInteractable&lt;-ClientEventInteractable" style="stroke: #A80036; stroke-width: 1.0;"/><polygon fill="none" points="207.27,68.08,224.71,56.04,218.58,76.32,207.27,68.08" style="stroke: #A80036; stroke-width: 1.0;"/><!--MD5=[c3434dd002c36fedb4f2afa06d00ee5f]
@startuml
class ClientEventInteractable {
    + Interact() : void
}
NetworkBehaviour <|- - ClientEventInteractable
IInteractable <|- - ClientEventInteractable
@enduml

PlantUML version 1.2020.02(Sun Mar 01 10:22:07 GMT 2020)
(GPL source distribution)
Java Runtime: OpenJDK Runtime Environment
JVM: OpenJDK 64-Bit Server VM
Java Version: 11.0.9+11-Ubuntu-0ubuntu1
Operating System: Linux
Default Encoding: ANSI_X3.4-1968
Language: en
Country: US
--></g></svg>