<?xml version="1.0" encoding="UTF-8" standalone="no"?><svg xmlns="http://www.w3.org/2000/svg" xmlns:xlink="http://www.w3.org/1999/xlink" contentScriptType="application/ecmascript" contentStyleType="text/css" height="309px" preserveAspectRatio="none" style="width:308px;height:309px;" version="1.1" viewBox="0 0 308 309" width="308px" zoomAndPan="magnify"><defs><filter height="300%" id="f4ptwxrmcngka" width="300%" x="-1" y="-1"><feGaussianBlur result="blurOut" stdDeviation="2.0"/><feColorMatrix in="blurOut" result="blurOut2" type="matrix" values="0 0 0 0 0 0 0 0 0 0 0 0 0 0 0 0 0 0 .4 0"/><feOffset dx="4.0" dy="4.0" in="blurOut2" result="blurOut3"/><feBlend in="SourceGraphic" in2="blurOut3" mode="normal"/></filter></defs><g><!--MD5=[b5db59f642be87fbfdc6931dc5d95e68]
class ClientEventInteractable--><rect fill="#FEFECE" filter="url(#f4ptwxrmcngka)" height="73.6094" id="ClientEventInteractable" style="stroke: #A80036; stroke-width: 1.5;" width="198" x="60.5" y="116"/><ellipse cx="84.5" cy="132" fill="#ADD1B2" rx="11" ry="11" style="stroke: #A80036; stroke-width: 1.0;"/><path d="M87.4688,137.6406 Q86.8906,137.9375 86.25,138.0781 Q85.6094,138.2344 84.9063,138.2344 Q82.4063,138.2344 81.0781,136.5938 Q79.7656,134.9375 79.7656,131.8125 Q79.7656,128.6875 81.0781,127.0313 Q82.4063,125.375 84.9063,125.375 Q85.6094,125.375 86.25,125.5313 Q86.9063,125.6875 87.4688,125.9844 L87.4688,128.7031 Q86.8438,128.125 86.25,127.8594 Q85.6563,127.5781 85.0313,127.5781 Q83.6875,127.5781 83,128.6563 Q82.3125,129.7188 82.3125,131.8125 Q82.3125,133.9063 83,134.9844 Q83.6875,136.0469 85.0313,136.0469 Q85.6563,136.0469 86.25,135.7813 Q86.8438,135.5 87.4688,134.9219 L87.4688,137.6406 Z "/><text fill="#000000" font-family="sans-serif" font-size="12" lengthAdjust="spacingAndGlyphs" textLength="146" x="100.5" y="136.1543">ClientEventInteractable</text><line style="stroke: #A80036; stroke-width: 1.5;" x1="61.5" x2="257.5" y1="148" y2="148"/><line style="stroke: #A80036; stroke-width: 1.5;" x1="61.5" x2="257.5" y1="156" y2="156"/><ellipse cx="71.5" cy="167" fill="#84BE84" rx="3" ry="3" style="stroke: #038048; stroke-width: 1.0;"/><text fill="#000000" font-family="sans-serif" font-size="11" lengthAdjust="spacingAndGlyphs" textLength="86" x="80.5" y="170.2104">Interact() : void</text><rect fill="#F24D5C" height="6" style="stroke: #C82930; stroke-width: 1.0;" width="6" x="68.5" y="176.8047"/><text fill="#000000" font-family="sans-serif" font-size="11" lengthAdjust="spacingAndGlyphs" textLength="172" x="80.5" y="183.0151">PerformEventClientRpc() : void</text><!--MD5=[be62f0ac78b5cca9d2b2f8a4bd540407]
class NetworkBehaviour--><rect fill="#FEFECE" filter="url(#f4ptwxrmcngka)" height="48" id="NetworkBehaviour" style="stroke: #A80036; stroke-width: 1.5;" width="145" x="6" y="8"/><ellipse cx="21" cy="24" fill="#ADD1B2" rx="11" ry="11" style="stroke: #A80036; stroke-width: 1.0;"/><path d="M23.9688,29.6406 Q23.3906,29.9375 22.75,30.0781 Q22.1094,30.2344 21.4063,30.2344 Q18.9063,30.2344 17.5781,28.5938 Q16.2656,26.9375 16.2656,23.8125 Q16.2656,20.6875 17.5781,19.0313 Q18.9063,17.375 21.4063,17.375 Q22.1094,17.375 22.75,17.5313 Q23.4063,17.6875 23.9688,17.9844 L23.9688,20.7031 Q23.3438,20.125 22.75,19.8594 Q22.1563,19.5781 21.5313,19.5781 Q20.1875,19.5781 19.5,20.6563 Q18.8125,21.7188 18.8125,23.8125 Q18.8125,25.9063 19.5,26.9844 Q20.1875,28.0469 21.5313,28.0469 Q22.1563,28.0469 22.75,27.7813 Q23.3438,27.5 23.9688,26.9219 L23.9688,29.6406 Z "/><text fill="#000000" font-family="sans-serif" font-size="12" lengthAdjust="spacingAndGlyphs" textLength="113" x="35" y="28.1543">NetworkBehaviour</text><line style="stroke: #A80036; stroke-width: 1.5;" x1="7" x2="150" y1="40" y2="40"/><line style="stroke: #A80036; stroke-width: 1.5;" x1="7" x2="150" y1="48" y2="48"/><!--MD5=[5654b34243851ad7b2128a6c8a7eaaf0]
class IInteractable--><rect fill="#FEFECE" filter="url(#f4ptwxrmcngka)" height="48" id="IInteractable" style="stroke: #A80036; stroke-width: 1.5;" width="111" x="186" y="8"/><ellipse cx="201" cy="24" fill="#ADD1B2" rx="11" ry="11" style="stroke: #A80036; stroke-width: 1.0;"/><path d="M203.9688,29.6406 Q203.3906,29.9375 202.75,30.0781 Q202.1094,30.2344 201.4063,30.2344 Q198.9063,30.2344 197.5781,28.5938 Q196.2656,26.9375 196.2656,23.8125 Q196.2656,20.6875 197.5781,19.0313 Q198.9063,17.375 201.4063,17.375 Q202.1094,17.375 202.75,17.5313 Q203.4063,17.6875 203.9688,17.9844 L203.9688,20.7031 Q203.3438,20.125 202.75,19.8594 Q202.1563,19.5781 201.5313,19.5781 Q200.1875,19.5781 199.5,20.6563 Q198.8125,21.7188 198.8125,23.8125 Q198.8125,25.9063 199.5,26.9844 Q200.1875,28.0469 201.5313,28.0469 Q202.1563,28.0469 202.75,27.7813 Q203.3438,27.5 203.9688,26.9219 L203.9688,29.6406 Z "/><text fill="#000000" font-family="sans-serif" font-size="12" lengthAdjust="spacingAndGlyphs" textLength="79" x="215" y="28.1543">IInteractable</text><line style="stroke: #A80036; stroke-width: 1.5;" x1="187" x2="296" y1="40" y2="40"/><line style="stroke: #A80036; stroke-width: 1.5;" x1="187" x2="296" y1="48" y2="48"/><!--MD5=[3ead63e7a6dbaeb1466e3b865cfef6ea]
class UnityEvent--><rect fill="#FEFECE" filter="url(#f4ptwxrmcngka)" height="48" id="UnityEvent" style="stroke: #A80036; stroke-width: 1.5;" width="98" x="110.5" y="250"/><ellipse cx="125.5" cy="266" fill="#ADD1B2" rx="11" ry="11" style="stroke: #A80036; stroke-width: 1.0;"/><path d="M128.4688,271.6406 Q127.8906,271.9375 127.25,272.0781 Q126.6094,272.2344 125.9063,272.2344 Q123.4063,272.2344 122.0781,270.5938 Q120.7656,268.9375 120.7656,265.8125 Q120.7656,262.6875 122.0781,261.0313 Q123.4063,259.375 125.9063,259.375 Q126.6094,259.375 127.25,259.5313 Q127.9063,259.6875 128.4688,259.9844 L128.4688,262.7031 Q127.8438,262.125 127.25,261.8594 Q126.6563,261.5781 126.0313,261.5781 Q124.6875,261.5781 124,262.6563 Q123.3125,263.7188 123.3125,265.8125 Q123.3125,267.9063 124,268.9844 Q124.6875,270.0469 126.0313,270.0469 Q126.6563,270.0469 127.25,269.7813 Q127.8438,269.5 128.4688,268.9219 L128.4688,271.6406 Z "/><text fill="#000000" font-family="sans-serif" font-size="12" lengthAdjust="spacingAndGlyphs" textLength="66" x="139.5" y="270.1543">UnityEvent</text><line style="stroke: #A80036; stroke-width: 1.5;" x1="111.5" x2="207.5" y1="282" y2="282"/><line style="stroke: #A80036; stroke-width: 1.5;" x1="111.5" x2="207.5" y1="290" y2="290"/><!--MD5=[61b8d96e5036fa5698c4c27512f7d4fe]
reverse link NetworkBehaviour to ClientEventInteractable--><path d="M105.83,73.16 C115.21,86.93 125.64,102.26 134.8,115.71 " fill="none" id="NetworkBehaviour&lt;-ClientEventInteractable" style="stroke: #A80036; stroke-width: 1.0;"/><polygon fill="none" points="99.78,76.7,94.31,56.23,111.35,68.82,99.78,76.7" style="stroke: #A80036; stroke-width: 1.0;"/><!--MD5=[a24a59702c0ca7cc524347c1e7f90d8e]
reverse link IInteractable to ClientEventInteractable--><path d="M213.83,73.16 C204.34,86.93 193.77,102.26 184.5,115.71 " fill="none" id="IInteractable&lt;-ClientEventInteractable" style="stroke: #A80036; stroke-width: 1.0;"/><polygon fill="none" points="208.38,68.72,225.49,56.23,219.91,76.67,208.38,68.72" style="stroke: #A80036; stroke-width: 1.0;"/><!--MD5=[cf7467b6a17da63f09ae5f3c5782b795]
link ClientEventInteractable to UnityEvent--><path d="M159.5,190.03 C159.5,207.48 159.5,228.15 159.5,244.49 " fill="none" id="ClientEventInteractable-&gt;UnityEvent" style="stroke: #A80036; stroke-width: 1.0;"/><polygon fill="#A80036" points="159.5,249.85,163.5,240.85,159.5,244.85,155.5,240.85,159.5,249.85" style="stroke: #A80036; stroke-width: 1.0;"/><text fill="#000000" font-family="sans-serif" font-size="13" lengthAdjust="spacingAndGlyphs" textLength="65" x="86.1719" y="238.8236">onInteract</text><!--MD5=[8ddd6ebce1cb45e0388dd343d6f85a17]
@startuml
class ClientEventInteractable {
    + Interact() : void
    - PerformEventClientRpc() : void
}
NetworkBehaviour <|- - ClientEventInteractable
IInteractable <|- - ClientEventInteractable
ClientEventInteractable - -> "onInteract" UnityEvent
@enduml

PlantUML version 1.2020.02(Sun Mar 01 10:22:07 GMT 2020)
(GPL source distribution)
Java Runtime: OpenJDK Runtime Environment
JVM: OpenJDK 64-Bit Server VM
Java Version: 11.0.9+11-Ubuntu-0ubuntu1
Operating System: Linux
Default Encoding: ANSI_X3.4-1968
Language: en
Country: US
--></g></svg>