<?xml version="1.0" encoding="UTF-8" standalone="no"?><svg xmlns="http://www.w3.org/2000/svg" xmlns:xlink="http://www.w3.org/1999/xlink" contentScriptType="application/ecmascript" contentStyleType="text/css" height="296px" preserveAspectRatio="none" style="width:373px;height:296px;" version="1.1" viewBox="0 0 373 296" width="373px" zoomAndPan="magnify"><defs><filter height="300%" id="fgvi2cmt1ei02" width="300%" x="-1" y="-1"><feGaussianBlur result="blurOut" stdDeviation="2.0"/><feColorMatrix in="blurOut" result="blurOut2" type="matrix" values="0 0 0 0 0 0 0 0 0 0 0 0 0 0 0 0 0 0 .4 0"/><feOffset dx="4.0" dy="4.0" in="blurOut2" result="blurOut3"/><feBlend in="SourceGraphic" in2="blurOut3" mode="normal"/></filter></defs><g><!--MD5=[ac2bf1dbafad7f6ef7656ca4b69fc138]
class PlayerTouch--><rect fill="#FEFECE" filter="url(#fgvi2cmt1ei02)" height="60.8047" id="PlayerTouch" style="stroke: #A80036; stroke-width: 1.5;" width="279" x="83.5" y="116"/><ellipse cx="180.75" cy="132" fill="#ADD1B2" rx="11" ry="11" style="stroke: #A80036; stroke-width: 1.0;"/><path d="M183.7188,137.6406 Q183.1406,137.9375 182.5,138.0781 Q181.8594,138.2344 181.1563,138.2344 Q178.6563,138.2344 177.3281,136.5938 Q176.0156,134.9375 176.0156,131.8125 Q176.0156,128.6875 177.3281,127.0313 Q178.6563,125.375 181.1563,125.375 Q181.8594,125.375 182.5,125.5313 Q183.1563,125.6875 183.7188,125.9844 L183.7188,128.7031 Q183.0938,128.125 182.5,127.8594 Q181.9063,127.5781 181.2813,127.5781 Q179.9375,127.5781 179.25,128.6563 Q178.5625,129.7188 178.5625,131.8125 Q178.5625,133.9063 179.25,134.9844 Q179.9375,136.0469 181.2813,136.0469 Q181.9063,136.0469 182.5,135.7813 Q183.0938,135.5 183.7188,134.9219 L183.7188,137.6406 Z "/><text fill="#000000" font-family="sans-serif" font-size="12" lengthAdjust="spacingAndGlyphs" textLength="76" x="201.25" y="136.1543">PlayerTouch</text><line style="stroke: #A80036; stroke-width: 1.5;" x1="84.5" x2="361.5" y1="148" y2="148"/><line style="stroke: #A80036; stroke-width: 1.5;" x1="84.5" x2="361.5" y1="156" y2="156"/><rect fill="#F24D5C" height="6" style="stroke: #C82930; stroke-width: 1.0;" width="6" x="91.5" y="164"/><text fill="#000000" font-family="sans-serif" font-size="11" lengthAdjust="spacingAndGlyphs" textLength="253" x="103.5" y="170.2104">OnTriggerEnter2D(collision:Collider2D) : void</text><!--MD5=[3db59899eb5beb210f00fd86984190c5]
class UnityEvent`1--><rect fill="#FEFECE" filter="url(#fgvi2cmt1ei02)" height="48" id="UnityEvent`1" style="stroke: #A80036; stroke-width: 1.5;" width="123" x="161.5" y="237"/><ellipse cx="176.5" cy="253" fill="#ADD1B2" rx="11" ry="11" style="stroke: #A80036; stroke-width: 1.0;"/><path d="M179.4688,258.6406 Q178.8906,258.9375 178.25,259.0781 Q177.6094,259.2344 176.9063,259.2344 Q174.4063,259.2344 173.0781,257.5938 Q171.7656,255.9375 171.7656,252.8125 Q171.7656,249.6875 173.0781,248.0313 Q174.4063,246.375 176.9063,246.375 Q177.6094,246.375 178.25,246.5313 Q178.9063,246.6875 179.4688,246.9844 L179.4688,249.7031 Q178.8438,249.125 178.25,248.8594 Q177.6563,248.5781 177.0313,248.5781 Q175.6875,248.5781 175,249.6563 Q174.3125,250.7188 174.3125,252.8125 Q174.3125,254.9063 175,255.9844 Q175.6875,257.0469 177.0313,257.0469 Q177.6563,257.0469 178.25,256.7813 Q178.8438,256.5 179.4688,255.9219 L179.4688,258.6406 Z "/><text fill="#000000" font-family="sans-serif" font-size="12" lengthAdjust="spacingAndGlyphs" textLength="80" x="190.5" y="257.1543">UnityEvent`1</text><rect fill="#FFFFFF" height="15.9688" style="stroke: #000000; stroke-width: 1.0; stroke-dasharray: 2.0,2.0;" width="9" x="278.5" y="234"/><text fill="#000000" font-family="sans-serif" font-size="12" font-style="italic" lengthAdjust="spacingAndGlyphs" textLength="7" x="279.5" y="246.1387">T</text><line style="stroke: #A80036; stroke-width: 1.5;" x1="162.5" x2="283.5" y1="269" y2="269"/><line style="stroke: #A80036; stroke-width: 1.5;" x1="162.5" x2="283.5" y1="277" y2="277"/><!--MD5=[be62f0ac78b5cca9d2b2f8a4bd540407]
class NetworkBehaviour--><rect fill="#FEFECE" filter="url(#fgvi2cmt1ei02)" height="48" id="NetworkBehaviour" style="stroke: #A80036; stroke-width: 1.5;" width="145" x="150.5" y="8"/><ellipse cx="165.5" cy="24" fill="#ADD1B2" rx="11" ry="11" style="stroke: #A80036; stroke-width: 1.0;"/><path d="M168.4688,29.6406 Q167.8906,29.9375 167.25,30.0781 Q166.6094,30.2344 165.9063,30.2344 Q163.4063,30.2344 162.0781,28.5938 Q160.7656,26.9375 160.7656,23.8125 Q160.7656,20.6875 162.0781,19.0313 Q163.4063,17.375 165.9063,17.375 Q166.6094,17.375 167.25,17.5313 Q167.9063,17.6875 168.4688,17.9844 L168.4688,20.7031 Q167.8438,20.125 167.25,19.8594 Q166.6563,19.5781 166.0313,19.5781 Q164.6875,19.5781 164,20.6563 Q163.3125,21.7188 163.3125,23.8125 Q163.3125,25.9063 164,26.9844 Q164.6875,28.0469 166.0313,28.0469 Q166.6563,28.0469 167.25,27.7813 Q167.8438,27.5 168.4688,26.9219 L168.4688,29.6406 Z "/><text fill="#000000" font-family="sans-serif" font-size="12" lengthAdjust="spacingAndGlyphs" textLength="113" x="179.5" y="28.1543">NetworkBehaviour</text><line style="stroke: #A80036; stroke-width: 1.5;" x1="151.5" x2="294.5" y1="40" y2="40"/><line style="stroke: #A80036; stroke-width: 1.5;" x1="151.5" x2="294.5" y1="48" y2="48"/><!--MD5=[cba0dfe58143e873fdff8a41cfb8e21f]
reverse link NetworkBehaviour to PlayerTouch--><path d="M223,76.11 C223,89.31 223,103.54 223,115.65 " fill="none" id="NetworkBehaviour&lt;-PlayerTouch" style="stroke: #A80036; stroke-width: 1.0;"/><polygon fill="none" points="216,76.04,223,56.04,230,76.04,216,76.04" style="stroke: #A80036; stroke-width: 1.0;"/><!--MD5=[8c1224f695d306159b81beb50a3756fb]
link PlayerTouch to UnityEvent`1--><path d="M223,177.06 C223,193.93 223,214.98 223,231.65 " fill="none" id="PlayerTouch-&gt;UnityEvent`1" style="stroke: #A80036; stroke-width: 1.0;"/><polygon fill="#A80036" points="223,236.67,227,227.67,223,231.67,219,227.67,223,236.67" style="stroke: #A80036; stroke-width: 1.0;"/><text fill="#000000" font-family="sans-serif" font-size="13" lengthAdjust="spacingAndGlyphs" textLength="202" x="-3.6187" y="225.9945">_onPlayerTouch&lt;GameObject&gt;</text><!--MD5=[4f2e37564edaf5eaafb4011a94ac80e0]
@startuml
class PlayerTouch {
    - OnTriggerEnter2D(collision:Collider2D) : void
}
class "UnityEvent`1"<T> {
}
NetworkBehaviour <|- - PlayerTouch
PlayerTouch - -> "_onPlayerTouch<GameObject>" "UnityEvent`1"
@enduml

PlantUML version 1.2020.02(Sun Mar 01 10:22:07 GMT 2020)
(GPL source distribution)
Java Runtime: OpenJDK Runtime Environment
JVM: OpenJDK 64-Bit Server VM
Java Version: 11.0.9+11-Ubuntu-0ubuntu1
Operating System: Linux
Default Encoding: ANSI_X3.4-1968
Language: en
Country: US
--></g></svg>