<?xml version="1.0" encoding="UTF-8" standalone="no"?><svg xmlns="http://www.w3.org/2000/svg" xmlns:xlink="http://www.w3.org/1999/xlink" contentScriptType="application/ecmascript" contentStyleType="text/css" height="309px" preserveAspectRatio="none" style="width:257px;height:309px;" version="1.1" viewBox="0 0 257 309" width="257px" zoomAndPan="magnify"><defs><filter height="300%" id="f8b8le4b8k9m1" width="300%" x="-1" y="-1"><feGaussianBlur result="blurOut" stdDeviation="2.0"/><feColorMatrix in="blurOut" result="blurOut2" type="matrix" values="0 0 0 0 0 0 0 0 0 0 0 0 0 0 0 0 0 0 .4 0"/><feOffset dx="4.0" dy="4.0" in="blurOut2" result="blurOut3"/><feBlend in="SourceGraphic" in2="blurOut3" mode="normal"/></filter></defs><g><!--MD5=[96331d4ddc71dd60cac323ebb5eafe29]
class ClientPlayer--><rect fill="#FEFECE" filter="url(#f8b8le4b8k9m1)" height="73.6094" id="ClientPlayer" style="stroke: #A80036; stroke-width: 1.5;" width="234" x="12" y="116"/><ellipse cx="88.25" cy="132" fill="#ADD1B2" rx="11" ry="11" style="stroke: #A80036; stroke-width: 1.0;"/><path d="M91.2188,137.6406 Q90.6406,137.9375 90,138.0781 Q89.3594,138.2344 88.6563,138.2344 Q86.1563,138.2344 84.8281,136.5938 Q83.5156,134.9375 83.5156,131.8125 Q83.5156,128.6875 84.8281,127.0313 Q86.1563,125.375 88.6563,125.375 Q89.3594,125.375 90,125.5313 Q90.6563,125.6875 91.2188,125.9844 L91.2188,128.7031 Q90.5938,128.125 90,127.8594 Q89.4063,127.5781 88.7813,127.5781 Q87.4375,127.5781 86.75,128.6563 Q86.0625,129.7188 86.0625,131.8125 Q86.0625,133.9063 86.75,134.9844 Q87.4375,136.0469 88.7813,136.0469 Q89.4063,136.0469 90,135.7813 Q90.5938,135.5 91.2188,134.9219 L91.2188,137.6406 Z "/><text fill="#000000" font-family="sans-serif" font-size="12" lengthAdjust="spacingAndGlyphs" textLength="73" x="108.75" y="136.1543">ClientPlayer</text><line style="stroke: #A80036; stroke-width: 1.5;" x1="13" x2="245" y1="148" y2="148"/><line style="stroke: #A80036; stroke-width: 1.5;" x1="13" x2="245" y1="156" y2="156"/><rect fill="#F24D5C" height="6" style="stroke: #C82930; stroke-width: 1.0;" width="6" x="20" y="164"/><text fill="#000000" font-family="sans-serif" font-size="11" lengthAdjust="spacingAndGlyphs" textLength="79" x="32" y="170.2104">Awake() : void</text><ellipse cx="23" cy="179.8047" fill="#84BE84" rx="3" ry="3" style="stroke: #038048; stroke-width: 1.0;"/><text fill="#000000" font-family="sans-serif" font-size="11" lengthAdjust="spacingAndGlyphs" textLength="208" x="32" y="183.0151">«override» OnNetworkSpawn() : void</text><!--MD5=[be62f0ac78b5cca9d2b2f8a4bd540407]
class NetworkBehaviour--><rect fill="#FEFECE" filter="url(#f8b8le4b8k9m1)" height="48" id="NetworkBehaviour" style="stroke: #A80036; stroke-width: 1.5;" width="145" x="56.5" y="8"/><ellipse cx="71.5" cy="24" fill="#ADD1B2" rx="11" ry="11" style="stroke: #A80036; stroke-width: 1.0;"/><path d="M74.4688,29.6406 Q73.8906,29.9375 73.25,30.0781 Q72.6094,30.2344 71.9063,30.2344 Q69.4063,30.2344 68.0781,28.5938 Q66.7656,26.9375 66.7656,23.8125 Q66.7656,20.6875 68.0781,19.0313 Q69.4063,17.375 71.9063,17.375 Q72.6094,17.375 73.25,17.5313 Q73.9063,17.6875 74.4688,17.9844 L74.4688,20.7031 Q73.8438,20.125 73.25,19.8594 Q72.6563,19.5781 72.0313,19.5781 Q70.6875,19.5781 70,20.6563 Q69.3125,21.7188 69.3125,23.8125 Q69.3125,25.9063 70,26.9844 Q70.6875,28.0469 72.0313,28.0469 Q72.6563,28.0469 73.25,27.7813 Q73.8438,27.5 74.4688,26.9219 L74.4688,29.6406 Z "/><text fill="#000000" font-family="sans-serif" font-size="12" lengthAdjust="spacingAndGlyphs" textLength="113" x="85.5" y="28.1543">NetworkBehaviour</text><line style="stroke: #A80036; stroke-width: 1.5;" x1="57.5" x2="200.5" y1="40" y2="40"/><line style="stroke: #A80036; stroke-width: 1.5;" x1="57.5" x2="200.5" y1="48" y2="48"/><!--MD5=[32756bd98ce6dc32445a57cd0ec72cb5]
class PlayerController2D--><rect fill="#FEFECE" filter="url(#f8b8le4b8k9m1)" height="48" id="PlayerController2D" style="stroke: #A80036; stroke-width: 1.5;" width="148" x="55" y="250"/><ellipse cx="70" cy="266" fill="#ADD1B2" rx="11" ry="11" style="stroke: #A80036; stroke-width: 1.0;"/><path d="M72.9688,271.6406 Q72.3906,271.9375 71.75,272.0781 Q71.1094,272.2344 70.4063,272.2344 Q67.9063,272.2344 66.5781,270.5938 Q65.2656,268.9375 65.2656,265.8125 Q65.2656,262.6875 66.5781,261.0313 Q67.9063,259.375 70.4063,259.375 Q71.1094,259.375 71.75,259.5313 Q72.4063,259.6875 72.9688,259.9844 L72.9688,262.7031 Q72.3438,262.125 71.75,261.8594 Q71.1563,261.5781 70.5313,261.5781 Q69.1875,261.5781 68.5,262.6563 Q67.8125,263.7188 67.8125,265.8125 Q67.8125,267.9063 68.5,268.9844 Q69.1875,270.0469 70.5313,270.0469 Q71.1563,270.0469 71.75,269.7813 Q72.3438,269.5 72.9688,268.9219 L72.9688,271.6406 Z "/><text fill="#000000" font-family="sans-serif" font-size="12" lengthAdjust="spacingAndGlyphs" textLength="116" x="84" y="270.1543">PlayerController2D</text><line style="stroke: #A80036; stroke-width: 1.5;" x1="56" x2="202" y1="282" y2="282"/><line style="stroke: #A80036; stroke-width: 1.5;" x1="56" x2="202" y1="290" y2="290"/><!--MD5=[1d0bd4b8874558c03178a20adadbf6c0]
reverse link NetworkBehaviour to ClientPlayer--><path d="M129,76.43 C129,89.33 129,103.32 129,115.71 " fill="none" id="NetworkBehaviour&lt;-ClientPlayer" style="stroke: #A80036; stroke-width: 1.0;"/><polygon fill="none" points="122,76.23,129,56.23,136,76.23,122,76.23" style="stroke: #A80036; stroke-width: 1.0;"/><!--MD5=[2410b8ba166864262d62f0b55e732297]
link ClientPlayer to PlayerController2D--><path d="M129,190.03 C129,207.48 129,228.15 129,244.49 " fill="none" id="ClientPlayer-&gt;PlayerController2D" style="stroke: #A80036; stroke-width: 1.0;"/><polygon fill="#A80036" points="129,249.85,133,240.85,129,244.85,125,240.85,129,249.85" style="stroke: #A80036; stroke-width: 1.0;"/><text fill="#000000" font-family="sans-serif" font-size="13" lengthAdjust="spacingAndGlyphs" textLength="108" x="7.1625" y="238.8236">_playerController</text><!--MD5=[8b2f7e4da154d103f63e923ae247c8c9]
@startuml
class ClientPlayer {
    - Awake() : void
    + <<override>> OnNetworkSpawn() : void
}
NetworkBehaviour <|- - ClientPlayer
ClientPlayer - -> "_playerController" PlayerController2D
@enduml

PlantUML version 1.2020.02(Sun Mar 01 10:22:07 GMT 2020)
(GPL source distribution)
Java Runtime: OpenJDK Runtime Environment
JVM: OpenJDK 64-Bit Server VM
Java Version: 11.0.9+11-Ubuntu-0ubuntu1
Operating System: Linux
Default Encoding: ANSI_X3.4-1968
Language: en
Country: US
--></g></svg>