<?xml version="1.0" encoding="UTF-8" standalone="no"?><svg xmlns="http://www.w3.org/2000/svg" xmlns:xlink="http://www.w3.org/1999/xlink" contentScriptType="application/ecmascript" contentStyleType="text/css" height="360px" preserveAspectRatio="none" style="width:392px;height:360px;" version="1.1" viewBox="0 0 392 360" width="392px" zoomAndPan="magnify"><defs><filter height="300%" id="f1fwwy328b0m3d" width="300%" x="-1" y="-1"><feGaussianBlur result="blurOut" stdDeviation="2.0"/><feColorMatrix in="blurOut" result="blurOut2" type="matrix" values="0 0 0 0 0 0 0 0 0 0 0 0 0 0 0 0 0 0 .4 0"/><feOffset dx="4.0" dy="4.0" in="blurOut2" result="blurOut3"/><feBlend in="SourceGraphic" in2="blurOut3" mode="normal"/></filter></defs><g><!--MD5=[fc3ea5b1a56368924fc7fca3715fb185]
class NetworkConnect--><rect fill="#FEFECE" filter="url(#f1fwwy328b0m3d)" height="124.8281" id="NetworkConnect" style="stroke: #A80036; stroke-width: 1.5;" width="282" x="52.28" y="116"/><ellipse cx="137.53" cy="132" fill="#ADD1B2" rx="11" ry="11" style="stroke: #A80036; stroke-width: 1.0;"/><path d="M140.4988,137.6406 Q139.9206,137.9375 139.28,138.0781 Q138.6394,138.2344 137.9363,138.2344 Q135.4363,138.2344 134.1081,136.5938 Q132.7956,134.9375 132.7956,131.8125 Q132.7956,128.6875 134.1081,127.0313 Q135.4363,125.375 137.9363,125.375 Q138.6394,125.375 139.28,125.5313 Q139.9363,125.6875 140.4988,125.9844 L140.4988,128.7031 Q139.8738,128.125 139.28,127.8594 Q138.6863,127.5781 138.0613,127.5781 Q136.7175,127.5781 136.03,128.6563 Q135.3425,129.7188 135.3425,131.8125 Q135.3425,133.9063 136.03,134.9844 Q136.7175,136.0469 138.0613,136.0469 Q138.6863,136.0469 139.28,135.7813 Q139.8738,135.5 140.4988,134.9219 L140.4988,137.6406 Z "/><text fill="#000000" font-family="sans-serif" font-size="12" lengthAdjust="spacingAndGlyphs" textLength="103" x="158.03" y="136.1543">NetworkConnect</text><line style="stroke: #A80036; stroke-width: 1.5;" x1="53.28" x2="333.28" y1="148" y2="148"/><line style="stroke: #A80036; stroke-width: 1.5;" x1="53.28" x2="333.28" y1="156" y2="156"/><rect fill="#F24D5C" height="6" style="stroke: #C82930; stroke-width: 1.0;" width="6" x="60.28" y="164"/><text fill="#000000" font-family="sans-serif" font-size="11" lengthAdjust="spacingAndGlyphs" textLength="71" x="72.28" y="170.2104">Start() : void</text><ellipse cx="63.28" cy="179.8047" fill="#84BE84" rx="3" ry="3" style="stroke: #038048; stroke-width: 1.0;"/><text fill="#000000" font-family="sans-serif" font-size="11" lengthAdjust="spacingAndGlyphs" textLength="162" x="72.28" y="183.0151">OnHostButtonClicked() : void</text><ellipse cx="63.28" cy="192.6094" fill="#84BE84" rx="3" ry="3" style="stroke: #038048; stroke-width: 1.0;"/><text fill="#000000" font-family="sans-serif" font-size="11" lengthAdjust="spacingAndGlyphs" textLength="156" x="72.28" y="195.8198">OnJoinButtonClicked() : void</text><rect fill="#F24D5C" height="6" style="stroke: #C82930; stroke-width: 1.0;" width="6" x="60.28" y="202.4141"/><text fill="#000000" font-family="sans-serif" font-size="11" lengthAdjust="spacingAndGlyphs" textLength="94" x="72.28" y="208.6245">UpdateIP() : bool</text><rect fill="#F24D5C" height="6" style="stroke: #C82930; stroke-width: 1.0;" width="6" x="60.28" y="215.2188"/><text fill="#000000" font-family="sans-serif" font-size="11" lengthAdjust="spacingAndGlyphs" textLength="256" x="72.28" y="221.4292">SetFeedbackMessage(message:string) : void</text><rect fill="#F24D5C" height="6" style="stroke: #C82930; stroke-width: 1.0;" width="6" x="60.28" y="228.0234"/><text fill="#000000" font-family="sans-serif" font-size="11" lengthAdjust="spacingAndGlyphs" textLength="170" x="72.28" y="234.2339">ClearFeebackMessage() : void</text><!--MD5=[83b3cf3d23d77c6f1e1b5291a241bc2a]
class MonoBehaviour--><rect fill="#FEFECE" filter="url(#f1fwwy328b0m3d)" height="48" id="MonoBehaviour" style="stroke: #A80036; stroke-width: 1.5;" width="128" x="129.28" y="8"/><ellipse cx="144.28" cy="24" fill="#ADD1B2" rx="11" ry="11" style="stroke: #A80036; stroke-width: 1.0;"/><path d="M147.2488,29.6406 Q146.6706,29.9375 146.03,30.0781 Q145.3894,30.2344 144.6863,30.2344 Q142.1863,30.2344 140.8581,28.5938 Q139.5456,26.9375 139.5456,23.8125 Q139.5456,20.6875 140.8581,19.0313 Q142.1863,17.375 144.6863,17.375 Q145.3894,17.375 146.03,17.5313 Q146.6863,17.6875 147.2488,17.9844 L147.2488,20.7031 Q146.6238,20.125 146.03,19.8594 Q145.4363,19.5781 144.8113,19.5781 Q143.4675,19.5781 142.78,20.6563 Q142.0925,21.7188 142.0925,23.8125 Q142.0925,25.9063 142.78,26.9844 Q143.4675,28.0469 144.8113,28.0469 Q145.4363,28.0469 146.03,27.7813 Q146.6238,27.5 147.2488,26.9219 L147.2488,29.6406 Z "/><text fill="#000000" font-family="sans-serif" font-size="12" lengthAdjust="spacingAndGlyphs" textLength="96" x="158.28" y="28.1543">MonoBehaviour</text><line style="stroke: #A80036; stroke-width: 1.5;" x1="130.28" x2="256.28" y1="40" y2="40"/><line style="stroke: #A80036; stroke-width: 1.5;" x1="130.28" x2="256.28" y1="48" y2="48"/><!--MD5=[db453f91a253a2358c4d376fa3bf4942]
class InputField--><rect fill="#FEFECE" filter="url(#f1fwwy328b0m3d)" height="48" id="InputField" style="stroke: #A80036; stroke-width: 1.5;" width="93" x="35.78" y="301"/><ellipse cx="50.78" cy="317" fill="#ADD1B2" rx="11" ry="11" style="stroke: #A80036; stroke-width: 1.0;"/><path d="M53.7488,322.6406 Q53.1706,322.9375 52.53,323.0781 Q51.8894,323.2344 51.1863,323.2344 Q48.6863,323.2344 47.3581,321.5938 Q46.0456,319.9375 46.0456,316.8125 Q46.0456,313.6875 47.3581,312.0313 Q48.6863,310.375 51.1863,310.375 Q51.8894,310.375 52.53,310.5313 Q53.1863,310.6875 53.7488,310.9844 L53.7488,313.7031 Q53.1238,313.125 52.53,312.8594 Q51.9363,312.5781 51.3113,312.5781 Q49.9675,312.5781 49.28,313.6563 Q48.5925,314.7188 48.5925,316.8125 Q48.5925,318.9063 49.28,319.9844 Q49.9675,321.0469 51.3113,321.0469 Q51.9363,321.0469 52.53,320.7813 Q53.1238,320.5 53.7488,319.9219 L53.7488,322.6406 Z "/><text fill="#000000" font-family="sans-serif" font-size="12" lengthAdjust="spacingAndGlyphs" textLength="61" x="64.78" y="321.1543">InputField</text><line style="stroke: #A80036; stroke-width: 1.5;" x1="36.78" x2="127.78" y1="333" y2="333"/><line style="stroke: #A80036; stroke-width: 1.5;" x1="36.78" x2="127.78" y1="341" y2="341"/><!--MD5=[02a8746eb15ecbb4566dafa16ea4db73]
class Text--><rect fill="#FEFECE" filter="url(#f1fwwy328b0m3d)" height="48" id="Text" style="stroke: #A80036; stroke-width: 1.5;" width="58" x="164.28" y="301"/><ellipse cx="179.28" cy="317" fill="#ADD1B2" rx="11" ry="11" style="stroke: #A80036; stroke-width: 1.0;"/><path d="M182.2488,322.6406 Q181.6706,322.9375 181.03,323.0781 Q180.3894,323.2344 179.6863,323.2344 Q177.1863,323.2344 175.8581,321.5938 Q174.5456,319.9375 174.5456,316.8125 Q174.5456,313.6875 175.8581,312.0313 Q177.1863,310.375 179.6863,310.375 Q180.3894,310.375 181.03,310.5313 Q181.6863,310.6875 182.2488,310.9844 L182.2488,313.7031 Q181.6238,313.125 181.03,312.8594 Q180.4363,312.5781 179.8113,312.5781 Q178.4675,312.5781 177.78,313.6563 Q177.0925,314.7188 177.0925,316.8125 Q177.0925,318.9063 177.78,319.9844 Q178.4675,321.0469 179.8113,321.0469 Q180.4363,321.0469 181.03,320.7813 Q181.6238,320.5 182.2488,319.9219 L182.2488,322.6406 Z "/><text fill="#000000" font-family="sans-serif" font-size="12" lengthAdjust="spacingAndGlyphs" textLength="26" x="193.28" y="321.1543">Text</text><line style="stroke: #A80036; stroke-width: 1.5;" x1="165.28" x2="221.28" y1="333" y2="333"/><line style="stroke: #A80036; stroke-width: 1.5;" x1="165.28" x2="221.28" y1="341" y2="341"/><!--MD5=[e1d8c401d96f1f7c3603e608d6c6660b]
class UnityTransport--><rect fill="#FEFECE" filter="url(#f1fwwy328b0m3d)" height="48" id="UnityTransport" style="stroke: #A80036; stroke-width: 1.5;" width="124" x="257.28" y="301"/><ellipse cx="272.28" cy="317" fill="#ADD1B2" rx="11" ry="11" style="stroke: #A80036; stroke-width: 1.0;"/><path d="M275.2488,322.6406 Q274.6706,322.9375 274.03,323.0781 Q273.3894,323.2344 272.6863,323.2344 Q270.1863,323.2344 268.8581,321.5938 Q267.5456,319.9375 267.5456,316.8125 Q267.5456,313.6875 268.8581,312.0313 Q270.1863,310.375 272.6863,310.375 Q273.3894,310.375 274.03,310.5313 Q274.6863,310.6875 275.2488,310.9844 L275.2488,313.7031 Q274.6238,313.125 274.03,312.8594 Q273.4363,312.5781 272.8113,312.5781 Q271.4675,312.5781 270.78,313.6563 Q270.0925,314.7188 270.0925,316.8125 Q270.0925,318.9063 270.78,319.9844 Q271.4675,321.0469 272.8113,321.0469 Q273.4363,321.0469 274.03,320.7813 Q274.6238,320.5 275.2488,319.9219 L275.2488,322.6406 Z "/><text fill="#000000" font-family="sans-serif" font-size="12" lengthAdjust="spacingAndGlyphs" textLength="92" x="286.28" y="321.1543">UnityTransport</text><line style="stroke: #A80036; stroke-width: 1.5;" x1="258.28" x2="380.28" y1="333" y2="333"/><line style="stroke: #A80036; stroke-width: 1.5;" x1="258.28" x2="380.28" y1="341" y2="341"/><!--MD5=[f3533e2842ff3da243cadd75dc526d0b]
reverse link MonoBehaviour to NetworkConnect--><path d="M193.28,76.67 C193.28,89.05 193.28,102.77 193.28,115.99 " fill="none" id="MonoBehaviour&lt;-NetworkConnect" style="stroke: #A80036; stroke-width: 1.0;"/><polygon fill="none" points="186.28,76.22,193.28,56.22,200.28,76.22,186.28,76.22" style="stroke: #A80036; stroke-width: 1.0;"/><!--MD5=[cbe9bdc5ad3e0b69a36a96b782611466]
link NetworkConnect to InputField--><path d="M145.89,241.2 C131.02,260.55 115.36,280.94 103.3,296.64 " fill="none" id="NetworkConnect-&gt;InputField" style="stroke: #A80036; stroke-width: 1.0;"/><polygon fill="#A80036" points="100,300.94,108.6571,296.2437,103.0479,296.9763,102.3152,291.3671,100,300.94" style="stroke: #A80036; stroke-width: 1.0;"/><text fill="#000000" font-family="sans-serif" font-size="13" lengthAdjust="spacingAndGlyphs" textLength="79" x="15.4189" y="289.9367">_ipInputField</text><!--MD5=[426fcd095100ea2d4aa41dd4673747bc]
link NetworkConnect to Text--><path d="M193.28,241.2 C193.28,260.22 193.28,280.24 193.28,295.83 " fill="none" id="NetworkConnect-&gt;Text" style="stroke: #A80036; stroke-width: 1.0;"/><polygon fill="#A80036" points="193.28,300.94,197.28,291.94,193.28,295.94,189.28,291.94,193.28,300.94" style="stroke: #A80036; stroke-width: 1.0;"/><text fill="#000000" font-family="sans-serif" font-size="13" lengthAdjust="spacingAndGlyphs" textLength="92" x="117.8904" y="289.8748">_feedbackText</text><!--MD5=[1efedb84515651352138bdc1874295c9]
link NetworkConnect to UnityTransport--><path d="M247.08,241.2 C264.1,260.72 282.04,281.28 295.77,297.04 " fill="none" id="NetworkConnect-&gt;UnityTransport" style="stroke: #A80036; stroke-width: 1.0;"/><polygon fill="#A80036" points="299.17,300.94,296.274,291.5265,295.8856,297.17,290.2421,296.7816,299.17,300.94" style="stroke: #A80036; stroke-width: 1.0;"/><text fill="#000000" font-family="sans-serif" font-size="13" lengthAdjust="spacingAndGlyphs" textLength="66" x="219.5606" y="289.9367">_transport</text><!--MD5=[4288951b88b6bcddf327188b67da4d22]
@startuml
class NetworkConnect {
    - Start() : void
    + OnHostButtonClicked() : void
    + OnJoinButtonClicked() : void
    - UpdateIP() : bool
    - SetFeedbackMessage(message:string) : void
    - ClearFeebackMessage() : void
}
MonoBehaviour <|- - NetworkConnect
NetworkConnect - -> "_ipInputField" InputField
NetworkConnect - -> "_feedbackText" Text
NetworkConnect - -> "_transport" UnityTransport
@enduml

PlantUML version 1.2020.02(Sun Mar 01 10:22:07 GMT 2020)
(GPL source distribution)
Java Runtime: OpenJDK Runtime Environment
JVM: OpenJDK 64-Bit Server VM
Java Version: 11.0.9+11-Ubuntu-0ubuntu1
Operating System: Linux
Default Encoding: ANSI_X3.4-1968
Language: en
Country: US
--></g></svg>