<?xml version="1.0" encoding="UTF-8" standalone="no"?><svg xmlns="http://www.w3.org/2000/svg" xmlns:xlink="http://www.w3.org/1999/xlink" contentScriptType="application/ecmascript" contentStyleType="text/css" height="200px" preserveAspectRatio="none" style="width:311px;height:200px;" version="1.1" viewBox="0 0 311 200" width="311px" zoomAndPan="magnify"><defs><filter height="300%" id="f16e89ygkrd0ys" width="300%" x="-1" y="-1"><feGaussianBlur result="blurOut" stdDeviation="2.0"/><feColorMatrix in="blurOut" result="blurOut2" type="matrix" values="0 0 0 0 0 0 0 0 0 0 0 0 0 0 0 0 0 0 .4 0"/><feOffset dx="4.0" dy="4.0" in="blurOut2" result="blurOut3"/><feBlend in="SourceGraphic" in2="blurOut3" mode="normal"/></filter></defs><g><!--MD5=[e3f5fbf4ab5d53f045a2fcc8c46ec0f8]
class ScoreManager--><rect fill="#FEFECE" filter="url(#f16e89ygkrd0ys)" height="73.6094" id="ScoreManager" style="stroke: #A80036; stroke-width: 1.5;" width="231" x="6" y="116"/><ellipse cx="71.75" cy="132" fill="#ADD1B2" rx="11" ry="11" style="stroke: #A80036; stroke-width: 1.0;"/><path d="M74.7188,137.6406 Q74.1406,137.9375 73.5,138.0781 Q72.8594,138.2344 72.1563,138.2344 Q69.6563,138.2344 68.3281,136.5938 Q67.0156,134.9375 67.0156,131.8125 Q67.0156,128.6875 68.3281,127.0313 Q69.6563,125.375 72.1563,125.375 Q72.8594,125.375 73.5,125.5313 Q74.1563,125.6875 74.7188,125.9844 L74.7188,128.7031 Q74.0938,128.125 73.5,127.8594 Q72.9063,127.5781 72.2813,127.5781 Q70.9375,127.5781 70.25,128.6563 Q69.5625,129.7188 69.5625,131.8125 Q69.5625,133.9063 70.25,134.9844 Q70.9375,136.0469 72.2813,136.0469 Q72.9063,136.0469 73.5,135.7813 Q74.0938,135.5 74.7188,134.9219 L74.7188,137.6406 Z "/><text fill="#000000" font-family="sans-serif" font-size="12" lengthAdjust="spacingAndGlyphs" textLength="91" x="92.25" y="136.1543">ScoreManager</text><line style="stroke: #A80036; stroke-width: 1.5;" x1="7" x2="236" y1="148" y2="148"/><ellipse cx="17" cy="159" fill="none" rx="3" ry="3" style="stroke: #038048; stroke-width: 1.0;"/><text fill="#000000" font-family="sans-serif" font-size="11" lengthAdjust="spacingAndGlyphs" textLength="95" x="26" y="162.2104">Score : int «get»</text><line style="stroke: #A80036; stroke-width: 1.5;" x1="7" x2="236" y1="168.8047" y2="168.8047"/><ellipse cx="17" cy="179.8047" fill="#84BE84" rx="3" ry="3" style="stroke: #038048; stroke-width: 1.0;"/><text fill="#000000" font-family="sans-serif" font-size="11" lengthAdjust="spacingAndGlyphs" textLength="205" x="26" y="183.0151">AddScoreServerRpc(score:int) : void</text><!--MD5=[be62f0ac78b5cca9d2b2f8a4bd540407]
class NetworkBehaviour--><rect fill="#FEFECE" filter="url(#f16e89ygkrd0ys)" height="48" id="NetworkBehaviour" style="stroke: #A80036; stroke-width: 1.5;" width="145" x="49" y="8"/><ellipse cx="64" cy="24" fill="#ADD1B2" rx="11" ry="11" style="stroke: #A80036; stroke-width: 1.0;"/><path d="M66.9688,29.6406 Q66.3906,29.9375 65.75,30.0781 Q65.1094,30.2344 64.4063,30.2344 Q61.9063,30.2344 60.5781,28.5938 Q59.2656,26.9375 59.2656,23.8125 Q59.2656,20.6875 60.5781,19.0313 Q61.9063,17.375 64.4063,17.375 Q65.1094,17.375 65.75,17.5313 Q66.4063,17.6875 66.9688,17.9844 L66.9688,20.7031 Q66.3438,20.125 65.75,19.8594 Q65.1563,19.5781 64.5313,19.5781 Q63.1875,19.5781 62.5,20.6563 Q61.8125,21.7188 61.8125,23.8125 Q61.8125,25.9063 62.5,26.9844 Q63.1875,28.0469 64.5313,28.0469 Q65.1563,28.0469 65.75,27.7813 Q66.3438,27.5 66.9688,26.9219 L66.9688,29.6406 Z "/><text fill="#000000" font-family="sans-serif" font-size="12" lengthAdjust="spacingAndGlyphs" textLength="113" x="78" y="28.1543">NetworkBehaviour</text><line style="stroke: #A80036; stroke-width: 1.5;" x1="50" x2="193" y1="40" y2="40"/><line style="stroke: #A80036; stroke-width: 1.5;" x1="50" x2="193" y1="48" y2="48"/><!--MD5=[3de2e2df9ca0f17f6372b8f344bf890c]
reverse link NetworkBehaviour to ScoreManager--><path d="M121.5,76.43 C121.5,89.33 121.5,103.32 121.5,115.71 " fill="none" id="NetworkBehaviour&lt;-ScoreManager" style="stroke: #A80036; stroke-width: 1.0;"/><polygon fill="none" points="114.5,76.23,121.5,56.23,128.5,76.23,114.5,76.23" style="stroke: #A80036; stroke-width: 1.0;"/><!--MD5=[8763cf9d89cc86635ee4c07b9eee1e22]
link ScoreManager to ScoreManager--><path d="M237.29,131.86 C257.74,134.65 272,141.69 272,153 C272,163.34 260.09,170.11 242.42,173.33 " fill="none" id="ScoreManager-&gt;ScoreManager" style="stroke: #A80036; stroke-width: 1.0;"/><polygon fill="#A80036" points="237.29,174.14,246.8003,176.7001,242.2299,173.3668,245.5632,168.7964,237.29,174.14" style="stroke: #A80036; stroke-width: 1.0;"/><text fill="#000000" font-family="sans-serif" font-size="13" lengthAdjust="spacingAndGlyphs" textLength="54" x="245.0988" y="171.9671">Instance</text><!--MD5=[99bc9adc4962f5b4db78b31c76812994]
@startuml
class ScoreManager {
    + Score : int <<get>>
    + AddScoreServerRpc(score:int) : void
}
NetworkBehaviour <|- - ScoreManager
ScoreManager - -> "Instance" ScoreManager
@enduml

PlantUML version 1.2020.02(Sun Mar 01 10:22:07 GMT 2020)
(GPL source distribution)
Java Runtime: OpenJDK Runtime Environment
JVM: OpenJDK 64-Bit Server VM
Java Version: 11.0.9+11-Ubuntu-0ubuntu1
Operating System: Linux
Default Encoding: ANSI_X3.4-1968
Language: en
Country: US
--></g></svg>