<?xml version="1.0" encoding="UTF-8" standalone="no"?><svg xmlns="http://www.w3.org/2000/svg" xmlns:xlink="http://www.w3.org/1999/xlink" contentScriptType="application/ecmascript" contentStyleType="text/css" height="398px" preserveAspectRatio="none" style="width:481px;height:398px;" version="1.1" viewBox="0 0 481 398" width="481px" zoomAndPan="magnify"><defs><filter height="300%" id="f1oghpzeo2xbsn" width="300%" x="-1" y="-1"><feGaussianBlur result="blurOut" stdDeviation="2.0"/><feColorMatrix in="blurOut" result="blurOut2" type="matrix" values="0 0 0 0 0 0 0 0 0 0 0 0 0 0 0 0 0 0 .4 0"/><feOffset dx="4.0" dy="4.0" in="blurOut2" result="blurOut3"/><feBlend in="SourceGraphic" in2="blurOut3" mode="normal"/></filter></defs><g><!--MD5=[e3f5fbf4ab5d53f045a2fcc8c46ec0f8]
class ScoreManager--><rect fill="#FEFECE" filter="url(#f1oghpzeo2xbsn)" height="163.2422" id="ScoreManager" style="stroke: #A80036; stroke-width: 1.5;" width="231" x="6" y="116"/><ellipse cx="71.75" cy="132" fill="#ADD1B2" rx="11" ry="11" style="stroke: #A80036; stroke-width: 1.0;"/><path d="M74.7188,137.6406 Q74.1406,137.9375 73.5,138.0781 Q72.8594,138.2344 72.1563,138.2344 Q69.6563,138.2344 68.3281,136.5938 Q67.0156,134.9375 67.0156,131.8125 Q67.0156,128.6875 68.3281,127.0313 Q69.6563,125.375 72.1563,125.375 Q72.8594,125.375 73.5,125.5313 Q74.1563,125.6875 74.7188,125.9844 L74.7188,128.7031 Q74.0938,128.125 73.5,127.8594 Q72.9063,127.5781 72.2813,127.5781 Q70.9375,127.5781 70.25,128.6563 Q69.5625,129.7188 69.5625,131.8125 Q69.5625,133.9063 70.25,134.9844 Q70.9375,136.0469 72.2813,136.0469 Q72.9063,136.0469 73.5,135.7813 Q74.0938,135.5 74.7188,134.9219 L74.7188,137.6406 Z "/><text fill="#000000" font-family="sans-serif" font-size="12" lengthAdjust="spacingAndGlyphs" textLength="91" x="92.25" y="136.1543">ScoreManager</text><line style="stroke: #A80036; stroke-width: 1.5;" x1="7" x2="236" y1="148" y2="148"/><ellipse cx="17" cy="159" fill="none" rx="3" ry="3" style="stroke: #038048; stroke-width: 1.0;"/><text fill="#000000" font-family="sans-serif" font-size="11" lengthAdjust="spacingAndGlyphs" textLength="95" x="26" y="162.2104">Score : int «get»</text><rect fill="none" height="6" style="stroke: #C82930; stroke-width: 1.0;" width="6" x="14" y="168.8047"/><text fill="#000000" font-family="sans-serif" font-size="11" lengthAdjust="spacingAndGlyphs" textLength="145" x="26" y="175.0151">_distanceScoreWorth : int</text><rect fill="none" height="6" style="stroke: #C82930; stroke-width: 1.0;" width="6" x="14" y="181.6094"/><text fill="#000000" font-family="sans-serif" font-size="11" lengthAdjust="spacingAndGlyphs" textLength="102" x="26" y="187.8198">_maxT : float = 0f</text><rect fill="none" height="6" style="stroke: #C82930; stroke-width: 1.0;" width="6" x="14" y="194.4141"/><text fill="#000000" font-family="sans-serif" font-size="11" lengthAdjust="spacingAndGlyphs" textLength="123" x="26" y="200.6245">_puzzleScore : int = 0</text><line style="stroke: #A80036; stroke-width: 1.5;" x1="7" x2="236" y1="207.2188" y2="207.2188"/><rect fill="#F24D5C" height="6" style="stroke: #C82930; stroke-width: 1.0;" width="6" x="14" y="215.2188"/><text fill="#000000" font-family="sans-serif" font-size="11" lengthAdjust="spacingAndGlyphs" textLength="79" x="26" y="221.4292">Awake() : void</text><rect fill="#F24D5C" height="6" style="stroke: #C82930; stroke-width: 1.0;" width="6" x="14" y="228.0234"/><text fill="#000000" font-family="sans-serif" font-size="11" lengthAdjust="spacingAndGlyphs" textLength="71" x="26" y="234.2339">Start() : void</text><rect fill="#F24D5C" height="6" style="stroke: #C82930; stroke-width: 1.0;" width="6" x="14" y="240.8281"/><text fill="#000000" font-family="sans-serif" font-size="11" lengthAdjust="spacingAndGlyphs" textLength="83" x="26" y="247.0386">Update() : void</text><ellipse cx="17" cy="256.6328" fill="#84BE84" rx="3" ry="3" style="stroke: #038048; stroke-width: 1.0;"/><text fill="#000000" font-family="sans-serif" font-size="11" lengthAdjust="spacingAndGlyphs" textLength="205" x="26" y="259.8433">AddScoreServerRpc(score:int) : void</text><rect fill="#F24D5C" height="6" style="stroke: #C82930; stroke-width: 1.0;" width="6" x="14" y="266.4375"/><text fill="#000000" font-family="sans-serif" font-size="11" lengthAdjust="spacingAndGlyphs" textLength="198" x="26" y="272.6479">RecalculateScoreServerRpc() : void</text><!--MD5=[3103184eca4944b8939aac147653371d]
class NetworkVariable`1--><rect fill="#FEFECE" filter="url(#f1oghpzeo2xbsn)" height="48" id="NetworkVariable`1" style="stroke: #A80036; stroke-width: 1.5;" width="159" x="308" y="173.5"/><ellipse cx="323" cy="189.5" fill="#ADD1B2" rx="11" ry="11" style="stroke: #A80036; stroke-width: 1.0;"/><path d="M325.9688,195.1406 Q325.3906,195.4375 324.75,195.5781 Q324.1094,195.7344 323.4063,195.7344 Q320.9063,195.7344 319.5781,194.0938 Q318.2656,192.4375 318.2656,189.3125 Q318.2656,186.1875 319.5781,184.5313 Q320.9063,182.875 323.4063,182.875 Q324.1094,182.875 324.75,183.0313 Q325.4063,183.1875 325.9688,183.4844 L325.9688,186.2031 Q325.3438,185.625 324.75,185.3594 Q324.1563,185.0781 323.5313,185.0781 Q322.1875,185.0781 321.5,186.1563 Q320.8125,187.2188 320.8125,189.3125 Q320.8125,191.4063 321.5,192.4844 Q322.1875,193.5469 323.5313,193.5469 Q324.1563,193.5469 324.75,193.2813 Q325.3438,193 325.9688,192.4219 L325.9688,195.1406 Z "/><text fill="#000000" font-family="sans-serif" font-size="12" lengthAdjust="spacingAndGlyphs" textLength="116" x="337" y="193.6543">NetworkVariable`1</text><rect fill="#FFFFFF" height="15.9688" style="stroke: #000000; stroke-width: 1.0; stroke-dasharray: 2.0,2.0;" width="9" x="461" y="170.5"/><text fill="#000000" font-family="sans-serif" font-size="12" font-style="italic" lengthAdjust="spacingAndGlyphs" textLength="7" x="462" y="182.6387">T</text><line style="stroke: #A80036; stroke-width: 1.5;" x1="309" x2="466" y1="205.5" y2="205.5"/><line style="stroke: #A80036; stroke-width: 1.5;" x1="309" x2="466" y1="213.5" y2="213.5"/><!--MD5=[be62f0ac78b5cca9d2b2f8a4bd540407]
class NetworkBehaviour--><rect fill="#FEFECE" filter="url(#f1oghpzeo2xbsn)" height="48" id="NetworkBehaviour" style="stroke: #A80036; stroke-width: 1.5;" width="145" x="49" y="8"/><ellipse cx="64" cy="24" fill="#ADD1B2" rx="11" ry="11" style="stroke: #A80036; stroke-width: 1.0;"/><path d="M66.9688,29.6406 Q66.3906,29.9375 65.75,30.0781 Q65.1094,30.2344 64.4063,30.2344 Q61.9063,30.2344 60.5781,28.5938 Q59.2656,26.9375 59.2656,23.8125 Q59.2656,20.6875 60.5781,19.0313 Q61.9063,17.375 64.4063,17.375 Q65.1094,17.375 65.75,17.5313 Q66.4063,17.6875 66.9688,17.9844 L66.9688,20.7031 Q66.3438,20.125 65.75,19.8594 Q65.1563,19.5781 64.5313,19.5781 Q63.1875,19.5781 62.5,20.6563 Q61.8125,21.7188 61.8125,23.8125 Q61.8125,25.9063 62.5,26.9844 Q63.1875,28.0469 64.5313,28.0469 Q65.1563,28.0469 65.75,27.7813 Q66.3438,27.5 66.9688,26.9219 L66.9688,29.6406 Z "/><text fill="#000000" font-family="sans-serif" font-size="12" lengthAdjust="spacingAndGlyphs" textLength="113" x="78" y="28.1543">NetworkBehaviour</text><line style="stroke: #A80036; stroke-width: 1.5;" x1="50" x2="193" y1="40" y2="40"/><line style="stroke: #A80036; stroke-width: 1.5;" x1="50" x2="193" y1="48" y2="48"/><!--MD5=[02a8746eb15ecbb4566dafa16ea4db73]
class Text--><rect fill="#FEFECE" filter="url(#f1oghpzeo2xbsn)" height="48" id="Text" style="stroke: #A80036; stroke-width: 1.5;" width="58" x="92.5" y="339"/><ellipse cx="107.5" cy="355" fill="#ADD1B2" rx="11" ry="11" style="stroke: #A80036; stroke-width: 1.0;"/><path d="M110.4688,360.6406 Q109.8906,360.9375 109.25,361.0781 Q108.6094,361.2344 107.9063,361.2344 Q105.4063,361.2344 104.0781,359.5938 Q102.7656,357.9375 102.7656,354.8125 Q102.7656,351.6875 104.0781,350.0313 Q105.4063,348.375 107.9063,348.375 Q108.6094,348.375 109.25,348.5313 Q109.9063,348.6875 110.4688,348.9844 L110.4688,351.7031 Q109.8438,351.125 109.25,350.8594 Q108.6563,350.5781 108.0313,350.5781 Q106.6875,350.5781 106,351.6563 Q105.3125,352.7188 105.3125,354.8125 Q105.3125,356.9063 106,357.9844 Q106.6875,359.0469 108.0313,359.0469 Q108.6563,359.0469 109.25,358.7813 Q109.8438,358.5 110.4688,357.9219 L110.4688,360.6406 Z "/><text fill="#000000" font-family="sans-serif" font-size="12" lengthAdjust="spacingAndGlyphs" textLength="26" x="121.5" y="359.1543">Text</text><line style="stroke: #A80036; stroke-width: 1.5;" x1="93.5" x2="149.5" y1="371" y2="371"/><line style="stroke: #A80036; stroke-width: 1.5;" x1="93.5" x2="149.5" y1="379" y2="379"/><!--MD5=[3de2e2df9ca0f17f6372b8f344bf890c]
reverse link NetworkBehaviour to ScoreManager--><path d="M121.5,76.19 C121.5,88.45 121.5,102.21 121.5,115.93 " fill="none" id="NetworkBehaviour&lt;-ScoreManager" style="stroke: #A80036; stroke-width: 1.0;"/><polygon fill="none" points="114.5,76.08,121.5,56.08,128.5,76.08,114.5,76.08" style="stroke: #A80036; stroke-width: 1.0;"/><!--MD5=[8763cf9d89cc86635ee4c07b9eee1e22]
link ScoreManager to ScoreManager--><path d="M237.29,183.06 C257.74,184.96 272,189.77 272,197.5 C272,204.56 260.09,209.19 242.42,211.39 " fill="none" id="ScoreManager-&gt;ScoreManager" style="stroke: #A80036; stroke-width: 1.0;"/><polygon fill="#A80036" points="237.29,211.94,246.671,214.9394,242.2605,211.3972,245.8026,206.9867,237.29,211.94" style="stroke: #A80036; stroke-width: 1.0;"/><text fill="#000000" font-family="sans-serif" font-size="13" lengthAdjust="spacingAndGlyphs" textLength="61" x="239.0495" y="209.7415">_instance</text><!--MD5=[8763cf9d89cc86635ee4c07b9eee1e22]
link ScoreManager to ScoreManager--><path d="M237.44,166.75 C276.08,166.75 307,177 307,197.5 C307,217.04 278.91,227.27 242.82,228.18 " fill="none" id="ScoreManager-&gt;ScoreManager-1" style="stroke: #A80036; stroke-width: 1.0;"/><polygon fill="#A80036" points="237.44,228.25,246.4851,232.1469,242.4397,228.1929,246.3937,224.1474,237.44,228.25" style="stroke: #A80036; stroke-width: 1.0;"/><text fill="#000000" font-family="sans-serif" font-size="13" lengthAdjust="spacingAndGlyphs" textLength="54" x="244.8103" y="226.5129">Instance</text><!--MD5=[92a4ccf6f54164904009e6c54b63d0ef]
link ScoreManager to Text--><path d="M121.5,279.29 C121.5,298.78 121.5,318.34 121.5,333.55 " fill="none" id="ScoreManager-&gt;Text" style="stroke: #A80036; stroke-width: 1.0;"/><polygon fill="#A80036" points="121.5,338.94,125.5,329.94,121.5,333.94,117.5,329.94,121.5,338.94" style="stroke: #A80036; stroke-width: 1.0;"/><text fill="#000000" font-family="sans-serif" font-size="13" lengthAdjust="spacingAndGlyphs" textLength="69" x="43.6594" y="327.9367">_scoreText</text><!--MD5=[d310cc12390569b633372ec27644478e]
link ScoreManager to NetworkVariable`1--><path d="M249.1,197.5 C249.1,197.5 280.03,197.5 294.86,197.5 " fill="none" id="ScoreManager-NetworkVariable`1" style="stroke: #A80036; stroke-width: 1.0;"/><polygon fill="#A80036" points="307.89,197.5,298.89,193.5,302.89,197.5,298.89,201.5,307.89,197.5" style="stroke: #A80036; stroke-width: 1.0;"/><line style="stroke: #A80036; stroke-width: 1.0;" x1="302.89" x2="294.89" y1="197.5" y2="197.5"/><polygon fill="#FFFFFF" points="237.1,197.5,243.1,201.5,249.1,197.5,243.1,193.5,237.1,197.5" style="stroke: #A80036; stroke-width: 1.0;"/><text fill="#000000" font-family="sans-serif" font-size="13" lengthAdjust="spacingAndGlyphs" textLength="80" x="219.7872" y="191.6685">_score&lt;int&gt;</text><!--MD5=[2924b83102504dab0b39562bcd8f152b]
@startuml
class ScoreManager {
    + Score : int <<get>>
    - _distanceScoreWorth : int
    - _maxT : float = 0f
    - _puzzleScore : int = 0
    - Awake() : void
    - Start() : void
    - Update() : void
    + AddScoreServerRpc(score:int) : void
    - RecalculateScoreServerRpc() : void
}
class "NetworkVariable`1"<T> {
}
NetworkBehaviour <|- - ScoreManager
ScoreManager - -> "_instance" ScoreManager
ScoreManager - -> "Instance" ScoreManager
ScoreManager - -> "_scoreText" Text
ScoreManager o-> "_score<int>" "NetworkVariable`1"
@enduml

PlantUML version 1.2020.02(Sun Mar 01 10:22:07 GMT 2020)
(GPL source distribution)
Java Runtime: OpenJDK Runtime Environment
JVM: OpenJDK 64-Bit Server VM
Java Version: 11.0.9+11-Ubuntu-0ubuntu1
Operating System: Linux
Default Encoding: ANSI_X3.4-1968
Language: en
Country: US
--></g></svg>