<?xml version="1.0" encoding="UTF-8" standalone="no"?><svg xmlns="http://www.w3.org/2000/svg" xmlns:xlink="http://www.w3.org/1999/xlink" contentScriptType="application/ecmascript" contentStyleType="text/css" height="321px" preserveAspectRatio="none" style="width:659px;height:321px;" version="1.1" viewBox="0 0 659 321" width="659px" zoomAndPan="magnify"><defs><filter height="300%" id="fpiyzhb5qmbdt" width="300%" x="-1" y="-1"><feGaussianBlur result="blurOut" stdDeviation="2.0"/><feColorMatrix in="blurOut" result="blurOut2" type="matrix" values="0 0 0 0 0 0 0 0 0 0 0 0 0 0 0 0 0 0 .4 0"/><feOffset dx="4.0" dy="4.0" in="blurOut2" result="blurOut3"/><feBlend in="SourceGraphic" in2="blurOut3" mode="normal"/></filter></defs><g><!--MD5=[d7debb708c6c9693cc8e440e32983ee3]
class PlayerProgressBar--><rect fill="#FEFECE" filter="url(#fpiyzhb5qmbdt)" height="86.4141" id="PlayerProgressBar" style="stroke: #A80036; stroke-width: 1.5;" width="183" x="131.63" y="116"/><ellipse cx="162.83" cy="132" fill="#ADD1B2" rx="11" ry="11" style="stroke: #A80036; stroke-width: 1.0;"/><path d="M165.7987,137.6406 Q165.2206,137.9375 164.58,138.0781 Q163.9394,138.2344 163.2362,138.2344 Q160.7362,138.2344 159.4081,136.5938 Q158.0956,134.9375 158.0956,131.8125 Q158.0956,128.6875 159.4081,127.0313 Q160.7362,125.375 163.2362,125.375 Q163.9394,125.375 164.58,125.5313 Q165.2362,125.6875 165.7987,125.9844 L165.7987,128.7031 Q165.1737,128.125 164.58,127.8594 Q163.9862,127.5781 163.3612,127.5781 Q162.0175,127.5781 161.33,128.6563 Q160.6425,129.7188 160.6425,131.8125 Q160.6425,133.9063 161.33,134.9844 Q162.0175,136.0469 163.3612,136.0469 Q163.9862,136.0469 164.58,135.7813 Q165.1737,135.5 165.7987,134.9219 L165.7987,137.6406 Z "/><text fill="#000000" font-family="sans-serif" font-size="12" lengthAdjust="spacingAndGlyphs" textLength="115" x="180.43" y="136.1543">PlayerProgressBar</text><line style="stroke: #A80036; stroke-width: 1.5;" x1="132.63" x2="313.63" y1="148" y2="148"/><rect fill="none" height="6" style="stroke: #C82930; stroke-width: 1.0;" width="6" x="139.63" y="156"/><text fill="#000000" font-family="sans-serif" font-size="11" lengthAdjust="spacingAndGlyphs" textLength="157" x="151.63" y="162.2104">_markerPadding : float = 2f</text><line style="stroke: #A80036; stroke-width: 1.5;" x1="132.63" x2="313.63" y1="168.8047" y2="168.8047"/><rect fill="#F24D5C" height="6" style="stroke: #C82930; stroke-width: 1.0;" width="6" x="139.63" y="176.8047"/><text fill="#000000" font-family="sans-serif" font-size="11" lengthAdjust="spacingAndGlyphs" textLength="79" x="151.63" y="183.0151">Awake() : void</text><rect fill="#F24D5C" height="6" style="stroke: #C82930; stroke-width: 1.0;" width="6" x="139.63" y="189.6094"/><text fill="#000000" font-family="sans-serif" font-size="11" lengthAdjust="spacingAndGlyphs" textLength="83" x="151.63" y="195.8198">Update() : void</text><!--MD5=[e644022de7dea015dd09463c37421447]
class List`1--><rect fill="#FEFECE" filter="url(#fpiyzhb5qmbdt)" height="48" id="List`1" style="stroke: #A80036; stroke-width: 1.5;" width="78" x="350.13" y="135"/><ellipse cx="365.13" cy="151" fill="#ADD1B2" rx="11" ry="11" style="stroke: #A80036; stroke-width: 1.0;"/><path d="M368.0988,156.6406 Q367.5206,156.9375 366.88,157.0781 Q366.2394,157.2344 365.5363,157.2344 Q363.0363,157.2344 361.7081,155.5938 Q360.3956,153.9375 360.3956,150.8125 Q360.3956,147.6875 361.7081,146.0313 Q363.0363,144.375 365.5363,144.375 Q366.2394,144.375 366.88,144.5313 Q367.5363,144.6875 368.0988,144.9844 L368.0988,147.7031 Q367.4738,147.125 366.88,146.8594 Q366.2863,146.5781 365.6613,146.5781 Q364.3175,146.5781 363.63,147.6563 Q362.9425,148.7188 362.9425,150.8125 Q362.9425,152.9063 363.63,153.9844 Q364.3175,155.0469 365.6613,155.0469 Q366.2863,155.0469 366.88,154.7813 Q367.4738,154.5 368.0988,153.9219 L368.0988,156.6406 Z "/><text fill="#000000" font-family="sans-serif" font-size="12" lengthAdjust="spacingAndGlyphs" textLength="35" x="379.13" y="155.1543">List`1</text><rect fill="#FFFFFF" height="15.9688" style="stroke: #000000; stroke-width: 1.0; stroke-dasharray: 2.0,2.0;" width="9" x="422.13" y="132"/><text fill="#000000" font-family="sans-serif" font-size="12" font-style="italic" lengthAdjust="spacingAndGlyphs" textLength="7" x="423.13" y="144.1387">T</text><line style="stroke: #A80036; stroke-width: 1.5;" x1="351.13" x2="427.13" y1="167" y2="167"/><line style="stroke: #A80036; stroke-width: 1.5;" x1="351.13" x2="427.13" y1="175" y2="175"/><!--MD5=[83b3cf3d23d77c6f1e1b5291a241bc2a]
class MonoBehaviour--><rect fill="#FEFECE" filter="url(#fpiyzhb5qmbdt)" height="48" id="MonoBehaviour" style="stroke: #A80036; stroke-width: 1.5;" width="128" x="159.13" y="8"/><ellipse cx="174.13" cy="24" fill="#ADD1B2" rx="11" ry="11" style="stroke: #A80036; stroke-width: 1.0;"/><path d="M177.0988,29.6406 Q176.5206,29.9375 175.88,30.0781 Q175.2394,30.2344 174.5363,30.2344 Q172.0363,30.2344 170.7081,28.5938 Q169.3956,26.9375 169.3956,23.8125 Q169.3956,20.6875 170.7081,19.0313 Q172.0363,17.375 174.5363,17.375 Q175.2394,17.375 175.88,17.5313 Q176.5363,17.6875 177.0988,17.9844 L177.0988,20.7031 Q176.4738,20.125 175.88,19.8594 Q175.2863,19.5781 174.6613,19.5781 Q173.3175,19.5781 172.63,20.6563 Q171.9425,21.7188 171.9425,23.8125 Q171.9425,25.9063 172.63,26.9844 Q173.3175,28.0469 174.6613,28.0469 Q175.2863,28.0469 175.88,27.7813 Q176.4738,27.5 177.0988,26.9219 L177.0988,29.6406 Z "/><text fill="#000000" font-family="sans-serif" font-size="12" lengthAdjust="spacingAndGlyphs" textLength="96" x="188.13" y="28.1543">MonoBehaviour</text><line style="stroke: #A80036; stroke-width: 1.5;" x1="160.13" x2="286.13" y1="40" y2="40"/><line style="stroke: #A80036; stroke-width: 1.5;" x1="160.13" x2="286.13" y1="48" y2="48"/><!--MD5=[03e8a5a906a96aef0ad775381ebdeba2]
class RectMask2D--><rect fill="#FEFECE" filter="url(#fpiyzhb5qmbdt)" height="48" id="RectMask2D" style="stroke: #A80036; stroke-width: 1.5;" width="109" x="24.63" y="262"/><ellipse cx="39.63" cy="278" fill="#ADD1B2" rx="11" ry="11" style="stroke: #A80036; stroke-width: 1.0;"/><path d="M42.5987,283.6406 Q42.0206,283.9375 41.38,284.0781 Q40.7394,284.2344 40.0362,284.2344 Q37.5362,284.2344 36.2081,282.5938 Q34.8956,280.9375 34.8956,277.8125 Q34.8956,274.6875 36.2081,273.0313 Q37.5362,271.375 40.0362,271.375 Q40.7394,271.375 41.38,271.5313 Q42.0362,271.6875 42.5987,271.9844 L42.5987,274.7031 Q41.9737,274.125 41.38,273.8594 Q40.7862,273.5781 40.1612,273.5781 Q38.8175,273.5781 38.13,274.6563 Q37.4425,275.7188 37.4425,277.8125 Q37.4425,279.9063 38.13,280.9844 Q38.8175,282.0469 40.1612,282.0469 Q40.7862,282.0469 41.38,281.7813 Q41.9737,281.5 42.5987,280.9219 L42.5987,283.6406 Z "/><text fill="#000000" font-family="sans-serif" font-size="12" lengthAdjust="spacingAndGlyphs" textLength="77" x="53.63" y="282.1543">RectMask2D</text><line style="stroke: #A80036; stroke-width: 1.5;" x1="25.63" x2="132.63" y1="294" y2="294"/><line style="stroke: #A80036; stroke-width: 1.5;" x1="25.63" x2="132.63" y1="302" y2="302"/><!--MD5=[064f7a74fee85463ec1a30143664ee17]
class GameObject--><rect fill="#FEFECE" filter="url(#fpiyzhb5qmbdt)" height="48" id="GameObject" style="stroke: #A80036; stroke-width: 1.5;" width="108" x="169.13" y="262"/><ellipse cx="184.13" cy="278" fill="#ADD1B2" rx="11" ry="11" style="stroke: #A80036; stroke-width: 1.0;"/><path d="M187.0988,283.6406 Q186.5206,283.9375 185.88,284.0781 Q185.2394,284.2344 184.5363,284.2344 Q182.0363,284.2344 180.7081,282.5938 Q179.3956,280.9375 179.3956,277.8125 Q179.3956,274.6875 180.7081,273.0313 Q182.0363,271.375 184.5363,271.375 Q185.2394,271.375 185.88,271.5313 Q186.5363,271.6875 187.0988,271.9844 L187.0988,274.7031 Q186.4738,274.125 185.88,273.8594 Q185.2863,273.5781 184.6613,273.5781 Q183.3175,273.5781 182.63,274.6563 Q181.9425,275.7188 181.9425,277.8125 Q181.9425,279.9063 182.63,280.9844 Q183.3175,282.0469 184.6613,282.0469 Q185.2863,282.0469 185.88,281.7813 Q186.4738,281.5 187.0988,280.9219 L187.0988,283.6406 Z "/><text fill="#000000" font-family="sans-serif" font-size="12" lengthAdjust="spacingAndGlyphs" textLength="76" x="198.13" y="282.1543">GameObject</text><line style="stroke: #A80036; stroke-width: 1.5;" x1="170.13" x2="276.13" y1="294" y2="294"/><line style="stroke: #A80036; stroke-width: 1.5;" x1="170.13" x2="276.13" y1="302" y2="302"/><!--MD5=[281c999374e61fd3a46e672fb26d53ea]
class RectTransform--><rect fill="#FEFECE" filter="url(#fpiyzhb5qmbdt)" height="48" id="RectTransform" style="stroke: #A80036; stroke-width: 1.5;" width="123" x="312.63" y="262"/><ellipse cx="327.63" cy="278" fill="#ADD1B2" rx="11" ry="11" style="stroke: #A80036; stroke-width: 1.0;"/><path d="M330.5988,283.6406 Q330.0206,283.9375 329.38,284.0781 Q328.7394,284.2344 328.0363,284.2344 Q325.5363,284.2344 324.2081,282.5938 Q322.8956,280.9375 322.8956,277.8125 Q322.8956,274.6875 324.2081,273.0313 Q325.5363,271.375 328.0363,271.375 Q328.7394,271.375 329.38,271.5313 Q330.0363,271.6875 330.5988,271.9844 L330.5988,274.7031 Q329.9738,274.125 329.38,273.8594 Q328.7863,273.5781 328.1613,273.5781 Q326.8175,273.5781 326.13,274.6563 Q325.4425,275.7188 325.4425,277.8125 Q325.4425,279.9063 326.13,280.9844 Q326.8175,282.0469 328.1613,282.0469 Q328.7863,282.0469 329.38,281.7813 Q329.9738,281.5 330.5988,280.9219 L330.5988,283.6406 Z "/><text fill="#000000" font-family="sans-serif" font-size="12" lengthAdjust="spacingAndGlyphs" textLength="91" x="341.63" y="282.1543">RectTransform</text><line style="stroke: #A80036; stroke-width: 1.5;" x1="313.63" x2="434.63" y1="294" y2="294"/><line style="stroke: #A80036; stroke-width: 1.5;" x1="313.63" x2="434.63" y1="302" y2="302"/><!--MD5=[f5fc1fbef99e27d0655e2182772076c0]
reverse link MonoBehaviour to PlayerProgressBar--><path d="M223.13,76.27 C223.13,89.12 223.13,103.17 223.13,115.94 " fill="none" id="MonoBehaviour&lt;-PlayerProgressBar" style="stroke: #A80036; stroke-width: 1.0;"/><polygon fill="none" points="216.13,76.22,223.13,56.22,230.13,76.22,216.13,76.22" style="stroke: #A80036; stroke-width: 1.0;"/><!--MD5=[7fddd8306d5ae571e865ec97960bfc4f]
link PlayerProgressBar to RectMask2D--><path d="M174.37,202.32 C153.13,220.76 128.87,241.82 110.15,258.07 " fill="none" id="PlayerProgressBar-&gt;RectMask2D" style="stroke: #A80036; stroke-width: 1.0;"/><polygon fill="#A80036" points="106,261.67,115.425,258.8119,109.7832,258.4008,110.1943,252.7589,106,261.67" style="stroke: #A80036; stroke-width: 1.0;"/><text fill="#000000" font-family="sans-serif" font-size="13" lengthAdjust="spacingAndGlyphs" textLength="85" x="17.1902" y="250.9945">_progressBar</text><!--MD5=[bac2b06d620b36deb460715724441a9e]
link PlayerProgressBar to GameObject--><path d="M223.13,202.32 C223.13,220.14 223.13,240.41 223.13,256.42 " fill="none" id="PlayerProgressBar-&gt;GameObject" style="stroke: #A80036; stroke-width: 1.0;"/><polygon fill="#A80036" points="223.13,261.67,227.13,252.67,223.13,256.67,219.13,252.67,223.13,261.67" style="stroke: #A80036; stroke-width: 1.0;"/><text fill="#000000" font-family="sans-serif" font-size="13" lengthAdjust="spacingAndGlyphs" textLength="94" x="137.9929" y="250.9719">_markerPrefab</text><!--MD5=[3e814e73b8f6ef4d5f8b8afe92836f54]
link PlayerProgressBar to RectTransform--><path d="M274.25,202.32 C296.71,220.91 322.39,242.17 342.09,258.48 " fill="none" id="PlayerProgressBar-&gt;RectTransform" style="stroke: #A80036; stroke-width: 1.0;"/><polygon fill="#A80036" points="345.95,261.67,341.5741,252.8467,342.1007,258.4789,336.4684,259.0055,345.95,261.67" style="stroke: #A80036; stroke-width: 1.0;"/><text fill="#000000" font-family="sans-serif" font-size="13" lengthAdjust="spacingAndGlyphs" textLength="70" x="278.0719" y="250.9719">_transform</text><!--MD5=[fd0770819a5908c638565b0a75037afb]
link PlayerProgressBar to List`1--><path d="M326.88,159 C326.88,159 333.98,159 336.95,159 " fill="none" id="PlayerProgressBar-List`1" style="stroke: #A80036; stroke-width: 1.0;"/><polygon fill="#A80036" points="349.97,159,340.97,155,344.97,159,340.97,163,349.97,159" style="stroke: #A80036; stroke-width: 1.0;"/><line style="stroke: #A80036; stroke-width: 1.0;" x1="344.97" x2="336.97" y1="159" y2="159"/><polygon fill="#FFFFFF" points="314.88,159,320.88,163,326.88,159,320.88,155,314.88,159" style="stroke: #A80036; stroke-width: 1.0;"/><text fill="#000000" font-family="sans-serif" font-size="13" lengthAdjust="spacingAndGlyphs" textLength="212" x="435.191" y="146.5891">_playerMarkers&lt;RectTransform&gt;</text><!--MD5=[84cb9a585d7b55557d0073ff21648b09]
@startuml
class PlayerProgressBar {
    - _markerPadding : float = 2f
    - Awake() : void
    - Update() : void
}
class "List`1"<T> {
}
MonoBehaviour <|- - PlayerProgressBar
PlayerProgressBar - -> "_progressBar" RectMask2D
PlayerProgressBar - -> "_markerPrefab" GameObject
PlayerProgressBar - -> "_transform" RectTransform
PlayerProgressBar o-> "_playerMarkers<RectTransform>" "List`1"
@enduml

PlantUML version 1.2020.02(Sun Mar 01 10:22:07 GMT 2020)
(GPL source distribution)
Java Runtime: OpenJDK Runtime Environment
JVM: OpenJDK 64-Bit Server VM
Java Version: 11.0.9+11-Ubuntu-0ubuntu1
Operating System: Linux
Default Encoding: ANSI_X3.4-1968
Language: en
Country: US
--></g></svg>