<?xml version="1.0" encoding="UTF-8" standalone="no"?><svg xmlns="http://www.w3.org/2000/svg" xmlns:xlink="http://www.w3.org/1999/xlink" contentScriptType="application/ecmascript" contentStyleType="text/css" height="187px" preserveAspectRatio="none" style="width:579px;height:187px;" version="1.1" viewBox="0 0 579 187" width="579px" zoomAndPan="magnify"><defs><filter height="300%" id="fdtmodr6fmsou" width="300%" x="-1" y="-1"><feGaussianBlur result="blurOut" stdDeviation="2.0"/><feColorMatrix in="blurOut" result="blurOut2" type="matrix" values="0 0 0 0 0 0 0 0 0 0 0 0 0 0 0 0 0 0 .4 0"/><feOffset dx="4.0" dy="4.0" in="blurOut2" result="blurOut3"/><feBlend in="SourceGraphic" in2="blurOut3" mode="normal"/></filter></defs><g><!--MD5=[813df650f8597979acb9188190957052]
class Finish--><rect fill="#FEFECE" filter="url(#fdtmodr6fmsou)" height="60.8047" id="Finish" style="stroke: #A80036; stroke-width: 1.5;" width="262" x="6" y="116"/><ellipse cx="114.75" cy="132" fill="#ADD1B2" rx="11" ry="11" style="stroke: #A80036; stroke-width: 1.0;"/><path d="M117.7188,137.6406 Q117.1406,137.9375 116.5,138.0781 Q115.8594,138.2344 115.1563,138.2344 Q112.6563,138.2344 111.3281,136.5938 Q110.0156,134.9375 110.0156,131.8125 Q110.0156,128.6875 111.3281,127.0313 Q112.6563,125.375 115.1563,125.375 Q115.8594,125.375 116.5,125.5313 Q117.1563,125.6875 117.7188,125.9844 L117.7188,128.7031 Q117.0938,128.125 116.5,127.8594 Q115.9063,127.5781 115.2813,127.5781 Q113.9375,127.5781 113.25,128.6563 Q112.5625,129.7188 112.5625,131.8125 Q112.5625,133.9063 113.25,134.9844 Q113.9375,136.0469 115.2813,136.0469 Q115.9063,136.0469 116.5,135.7813 Q117.0938,135.5 117.7188,134.9219 L117.7188,137.6406 Z "/><text fill="#000000" font-family="sans-serif" font-size="12" lengthAdjust="spacingAndGlyphs" textLength="36" x="135.25" y="136.1543">Finish</text><line style="stroke: #A80036; stroke-width: 1.5;" x1="7" x2="267" y1="148" y2="148"/><line style="stroke: #A80036; stroke-width: 1.5;" x1="7" x2="267" y1="156" y2="156"/><ellipse cx="17" cy="167" fill="#84BE84" rx="3" ry="3" style="stroke: #038048; stroke-width: 1.0;"/><text fill="#000000" font-family="sans-serif" font-size="11" lengthAdjust="spacingAndGlyphs" textLength="236" x="26" y="170.2104">OnPlayerFinish(player:GameObject) : void</text><!--MD5=[75f1770188bed72f5adae599261d97dc]
class HashSet`1--><rect fill="#FEFECE" filter="url(#fdtmodr6fmsou)" height="48" id="HashSet`1" style="stroke: #A80036; stroke-width: 1.5;" width="110" x="303" y="122.5"/><ellipse cx="318" cy="138.5" fill="#ADD1B2" rx="11" ry="11" style="stroke: #A80036; stroke-width: 1.0;"/><path d="M320.9688,144.1406 Q320.3906,144.4375 319.75,144.5781 Q319.1094,144.7344 318.4063,144.7344 Q315.9063,144.7344 314.5781,143.0938 Q313.2656,141.4375 313.2656,138.3125 Q313.2656,135.1875 314.5781,133.5313 Q315.9063,131.875 318.4063,131.875 Q319.1094,131.875 319.75,132.0313 Q320.4063,132.1875 320.9688,132.4844 L320.9688,135.2031 Q320.3438,134.625 319.75,134.3594 Q319.1563,134.0781 318.5313,134.0781 Q317.1875,134.0781 316.5,135.1563 Q315.8125,136.2188 315.8125,138.3125 Q315.8125,140.4063 316.5,141.4844 Q317.1875,142.5469 318.5313,142.5469 Q319.1563,142.5469 319.75,142.2813 Q320.3438,142 320.9688,141.4219 L320.9688,144.1406 Z "/><text fill="#000000" font-family="sans-serif" font-size="12" lengthAdjust="spacingAndGlyphs" textLength="67" x="332" y="142.6543">HashSet`1</text><rect fill="#FFFFFF" height="15.9688" style="stroke: #000000; stroke-width: 1.0; stroke-dasharray: 2.0,2.0;" width="9" x="407" y="119.5"/><text fill="#000000" font-family="sans-serif" font-size="12" font-style="italic" lengthAdjust="spacingAndGlyphs" textLength="7" x="408" y="131.6387">T</text><line style="stroke: #A80036; stroke-width: 1.5;" x1="304" x2="412" y1="154.5" y2="154.5"/><line style="stroke: #A80036; stroke-width: 1.5;" x1="304" x2="412" y1="162.5" y2="162.5"/><!--MD5=[be62f0ac78b5cca9d2b2f8a4bd540407]
class NetworkBehaviour--><rect fill="#FEFECE" filter="url(#fdtmodr6fmsou)" height="48" id="NetworkBehaviour" style="stroke: #A80036; stroke-width: 1.5;" width="145" x="64.5" y="8"/><ellipse cx="79.5" cy="24" fill="#ADD1B2" rx="11" ry="11" style="stroke: #A80036; stroke-width: 1.0;"/><path d="M82.4688,29.6406 Q81.8906,29.9375 81.25,30.0781 Q80.6094,30.2344 79.9063,30.2344 Q77.4063,30.2344 76.0781,28.5938 Q74.7656,26.9375 74.7656,23.8125 Q74.7656,20.6875 76.0781,19.0313 Q77.4063,17.375 79.9063,17.375 Q80.6094,17.375 81.25,17.5313 Q81.9063,17.6875 82.4688,17.9844 L82.4688,20.7031 Q81.8438,20.125 81.25,19.8594 Q80.6563,19.5781 80.0313,19.5781 Q78.6875,19.5781 78,20.6563 Q77.3125,21.7188 77.3125,23.8125 Q77.3125,25.9063 78,26.9844 Q78.6875,28.0469 80.0313,28.0469 Q80.6563,28.0469 81.25,27.7813 Q81.8438,27.5 82.4688,26.9219 L82.4688,29.6406 Z "/><text fill="#000000" font-family="sans-serif" font-size="12" lengthAdjust="spacingAndGlyphs" textLength="113" x="93.5" y="28.1543">NetworkBehaviour</text><line style="stroke: #A80036; stroke-width: 1.5;" x1="65.5" x2="208.5" y1="40" y2="40"/><line style="stroke: #A80036; stroke-width: 1.5;" x1="65.5" x2="208.5" y1="48" y2="48"/><!--MD5=[6a3ddb46bb4ad755a1a1ce4c6b4c8c47]
reverse link NetworkBehaviour to Finish--><path d="M137,76.11 C137,89.31 137,103.54 137,115.65 " fill="none" id="NetworkBehaviour&lt;-Finish" style="stroke: #A80036; stroke-width: 1.0;"/><polygon fill="none" points="130,76.04,137,56.04,144,76.04,130,76.04" style="stroke: #A80036; stroke-width: 1.0;"/><!--MD5=[0f07315b356f44d4c85f9ea3291a28b2]
link Finish to HashSet`1--><path d="M280.22,146.5 C280.22,146.5 286.89,146.5 289.72,146.5 " fill="none" id="Finish-HashSet`1" style="stroke: #A80036; stroke-width: 1.0;"/><polygon fill="#A80036" points="302.94,146.5,293.94,142.5,297.94,146.5,293.94,150.5,302.94,146.5" style="stroke: #A80036; stroke-width: 1.0;"/><line style="stroke: #A80036; stroke-width: 1.0;" x1="297.94" x2="289.94" y1="146.5" y2="146.5"/><polygon fill="#FFFFFF" points="268.22,146.5,274.22,150.5,280.22,146.5,274.22,142.5,268.22,146.5" style="stroke: #A80036; stroke-width: 1.0;"/><text fill="#000000" font-family="sans-serif" font-size="13" lengthAdjust="spacingAndGlyphs" textLength="159" x="408.032" y="111.6024">_finishedPlayers&lt;ulong&gt;</text><!--MD5=[5fd7367902a575a5065b1c55ab9a4722]
@startuml
class Finish {
    + OnPlayerFinish(player:GameObject) : void
}
class "HashSet`1"<T> {
}
NetworkBehaviour <|- - Finish
Finish o-> "_finishedPlayers<ulong>" "HashSet`1"
@enduml

PlantUML version 1.2020.02(Sun Mar 01 10:22:07 GMT 2020)
(GPL source distribution)
Java Runtime: OpenJDK Runtime Environment
JVM: OpenJDK 64-Bit Server VM
Java Version: 11.0.9+11-Ubuntu-0ubuntu1
Operating System: Linux
Default Encoding: ANSI_X3.4-1968
Language: en
Country: US
--></g></svg>