<?xml version="1.0" encoding="UTF-8" standalone="no"?><svg xmlns="http://www.w3.org/2000/svg" xmlns:xlink="http://www.w3.org/1999/xlink" contentScriptType="application/ecmascript" contentStyleType="text/css" height="175px" preserveAspectRatio="none" style="width:162px;height:175px;" version="1.1" viewBox="0 0 162 175" width="162px" zoomAndPan="magnify"><defs><filter height="300%" id="fs9ug6faux47u" width="300%" x="-1" y="-1"><feGaussianBlur result="blurOut" stdDeviation="2.0"/><feColorMatrix in="blurOut" result="blurOut2" type="matrix" values="0 0 0 0 0 0 0 0 0 0 0 0 0 0 0 0 0 0 .4 0"/><feOffset dx="4.0" dy="4.0" in="blurOut2" result="blurOut3"/><feBlend in="SourceGraphic" in2="blurOut3" mode="normal"/></filter></defs><g><!--MD5=[70dca01cb640c6297097211b1af9c9f5]
class Laser--><rect fill="#FEFECE" filter="url(#fs9ug6faux47u)" height="48" id="Laser" style="stroke: #A80036; stroke-width: 1.5;" width="66" x="45.5" y="116"/><ellipse cx="60.5" cy="132" fill="#ADD1B2" rx="11" ry="11" style="stroke: #A80036; stroke-width: 1.0;"/><path d="M63.4688,137.6406 Q62.8906,137.9375 62.25,138.0781 Q61.6094,138.2344 60.9063,138.2344 Q58.4063,138.2344 57.0781,136.5938 Q55.7656,134.9375 55.7656,131.8125 Q55.7656,128.6875 57.0781,127.0313 Q58.4063,125.375 60.9063,125.375 Q61.6094,125.375 62.25,125.5313 Q62.9063,125.6875 63.4688,125.9844 L63.4688,128.7031 Q62.8438,128.125 62.25,127.8594 Q61.6563,127.5781 61.0313,127.5781 Q59.6875,127.5781 59,128.6563 Q58.3125,129.7188 58.3125,131.8125 Q58.3125,133.9063 59,134.9844 Q59.6875,136.0469 61.0313,136.0469 Q61.6563,136.0469 62.25,135.7813 Q62.8438,135.5 63.4688,134.9219 L63.4688,137.6406 Z "/><text fill="#000000" font-family="sans-serif" font-size="12" lengthAdjust="spacingAndGlyphs" textLength="34" x="74.5" y="136.1543">Laser</text><line style="stroke: #A80036; stroke-width: 1.5;" x1="46.5" x2="110.5" y1="148" y2="148"/><line style="stroke: #A80036; stroke-width: 1.5;" x1="46.5" x2="110.5" y1="156" y2="156"/><!--MD5=[be62f0ac78b5cca9d2b2f8a4bd540407]
class NetworkBehaviour--><rect fill="#FEFECE" filter="url(#fs9ug6faux47u)" height="48" id="NetworkBehaviour" style="stroke: #A80036; stroke-width: 1.5;" width="145" x="6" y="8"/><ellipse cx="21" cy="24" fill="#ADD1B2" rx="11" ry="11" style="stroke: #A80036; stroke-width: 1.0;"/><path d="M23.9688,29.6406 Q23.3906,29.9375 22.75,30.0781 Q22.1094,30.2344 21.4063,30.2344 Q18.9063,30.2344 17.5781,28.5938 Q16.2656,26.9375 16.2656,23.8125 Q16.2656,20.6875 17.5781,19.0313 Q18.9063,17.375 21.4063,17.375 Q22.1094,17.375 22.75,17.5313 Q23.4063,17.6875 23.9688,17.9844 L23.9688,20.7031 Q23.3438,20.125 22.75,19.8594 Q22.1563,19.5781 21.5313,19.5781 Q20.1875,19.5781 19.5,20.6563 Q18.8125,21.7188 18.8125,23.8125 Q18.8125,25.9063 19.5,26.9844 Q20.1875,28.0469 21.5313,28.0469 Q22.1563,28.0469 22.75,27.7813 Q23.3438,27.5 23.9688,26.9219 L23.9688,29.6406 Z "/><text fill="#000000" font-family="sans-serif" font-size="12" lengthAdjust="spacingAndGlyphs" textLength="113" x="35" y="28.1543">NetworkBehaviour</text><line style="stroke: #A80036; stroke-width: 1.5;" x1="7" x2="150" y1="40" y2="40"/><line style="stroke: #A80036; stroke-width: 1.5;" x1="7" x2="150" y1="48" y2="48"/><!--MD5=[611a83ea29174aa2e2892d14ede9d970]
reverse link NetworkBehaviour to Laser--><path d="M78.5,76.02 C78.5,89.58 78.5,104.04 78.5,115.68 " fill="none" id="NetworkBehaviour&lt;-Laser" style="stroke: #A80036; stroke-width: 1.0;"/><polygon fill="none" points="71.5,76,78.5,56,85.5,76,71.5,76" style="stroke: #A80036; stroke-width: 1.0;"/><!--MD5=[5af51b9bbd2901273ec5c64149f3b1be]
@startuml
class Laser {
}
NetworkBehaviour <|- - Laser
@enduml

PlantUML version 1.2020.02(Sun Mar 01 10:22:07 GMT 2020)
(GPL source distribution)
Java Runtime: OpenJDK Runtime Environment
JVM: OpenJDK 64-Bit Server VM
Java Version: 11.0.9+11-Ubuntu-0ubuntu1
Operating System: Linux
Default Encoding: ANSI_X3.4-1968
Language: en
Country: US
--></g></svg>