<?xml version="1.0" encoding="UTF-8" standalone="no"?><svg xmlns="http://www.w3.org/2000/svg" xmlns:xlink="http://www.w3.org/1999/xlink" contentScriptType="application/ecmascript" contentStyleType="text/css" height="277px" preserveAspectRatio="none" style="width:194px;height:277px;" version="1.1" viewBox="0 0 194 277" width="194px" zoomAndPan="magnify"><defs><filter height="300%" id="f3acu76hcpvt8" width="300%" x="-1" y="-1"><feGaussianBlur result="blurOut" stdDeviation="2.0"/><feColorMatrix in="blurOut" result="blurOut2" type="matrix" values="0 0 0 0 0 0 0 0 0 0 0 0 0 0 0 0 0 0 .4 0"/><feOffset dx="4.0" dy="4.0" in="blurOut2" result="blurOut3"/><feBlend in="SourceGraphic" in2="blurOut3" mode="normal"/></filter></defs><g><!--MD5=[70dca01cb640c6297097211b1af9c9f5]
class Laser--><rect fill="#FEFECE" filter="url(#f3acu76hcpvt8)" height="150.4375" id="Laser" style="stroke: #A80036; stroke-width: 1.5;" width="177" x="6" y="116"/><ellipse cx="73.25" cy="132" fill="#ADD1B2" rx="11" ry="11" style="stroke: #A80036; stroke-width: 1.0;"/><path d="M76.2188,137.6406 Q75.6406,137.9375 75,138.0781 Q74.3594,138.2344 73.6563,138.2344 Q71.1563,138.2344 69.8281,136.5938 Q68.5156,134.9375 68.5156,131.8125 Q68.5156,128.6875 69.8281,127.0313 Q71.1563,125.375 73.6563,125.375 Q74.3594,125.375 75,125.5313 Q75.6563,125.6875 76.2188,125.9844 L76.2188,128.7031 Q75.5938,128.125 75,127.8594 Q74.4063,127.5781 73.7813,127.5781 Q72.4375,127.5781 71.75,128.6563 Q71.0625,129.7188 71.0625,131.8125 Q71.0625,133.9063 71.75,134.9844 Q72.4375,136.0469 73.7813,136.0469 Q74.4063,136.0469 75,135.7813 Q75.5938,135.5 76.2188,134.9219 L76.2188,137.6406 Z "/><text fill="#000000" font-family="sans-serif" font-size="12" lengthAdjust="spacingAndGlyphs" textLength="34" x="93.75" y="136.1543">Laser</text><line style="stroke: #A80036; stroke-width: 1.5;" x1="7" x2="182" y1="148" y2="148"/><rect fill="none" height="6" style="stroke: #C82930; stroke-width: 1.0;" width="6" x="14" y="156"/><text fill="#000000" font-family="sans-serif" font-size="11" lengthAdjust="spacingAndGlyphs" textLength="115" x="26" y="162.2104">_startPosition : float</text><rect fill="none" height="6" style="stroke: #C82930; stroke-width: 1.0;" width="6" x="14" y="168.8047"/><text fill="#000000" font-family="sans-serif" font-size="11" lengthAdjust="spacingAndGlyphs" textLength="109" x="26" y="175.0151">_endPosition : float</text><rect fill="none" height="6" style="stroke: #C82930; stroke-width: 1.0;" width="6" x="14" y="181.6094"/><text fill="#000000" font-family="sans-serif" font-size="11" lengthAdjust="spacingAndGlyphs" textLength="68" x="26" y="187.8198">_time : float</text><rect fill="none" height="6" style="stroke: #C82930; stroke-width: 1.0;" width="6" x="14" y="194.4141"/><text fill="#000000" font-family="sans-serif" font-size="11" lengthAdjust="spacingAndGlyphs" textLength="122" x="26" y="200.6245">_timing : bool = false</text><rect fill="none" height="6" style="stroke: #C82930; stroke-width: 1.0;" width="6" x="14" y="207.2188"/><text fill="#000000" font-family="sans-serif" font-size="11" lengthAdjust="spacingAndGlyphs" textLength="151" x="26" y="213.4292">_currentTime : float = 0.0f</text><line style="stroke: #A80036; stroke-width: 1.5;" x1="7" x2="182" y1="220.0234" y2="220.0234"/><rect fill="#F24D5C" height="6" style="stroke: #C82930; stroke-width: 1.0;" width="6" x="14" y="228.0234"/><text fill="#000000" font-family="sans-serif" font-size="11" lengthAdjust="spacingAndGlyphs" textLength="71" x="26" y="234.2339">Start() : void</text><rect fill="#F24D5C" height="6" style="stroke: #C82930; stroke-width: 1.0;" width="6" x="14" y="240.8281"/><text fill="#000000" font-family="sans-serif" font-size="11" lengthAdjust="spacingAndGlyphs" textLength="83" x="26" y="247.0386">Update() : void</text><rect fill="#F24D5C" height="6" style="stroke: #C82930; stroke-width: 1.0;" width="6" x="14" y="253.6328"/><text fill="#000000" font-family="sans-serif" font-size="11" lengthAdjust="spacingAndGlyphs" textLength="130" x="26" y="259.8433">OnDrawGizmos() : void</text><!--MD5=[be62f0ac78b5cca9d2b2f8a4bd540407]
class NetworkBehaviour--><rect fill="#FEFECE" filter="url(#f3acu76hcpvt8)" height="48" id="NetworkBehaviour" style="stroke: #A80036; stroke-width: 1.5;" width="145" x="22" y="8"/><ellipse cx="37" cy="24" fill="#ADD1B2" rx="11" ry="11" style="stroke: #A80036; stroke-width: 1.0;"/><path d="M39.9688,29.6406 Q39.3906,29.9375 38.75,30.0781 Q38.1094,30.2344 37.4063,30.2344 Q34.9063,30.2344 33.5781,28.5938 Q32.2656,26.9375 32.2656,23.8125 Q32.2656,20.6875 33.5781,19.0313 Q34.9063,17.375 37.4063,17.375 Q38.1094,17.375 38.75,17.5313 Q39.4063,17.6875 39.9688,17.9844 L39.9688,20.7031 Q39.3438,20.125 38.75,19.8594 Q38.1563,19.5781 37.5313,19.5781 Q36.1875,19.5781 35.5,20.6563 Q34.8125,21.7188 34.8125,23.8125 Q34.8125,25.9063 35.5,26.9844 Q36.1875,28.0469 37.5313,28.0469 Q38.1563,28.0469 38.75,27.7813 Q39.3438,27.5 39.9688,26.9219 L39.9688,29.6406 Z "/><text fill="#000000" font-family="sans-serif" font-size="12" lengthAdjust="spacingAndGlyphs" textLength="113" x="51" y="28.1543">NetworkBehaviour</text><line style="stroke: #A80036; stroke-width: 1.5;" x1="23" x2="166" y1="40" y2="40"/><line style="stroke: #A80036; stroke-width: 1.5;" x1="23" x2="166" y1="48" y2="48"/><!--MD5=[611a83ea29174aa2e2892d14ede9d970]
reverse link NetworkBehaviour to Laser--><path d="M94.5,76.38 C94.5,88.67 94.5,102.4 94.5,115.96 " fill="none" id="NetworkBehaviour&lt;-Laser" style="stroke: #A80036; stroke-width: 1.0;"/><polygon fill="none" points="87.5,76.17,94.5,56.17,101.5,76.17,87.5,76.17" style="stroke: #A80036; stroke-width: 1.0;"/><!--MD5=[9241d309d399549e205a32b8e576045f]
@startuml
class Laser {
    - _startPosition : float
    - _endPosition : float
    - _time : float
    - _timing : bool = false
    - _currentTime : float = 0.0f
    - Start() : void
    - Update() : void
    - OnDrawGizmos() : void
}
NetworkBehaviour <|- - Laser
@enduml

PlantUML version 1.2020.02(Sun Mar 01 10:22:07 GMT 2020)
(GPL source distribution)
Java Runtime: OpenJDK Runtime Environment
JVM: OpenJDK 64-Bit Server VM
Java Version: 11.0.9+11-Ubuntu-0ubuntu1
Operating System: Linux
Default Encoding: ANSI_X3.4-1968
Language: en
Country: US
--></g></svg>