<?xml version="1.0" encoding="UTF-8" standalone="no"?><svg xmlns="http://www.w3.org/2000/svg" xmlns:xlink="http://www.w3.org/1999/xlink" contentScriptType="application/ecmascript" contentStyleType="text/css" height="334px" preserveAspectRatio="none" style="width:607px;height:334px;" version="1.1" viewBox="0 0 607 334" width="607px" zoomAndPan="magnify"><defs><filter height="300%" id="f1prjjsixrtouy" width="300%" x="-1" y="-1"><feGaussianBlur result="blurOut" stdDeviation="2.0"/><feColorMatrix in="blurOut" result="blurOut2" type="matrix" values="0 0 0 0 0 0 0 0 0 0 0 0 0 0 0 0 0 0 .4 0"/><feOffset dx="4.0" dy="4.0" in="blurOut2" result="blurOut3"/><feBlend in="SourceGraphic" in2="blurOut3" mode="normal"/></filter></defs><g><!--MD5=[d58cd89bfda90fd9d726e8ec4bd8f94f]
class LevelManager--><rect fill="#FEFECE" filter="url(#f1prjjsixrtouy)" height="99.2188" id="LevelManager" style="stroke: #A80036; stroke-width: 1.5;" width="296" x="6" y="116"/><ellipse cx="106.75" cy="132" fill="#ADD1B2" rx="11" ry="11" style="stroke: #A80036; stroke-width: 1.0;"/><path d="M109.7188,137.6406 Q109.1406,137.9375 108.5,138.0781 Q107.8594,138.2344 107.1563,138.2344 Q104.6563,138.2344 103.3281,136.5938 Q102.0156,134.9375 102.0156,131.8125 Q102.0156,128.6875 103.3281,127.0313 Q104.6563,125.375 107.1563,125.375 Q107.8594,125.375 108.5,125.5313 Q109.1563,125.6875 109.7188,125.9844 L109.7188,128.7031 Q109.0938,128.125 108.5,127.8594 Q107.9063,127.5781 107.2813,127.5781 Q105.9375,127.5781 105.25,128.6563 Q104.5625,129.7188 104.5625,131.8125 Q104.5625,133.9063 105.25,134.9844 Q105.9375,136.0469 107.2813,136.0469 Q107.9063,136.0469 108.5,135.7813 Q109.0938,135.5 109.7188,134.9219 L109.7188,137.6406 Z "/><text fill="#000000" font-family="sans-serif" font-size="12" lengthAdjust="spacingAndGlyphs" textLength="86" x="127.25" y="136.1543">LevelManager</text><line style="stroke: #A80036; stroke-width: 1.5;" x1="7" x2="301" y1="148" y2="148"/><rect fill="none" height="6" style="stroke: #C82930; stroke-width: 1.0;" width="6" x="14" y="156"/><text fill="#000000" font-family="sans-serif" font-size="11" lengthAdjust="spacingAndGlyphs" textLength="96" x="26" y="162.2104">_finishScore : int</text><line style="stroke: #A80036; stroke-width: 1.5;" x1="7" x2="301" y1="168.8047" y2="168.8047"/><rect fill="#F24D5C" height="6" style="stroke: #C82930; stroke-width: 1.0;" width="6" x="14" y="176.8047"/><text fill="#000000" font-family="sans-serif" font-size="11" lengthAdjust="spacingAndGlyphs" textLength="79" x="26" y="183.0151">Awake() : void</text><ellipse cx="17" cy="192.6094" fill="#84BE84" rx="3" ry="3" style="stroke: #038048; stroke-width: 1.0;"/><text fill="#000000" font-family="sans-serif" font-size="11" lengthAdjust="spacingAndGlyphs" textLength="270" x="26" y="195.8198">RegisterPlayer(player:PlayerController2D) : void</text><ellipse cx="17" cy="205.4141" fill="#84BE84" rx="3" ry="3" style="stroke: #038048; stroke-width: 1.0;"/><text fill="#000000" font-family="sans-serif" font-size="11" lengthAdjust="spacingAndGlyphs" textLength="177" x="26" y="208.6245">GameOver(finished:bool) : void</text><!--MD5=[e644022de7dea015dd09463c37421447]
class List`1--><rect fill="#FEFECE" filter="url(#f1prjjsixrtouy)" height="48" id="List`1" style="stroke: #A80036; stroke-width: 1.5;" width="78" x="373" y="141.5"/><ellipse cx="388" cy="157.5" fill="#ADD1B2" rx="11" ry="11" style="stroke: #A80036; stroke-width: 1.0;"/><path d="M390.9688,163.1406 Q390.3906,163.4375 389.75,163.5781 Q389.1094,163.7344 388.4063,163.7344 Q385.9063,163.7344 384.5781,162.0938 Q383.2656,160.4375 383.2656,157.3125 Q383.2656,154.1875 384.5781,152.5313 Q385.9063,150.875 388.4063,150.875 Q389.1094,150.875 389.75,151.0313 Q390.4063,151.1875 390.9688,151.4844 L390.9688,154.2031 Q390.3438,153.625 389.75,153.3594 Q389.1563,153.0781 388.5313,153.0781 Q387.1875,153.0781 386.5,154.1563 Q385.8125,155.2188 385.8125,157.3125 Q385.8125,159.4063 386.5,160.4844 Q387.1875,161.5469 388.5313,161.5469 Q389.1563,161.5469 389.75,161.2813 Q390.3438,161 390.9688,160.4219 L390.9688,163.1406 Z "/><text fill="#000000" font-family="sans-serif" font-size="12" lengthAdjust="spacingAndGlyphs" textLength="35" x="402" y="161.6543">List`1</text><rect fill="#FFFFFF" height="15.9688" style="stroke: #000000; stroke-width: 1.0; stroke-dasharray: 2.0,2.0;" width="9" x="445" y="138.5"/><text fill="#000000" font-family="sans-serif" font-size="12" font-style="italic" lengthAdjust="spacingAndGlyphs" textLength="7" x="446" y="150.6387">T</text><line style="stroke: #A80036; stroke-width: 1.5;" x1="374" x2="450" y1="173.5" y2="173.5"/><line style="stroke: #A80036; stroke-width: 1.5;" x1="374" x2="450" y1="181.5" y2="181.5"/><!--MD5=[83b3cf3d23d77c6f1e1b5291a241bc2a]
class MonoBehaviour--><rect fill="#FEFECE" filter="url(#f1prjjsixrtouy)" height="48" id="MonoBehaviour" style="stroke: #A80036; stroke-width: 1.5;" width="128" x="90" y="8"/><ellipse cx="105" cy="24" fill="#ADD1B2" rx="11" ry="11" style="stroke: #A80036; stroke-width: 1.0;"/><path d="M107.9688,29.6406 Q107.3906,29.9375 106.75,30.0781 Q106.1094,30.2344 105.4063,30.2344 Q102.9063,30.2344 101.5781,28.5938 Q100.2656,26.9375 100.2656,23.8125 Q100.2656,20.6875 101.5781,19.0313 Q102.9063,17.375 105.4063,17.375 Q106.1094,17.375 106.75,17.5313 Q107.4063,17.6875 107.9688,17.9844 L107.9688,20.7031 Q107.3438,20.125 106.75,19.8594 Q106.1563,19.5781 105.5313,19.5781 Q104.1875,19.5781 103.5,20.6563 Q102.8125,21.7188 102.8125,23.8125 Q102.8125,25.9063 103.5,26.9844 Q104.1875,28.0469 105.5313,28.0469 Q106.1563,28.0469 106.75,27.7813 Q107.3438,27.5 107.9688,26.9219 L107.9688,29.6406 Z "/><text fill="#000000" font-family="sans-serif" font-size="12" lengthAdjust="spacingAndGlyphs" textLength="96" x="119" y="28.1543">MonoBehaviour</text><line style="stroke: #A80036; stroke-width: 1.5;" x1="91" x2="217" y1="40" y2="40"/><line style="stroke: #A80036; stroke-width: 1.5;" x1="91" x2="217" y1="48" y2="48"/><!--MD5=[004b1d6c4ca8aad4ba8b586a335ed4f3]
class Transform--><rect fill="#FEFECE" filter="url(#f1prjjsixrtouy)" height="48" id="Transform" style="stroke: #A80036; stroke-width: 1.5;" width="95" x="106.5" y="275"/><ellipse cx="121.5" cy="291" fill="#ADD1B2" rx="11" ry="11" style="stroke: #A80036; stroke-width: 1.0;"/><path d="M124.4688,296.6406 Q123.8906,296.9375 123.25,297.0781 Q122.6094,297.2344 121.9063,297.2344 Q119.4063,297.2344 118.0781,295.5938 Q116.7656,293.9375 116.7656,290.8125 Q116.7656,287.6875 118.0781,286.0313 Q119.4063,284.375 121.9063,284.375 Q122.6094,284.375 123.25,284.5313 Q123.9063,284.6875 124.4688,284.9844 L124.4688,287.7031 Q123.8438,287.125 123.25,286.8594 Q122.6563,286.5781 122.0313,286.5781 Q120.6875,286.5781 120,287.6563 Q119.3125,288.7188 119.3125,290.8125 Q119.3125,292.9063 120,293.9844 Q120.6875,295.0469 122.0313,295.0469 Q122.6563,295.0469 123.25,294.7813 Q123.8438,294.5 124.4688,293.9219 L124.4688,296.6406 Z "/><text fill="#000000" font-family="sans-serif" font-size="12" lengthAdjust="spacingAndGlyphs" textLength="63" x="135.5" y="295.1543">Transform</text><line style="stroke: #A80036; stroke-width: 1.5;" x1="107.5" x2="200.5" y1="307" y2="307"/><line style="stroke: #A80036; stroke-width: 1.5;" x1="107.5" x2="200.5" y1="315" y2="315"/><!--MD5=[a39d83125e3b98131e07eb3010c432eb]
class GameOverMenu--><rect fill="#FEFECE" filter="url(#f1prjjsixrtouy)" height="48" id="GameOverMenu" style="stroke: #A80036; stroke-width: 1.5;" width="130" x="237" y="275"/><ellipse cx="252" cy="291" fill="#ADD1B2" rx="11" ry="11" style="stroke: #A80036; stroke-width: 1.0;"/><path d="M254.9688,296.6406 Q254.3906,296.9375 253.75,297.0781 Q253.1094,297.2344 252.4063,297.2344 Q249.9063,297.2344 248.5781,295.5938 Q247.2656,293.9375 247.2656,290.8125 Q247.2656,287.6875 248.5781,286.0313 Q249.9063,284.375 252.4063,284.375 Q253.1094,284.375 253.75,284.5313 Q254.4063,284.6875 254.9688,284.9844 L254.9688,287.7031 Q254.3438,287.125 253.75,286.8594 Q253.1563,286.5781 252.5313,286.5781 Q251.1875,286.5781 250.5,287.6563 Q249.8125,288.7188 249.8125,290.8125 Q249.8125,292.9063 250.5,293.9844 Q251.1875,295.0469 252.5313,295.0469 Q253.1563,295.0469 253.75,294.7813 Q254.3438,294.5 254.9688,293.9219 L254.9688,296.6406 Z "/><text fill="#000000" font-family="sans-serif" font-size="12" lengthAdjust="spacingAndGlyphs" textLength="98" x="266" y="295.1543">GameOverMenu</text><line style="stroke: #A80036; stroke-width: 1.5;" x1="238" x2="366" y1="307" y2="307"/><line style="stroke: #A80036; stroke-width: 1.5;" x1="238" x2="366" y1="315" y2="315"/><!--MD5=[546ad7cb89003b47120bc70e4cc56151]
reverse link MonoBehaviour to LevelManager--><path d="M154,76.51 C154,89.14 154,103.01 154,115.93 " fill="none" id="MonoBehaviour&lt;-LevelManager" style="stroke: #A80036; stroke-width: 1.0;"/><polygon fill="none" points="147,76.21,154,56.21,161,76.21,147,76.21" style="stroke: #A80036; stroke-width: 1.0;"/><!--MD5=[c8a5d548670b6be24c424fbc70abb7b3]
link LevelManager to LevelManager--><path d="M302.27,154.43 C323.07,156.23 337,159.92 337,165.5 C337,170.6 325.36,174.12 307.48,176.07 " fill="none" id="LevelManager-&gt;LevelManager" style="stroke: #A80036; stroke-width: 1.0;"/><polygon fill="#A80036" points="302.27,176.57,311.6163,179.6759,307.2463,176.0838,310.8384,171.7138,302.27,176.57" style="stroke: #A80036; stroke-width: 1.0;"/><text fill="#000000" font-family="sans-serif" font-size="13" lengthAdjust="spacingAndGlyphs" textLength="54" x="310.2119" y="173.7967">Instance</text><!--MD5=[c8a5d548670b6be24c424fbc70abb7b3]
link LevelManager to LevelManager--><path d="M302.25,140.95 C341.9,142.3 372,150.48 372,165.5 C372,179.87 344.43,187.99 307.31,189.84 " fill="none" id="LevelManager-&gt;LevelManager-1" style="stroke: #A80036; stroke-width: 1.0;"/><polygon fill="#A80036" points="302.25,190.05,311.413,193.661,307.2454,189.8359,311.0705,185.6683,302.25,190.05" style="stroke: #A80036; stroke-width: 1.0;"/><text fill="#000000" font-family="sans-serif" font-size="13" lengthAdjust="spacingAndGlyphs" textLength="61" x="304.0767" y="206.1341">_instance</text><!--MD5=[1617bb0b8a9e6840764cf23c967b960c]
link LevelManager to List`1--><path d="M302.15,201.81 C324.18,199.92 346.22,194.79 368.25,186.41 " fill="none" id="LevelManager-&gt;List`1" style="stroke: #A80036; stroke-width: 1.0;"/><polygon fill="#A80036" points="372.95,184.57,363.1119,184.1098,368.2911,186.385,366.0159,191.5641,372.95,184.57" style="stroke: #A80036; stroke-width: 1.0;"/><text fill="#000000" font-family="sans-serif" font-size="13" lengthAdjust="spacingAndGlyphs" textLength="187" x="399.4944" y="209.6221">Players&lt;PlayerController2D&gt;</text><!--MD5=[1617bb0b8a9e6840764cf23c967b960c]
link LevelManager to List`1--><path d="M314.0729,130.5485 C314.0729,130.5485 345.55,136.59 360.76,141.86 " fill="none" id="LevelManager-List`1" style="stroke: #A80036; stroke-width: 1.0;"/><polygon fill="#A80036" points="372.95,146.43,365.924,139.5282,368.2675,144.6768,363.1188,147.0203,372.95,146.43" style="stroke: #A80036; stroke-width: 1.0;"/><line style="stroke: #A80036; stroke-width: 1.0;" x1="368.2675" x2="360.775" y1="144.6768" y2="141.87"/><polygon fill="#FFFFFF" points="302.15,129.19,307.6586,133.8435,314.0729,130.5485,308.5643,125.8949,302.15,129.19" style="stroke: #A80036; stroke-width: 1.0;"/><text fill="#000000" font-family="sans-serif" font-size="13" lengthAdjust="spacingAndGlyphs" textLength="194" x="401.2006" y="130.5764">_players&lt;PlayerController2D&gt;</text><!--MD5=[57e71ce1ebfbf863b10b48d576e6cfa8]
link LevelManager to Transform--><path d="M116.21,215.09 C113.54,233.66 115.29,254.18 121.46,270.17 " fill="none" id="LevelManager-&gt;Transform" style="stroke: #A80036; stroke-width: 1.0;"/><polygon fill="#A80036" points="123.51,274.98,123.6413,265.132,121.5404,270.3843,116.2881,268.2834,123.51,274.98" style="stroke: #A80036; stroke-width: 1.0;"/><text fill="#000000" font-family="sans-serif" font-size="13" lengthAdjust="spacingAndGlyphs" textLength="35" x="76.2126" y="263.9869">Laser</text><!--MD5=[57e71ce1ebfbf863b10b48d576e6cfa8]
link LevelManager to Transform--><path d="M141.64,215.09 C140.78,233.5 141.34,253.83 143.31,269.75 " fill="none" id="LevelManager-&gt;Transform-1" style="stroke: #A80036; stroke-width: 1.0;"/><polygon fill="#A80036" points="144.03,274.98,146.7591,265.5168,143.3449,270.0272,138.8345,266.613,144.03,274.98" style="stroke: #A80036; stroke-width: 1.0;"/><text fill="#000000" font-family="sans-serif" font-size="13" lengthAdjust="spacingAndGlyphs" textLength="36" x="146.0877" y="263.9869">Finish</text><!--MD5=[57e71ce1ebfbf863b10b48d576e6cfa8]
link LevelManager to Transform--><path d="M167.08,215.09 C168,233.5 167.41,253.83 165.32,269.75 " fill="none" id="LevelManager-&gt;Transform-2" style="stroke: #A80036; stroke-width: 1.0;"/><polygon fill="#A80036" points="164.55,274.98,169.7961,266.6446,165.2651,270.0314,161.8783,265.5004,164.55,274.98" style="stroke: #A80036; stroke-width: 1.0;"/><text fill="#000000" font-family="sans-serif" font-size="13" lengthAdjust="spacingAndGlyphs" textLength="38" x="172.1222" y="263.9869">_laser</text><!--MD5=[57e71ce1ebfbf863b10b48d576e6cfa8]
link LevelManager to Transform--><path d="M192.52,215.09 C195.24,233.66 193.45,254.18 187.17,270.17 " fill="none" id="LevelManager-&gt;Transform-3" style="stroke: #A80036; stroke-width: 1.0;"/><polygon fill="#A80036" points="185.07,274.98,192.342,268.3379,187.0741,270.3992,185.0127,265.1313,185.07,274.98" style="stroke: #A80036; stroke-width: 1.0;"/><text fill="#000000" font-family="sans-serif" font-size="13" lengthAdjust="spacingAndGlyphs" textLength="40" x="188.8068" y="271.8363">_finish</text><!--MD5=[5dc16c204b7a66b23c6e7c1c6ca60416]
link LevelManager to GameOverMenu--><path d="M208.69,215.09 C230.12,234.14 253.88,255.25 272.06,271.4 " fill="none" id="LevelManager-&gt;GameOverMenu" style="stroke: #A80036; stroke-width: 1.0;"/><polygon fill="#A80036" points="276.09,274.98,272.0208,266.0111,272.353,271.6582,266.7059,271.9904,276.09,274.98" style="stroke: #A80036; stroke-width: 1.0;"/><text fill="#000000" font-family="sans-serif" font-size="13" lengthAdjust="spacingAndGlyphs" textLength="109" x="283.4162" y="263.9869">_gameOverMenu</text><!--MD5=[bde37d8064704f9b1a6ca85627fd3d41]
@startuml
class LevelManager {
    - _finishScore : int
    - Awake() : void
    + RegisterPlayer(player:PlayerController2D) : void
    + GameOver(finished:bool) : void
}
class "List`1"<T> {
}
MonoBehaviour <|- - LevelManager
LevelManager - -> "Instance" LevelManager
LevelManager - -> "_instance" LevelManager
LevelManager - -> "Players<PlayerController2D>" "List`1"
LevelManager - -> "Laser" Transform
LevelManager - -> "Finish" Transform
LevelManager - -> "_laser" Transform
LevelManager - -> "_finish" Transform
LevelManager - -> "_gameOverMenu" GameOverMenu
LevelManager o-> "_players<PlayerController2D>" "List`1"
@enduml

PlantUML version 1.2020.02(Sun Mar 01 10:22:07 GMT 2020)
(GPL source distribution)
Java Runtime: OpenJDK Runtime Environment
JVM: OpenJDK 64-Bit Server VM
Java Version: 11.0.9+11-Ubuntu-0ubuntu1
Operating System: Linux
Default Encoding: ANSI_X3.4-1968
Language: en
Country: US
--></g></svg>