<?xml version="1.0" encoding="UTF-8" standalone="no"?><svg xmlns="http://www.w3.org/2000/svg" xmlns:xlink="http://www.w3.org/1999/xlink" contentScriptType="application/ecmascript" contentStyleType="text/css" height="309px" preserveAspectRatio="none" style="width:528px;height:309px;" version="1.1" viewBox="0 0 528 309" width="528px" zoomAndPan="magnify"><defs><filter height="300%" id="f1ck7f90hoyans" width="300%" x="-1" y="-1"><feGaussianBlur result="blurOut" stdDeviation="2.0"/><feColorMatrix in="blurOut" result="blurOut2" type="matrix" values="0 0 0 0 0 0 0 0 0 0 0 0 0 0 0 0 0 0 .4 0"/><feOffset dx="4.0" dy="4.0" in="blurOut2" result="blurOut3"/><feBlend in="SourceGraphic" in2="blurOut3" mode="normal"/></filter></defs><g><!--MD5=[d58cd89bfda90fd9d726e8ec4bd8f94f]
class LevelManager--><rect fill="#FEFECE" filter="url(#f1ck7f90hoyans)" height="73.6094" id="LevelManager" style="stroke: #A80036; stroke-width: 1.5;" width="296" x="158.27" y="116"/><ellipse cx="259.02" cy="132" fill="#ADD1B2" rx="11" ry="11" style="stroke: #A80036; stroke-width: 1.0;"/><path d="M261.9888,137.6406 Q261.4106,137.9375 260.77,138.0781 Q260.1294,138.2344 259.4263,138.2344 Q256.9263,138.2344 255.5981,136.5938 Q254.2856,134.9375 254.2856,131.8125 Q254.2856,128.6875 255.5981,127.0313 Q256.9263,125.375 259.4263,125.375 Q260.1294,125.375 260.77,125.5313 Q261.4263,125.6875 261.9888,125.9844 L261.9888,128.7031 Q261.3638,128.125 260.77,127.8594 Q260.1763,127.5781 259.5513,127.5781 Q258.2075,127.5781 257.52,128.6563 Q256.8325,129.7188 256.8325,131.8125 Q256.8325,133.9063 257.52,134.9844 Q258.2075,136.0469 259.5513,136.0469 Q260.1763,136.0469 260.77,135.7813 Q261.3638,135.5 261.9888,134.9219 L261.9888,137.6406 Z "/><text fill="#000000" font-family="sans-serif" font-size="12" lengthAdjust="spacingAndGlyphs" textLength="86" x="279.52" y="136.1543">LevelManager</text><line style="stroke: #A80036; stroke-width: 1.5;" x1="159.27" x2="453.27" y1="148" y2="148"/><line style="stroke: #A80036; stroke-width: 1.5;" x1="159.27" x2="453.27" y1="156" y2="156"/><ellipse cx="169.27" cy="167" fill="#84BE84" rx="3" ry="3" style="stroke: #038048; stroke-width: 1.0;"/><text fill="#000000" font-family="sans-serif" font-size="11" lengthAdjust="spacingAndGlyphs" textLength="270" x="178.27" y="170.2104">RegisterPlayer(player:PlayerController2D) : void</text><ellipse cx="169.27" cy="179.8047" fill="#84BE84" rx="3" ry="3" style="stroke: #038048; stroke-width: 1.0;"/><text fill="#000000" font-family="sans-serif" font-size="11" lengthAdjust="spacingAndGlyphs" textLength="177" x="178.27" y="183.0151">GameOver(finished:bool) : void</text><!--MD5=[e644022de7dea015dd09463c37421447]
class List`1--><rect fill="#FEFECE" filter="url(#f1ck7f90hoyans)" height="48" id="List`1" style="stroke: #A80036; stroke-width: 1.5;" width="78" x="145.27" y="250"/><ellipse cx="160.27" cy="266" fill="#ADD1B2" rx="11" ry="11" style="stroke: #A80036; stroke-width: 1.0;"/><path d="M163.2387,271.6406 Q162.6606,271.9375 162.02,272.0781 Q161.3794,272.2344 160.6762,272.2344 Q158.1762,272.2344 156.8481,270.5938 Q155.5356,268.9375 155.5356,265.8125 Q155.5356,262.6875 156.8481,261.0313 Q158.1762,259.375 160.6762,259.375 Q161.3794,259.375 162.02,259.5313 Q162.6762,259.6875 163.2387,259.9844 L163.2387,262.7031 Q162.6137,262.125 162.02,261.8594 Q161.4262,261.5781 160.8012,261.5781 Q159.4575,261.5781 158.77,262.6563 Q158.0825,263.7188 158.0825,265.8125 Q158.0825,267.9063 158.77,268.9844 Q159.4575,270.0469 160.8012,270.0469 Q161.4262,270.0469 162.02,269.7813 Q162.6137,269.5 163.2387,268.9219 L163.2387,271.6406 Z "/><text fill="#000000" font-family="sans-serif" font-size="12" lengthAdjust="spacingAndGlyphs" textLength="35" x="174.27" y="270.1543">List`1</text><rect fill="#FFFFFF" height="15.9688" style="stroke: #000000; stroke-width: 1.0; stroke-dasharray: 2.0,2.0;" width="9" x="217.27" y="247"/><text fill="#000000" font-family="sans-serif" font-size="12" font-style="italic" lengthAdjust="spacingAndGlyphs" textLength="7" x="218.27" y="259.1387">T</text><line style="stroke: #A80036; stroke-width: 1.5;" x1="146.27" x2="222.27" y1="282" y2="282"/><line style="stroke: #A80036; stroke-width: 1.5;" x1="146.27" x2="222.27" y1="290" y2="290"/><!--MD5=[83b3cf3d23d77c6f1e1b5291a241bc2a]
class MonoBehaviour--><rect fill="#FEFECE" filter="url(#f1ck7f90hoyans)" height="48" id="MonoBehaviour" style="stroke: #A80036; stroke-width: 1.5;" width="128" x="242.27" y="8"/><ellipse cx="257.27" cy="24" fill="#ADD1B2" rx="11" ry="11" style="stroke: #A80036; stroke-width: 1.0;"/><path d="M260.2388,29.6406 Q259.6606,29.9375 259.02,30.0781 Q258.3794,30.2344 257.6763,30.2344 Q255.1762,30.2344 253.8481,28.5938 Q252.5356,26.9375 252.5356,23.8125 Q252.5356,20.6875 253.8481,19.0313 Q255.1762,17.375 257.6763,17.375 Q258.3794,17.375 259.02,17.5313 Q259.6763,17.6875 260.2388,17.9844 L260.2388,20.7031 Q259.6138,20.125 259.02,19.8594 Q258.4263,19.5781 257.8013,19.5781 Q256.4575,19.5781 255.77,20.6563 Q255.0825,21.7188 255.0825,23.8125 Q255.0825,25.9063 255.77,26.9844 Q256.4575,28.0469 257.8013,28.0469 Q258.4263,28.0469 259.02,27.7813 Q259.6138,27.5 260.2388,26.9219 L260.2388,29.6406 Z "/><text fill="#000000" font-family="sans-serif" font-size="12" lengthAdjust="spacingAndGlyphs" textLength="96" x="271.27" y="28.1543">MonoBehaviour</text><line style="stroke: #A80036; stroke-width: 1.5;" x1="243.27" x2="369.27" y1="40" y2="40"/><line style="stroke: #A80036; stroke-width: 1.5;" x1="243.27" x2="369.27" y1="48" y2="48"/><!--MD5=[004b1d6c4ca8aad4ba8b586a335ed4f3]
class Transform--><rect fill="#FEFECE" filter="url(#f1ck7f90hoyans)" height="48" id="Transform" style="stroke: #A80036; stroke-width: 1.5;" width="95" x="258.77" y="250"/><ellipse cx="273.77" cy="266" fill="#ADD1B2" rx="11" ry="11" style="stroke: #A80036; stroke-width: 1.0;"/><path d="M276.7388,271.6406 Q276.1606,271.9375 275.52,272.0781 Q274.8794,272.2344 274.1763,272.2344 Q271.6763,272.2344 270.3481,270.5938 Q269.0356,268.9375 269.0356,265.8125 Q269.0356,262.6875 270.3481,261.0313 Q271.6763,259.375 274.1763,259.375 Q274.8794,259.375 275.52,259.5313 Q276.1763,259.6875 276.7388,259.9844 L276.7388,262.7031 Q276.1138,262.125 275.52,261.8594 Q274.9263,261.5781 274.3013,261.5781 Q272.9575,261.5781 272.27,262.6563 Q271.5825,263.7188 271.5825,265.8125 Q271.5825,267.9063 272.27,268.9844 Q272.9575,270.0469 274.3013,270.0469 Q274.9263,270.0469 275.52,269.7813 Q276.1138,269.5 276.7388,268.9219 L276.7388,271.6406 Z "/><text fill="#000000" font-family="sans-serif" font-size="12" lengthAdjust="spacingAndGlyphs" textLength="63" x="287.77" y="270.1543">Transform</text><line style="stroke: #A80036; stroke-width: 1.5;" x1="259.77" x2="352.77" y1="282" y2="282"/><line style="stroke: #A80036; stroke-width: 1.5;" x1="259.77" x2="352.77" y1="290" y2="290"/><!--MD5=[546ad7cb89003b47120bc70e4cc56151]
reverse link MonoBehaviour to LevelManager--><path d="M306.27,76.43 C306.27,89.33 306.27,103.32 306.27,115.71 " fill="none" id="MonoBehaviour&lt;-LevelManager" style="stroke: #A80036; stroke-width: 1.0;"/><polygon fill="none" points="299.27,76.23,306.27,56.23,313.27,76.23,299.27,76.23" style="stroke: #A80036; stroke-width: 1.0;"/><!--MD5=[c8a5d548670b6be24c424fbc70abb7b3]
link LevelManager to LevelManager--><path d="M454.54,132.87 C475.34,136.15 489.27,142.86 489.27,153 C489.27,162.27 477.63,168.67 459.75,172.21 " fill="none" id="LevelManager-&gt;LevelManager" style="stroke: #A80036; stroke-width: 1.0;"/><polygon fill="#A80036" points="454.54,173.13,464.1002,175.4971,459.4632,172.257,462.7033,167.62,454.54,173.13" style="stroke: #A80036; stroke-width: 1.0;"/><text fill="#000000" font-family="sans-serif" font-size="13" lengthAdjust="spacingAndGlyphs" textLength="54" x="462.4819" y="170.7811">Instance</text><!--MD5=[1617bb0b8a9e6840764cf23c967b960c]
link LevelManager to List`1--><path d="M269.33,190.03 C250.81,208.09 228.77,229.59 211.77,246.17 " fill="none" id="LevelManager-&gt;List`1" style="stroke: #A80036; stroke-width: 1.0;"/><polygon fill="#A80036" points="208,249.85,217.2346,246.4264,211.5782,246.3577,211.6469,240.7012,208,249.85" style="stroke: #A80036; stroke-width: 1.0;"/><text fill="#000000" font-family="sans-serif" font-size="13" lengthAdjust="spacingAndGlyphs" textLength="187" x="3.1214" y="238.8236">Players&lt;PlayerController2D&gt;</text><!--MD5=[57e71ce1ebfbf863b10b48d576e6cfa8]
link LevelManager to Transform--><path d="M294.44,190.03 C292.99,207.48 293.25,228.15 295.2,244.49 " fill="none" id="LevelManager-&gt;Transform" style="stroke: #A80036; stroke-width: 1.0;"/><polygon fill="#A80036" points="295.93,249.85,298.6858,240.3946,295.2589,244.8952,290.7582,241.4683,295.93,249.85" style="stroke: #A80036; stroke-width: 1.0;"/><text fill="#000000" font-family="sans-serif" font-size="13" lengthAdjust="spacingAndGlyphs" textLength="35" x="253.796" y="238.8236">Laser</text><!--MD5=[57e71ce1ebfbf863b10b48d576e6cfa8]
link LevelManager to Transform--><path d="M318.79,190.03 C320.32,207.48 320.05,228.15 317.99,244.49 " fill="none" id="LevelManager-&gt;Transform-1" style="stroke: #A80036; stroke-width: 1.0;"/><polygon fill="#A80036" points="317.22,249.85,322.4627,241.5125,317.9331,244.9011,314.5445,240.3715,317.22,249.85" style="stroke: #A80036; stroke-width: 1.0;"/><text fill="#000000" font-family="sans-serif" font-size="13" lengthAdjust="spacingAndGlyphs" textLength="36" x="324.6384" y="238.8236">Finish</text><!--MD5=[6b42abf3fd834c533f46fefeb58a9bf6]
@startuml
class LevelManager {
    + RegisterPlayer(player:PlayerController2D) : void
    + GameOver(finished:bool) : void
}
class "List`1"<T> {
}
MonoBehaviour <|- - LevelManager
LevelManager - -> "Instance" LevelManager
LevelManager - -> "Players<PlayerController2D>" "List`1"
LevelManager - -> "Laser" Transform
LevelManager - -> "Finish" Transform
@enduml

PlantUML version 1.2020.02(Sun Mar 01 10:22:07 GMT 2020)
(GPL source distribution)
Java Runtime: OpenJDK Runtime Environment
JVM: OpenJDK 64-Bit Server VM
Java Version: 11.0.9+11-Ubuntu-0ubuntu1
Operating System: Linux
Default Encoding: ANSI_X3.4-1968
Language: en
Country: US
--></g></svg>