<?xml version="1.0" encoding="UTF-8" standalone="no"?><svg xmlns="http://www.w3.org/2000/svg" xmlns:xlink="http://www.w3.org/1999/xlink" contentScriptType="application/ecmascript" contentStyleType="text/css" height="347px" preserveAspectRatio="none" style="width:1052px;height:347px;" version="1.1" viewBox="0 0 1052 347" width="1052px" zoomAndPan="magnify"><defs><filter height="300%" id="furn4ky0b7755" width="300%" x="-1" y="-1"><feGaussianBlur result="blurOut" stdDeviation="2.0"/><feColorMatrix in="blurOut" result="blurOut2" type="matrix" values="0 0 0 0 0 0 0 0 0 0 0 0 0 0 0 0 0 0 .4 0"/><feOffset dx="4.0" dy="4.0" in="blurOut2" result="blurOut3"/><feBlend in="SourceGraphic" in2="blurOut3" mode="normal"/></filter></defs><g><!--MD5=[1d857e7a4e62ccc0f22e5de141732628]
class PlayerSpawner--><rect fill="#FEFECE" filter="url(#furn4ky0b7755)" height="112.0234" id="PlayerSpawner" style="stroke: #A80036; stroke-width: 1.5;" width="1035" x="6" y="116"/><ellipse cx="473.25" cy="132" fill="#ADD1B2" rx="11" ry="11" style="stroke: #A80036; stroke-width: 1.0;"/><path d="M476.2188,137.6406 Q475.6406,137.9375 475,138.0781 Q474.3594,138.2344 473.6563,138.2344 Q471.1563,138.2344 469.8281,136.5938 Q468.5156,134.9375 468.5156,131.8125 Q468.5156,128.6875 469.8281,127.0313 Q471.1563,125.375 473.6563,125.375 Q474.3594,125.375 475,125.5313 Q475.6563,125.6875 476.2188,125.9844 L476.2188,128.7031 Q475.5938,128.125 475,127.8594 Q474.4063,127.5781 473.7813,127.5781 Q472.4375,127.5781 471.75,128.6563 Q471.0625,129.7188 471.0625,131.8125 Q471.0625,133.9063 471.75,134.9844 Q472.4375,136.0469 473.7813,136.0469 Q474.4063,136.0469 475,135.7813 Q475.5938,135.5 476.2188,134.9219 L476.2188,137.6406 Z "/><text fill="#000000" font-family="sans-serif" font-size="12" lengthAdjust="spacingAndGlyphs" textLength="92" x="493.75" y="136.1543">PlayerSpawner</text><line style="stroke: #A80036; stroke-width: 1.5;" x1="7" x2="1040" y1="148" y2="148"/><rect fill="none" height="6" style="stroke: #C82930; stroke-width: 1.0;" width="6" x="14" y="156"/><text fill="#000000" font-family="sans-serif" font-size="11" lengthAdjust="spacingAndGlyphs" textLength="123" x="26" y="162.2104">_spawnIndex : int = 0</text><line style="stroke: #A80036; stroke-width: 1.5;" x1="7" x2="1040" y1="168.8047" y2="168.8047"/><ellipse cx="17" cy="179.8047" fill="#84BE84" rx="3" ry="3" style="stroke: #038048; stroke-width: 1.0;"/><text fill="#000000" font-family="sans-serif" font-size="11" lengthAdjust="spacingAndGlyphs" textLength="208" x="26" y="183.0151">«override» OnNetworkSpawn() : void</text><rect fill="#F24D5C" height="6" style="stroke: #C82930; stroke-width: 1.0;" width="6" x="14" y="189.6094"/><text fill="#000000" font-family="sans-serif" font-size="11" lengthAdjust="spacingAndGlyphs" textLength="273" x="26" y="195.8198">OnClientConnectedCallback(clientId:ulong) : void</text><rect fill="#F24D5C" height="6" style="stroke: #C82930; stroke-width: 1.0;" width="6" x="14" y="202.4141"/><text fill="#000000" font-family="sans-serif" font-size="11" lengthAdjust="spacingAndGlyphs" textLength="1009" x="26" y="208.6245">OnLoadEventCompleted(sceneName:string, loadSceneMode:UnityEngine.SceneManagement.LoadSceneMode, clientsCompleted:List&lt;ulong&gt;, clientsTimedOut:List&lt;ulong&gt;) : void</text><rect fill="#F24D5C" height="6" style="stroke: #C82930; stroke-width: 1.0;" width="6" x="14" y="215.2188"/><text fill="#000000" font-family="sans-serif" font-size="11" lengthAdjust="spacingAndGlyphs" textLength="191" x="26" y="221.4292">SpawnPlayer(clientId:ulong) : void</text><!--MD5=[be62f0ac78b5cca9d2b2f8a4bd540407]
class NetworkBehaviour--><rect fill="#FEFECE" filter="url(#furn4ky0b7755)" height="48" id="NetworkBehaviour" style="stroke: #A80036; stroke-width: 1.5;" width="145" x="451" y="8"/><ellipse cx="466" cy="24" fill="#ADD1B2" rx="11" ry="11" style="stroke: #A80036; stroke-width: 1.0;"/><path d="M468.9688,29.6406 Q468.3906,29.9375 467.75,30.0781 Q467.1094,30.2344 466.4063,30.2344 Q463.9063,30.2344 462.5781,28.5938 Q461.2656,26.9375 461.2656,23.8125 Q461.2656,20.6875 462.5781,19.0313 Q463.9063,17.375 466.4063,17.375 Q467.1094,17.375 467.75,17.5313 Q468.4063,17.6875 468.9688,17.9844 L468.9688,20.7031 Q468.3438,20.125 467.75,19.8594 Q467.1563,19.5781 466.5313,19.5781 Q465.1875,19.5781 464.5,20.6563 Q463.8125,21.7188 463.8125,23.8125 Q463.8125,25.9063 464.5,26.9844 Q465.1875,28.0469 466.5313,28.0469 Q467.1563,28.0469 467.75,27.7813 Q468.3438,27.5 468.9688,26.9219 L468.9688,29.6406 Z "/><text fill="#000000" font-family="sans-serif" font-size="12" lengthAdjust="spacingAndGlyphs" textLength="113" x="480" y="28.1543">NetworkBehaviour</text><line style="stroke: #A80036; stroke-width: 1.5;" x1="452" x2="595" y1="40" y2="40"/><line style="stroke: #A80036; stroke-width: 1.5;" x1="452" x2="595" y1="48" y2="48"/><!--MD5=[064f7a74fee85463ec1a30143664ee17]
class GameObject--><rect fill="#FEFECE" filter="url(#furn4ky0b7755)" height="48" id="GameObject" style="stroke: #A80036; stroke-width: 1.5;" width="108" x="469.5" y="288"/><ellipse cx="484.5" cy="304" fill="#ADD1B2" rx="11" ry="11" style="stroke: #A80036; stroke-width: 1.0;"/><path d="M487.4688,309.6406 Q486.8906,309.9375 486.25,310.0781 Q485.6094,310.2344 484.9063,310.2344 Q482.4063,310.2344 481.0781,308.5938 Q479.7656,306.9375 479.7656,303.8125 Q479.7656,300.6875 481.0781,299.0313 Q482.4063,297.375 484.9063,297.375 Q485.6094,297.375 486.25,297.5313 Q486.9063,297.6875 487.4688,297.9844 L487.4688,300.7031 Q486.8438,300.125 486.25,299.8594 Q485.6563,299.5781 485.0313,299.5781 Q483.6875,299.5781 483,300.6563 Q482.3125,301.7188 482.3125,303.8125 Q482.3125,305.9063 483,306.9844 Q483.6875,308.0469 485.0313,308.0469 Q485.6563,308.0469 486.25,307.7813 Q486.8438,307.5 487.4688,306.9219 L487.4688,309.6406 Z "/><text fill="#000000" font-family="sans-serif" font-size="12" lengthAdjust="spacingAndGlyphs" textLength="76" x="498.5" y="308.1543">GameObject</text><line style="stroke: #A80036; stroke-width: 1.5;" x1="470.5" x2="576.5" y1="320" y2="320"/><line style="stroke: #A80036; stroke-width: 1.5;" x1="470.5" x2="576.5" y1="328" y2="328"/><!--MD5=[c585526a4c4e38e6d6cdf0b6d9e6eeb9]
reverse link NetworkBehaviour to PlayerSpawner--><path d="M523.5,76.25 C523.5,88.82 523.5,102.73 523.5,115.93 " fill="none" id="NetworkBehaviour&lt;-PlayerSpawner" style="stroke: #A80036; stroke-width: 1.0;"/><polygon fill="none" points="516.5,76.1,523.5,56.1,530.5,76.1,516.5,76.1" style="stroke: #A80036; stroke-width: 1.0;"/><!--MD5=[46145d964f31171e90bfeea715a478c5]
link PlayerSpawner to GameObject--><path d="M523.5,228.33 C523.5,246.93 523.5,266.9 523.5,282.56 " fill="none" id="PlayerSpawner-&gt;GameObject" style="stroke: #A80036; stroke-width: 1.0;"/><polygon fill="#A80036" points="523.5,287.69,527.5,278.69,523.5,282.69,519.5,278.69,523.5,287.69" style="stroke: #A80036; stroke-width: 1.0;"/><text fill="#000000" font-family="sans-serif" font-size="13" lengthAdjust="spacingAndGlyphs" textLength="87" x="425.8969" y="277.0194">_playerPrefab</text><!--MD5=[dc961300ae425b85f1495562cff02520]
@startuml
class PlayerSpawner {
    - _spawnIndex : int = 0
    + <<override>> OnNetworkSpawn() : void
    - OnClientConnectedCallback(clientId:ulong) : void
    - OnLoadEventCompleted(sceneName:string, loadSceneMode:UnityEngine.SceneManagement.LoadSceneMode, clientsCompleted:List<ulong>, clientsTimedOut:List<ulong>) : void
    - SpawnPlayer(clientId:ulong) : void
}
NetworkBehaviour <|- - PlayerSpawner
PlayerSpawner - -> "_playerPrefab" GameObject
@enduml

PlantUML version 1.2020.02(Sun Mar 01 10:22:07 GMT 2020)
(GPL source distribution)
Java Runtime: OpenJDK Runtime Environment
JVM: OpenJDK 64-Bit Server VM
Java Version: 11.0.9+11-Ubuntu-0ubuntu1
Operating System: Linux
Default Encoding: ANSI_X3.4-1968
Language: en
Country: US
--></g></svg>