<?xml version="1.0" encoding="UTF-8" standalone="no"?><svg xmlns="http://www.w3.org/2000/svg" xmlns:xlink="http://www.w3.org/1999/xlink" contentScriptType="application/ecmascript" contentStyleType="text/css" height="187px" preserveAspectRatio="none" style="width:251px;height:187px;" version="1.1" viewBox="0 0 251 187" width="251px" zoomAndPan="magnify"><defs><filter height="300%" id="f1por4hnkusfk3" width="300%" x="-1" y="-1"><feGaussianBlur result="blurOut" stdDeviation="2.0"/><feColorMatrix in="blurOut" result="blurOut2" type="matrix" values="0 0 0 0 0 0 0 0 0 0 0 0 0 0 0 0 0 0 .4 0"/><feOffset dx="4.0" dy="4.0" in="blurOut2" result="blurOut3"/><feBlend in="SourceGraphic" in2="blurOut3" mode="normal"/></filter></defs><g><!--MD5=[1d857e7a4e62ccc0f22e5de141732628]
class PlayerSpawner--><rect fill="#FEFECE" filter="url(#f1por4hnkusfk3)" height="60.8047" id="PlayerSpawner" style="stroke: #A80036; stroke-width: 1.5;" width="234" x="6" y="116"/><ellipse cx="72.75" cy="132" fill="#ADD1B2" rx="11" ry="11" style="stroke: #A80036; stroke-width: 1.0;"/><path d="M75.7188,137.6406 Q75.1406,137.9375 74.5,138.0781 Q73.8594,138.2344 73.1563,138.2344 Q70.6563,138.2344 69.3281,136.5938 Q68.0156,134.9375 68.0156,131.8125 Q68.0156,128.6875 69.3281,127.0313 Q70.6563,125.375 73.1563,125.375 Q73.8594,125.375 74.5,125.5313 Q75.1563,125.6875 75.7188,125.9844 L75.7188,128.7031 Q75.0938,128.125 74.5,127.8594 Q73.9063,127.5781 73.2813,127.5781 Q71.9375,127.5781 71.25,128.6563 Q70.5625,129.7188 70.5625,131.8125 Q70.5625,133.9063 71.25,134.9844 Q71.9375,136.0469 73.2813,136.0469 Q73.9063,136.0469 74.5,135.7813 Q75.0938,135.5 75.7188,134.9219 L75.7188,137.6406 Z "/><text fill="#000000" font-family="sans-serif" font-size="12" lengthAdjust="spacingAndGlyphs" textLength="92" x="93.25" y="136.1543">PlayerSpawner</text><line style="stroke: #A80036; stroke-width: 1.5;" x1="7" x2="239" y1="148" y2="148"/><line style="stroke: #A80036; stroke-width: 1.5;" x1="7" x2="239" y1="156" y2="156"/><ellipse cx="17" cy="167" fill="#84BE84" rx="3" ry="3" style="stroke: #038048; stroke-width: 1.0;"/><text fill="#000000" font-family="sans-serif" font-size="11" lengthAdjust="spacingAndGlyphs" textLength="208" x="26" y="170.2104">«override» OnNetworkSpawn() : void</text><!--MD5=[be62f0ac78b5cca9d2b2f8a4bd540407]
class NetworkBehaviour--><rect fill="#FEFECE" filter="url(#f1por4hnkusfk3)" height="48" id="NetworkBehaviour" style="stroke: #A80036; stroke-width: 1.5;" width="145" x="50.5" y="8"/><ellipse cx="65.5" cy="24" fill="#ADD1B2" rx="11" ry="11" style="stroke: #A80036; stroke-width: 1.0;"/><path d="M68.4688,29.6406 Q67.8906,29.9375 67.25,30.0781 Q66.6094,30.2344 65.9063,30.2344 Q63.4063,30.2344 62.0781,28.5938 Q60.7656,26.9375 60.7656,23.8125 Q60.7656,20.6875 62.0781,19.0313 Q63.4063,17.375 65.9063,17.375 Q66.6094,17.375 67.25,17.5313 Q67.9063,17.6875 68.4688,17.9844 L68.4688,20.7031 Q67.8438,20.125 67.25,19.8594 Q66.6563,19.5781 66.0313,19.5781 Q64.6875,19.5781 64,20.6563 Q63.3125,21.7188 63.3125,23.8125 Q63.3125,25.9063 64,26.9844 Q64.6875,28.0469 66.0313,28.0469 Q66.6563,28.0469 67.25,27.7813 Q67.8438,27.5 68.4688,26.9219 L68.4688,29.6406 Z "/><text fill="#000000" font-family="sans-serif" font-size="12" lengthAdjust="spacingAndGlyphs" textLength="113" x="79.5" y="28.1543">NetworkBehaviour</text><line style="stroke: #A80036; stroke-width: 1.5;" x1="51.5" x2="194.5" y1="40" y2="40"/><line style="stroke: #A80036; stroke-width: 1.5;" x1="51.5" x2="194.5" y1="48" y2="48"/><!--MD5=[c585526a4c4e38e6d6cdf0b6d9e6eeb9]
reverse link NetworkBehaviour to PlayerSpawner--><path d="M123,76.11 C123,89.31 123,103.54 123,115.65 " fill="none" id="NetworkBehaviour&lt;-PlayerSpawner" style="stroke: #A80036; stroke-width: 1.0;"/><polygon fill="none" points="116,76.04,123,56.04,130,76.04,116,76.04" style="stroke: #A80036; stroke-width: 1.0;"/><!--MD5=[76ecdcb085cf2bf1009476e6eb49ea64]
@startuml
class PlayerSpawner {
    + <<override>> OnNetworkSpawn() : void
}
NetworkBehaviour <|- - PlayerSpawner
@enduml

PlantUML version 1.2020.02(Sun Mar 01 10:22:07 GMT 2020)
(GPL source distribution)
Java Runtime: OpenJDK Runtime Environment
JVM: OpenJDK 64-Bit Server VM
Java Version: 11.0.9+11-Ubuntu-0ubuntu1
Operating System: Linux
Default Encoding: ANSI_X3.4-1968
Language: en
Country: US
--></g></svg>